<?xml version="1.0" encoding="UTF-8"?>
<svg width="576px" height="512px" viewBox="0 0 576 512" version="1.1" xmlns="http://www.w3.org/2000/svg" xmlns:xlink="http://www.w3.org/1999/xlink">
    <title>house-duotone</title>
    <g id="Page-1" stroke="none" stroke-width="1" fill="none" fill-rule="evenodd">
        <g id="house-duotone" fill="#5A57DD" fill-rule="nonzero">
            <path d="M288,72 L64,269.85 L64,480 C64,497.673112 78.326888,512 96,512 L480,512 C497.673112,512 512,497.673112 512,480 L512,269.85 L288,72 Z M352,330.66 C351.966973,342.443756 342.413791,351.983527 330.63,352 L245.34,352 C233.567923,351.96704 224.03296,342.432077 224,330.66 L224,245.32 C224.043933,233.555734 233.575698,224.032902 245.34,224 L330.63,224 C342.406014,224.016426 351.955989,233.544057 352,245.32 L352,330.66 Z" id="Shape" opacity="0.488151914"></path>
            <path d="M571.9,258.87 L550.49,282.68 C548.69,284.68 538.03,292.91 527.9,283.9 L288,72 L48.12,283.9 C38.82,292.27 28.31,285.8 25.53,282.7 L4.12,258.9 C-4.25,249.6 2.22,239.09 5.32,236.3 L261.32,10.3 C267.59,4.61 279.57,0 288,0 C296.43,0 308.44,4.61 314.72,10.3 L416,99.67 L416,48 C416,39.163444 423.163444,32 432,32 L496,32 C504.836556,32 512,39.163444 512,48 L512,184.44 L570.69,236.27 C573.79,239.06 580.23,249.54 571.9,258.87 Z" id="Path"></path>
        </g>
    </g>
</svg>