<svg id="Layer_1" xmlns="http://www.w3.org/2000/svg" viewBox="0 0 88 22"><g fill="#7c7c93"><path d="M14.225 11.631c-.027-1.709.7-3.039 2.18-3.99-.834-1.232-2.065-1.925-3.693-2.079-.579-.056-1.319.083-2.22.42-.97.364-1.515.545-1.636.545-.256 0-.747-.153-1.474-.462-.726-.307-1.345-.461-1.857-.461a4.532 4.532 0 0 0-2.401.724A5.146 5.146 0 0 0 1.348 8.25C.782 9.258.5 10.463.5 11.861c0 1.26.208 2.52.625 3.781.39 1.204.888 2.262 1.493 3.17.538.827 1.01 1.429 1.413 1.808.579.587 1.17.868 1.777.839.39-.014.9-.16 1.533-.441a4.299 4.299 0 0 1 1.776-.397c.552 0 1.124.132 1.716.397.659.281 1.198.42 1.614.42.619-.027 1.198-.301 1.736-.817.188-.169.394-.4.615-.694.222-.293.467-.644.737-1.05.188-.294.373-.608.555-.944.182-.337.346-.693.495-1.072.067-.154.127-.311.181-.472s.108-.325.162-.493a4.492 4.492 0 0 1-1.352-.945c-.887-.898-1.338-2.004-1.351-3.32zM28.86 15.375h-.098l-4.098-9.508h-3.219v15.34h2.805v-9.935h.13l3.426 7.89h1.967l3.415-7.89h.13v9.935h2.838V5.867h-3.197zM11.681 3.86c.714-.909 1.07-1.89 1.07-2.94V.71c0-.069-.007-.14-.02-.21-.499.028-1.026.189-1.585.482a4.403 4.403 0 0 0-1.382 1.113c-.727.883-1.09 1.828-1.09 2.836v.199c0 .063.007.13.02.199 1.117.114 2.113-.377 2.987-1.469zM68.942 5.867h3.153v15.34h-3.153zM81.618 8.306c1.87 0 2.859 1.462 2.859 3.034H87.5v-.326c0-2.966-2.229-5.438-5.904-5.438-3.937 0-6.285 2.63-6.285 7.114v1.73c0 4.483 2.327 7.08 6.274 7.08 3.773 0 5.915-2.506 5.915-5.293v-.338h-3.023c0 1.585-.968 2.899-2.837 2.899-1.914 0-3.132-1.382-3.132-4.339V12.7c0-2.944 1.229-4.394 3.11-4.394zM48.215 15.555c0 2.057-1.185 3.191-2.925 3.191-1.75 0-2.936-1.124-2.936-3.191V5.867h-3.131v10.137c0 3.271 2.283 5.496 6.067 5.496 3.773 0 6.067-2.225 6.067-5.496V5.867h-3.142v9.688zM61.789 12.273l-2.25-.518c-1.326-.281-2.022-.877-2.022-1.765 0-1.179.946-1.921 2.469-1.921 1.717 0 2.576 1 2.652 2.079h2.936c-.033-2.709-2.262-4.597-5.578-4.597-3.142 0-5.621 1.675-5.621 4.686 0 2.607 1.739 3.821 3.827 4.283l2.229.527c1.5.349 2.261.855 2.261 1.898 0 1.192-.935 2.002-2.685 2.002-1.881 0-2.871-1.012-2.958-2.147h-3.023c.044 2.169 1.458 4.698 5.829 4.698 3.675 0 5.947-1.854 5.947-4.867-.001-2.785-1.839-3.875-4.013-4.358z"/></g></svg>