<svg id="Layer_1" data-name="Layer 1" xmlns="http://www.w3.org/2000/svg" viewBox="0 0 481.23 157.79"><defs><style>.cls-1{fill:#7c7c93}.cls-2{fill:#fff;opacity:.1;isolation:isolate}.cls-3{fill:#d3d3e2}.cls-4{fill:#9999ad}.cls-5{fill:#fafafa}</style></defs><title>DSP_Google-Play-Music_Mono</title><path class="cls-1" d="M180.94 131.17l-119.6-68c-5.11-2.87-9.68-2.6-12.46.09-2 1.88-3 4.93-3 8.88v135.68c0 3.94 1.17 7 3 8.88 2.87 2.78 7.35 3 12.46.09l119.6-68c8.6-4.79 8.6-12.69 0-17.62z" transform="translate(-45.74 -61.1)"/><path class="cls-2" d="M180.94 132.06l-119.6-68c-8.61-4.84-15.6-.81-15.6 9v-.9c0-9.86 7-13.9 15.6-9l119.6 68c4.48 2.51 6.63 5.92 6.37 9.32-.19-3.04-2.25-6.09-6.37-8.42z" transform="translate(-45.74 -61.1)"/><path class="cls-3" d="M169.1 155.64a56 56 0 0 0 2.15-15.6A57.38 57.38 0 1 0 99 195.45z" transform="translate(-45.74 -61.1)"/><circle class="cls-4" cx="68.14" cy="78.94" r="35.86"/><path class="cls-5" d="M113.88 121.22v22.06a8.49 8.49 0 0 0-4.21-1.17 8.34 8.34 0 0 0 0 16.68 8.64 8.64 0 0 0 8.7-8.34v-20.27h8.07v-9h-12.56z" transform="translate(-45.74 -61.1)"/><path class="cls-1" d="M230.17 104.66c0-12.75 10.86-23.14 23.61-23.14a22.18 22.18 0 0 1 15.82 6.38l-4.49 4.49a16 16 0 0 0-11.33-4.49 17 17 0 0 0 0 34c6.14 0 9.44-2.36 11.81-4.72a13.36 13.36 0 0 0 3.54-8H254v-6.38h21.25a21.6 21.6 0 0 1 .24 4c0 4.72-1.42 10.63-5.43 14.88s-9.21 6.61-16.29 6.61a23.84 23.84 0 0 1-23.6-23.63zM292.74 98a14.88 14.88 0 1 0 15.11 14.88A14.87 14.87 0 0 0 292.74 98zm0 24.08a8.73 8.73 0 0 1-8.5-9 8.58 8.58 0 0 1 8.5-9 8.73 8.73 0 0 1 8.5 9c-.24 5.27-4.01 9.05-8.5 9.05zM325.33 98a14.88 14.88 0 1 0 15.11 14.88A14.87 14.87 0 0 0 325.33 98zm0 24.08a8.73 8.73 0 0 1-8.5-9 8.58 8.58 0 0 1 8.5-9 9 9 0 0 1 0 18.05zM365.7 99v2.36h-.24a10.47 10.47 0 0 0-7.79-3.36c-7.56 0-14.4 6.61-14.4 15.11a14.72 14.72 0 0 0 14.4 14.89 10.47 10.47 0 0 0 7.79-3.31h.24v2.13c0 5.67-3.07 8.74-8 8.74a8.09 8.09 0 0 1-7.56-5.43l-5.67 2.36a14 14 0 0 0 13.22 8.74c7.79 0 14.17-4.49 14.17-15.58V99h-6.16zm-7.56 23.14c-4.49 0-8.26-3.78-8.26-9s3.78-9.21 8.26-9.21 8 3.78 8 9.21c-.2 5.21-3.51 8.99-7.99 8.99zm18.18-39h6.61v43.92h-6.61V83.17zm24.56 39a7.71 7.71 0 0 1-7.32-4.49l20.07-8.26-.71-1.65c-1.18-3.31-5-9.44-12.75-9.44S386 104.42 386 113.16A14.53 14.53 0 0 0 400.88 128a15.19 15.19 0 0 0 12.51-6.61l-5.19-3.31a8.64 8.64 0 0 1-7.32 4.05zm-.47-18.18a6.57 6.57 0 0 1 5.67 3.07l-13.46 5.67a8.1 8.1 0 0 1 7.79-8.75zM229.7 157.53h5.19l14.17 24.79h.24l14.17-24.79h5.19v40.61h-5.19v-24.08l.24-6.85h-.24l-12.75 22.19h-3.07l-12.75-22.19h-.24l.24 6.85v24.08h-5.2v-40.61zm65.17 40.61v-3.78h-.24c-1.42 2.6-5 4.72-8.74 4.72-7.08 0-10.63-4.72-10.63-11.57v-17h5.19v16.06c0 5.67 2.83 7.79 6.85 7.79 4.49 0 7.32-4.25 7.32-8.5v-15.34h5.19v27.63h-5zm8.5-7.08l4.72-1.89a7.77 7.77 0 0 0 7.56 5.19c3.31 0 5.67-1.65 5.67-4 0-1.42-.94-2.83-3.78-3.78l-5.67-1.42c-2.6-.71-7.32-2.83-7.32-7.79s5.19-8.26 11.1-8.26c4.72 0 9 2.13 10.63 6.38l-4.49 1.89a6.53 6.53 0 0 0-6.38-3.78c-2.83 0-5.43 1.42-5.43 3.54 0 1.65 1.42 2.83 3.78 3.31l5.43 1.42c5.43 1.42 7.56 4.72 7.56 8 0 5-4.49 8.74-10.86 8.74-7.08.47-10.86-3.54-12.51-7.56zm26.21-30.22a3.78 3.78 0 1 1 3.78 3.78 4.06 4.06 0 0 1-3.78-3.78zm.94 37.31v-27.87h5.19v27.86h-5.19zm9.68-13.93c0-8.5 5.9-14.88 14.17-14.88 6.61 0 10.39 4 12.28 8l-4.72 1.89a8 8 0 0 0-7.79-5.19c-4.49 0-8.74 4-8.74 9.92s4.25 9.92 8.74 9.92a8.27 8.27 0 0 0 8-5.19l4.72 1.89a12.85 12.85 0 0 1-12.28 8c-8.5.47-14.4-5.9-14.4-14.4zM442.68 83.17h-15.82v43.92h6.61v-16.77h9.21c7.32 0 14.4-5.19 14.4-13.69s-7.32-13.46-14.4-13.46zm0 21.25h-9.44V89.31h9.44a7.65 7.65 0 0 1 7.79 7.56 7.8 7.8 0 0 1-7.79 7.55zm24.56 22.67V83.17h-6.61v43.92h6.61zm29.51 0v-16.77c0-7.79-5.9-12.28-13.46-12.28-4.72 0-9.68 2.13-11.81 6.85l5.9 2.36a6.28 6.28 0 0 1 5.9-3.31c3.31 0 6.85 2.13 6.85 5.67v.47a14.38 14.38 0 0 0-6.85-1.65c-6.38 0-12.75 3.54-12.75 9.92 0 5.9 5.19 9.68 10.86 9.68 4.49 0 6.85-1.89 8.26-4.25h.24v3.31h6.85zm-14.17-5c-2.13 0-5.19-1.18-5.19-3.78 0-3.31 3.78-4.72 6.85-4.72a12.74 12.74 0 0 1 5.9 1.42 7.51 7.51 0 0 1-7.56 7.12zM519.65 99l-7.56 19.13h-.24L504.06 99H497l11.81 26.68-6.61 14.88h6.8L527 99h-7.32z" transform="translate(-45.74 -61.1)"/></svg>