<svg width="1972" height="900" viewBox="0 0 1972 900" fill="none" xmlns="http://www.w3.org/2000/svg">
<path fill-rule="evenodd" clip-rule="evenodd" d="M1958.99 11.7805L1946.25 23.7485L1935.25 30.072C1929.2 33.55 1919.53 39.2115 1913.75 42.653C1907.97 46.0945 1899.99 51.0525 1896 53.671C1892.02 56.2895 1887.12 59.979 1885.13 61.8695C1882.69 64.1785 1880.39 65.8095 1878.12 66.838C1876.27 67.6795 1873.31 69.023 1871.54 69.823C1869.78 70.623 1866.18 72.823 1863.54 74.7125C1860.91 76.6015 1856.5 79.4015 1853.75 80.935C1851 82.468 1845.27 85.2105 1841.03 87.029C1836.78 88.848 1830.14 91.537 1826.26 93.005C1822.39 94.473 1817.43 96.1275 1815.24 96.682C1813.04 97.2365 1807.5 98.3755 1802.93 99.2135C1798.35 100.051 1792.95 101.331 1790.93 102.058C1788.9 102.785 1783.54 105.234 1779 107.499C1774.46 109.764 1769.06 112.195 1767 112.9C1764.94 113.605 1760.92 114.771 1758.07 115.49C1755.22 116.209 1749.71 117.94 1745.82 119.337C1741.93 120.733 1737.74 122.172 1736.5 122.535C1735.26 122.897 1732.32 123.55 1729.97 123.985C1727.61 124.421 1720.86 125.105 1714.97 125.506C1709.07 125.906 1698.85 126.488 1692.25 126.799C1683.71 127.202 1675.28 127.222 1663 126.867C1653.51 126.593 1645.7 126.413 1645.64 126.467C1645.57 126.521 1642.5 138.25 1638.81 152.533C1635.12 166.816 1631.55 179.964 1630.87 181.752C1630.19 183.539 1628.56 187.139 1627.25 189.752C1625.94 192.364 1623.28 196.977 1621.33 200.002C1619.38 203.027 1616.64 208.089 1615.22 211.252C1613.81 214.414 1610.8 221.952 1608.52 228.002C1606.24 234.052 1603.54 240.802 1602.52 243.002C1601.5 245.202 1600.1 247.677 1599.4 248.502C1598.71 249.327 1597.74 250.789 1597.24 251.752C1596.75 252.714 1596.03 254.627 1595.65 256.002C1595.24 257.467 1594.77 263.054 1594.51 269.502C1594.27 275.552 1593.7 282.527 1593.26 285.002C1592.82 287.477 1592.15 290.683 1591.78 292.127C1591.11 294.695 1591.12 294.752 1592.18 294.752C1592.77 294.752 1601.7 294.082 1612.01 293.263C1622.31 292.445 1632.66 291.538 1635 291.249C1637.34 290.96 1641.05 290.375 1643.25 289.95C1645.45 289.524 1649.61 288.506 1652.5 287.688C1655.39 286.869 1660.29 285.185 1663.4 283.947C1668.81 281.789 1669.59 281.626 1681.96 280.072L1694.88 278.45L1695.18 281.726C1695.35 283.528 1695.63 295.352 1695.81 308.002C1696.02 323.417 1695.94 333.315 1695.57 338.018C1695.26 341.877 1694.66 346.364 1694.23 347.989C1693.65 350.222 1692.41 352.413 1689.14 356.972C1686.76 360.288 1683.84 364.914 1682.66 367.252C1681.33 369.846 1679.93 373.741 1679.04 377.252C1678.25 380.414 1676.78 387.839 1675.78 393.752C1674.78 399.664 1673.5 406.864 1672.93 409.752C1672.36 412.639 1671.03 417.722 1669.98 421.047C1668.93 424.372 1667.25 430.897 1666.25 435.547C1665.26 440.197 1663.56 447.402 1662.5 451.558C1661.03 457.26 1660.36 461.248 1659.76 467.808C1659.33 472.59 1658.73 478.189 1658.45 480.252C1658.16 482.314 1657.59 485.347 1657.17 486.992C1656.75 488.636 1654.99 493.586 1653.25 497.992C1651.51 502.397 1649.4 508.377 1648.56 511.28C1647.72 514.184 1646.7 518.121 1646.3 520.03C1645.9 521.94 1645.31 526.36 1644.99 529.854C1644.68 533.348 1644.25 544.035 1644.05 553.604L1643.69 571.002L1640.42 579.752C1638.63 584.564 1637.03 589.2 1636.86 590.054C1636.66 591.059 1636.82 591.985 1637.31 592.679C1637.87 593.49 1638.57 593.749 1640.15 593.742C1641.31 593.737 1644.05 593.396 1646.25 592.986C1648.68 592.531 1655.18 592.114 1662.84 591.92L1675.44 591.6L1675.71 589.801C1675.87 588.811 1676.57 584.177 1677.28 579.502C1677.98 574.827 1679.35 567.455 1680.3 563.12C1681.26 558.786 1682.72 552.936 1683.56 550.12C1684.39 547.305 1685.96 542.732 1687.04 539.959C1688.13 537.185 1689.99 533.022 1691.19 530.709C1692.38 528.395 1695.4 522.54 1697.89 517.698C1700.37 512.856 1702.97 507.118 1703.65 504.948C1704.34 502.777 1705.25 498.752 1705.69 496.002C1706.12 493.252 1707.28 483.914 1708.26 475.252C1709.23 466.589 1710.82 454.041 1711.78 447.367C1712.74 440.693 1714.11 432.03 1714.82 428.117C1715.53 424.204 1716.63 419.314 1717.26 417.252C1717.88 415.189 1719.63 410.689 1721.14 407.252C1722.64 403.814 1724.68 398.612 1725.66 395.692C1726.64 392.772 1727.81 388.313 1728.24 385.783C1728.68 383.254 1729.83 378.443 1730.79 375.093C1731.75 371.743 1735.33 360.002 1738.75 349.002C1743.04 335.191 1745.27 327.145 1745.96 323.002C1746.51 319.702 1747.64 312.052 1748.47 306.002C1749.3 299.952 1751.1 289.827 1752.46 283.502C1753.82 277.177 1755.21 270.14 1755.55 267.864C1756.08 264.337 1756.33 263.696 1757.21 263.522C1757.78 263.409 1771.64 262.614 1788 261.755C1816.2 260.274 1818.67 260.066 1835.43 257.77C1845.15 256.437 1853.29 255.157 1853.52 254.924C1853.75 254.692 1856.64 247.202 1859.94 238.279C1864.53 225.886 1866.44 221.342 1868.05 219.029C1869.21 217.364 1871.76 213.639 1873.71 210.752C1875.66 207.864 1878.19 203.702 1879.34 201.502C1880.48 199.302 1882 195.949 1882.71 194.05C1883.43 192.152 1885.6 185.402 1887.54 179.05C1889.48 172.699 1891.95 165.702 1893.02 163.502C1894.1 161.302 1897.38 156.239 1900.31 152.252C1903.25 148.264 1907.71 142.077 1910.23 138.502C1912.75 134.927 1915.97 130.089 1917.38 127.752C1918.79 125.414 1920.63 121.702 1921.47 119.502C1922.31 117.302 1923.95 114.233 1925.12 112.681C1926.29 111.13 1930.25 106.436 1933.92 102.251C1937.58 98.066 1941.37 93.411 1942.33 91.9075C1943.29 90.4035 1944.51 87.9265 1945.03 86.4025C1945.56 84.879 1946.54 80.79 1947.21 77.317C1947.89 73.8435 1948.58 69.539 1948.76 67.7515C1949 65.317 1951.97 56.4345 1960.6 32.346C1966.93 14.6605 1972.02 0.105505 1971.92 0.00150466C1971.81 -0.102495 1966 5.198 1958.99 11.7805ZM1037.25 113.469C1010.02 121.506 971.55 132.873 951.75 138.728C931.95 144.583 913.388 150.033 910.5 150.838C907.612 151.644 900.525 153.846 894.75 155.732C888.975 157.619 880.055 160.082 874.927 161.207C869.799 162.332 860.011 164.269 853.177 165.512C846.296 166.763 828.366 169.318 813 171.238C797.738 173.144 781.537 174.947 777 175.245C772.463 175.543 766.275 176.016 763.25 176.297C760.225 176.577 755.612 177.138 753 177.542C750.388 177.945 747.462 178.524 746.5 178.827C745.538 179.13 742.95 180.215 740.75 181.239C738.55 182.262 730.562 185.636 723 188.736C715.438 191.835 703.611 196.683 696.719 199.509C689.827 202.335 681.84 205.792 678.969 207.191C675.582 208.842 666.465 212.128 653 216.551C641.37 220.371 629.723 224.525 626.5 226.003C623.338 227.452 616.363 230.141 611 231.977C605.637 233.814 596.3 236.892 590.25 238.818L579.25 242.32L567.75 243.252C561.425 243.764 550.625 244.886 543.75 245.745C531.551 247.27 531.009 247.387 521.25 250.598C515.75 252.408 511.22 253.914 511.182 253.945C511.145 253.976 510.624 261.314 510.026 270.252C509.427 279.189 508.616 289.259 508.223 292.63C507.83 296 507.036 300.163 506.458 301.88C505.88 303.597 503.087 309.505 500.252 315.01C496.538 322.219 495.011 325.714 494.789 327.51C494.62 328.88 494.129 331.802 493.697 334.002C493.266 336.202 492.166 340.317 491.253 343.146C489.86 347.461 489.726 348.251 490.421 348.052C490.877 347.92 507.85 343.493 528.14 338.213L565.029 328.612L572.39 330.409C576.438 331.398 581.438 332.443 583.5 332.732C585.562 333.021 589.454 333.481 592.148 333.753C594.841 334.026 602.828 334.48 609.898 334.763C620.689 335.194 624.434 335.145 633.25 334.453C639.025 334.001 650.613 333.019 659 332.273C672.531 331.069 674.552 330.992 676.922 331.589C678.391 331.96 682.554 332.81 686.172 333.478C689.79 334.146 700.857 335.944 710.765 337.472L728.78 340.252H741.018H753.255L762.503 342.7C767.589 344.047 773.1 345.535 774.75 346.006C777.213 346.71 778.259 347.381 780.59 349.753C782.152 351.343 784.125 353.875 784.975 355.381L786.52 358.118L796.443 362.228L806.367 366.339L806.667 369.17C806.832 370.728 807.419 375.939 807.971 380.752C808.522 385.564 809.199 392.336 809.474 395.8C809.75 399.264 811.204 410.402 812.705 420.55C814.206 430.698 815.891 442.714 816.449 447.252C817.007 451.789 817.691 458.652 817.968 462.502C818.37 468.085 818.879 470.963 820.479 476.717C821.582 480.686 822.927 485.973 823.466 488.467C824.006 490.961 825.136 497.277 825.979 502.502C826.821 507.727 828.846 517.402 830.48 524.002C832.113 530.602 835.241 542.077 837.43 549.502C839.618 556.927 842.922 567.727 844.771 573.502C846.62 579.277 848.359 584.708 848.634 585.572C849.079 586.971 848.664 588.32 844.835 597.89C842.471 603.801 839.632 611.306 838.528 614.569C837.07 618.877 836.179 622.83 835.278 629.002C834.595 633.677 833.471 641.102 832.779 645.502C832.088 649.902 831.295 656.877 831.016 661.002C830.737 665.127 829.828 672.777 828.996 678.002C828.163 683.227 827.163 690.085 826.773 693.242C826.383 696.4 826.138 699.057 826.228 699.147C826.318 699.237 828.947 698.243 832.071 696.938C837.483 694.677 838.553 693.954 854.844 681.534C868.043 671.471 872.762 668.153 875.555 666.97C878.823 665.586 879.238 665.249 879.864 663.47C880.244 662.387 882.366 655.539 884.578 648.252C887.177 639.693 889.206 631.815 890.31 626.002C891.249 621.052 892.796 610.477 893.747 602.502C894.698 594.527 895.915 582.264 896.45 575.252C896.984 568.239 897.564 560.139 897.737 557.252C897.911 554.364 898.386 548.402 898.792 544.002C899.197 539.602 899.869 533.639 900.285 530.752C900.701 527.864 901.387 524.264 901.81 522.752C902.232 521.239 903.537 518.089 904.709 515.752C905.881 513.414 908.789 508.102 911.17 503.947C913.551 499.793 915.5 496.222 915.5 496.013C915.5 495.804 914.735 494.366 913.799 492.817C912.424 490.54 911.802 488.527 910.549 482.29C909.697 478.048 909 474.161 909 473.651C909 473.141 910.473 468.448 912.273 463.223L915.545 453.722L913.242 446.673C911.975 442.795 910.813 438.574 910.661 437.292C910.51 436.01 910.66 433.621 910.996 431.982C911.332 430.343 912.927 424.946 914.539 419.99C916.152 415.033 918.835 407.27 920.503 402.74C922.204 398.115 924.209 391.431 925.073 387.502C925.919 383.652 926.903 380.034 927.261 379.462C927.618 378.89 929.495 377.59 931.43 376.573C933.366 375.556 936.685 374.28 938.805 373.738C941.09 373.153 944.316 372.752 946.725 372.752C948.96 372.752 952.131 373.1 953.77 373.525C955.409 373.95 958.55 375.098 960.75 376.076C962.95 377.054 966.698 378.61 969.08 379.535C971.462 380.459 975.66 381.673 978.409 382.233C981.158 382.793 985.316 383.252 987.649 383.252C990.008 383.252 1001.85 381.92 1014.32 380.253C1036.24 377.321 1037.01 377.253 1048.3 377.253L1059.86 377.252L1066.16 356.127C1069.62 344.508 1074.06 329.392 1076.01 322.535C1077.97 315.679 1079.99 307.916 1080.51 305.285C1081.28 301.405 1081.65 294.885 1082.48 270.752C1083.25 248.446 1083.5 231.275 1083.5 202.127C1083.5 176.545 1083.33 163.252 1083 163.252C1082.68 163.252 1082.5 156.889 1082.5 145.163V127.074L1084.01 119.788C1084.83 115.781 1086.26 109.408 1087.18 105.627C1088.83 98.851 1088.84 98.7525 1087.8 98.804C1087.22 98.8325 1064.48 105.432 1037.25 113.469ZM417.217 113.725L387.685 123.609L378.668 130.853C373.709 134.838 367.505 139.594 364.882 141.422C362.259 143.251 358.457 145.523 356.432 146.471C354.407 147.419 337.675 154.707 319.25 162.665C300.825 170.624 283.162 178.196 280 179.493C276.838 180.789 273.462 182.324 272.5 182.903C271.538 183.482 263.251 188.762 254.085 194.635C244.919 200.509 232.882 208.048 227.335 211.39C221.788 214.732 213.2 219.519 208.25 222.029C200.451 225.983 197.215 227.265 184 231.638C175.613 234.412 163.7 238.168 157.526 239.983C151.353 241.798 133.025 246.8 116.797 251.098L87.2915 258.912L68.043 273.644C53.982 284.406 48.1145 288.607 46.272 289.234C44.885 289.705 33.9065 293.089 21.875 296.753L0 303.414L0.00149918 304.958C0.00249918 305.807 0.341501 310.021 0.754501 314.322C1.4565 321.63 1.814 323.204 6.2065 338.322C8.7915 347.221 11.577 356.752 12.3965 359.502C13.2155 362.252 15.411 372.039 17.2755 381.252C19.257 391.041 20.787 399.976 20.958 402.752C21.1845 406.435 21.413 407.502 21.9755 407.502C22.52 407.502 23.222 410.12 24.791 418.002C25.9405 423.777 29.27 437.314 32.1905 448.084C35.1105 458.854 37.5 468.107 37.5 468.645C37.5 469.182 36.81 472.677 35.9665 476.411L34.433 483.199L36.742 494.85C38.0115 501.259 39.171 506.839 39.318 507.252C39.5145 507.803 40.1115 507.406 41.571 505.752C42.663 504.514 45.081 501.24 46.944 498.476C48.876 495.61 50.5835 492.448 50.919 491.117C51.332 489.477 52.1375 488.173 53.6285 486.734C54.795 485.607 60.4705 481.493 66.2405 477.593C72.01 473.693 78.026 469.427 79.6095 468.114C81.1925 466.8 83.3955 464.497 84.504 462.996C85.613 461.495 87.1795 459.926 87.9855 459.509C88.791 459.093 90.455 458.752 91.683 458.752H93.916L94.137 482.377C94.3245 502.374 94.524 507.422 95.4355 515.252C96.028 520.339 96.9695 528.102 97.528 532.502C98.086 536.902 98.9925 543.427 99.542 547.002C100.091 550.577 100.995 555.743 101.551 558.483C102.107 561.222 103.768 567.185 105.242 571.733C106.717 576.281 109.628 585.665 111.712 592.587C113.795 599.509 115.5 605.489 115.5 605.877C115.5 606.265 114.473 607.32 113.218 608.221C111.963 609.123 109.91 610.748 108.657 611.832C107.403 612.917 103.987 614.999 101.064 616.46C98.1415 617.92 92.375 620.475 88.25 622.136C84.125 623.797 76.5875 626.656 71.5 628.49C63.5295 631.362 60.9195 632.596 52.632 637.413C47.3425 640.487 43.011 643.148 43.007 643.328C43.003 643.507 44.392 644.688 46.094 645.953L49.1875 648.252H62.858H76.5285L89.449 645.015C96.555 643.234 104.367 641.548 106.809 641.269C109.252 640.989 112.215 640.758 113.393 640.756L115.536 640.752L115.497 648.127L115.458 655.502L122.753 674.252L130.05 693.002L131.242 707.752C131.899 715.864 132.684 726.552 132.989 731.502C133.293 736.452 133.99 747.589 134.538 756.252C135.085 764.914 135.668 772.452 135.833 773.002C135.999 773.552 136.29 788.739 136.479 806.752L136.824 839.502L138.876 846.002C140.005 849.577 142.258 856.327 143.884 861.002C145.743 866.347 148.438 872.656 151.146 878.002C153.515 882.677 156.617 888.527 158.04 891.002C159.462 893.477 161.292 896.346 162.105 897.377C162.918 898.408 163.894 899.252 164.273 899.252C164.66 899.252 165.214 898.32 165.537 897.127C165.854 895.958 166.256 894.08 166.431 892.953C166.71 891.163 167.78 889.808 174.922 882.2L183.094 873.494L186.5 865.36C189.714 857.685 190.321 856.647 197.253 846.989L204.6 836.753L200.59 815.627C197.398 798.808 196.529 793.228 196.324 788.252C196.183 784.814 195.695 780.202 195.24 778.002C194.784 775.802 193.755 772.314 192.951 770.252C192.073 767.998 189.984 764.407 187.717 761.252C185.642 758.364 183.275 754.606 182.458 752.9C181.64 751.194 180.524 748.051 179.978 745.916C179.432 743.781 178.765 739.552 178.497 736.518C178.228 733.484 178.007 720.003 178.005 706.559L178 682.116L174.743 658.059C172.953 644.828 171.405 633.632 171.305 633.18C171.16 632.531 172.762 631.757 178.936 629.491C183.234 627.915 190.218 625.154 194.456 623.357L202.16 620.089L204.456 621.371C205.718 622.076 208.9 623.321 211.527 624.139C214.155 624.956 217.057 626.014 217.977 626.49C218.897 626.965 221.138 628.752 222.957 630.461C224.776 632.17 227.611 634.208 229.257 634.99C230.903 635.773 236.08 637.805 240.76 639.506C249.176 642.565 249.426 642.7 263.26 651.622C270.955 656.583 278.586 661.624 280.22 662.822C281.853 664.021 286.353 668.045 290.22 671.764C294.086 675.483 300.867 681.398 305.288 684.908C312.74 690.826 314.033 692.117 323.059 702.646C329.668 710.357 335.184 717.452 340.244 724.752C344.342 730.664 352.629 742.252 358.658 750.502C364.687 758.752 369.986 765.888 370.435 766.361C370.883 766.833 374.893 768.318 379.347 769.661L387.444 772.104L397.473 767.928L407.501 763.752L413.375 763.735C416.606 763.726 421.537 763.512 424.332 763.26C427.127 763.008 430.84 762.432 432.582 761.98C434.324 761.528 439.454 760.62 443.98 759.962C451.233 758.907 453.875 758.225 466.23 754.219C473.941 751.719 487.531 747.307 496.429 744.416C505.328 741.525 512.416 738.976 512.179 738.75C511.943 738.525 507.25 736.381 501.75 733.986C496.25 731.592 488.375 728.015 484.25 726.037C480.125 724.06 475.175 721.4 473.25 720.126C471.325 718.852 468.4 716.687 466.75 715.315C465.1 713.942 452.95 705.122 439.75 695.715C426.55 686.307 414.145 677.461 412.182 676.056C410.22 674.651 404.038 669.789 398.444 665.252C392.851 660.714 381.767 651.643 373.812 645.093C361.721 635.137 358.562 632.792 354.549 630.789C351.91 629.471 348.625 628.043 347.25 627.614C345.875 627.186 343.288 626.688 341.5 626.508C339.712 626.329 333.412 625.286 327.5 624.192C320.392 622.877 314.124 622.045 309 621.736C304.738 621.479 293.712 620.595 284.5 619.773C270.094 618.487 266.071 617.935 255.75 615.832C244.781 613.596 243.149 613.124 236.75 610.336C232.9 608.658 229.898 607.278 230.079 607.269C230.26 607.259 241.173 603.561 254.329 599.05C267.486 594.539 280.275 590.24 282.75 589.496C285.225 588.753 290.625 586.409 294.75 584.287C298.875 582.166 304.78 578.871 307.874 576.966C310.967 575.061 320.897 568.45 329.94 562.276L346.382 551.05L355.251 538.082C362.797 527.048 364.226 524.663 364.826 522.092C365.213 520.43 365.99 518.327 366.551 517.42C367.112 516.512 368.173 515.347 368.91 514.831C369.647 514.315 371.487 513.495 373 513.01C374.513 512.524 377.55 510.924 379.75 509.454C381.95 507.984 385.662 505.075 388 502.991C390.338 500.907 394.415 497.313 397.061 495.004C399.708 492.696 403.554 488.713 405.608 486.154C407.663 483.595 411.478 478.577 414.087 475.002C416.697 471.427 419.636 467.264 420.62 465.752C422.255 463.237 422.97 460.684 428.987 435.853C433.107 418.846 437.401 402.595 440.481 392.353L445.398 376.002L461.01 349.752L476.622 323.502L479.76 310.252C481.487 302.964 486.318 279.911 490.497 259.022L498.094 221.042L497.273 213.022C496.459 205.067 496.465 204.759 498.107 175.136L499.761 145.27L492.756 137.303C488.137 132.051 483.365 125.85 478.75 119.104L471.75 108.87L460 106.532C453.537 105.246 447.912 104.114 447.5 104.017C447.088 103.92 433.46 108.288 417.217 113.725ZM1112.7 105.133C1112.84 105.611 1119.38 126.659 1127.23 151.906C1135.08 177.154 1141.5 198.252 1141.5 198.79C1141.5 199.329 1139.15 209.159 1136.28 220.636C1133.15 233.149 1126.97 260.816 1120.83 289.752L1110.61 338.002L1110.03 366.752C1109.72 382.564 1109.25 397.625 1108.99 400.221C1108.73 402.817 1108.26 405.742 1107.94 406.721C1107.62 407.7 1106.07 411.427 1104.49 415.002C1102.91 418.577 1099.04 426.902 1095.89 433.502C1092.74 440.102 1086.19 453.602 1081.35 463.502L1072.54 481.502L1068.47 502.002L1064.4 522.502L1057.34 532.621C1053.46 538.187 1050.15 542.575 1049.98 542.371C1049.8 542.168 1046.48 527.362 1042.58 509.468L1035.49 476.934L1025.85 467.218C1020.54 461.874 1015.4 456.264 1014.43 454.752C1013.26 452.939 1009.95 444.589 1004.74 430.252C1000.39 418.289 996.525 407.771 996.157 406.877L995.486 405.252H970.494C956.747 405.252 945.5 405.441 945.5 405.672C945.5 405.903 951.109 417.772 957.964 432.047C970.416 457.975 970.437 458.025 978.688 480.752L986.947 503.502L987.484 510.002C987.779 513.577 988.485 520.214 989.052 524.752C989.618 529.289 990.737 535.54 991.536 538.641C992.678 543.068 993.405 544.843 994.917 546.891C995.976 548.327 997.096 550.289 997.405 551.252C997.714 552.214 998.191 554.464 998.464 556.252C998.738 558.039 999.316 564.339 999.748 570.252C1000.18 576.164 1000.86 583.07 1001.26 585.598C1001.66 588.126 1002.47 591.463 1003.05 593.014C1003.63 594.565 1004.76 596.577 1005.55 597.486C1006.35 598.395 1007.33 600.068 1007.73 601.203C1008.13 602.339 1008.8 605.571 1009.21 608.385C1009.62 611.199 1010.19 617.52 1010.48 622.432C1010.77 627.344 1011 639.719 1010.99 649.932C1010.98 660.145 1010.77 674.239 1010.51 681.252L1010.05 694.002L1019.47 720.158C1024.66 734.543 1028.98 746.384 1029.07 746.47C1029.17 746.556 1035.26 750.92 1042.61 756.168C1049.96 761.416 1056.51 766.066 1057.18 766.501C1058.3 767.236 1059.97 767.077 1081.07 764.215C1093.54 762.522 1103.93 760.968 1104.16 760.76C1104.38 760.553 1109.71 744.023 1115.99 724.028C1127.02 688.917 1127.49 687.575 1129.62 684.837C1130.84 683.278 1139.78 671.652 1149.5 659.002C1159.21 646.352 1171.13 631.052 1175.98 625.002C1180.82 618.952 1186.16 612.202 1187.82 610.002C1189.49 607.802 1192.11 604.272 1193.66 602.158C1195.2 600.043 1199.65 594.306 1203.56 589.408C1207.46 584.509 1215 573.977 1220.31 566.002L1229.97 551.502L1242.69 515.002C1249.68 494.927 1263.76 454.561 1273.98 425.3L1292.55 372.098L1299.83 315.8L1307.11 259.502L1311.76 247.002C1314.32 240.127 1317.64 231.352 1319.15 227.502C1320.66 223.652 1323.02 217.873 1324.4 214.66C1325.79 211.447 1327.88 207.397 1329.06 205.66C1330.24 203.923 1334.69 197.777 1338.94 192.002C1343.2 186.227 1349.04 178.359 1351.93 174.517L1357.19 167.532L1363.53 152.767C1368.63 140.893 1369.71 137.974 1369.06 137.859C1368.62 137.78 1341.25 135.374 1308.25 132.512L1248.25 127.308L1244.5 125.749C1242.44 124.892 1238.16 123.322 1235 122.261C1231.84 121.2 1226.1 119.767 1222.25 119.076C1218.4 118.385 1208.95 116.91 1201.25 115.798C1193.55 114.686 1178.59 112.649 1168 111.271C1157.41 109.894 1141.21 107.865 1132 106.764C1122.79 105.662 1114.62 104.649 1113.84 104.512C1112.68 104.308 1112.48 104.416 1112.7 105.133ZM1580.54 143.099C1566.89 170.564 1564.01 175.966 1557.3 186.724C1553.09 193.477 1547.72 202.284 1545.37 206.296C1543.03 210.308 1539.86 215.933 1538.34 218.796C1536.82 221.659 1534.44 226.855 1533.05 230.343C1531.67 233.831 1528.75 241.706 1526.56 247.843C1524.38 253.98 1521.32 263.277 1519.76 268.502C1518.21 273.727 1516.14 280.589 1515.16 283.752C1514.18 286.914 1510.29 297.939 1506.51 308.252C1502.73 318.564 1498.93 329.139 1498.07 331.752C1497.21 334.364 1495.75 339.764 1494.82 343.752C1493.89 347.739 1491.2 358.539 1488.84 367.752C1486.48 376.964 1484.09 386.752 1483.54 389.502C1482.99 392.252 1482.31 398.273 1482.02 402.883C1481.73 407.493 1481.15 413.793 1480.73 416.883C1480.31 419.973 1479.51 424.795 1478.96 427.598C1478.4 430.401 1477.43 434.564 1476.79 436.848C1476.15 439.133 1475.16 442.157 1474.59 443.569C1474.03 444.98 1472.65 447.629 1471.53 449.455C1470.41 451.28 1468.27 455.22 1466.77 458.21C1465.27 461.199 1463 465.976 1461.73 468.824C1460.45 471.672 1457.98 476.927 1456.23 480.503C1453.82 485.427 1452.93 487.852 1452.55 490.503C1452.28 492.427 1451.92 497.489 1451.75 501.752C1451.58 506.014 1451.12 510.898 1450.73 512.604C1450.34 514.31 1448.41 519.71 1446.44 524.604C1444.47 529.498 1442.2 535.414 1441.41 537.752C1440.61 540.089 1439.53 543.821 1439 546.044C1438.43 548.47 1437.84 553.81 1437.52 559.396C1437.23 564.517 1436.55 571.248 1436.02 574.354C1435.48 577.46 1434.58 581.689 1434.01 583.752C1433.45 585.814 1432.55 589.302 1432.02 591.502C1431.49 593.702 1430.69 598.44 1430.24 602.031C1429.79 605.622 1429.5 609.447 1429.59 610.531C1429.74 612.335 1429.92 612.559 1431.75 613.177C1433.2 613.667 1435.32 613.772 1439.5 613.561C1442.66 613.4 1448.51 612.939 1452.5 612.536C1456.49 612.133 1464.25 611.568 1469.75 611.281C1475.25 610.994 1484.29 610.214 1489.84 609.548C1499.49 608.39 1500.4 608.183 1510.59 604.828C1516.45 602.898 1524.06 600.722 1527.5 599.992C1531.72 599.098 1536.43 598.526 1542 598.233C1546.54 597.995 1555.99 597.796 1563 597.791C1570.01 597.786 1577.43 598.001 1579.49 598.267C1581.96 598.589 1584.66 598.578 1587.49 598.236C1589.83 597.953 1592.99 597.377 1594.5 596.958C1596.01 596.539 1598.83 595.614 1600.75 594.903C1603.3 593.96 1604.86 592.985 1606.5 591.306C1607.74 590.038 1609.68 587.427 1610.82 585.502C1611.96 583.577 1613.47 580.615 1614.18 578.919C1614.89 577.224 1616.04 573.061 1616.72 569.669C1617.4 566.277 1619.54 552.477 1621.47 539.002C1623.39 525.527 1625.43 512.252 1625.99 509.502C1626.56 506.752 1627.27 503.714 1627.58 502.752C1627.89 501.789 1628.81 500.028 1629.62 498.838C1630.44 497.647 1631.65 495.333 1632.31 493.694C1632.98 492.056 1634.41 487.292 1635.49 483.108C1636.56 478.925 1638.13 472.127 1638.96 468.002C1639.79 463.877 1640.94 457.127 1641.52 453.002C1642.09 448.877 1643.12 442.596 1643.81 439.045C1644.5 435.494 1645.64 430.794 1646.33 428.601C1647.02 426.407 1648.68 422.563 1650.01 420.057C1651.34 417.552 1653.46 412.505 1654.71 408.842C1655.96 405.178 1657.79 399.256 1658.79 395.681C1659.78 392.105 1660.5 389.088 1660.39 388.976C1660.28 388.863 1647.71 394.646 1632.47 401.826L1604.75 414.881L1596.25 416.769C1591.57 417.808 1580.76 420.457 1572.22 422.657C1563.53 424.894 1553.72 427.77 1549.97 429.183C1546.27 430.573 1538.88 432.963 1533.54 434.495C1528.2 436.027 1522.8 437.736 1521.54 438.293C1520.28 438.85 1518.63 439.899 1517.87 440.625C1516.97 441.49 1516.32 441.776 1516 441.454C1515.73 441.184 1515.28 438.672 1514.99 435.873C1514.63 432.342 1514.63 428.596 1514.99 423.642C1515.27 419.715 1515.8 415.264 1516.17 413.752C1516.53 412.239 1517.98 408.414 1519.38 405.252C1520.78 402.089 1524.55 393.427 1527.76 386.002C1530.96 378.577 1535.12 369.352 1537 365.502C1538.87 361.652 1540.76 357.448 1541.19 356.159C1541.62 354.871 1542.52 351.608 1543.2 348.909C1543.88 346.21 1544.79 342.096 1545.23 339.767C1545.66 337.437 1546.35 332.15 1546.74 328.017C1547.23 323.01 1547.98 318.674 1549.01 315.026C1549.86 312.015 1551.87 305.49 1553.49 300.526C1555.1 295.563 1557 289.477 1557.7 287.002C1558.41 284.527 1559.66 278.515 1560.48 273.643C1561.3 268.77 1562.78 261.007 1563.77 256.393C1564.76 251.778 1566.24 245.302 1567.07 242.002C1567.89 238.702 1569.34 234.495 1570.27 232.654C1571.21 230.813 1573.02 227.663 1574.31 225.654C1575.59 223.645 1579.05 218.289 1581.98 213.752C1584.94 209.189 1591.29 197.965 1596.2 188.64C1601.09 179.366 1606.64 168.297 1608.55 164.042C1610.45 159.786 1612.54 154.549 1613.2 152.403C1613.86 150.257 1614.89 145.352 1615.49 141.502C1616.09 137.652 1617.57 129.796 1618.79 124.045C1620.01 118.294 1620.91 113.494 1620.79 113.378C1620.68 113.263 1616.23 112.858 1610.92 112.478C1605.6 112.098 1600.1 111.779 1598.68 111.769L1596.12 111.752L1580.54 143.099ZM1534 130.549C1517.91 134.503 1496.76 139.645 1487 141.976C1477.24 144.307 1466.42 146.667 1462.96 147.22C1459.5 147.774 1452.19 148.778 1446.71 149.452C1441.23 150.125 1434.39 150.813 1431.5 150.979C1428.61 151.145 1422.54 151.641 1418 152.081C1413.46 152.522 1409.3 153.161 1408.75 153.502C1408.2 153.843 1406.68 155.922 1405.38 158.123C1404.08 160.323 1401.56 165.271 1399.79 169.119C1398.02 172.967 1394.78 180.603 1392.59 186.088C1390.4 191.572 1387.58 199.084 1386.34 202.781C1385.09 206.477 1383.8 211.077 1383.48 213.002C1383.15 214.927 1381.99 219.202 1380.9 222.502C1379.81 225.802 1375.7 237.164 1371.76 247.752C1367.82 258.339 1363.56 270.143 1362.29 273.982C1361.02 277.821 1359.65 282.771 1359.26 284.982C1358.86 287.193 1358.27 290.577 1357.95 292.502C1357.63 294.427 1355.83 300.727 1353.95 306.502C1352.08 312.277 1350.2 318.495 1349.77 320.321C1349.35 322.147 1348.79 327.238 1348.52 331.636C1348.26 336.033 1347.57 342.865 1346.99 346.817C1346.42 350.768 1345.38 356.927 1344.69 360.502C1344 364.077 1342.65 370.133 1341.69 373.961C1340.73 377.788 1338.92 383.751 1337.68 387.211C1336.43 390.671 1333.04 399.464 1330.14 406.752C1327.24 414.039 1320.09 431.364 1314.24 445.252C1308.39 459.139 1302.24 473.634 1300.56 477.463L1297.5 484.425L1297.49 489.713C1297.49 493.382 1296.98 497.988 1295.83 504.752L1294.17 514.502L1280.15 542.502L1266.14 570.502L1264.34 580.752C1263.35 586.389 1262.17 595.277 1261.71 600.502C1261.14 607.015 1260.96 612.397 1261.16 617.62C1261.39 623.623 1261.29 625.78 1260.69 627.788C1260.28 629.19 1259.16 632.034 1258.22 634.109L1256.5 637.881L1258.87 637.573C1260.18 637.404 1265.75 636.805 1271.25 636.242C1276.75 635.679 1286.47 635.003 1292.85 634.74C1299.23 634.477 1307.67 633.912 1311.6 633.484C1315.53 633.056 1324.94 631.821 1332.5 630.739C1340.06 629.657 1347.26 628.572 1348.5 628.328C1349.74 628.083 1356.38 625.643 1363.25 622.905C1370.12 620.166 1379.36 616.845 1383.77 615.524L1391.78 613.122L1402.62 586.312L1413.45 559.502L1415.74 546.252C1417 538.964 1418.95 529.739 1420.07 525.752C1421.2 521.764 1423.44 514.527 1425.06 509.67C1426.68 504.812 1430.22 495.306 1432.92 488.545C1435.63 481.784 1437.66 476.252 1437.43 476.252C1437.2 476.252 1433.83 477.393 1429.95 478.788C1426.06 480.184 1420.33 482.406 1417.21 483.726C1414.1 485.047 1409.45 487.367 1406.9 488.883C1404.34 490.398 1400.61 492.351 1398.6 493.222C1396.6 494.094 1391.87 496.002 1388.1 497.462C1384.33 498.922 1377.65 501.381 1373.25 502.925C1368.85 504.47 1361.2 506.832 1356.25 508.176C1348.48 510.285 1346.14 511.174 1339.14 514.681L1331.03 518.744L1333.69 514.623C1335.16 512.356 1339.94 504.987 1344.31 498.247L1352.27 485.992L1351.85 478.747C1351.62 474.762 1351.54 468.464 1351.67 464.752C1351.89 458.705 1352.29 456.352 1355.46 442.158C1358.22 429.853 1359.69 424.437 1362.06 417.908C1363.73 413.285 1365.36 409.258 1365.68 408.959C1365.99 408.661 1378.62 405.521 1393.75 401.981L1421.25 395.545L1426.14 391.524C1429.04 389.141 1431.69 387.37 1432.64 387.178C1433.53 387 1437.31 386.576 1441.04 386.236L1447.83 385.618L1454.85 369.06C1458.72 359.953 1463.69 348.635 1465.91 343.909C1468.13 339.184 1470.61 333.446 1471.42 331.159C1472.29 328.677 1473.3 324.08 1473.92 319.752C1474.5 315.764 1475.56 307.01 1476.29 300.297L1477.62 288.093L1484.07 273.584C1487.62 265.604 1490.46 258.928 1490.39 258.748C1490.31 258.568 1483.05 260.71 1474.25 263.508C1465.35 266.337 1452.93 270.739 1446.26 273.423C1436.35 277.412 1432.32 279.367 1423.01 284.678C1414.6 289.481 1410.49 291.514 1406.76 292.724C1404.02 293.614 1400.33 294.998 1398.57 295.798C1396.8 296.599 1394.27 297.923 1392.94 298.741C1391.61 299.559 1390.19 300.102 1389.79 299.946C1389.38 299.791 1388.83 298.952 1388.57 298.083C1388.3 297.213 1387.95 295.344 1387.78 293.93C1387.62 292.515 1387.71 288.332 1387.99 284.633C1388.37 279.629 1389.08 275.56 1390.77 268.731C1392.02 263.684 1394.18 256.617 1395.57 253.028C1397.48 248.136 1398.5 246.167 1399.68 245.164C1400.54 244.429 1405.3 242.235 1410.25 240.29C1417.15 237.579 1422.29 235.999 1432.25 233.524C1443.16 230.814 1448.49 229.128 1465.42 223.018L1485.59 215.74L1504.63 213.248C1515.1 211.878 1523.71 210.699 1523.77 210.629C1523.84 210.559 1526.75 203.977 1530.26 196.002C1533.76 188.027 1537.75 178.914 1539.13 175.752C1540.5 172.589 1546.89 159.483 1553.31 146.627C1562.2 128.864 1564.79 123.265 1564.13 123.306C1563.64 123.336 1550.09 126.596 1534 130.549ZM607.5 352.213C605.987 352.436 603.85 352.859 602.75 353.153C601.65 353.447 598.612 353.923 596 354.21C593.388 354.498 584.838 355.082 577 355.508C569.162 355.934 560.612 356.515 558 356.799C555.388 357.083 551.675 357.637 549.75 358.031C547.825 358.424 541.975 360.22 536.75 362.021C531.525 363.823 524.532 366.605 521.209 368.205C517.887 369.804 512.456 372.814 509.14 374.894C505.824 376.973 500.727 380.371 497.813 382.445C494.899 384.519 489.306 388.951 485.383 392.293C481.46 395.636 478.001 398.68 477.697 399.058C477.393 399.437 476.99 401.829 476.802 404.374C476.614 406.919 475.912 414.43 475.24 421.065L474.021 433.128L471.91 436.789C469.826 440.403 469.779 440.597 468.148 451.948L466.496 463.446L463.224 469.226C460.016 474.891 459.779 475.163 451.35 482.846C446.62 487.158 442.128 491.335 441.367 492.129C440.254 493.291 439.359 495.761 436.779 504.787C435.015 510.955 432.086 523.074 430.268 531.717C428.451 540.361 425.837 551.921 424.461 557.408L421.958 567.383L425.67 573.192L429.382 579.002L428.901 587.502C428.637 592.177 428.547 597.914 428.702 600.252C428.856 602.589 429.657 608.327 430.482 613.002C431.306 617.677 432.669 624.652 433.51 628.502C434.351 632.352 435.956 639.087 437.076 643.47C438.195 647.852 439.975 654.096 441.03 657.345C442.085 660.594 443.671 664.771 444.552 666.627C445.928 669.523 447.477 671.318 455.453 679.271C460.567 684.369 467.472 690.807 470.799 693.576C474.126 696.346 478.249 699.563 479.961 700.725C481.672 701.887 484.463 703.475 486.161 704.254C487.86 705.033 493.637 707.686 499 710.15C504.363 712.614 510.662 715.414 513 716.372C515.338 717.331 518.698 718.61 520.468 719.215C522.238 719.82 525.5 720.742 527.718 721.264C529.936 721.786 538.725 723.442 547.25 724.944C555.775 726.446 575.462 729.771 591 732.333L619.25 736.992L652.65 737.139L686.05 737.286L703.65 724.949C713.33 718.164 723.311 711.068 725.831 709.18C728.351 707.292 732.051 703.892 734.052 701.624C736.054 699.357 739.909 694.724 742.617 691.33C745.325 687.935 750.42 681.298 753.938 676.58C757.456 671.862 763.999 662.863 768.479 656.582L776.625 645.162L783.292 624.437L789.958 603.713L796.479 563.324C800.066 541.11 803 522.276 803 521.471C803 520.666 801.181 512.39 798.959 503.081C796.737 493.773 793.923 482.425 792.706 477.864C791.035 471.604 789.899 468.461 788.069 465.037C786.736 462.543 782.155 454.536 777.888 447.243C773.621 439.951 767.907 430.349 765.19 425.905C760.628 418.443 759.448 416.953 749.758 406.413C743.987 400.137 734.649 390.312 729.008 384.579C723.366 378.847 717.72 373.401 716.462 372.476C715.204 371.551 710.148 368.758 705.227 366.268C700.306 363.778 694.022 360.859 691.264 359.78C688.505 358.702 684.224 357.225 681.749 356.498C677.949 355.383 675.386 355.067 665.25 354.465C658.65 354.073 648.412 353.408 642.5 352.988C636.588 352.567 626.912 352.13 621 352.015C615.088 351.901 609.013 351.99 607.5 352.213ZM349.336 368.83C354.789 372.998 359.413 376.654 359.612 376.955C359.811 377.256 360.231 378.735 360.546 380.242C360.986 382.348 360.974 383.796 360.496 386.492C360.154 388.422 359.202 391.914 358.38 394.252C357.559 396.589 356.349 399.564 355.692 400.863C355.035 402.161 352.612 406.099 350.307 409.613C348.003 413.127 343.256 420.907 339.759 426.903C336.262 432.899 332.625 439.761 331.677 442.153C330.53 445.048 329.418 446.973 328.352 447.913C327.471 448.689 322.808 452.305 317.991 455.949C313.173 459.593 306.82 464.192 303.874 466.169C300.928 468.145 294.632 471.823 289.884 474.342C285.135 476.861 279.445 479.961 277.238 481.231C274.817 482.624 264.651 490.53 251.611 501.161C239.723 510.853 226.903 520.87 223.123 523.421C219.343 525.972 213.363 530.184 209.835 532.781C206.307 535.377 201.47 538.927 199.085 540.669C196.701 542.411 191.271 546.001 187.019 548.647C182.767 551.293 177.522 554.788 175.364 556.415C173.205 558.041 169.566 561.145 167.277 563.312C164.988 565.479 163.004 567.252 162.87 567.252C162.735 567.252 162.381 564.383 162.084 560.877C161.786 557.37 161.198 545.727 160.777 535.002C160.356 524.277 159.914 512.464 159.794 508.752C159.675 505.039 159.205 499.639 158.75 496.752C158.294 493.864 157.386 489.364 156.73 486.752C156.074 484.139 154.527 479.077 153.292 475.502C152.056 471.927 150.577 466.414 150.005 463.252C149.348 459.617 148.791 453.478 148.492 446.565C148.231 440.55 148.126 435.451 148.26 435.235C148.394 435.019 150.809 433.496 153.626 431.852C156.444 430.207 163.7 426.373 169.75 423.331C175.8 420.289 183.787 416.651 187.5 415.246C191.213 413.842 206.512 408.972 221.5 404.424C246.964 396.698 249.93 395.676 266.75 388.829L284.75 381.502L301.5 371.421L318.25 361.34L328.836 361.296L339.423 361.252L349.336 368.83ZM609.487 493.816C615.752 494.245 620.416 494.236 628.776 493.779C637.017 493.329 640.833 493.318 643.884 493.736C646.129 494.043 649.38 494.755 651.108 495.317C652.836 495.88 655.6 496.982 657.25 497.766C658.9 498.551 664.522 502.306 669.743 506.11L679.237 513.027L684.851 521.764C688.508 527.455 691.457 532.764 693.309 536.988C694.873 540.556 697.236 545.731 698.56 548.488C699.884 551.246 701.699 554.847 702.594 556.49C704.095 559.246 704.229 559.869 704.315 564.49C704.367 567.247 704.987 573.664 705.693 578.752C706.399 583.839 707.011 588.677 707.052 589.502C707.105 590.567 704.792 595.42 699.068 606.252C694.636 614.639 691.01 621.727 691.01 622.002C691.01 622.277 692.695 627.894 694.755 634.485C696.815 641.076 698.5 646.482 698.5 646.499C698.5 646.515 694.565 647.985 689.755 649.765L681.009 653.002L681.005 660.87L681 668.739L677.357 672.87C675.354 675.143 671.985 679.059 669.869 681.574C666.46 685.625 665.182 686.69 658.636 690.933C654.574 693.566 650.95 696.204 650.584 696.795C650.218 697.385 647.226 701.105 643.935 705.06C640.643 709.016 637.723 712.252 637.445 712.252C637.167 712.252 634.535 711.703 631.595 711.033C628.655 710.362 622.312 708.447 617.5 706.777C612.688 705.107 607.141 703.166 605.175 702.464C602.886 701.646 601.516 700.868 601.368 700.301C601.192 699.629 600.065 699.206 596.693 698.544C594.249 698.065 587.525 696.329 581.75 694.688C575.975 693.046 567.399 690.435 562.693 688.886L554.137 686.069L553.318 680.285L552.5 674.502L545.809 664.502C542.13 659.002 536.627 651.014 533.583 646.752C530.538 642.489 526.46 637.227 524.522 635.059C521.73 631.935 520.801 630.478 520.051 628.049C519.53 626.362 518.755 623.074 518.327 620.742C517.9 618.41 517.285 614.146 516.96 611.266C516.635 608.387 516.506 604.337 516.674 602.266C516.843 600.196 517.873 594.114 518.964 588.752C520.055 583.389 521.523 577.027 522.226 574.614C522.928 572.201 524.854 567.177 526.505 563.45C528.156 559.723 530.056 554.723 530.726 552.338C531.397 549.953 532.321 547.102 532.778 546.002C533.236 544.902 534.504 542.468 535.597 540.593L537.584 537.183L537.258 533.093L536.932 529.002L543.37 524.598C549.353 520.506 550.094 519.816 553.839 514.848L557.869 509.502L574.06 503.131C582.964 499.627 591.045 496.63 592.016 496.471C592.987 496.312 594.899 495.547 596.266 494.77C597.632 493.994 599.307 493.335 599.987 493.305C600.667 493.276 604.942 493.506 609.487 493.816Z" fill="white"/>
</svg>
