<svg width="1014px" height="1132px" viewBox="241 501 1014 1132" version="1.1" xmlns="http://www.w3.org/2000/svg" xmlns:xlink="http://www.w3.org/1999/xlink">
    <!-- Generator: Sketch 42 (36781) - http://www.bohemiancoding.com/sketch -->
    <desc>Created with Sketch.</desc>
    <defs></defs>
    <g id="RotveltLogo1" stroke="none" stroke-width="1" fill="none" fill-rule="evenodd" transform="translate(241.000000, 501.000000)">
        <path d="M232.76,936.45 C232.76,936.45 235.917,897 239.072,884.38 C242.228,871.75 258.009,851.24 261.165,843.35 C264.321,835.46 269.055,821.26 270.633,814.95 C272.211,808.63 292.726,758.14 292.726,758.14 L313.24,713.95 L325.864,682.39 L330.598,650.83 C330.598,650.83 330.598,650.83 324.286,641.36 C317.974,631.89 319.552,631.89 313.24,620.85 C306.927,609.8 308.506,606.64 297.459,592.44 C286.413,578.24 273.789,562.46 273.789,562.46 L273.035,568.5 C262.563,558.43 246.963,540.37 246.963,540.37 L246.963,551.41 L253.275,565.62 L246.963,592.44 L237.495,620.85 L240.651,655.56 L240.65,680.81 L236.041,700.41 C230.432,709.05 210.445,740.09 209.09,745.51 C207.512,751.82 201.2,769.18 201.2,781.81 C201.2,794.43 182.263,835.46 182.263,835.46 L183.841,844.93 L188.575,859.13 L177.529,889.11 C177.529,889.11 172.795,882.8 166.483,873.33 C160.171,863.87 158.593,855.97 153.858,844.93 C149.124,833.88 147.546,829.15 147.546,829.15 C147.546,829.15 136.5,799.17 134.922,794.43 C133.345,789.7 130.188,784.96 128.61,777.07 C127.032,769.18 122.298,762.87 122.298,762.87 L108.096,729.73 C108.096,729.73 103.361,723.42 101.784,717.11 C100.206,710.8 97.049,676.08 93.893,669.77 C90.737,663.46 84.425,646.1 84.425,639.78 C84.425,633.47 82.847,603.49 82.847,597.18 C82.847,590.86 67.067,549.84 67.067,549.84 C67.067,549.84 59.176,554.57 54.442,554.57 C49.708,554.57 46.552,560.88 46.552,560.88 L46.37,560.91 L44.975,597.18 L33.928,633.47 L40.241,668.19 C40.241,668.19 41.818,680.81 43.396,690.28 C44.975,699.75 41.818,728.15 43.396,732.89 C44.975,737.62 38.663,759.71 46.553,764.45 C54.443,769.18 57.599,773.92 59.177,786.54 C60.755,799.17 54.443,833.88 54.443,838.62 C54.443,843.35 52.865,885.96 52.865,885.96 L52.177,888.25 L52.864,914.36 L52.864,958.55 L62.333,1004.31 L93.893,1076.9 L109.674,1106.88 L140.447,1131.06 L155.231,1119.76 C159.337,1112.08 164.769,1104 166.483,1100.57 C169.639,1094.26 177.529,1072.17 177.529,1072.17 C177.529,1072.17 213.824,979.06 220.136,968.02 C226.449,956.97 232.76,936.45 232.76,936.45 Z M999.69,133.235 L999.69,76.426 L996.53,78.399 L996.53,54.333 L996.53,30.663 C996.53,25.929 1002.84,0.681 1002.84,0.681 C1002.84,0.681 879.75,43.287 875.02,44.865 C870.29,46.443 867.13,46.444 854.51,51.178 C841.88,55.911 802.43,62.223 802.43,62.223 L751.934,68.536 C751.934,68.536 717.217,70.114 712.483,73.27 C707.749,76.426 654.095,96.941 649.361,100.097 C644.627,103.252 605.176,114.299 600.443,117.455 C595.708,120.611 554.679,133.235 554.679,133.235 L534.166,134.813 L508.917,137.969 L489.98,144.282 C489.98,144.282 488.402,174.265 486.824,185.31 C485.246,196.356 474.2,208.981 474.2,215.293 C474.2,221.605 469.466,234.229 469.466,234.229 L542.055,215.293 C542.055,215.293 549.946,218.45 564.148,220.027 C578.35,221.605 594.13,221.605 598.865,221.605 C600.96,221.605 622.528,219.75 645.92,217.683 C647.225,217.885 648.419,218.135 649.361,218.449 C654.095,220.027 696.702,226.339 696.702,226.339 L720.373,226.339 C720.373,226.339 739.31,231.074 744.043,232.652 C748.777,234.229 753.511,243.698 753.511,243.698 L772.45,251.588 C772.45,251.588 775.6,276.837 775.6,281.571 C775.6,286.305 783.49,332.067 783.49,343.114 C783.49,354.16 788.23,358.894 791.38,382.565 C794.54,406.235 813.48,463.044 813.48,463.044 C813.48,463.044 800.85,493.027 800.85,497.761 C800.85,502.5 796.12,524.59 796.12,534.06 C796.12,541.32 792.4,557.88 791.39,570.19 L802.43,565.62 L835.57,540.37 L842.06,537.77 C846.05,525.79 851.35,507.23 851.35,507.23 L854.51,489.871 L857.66,463.044 L859.24,442.53 C859.24,442.53 860.82,409.391 863.97,399.923 C865.65,394.886 871.8,384.937 876.94,375.777 L873.44,369.94 L870.29,354.16 L876.78,335.326 C874.15,327.836 871.86,320.733 871.86,317.865 C871.86,311.553 884.49,278.414 884.49,278.414 L887.64,264.212 C887.64,264.212 901.85,251.588 920.78,261.056 C939.72,270.524 952.34,267.368 952.34,267.368 L972.86,262.634 L993.37,262.634 L1002.84,231.074 L1012.31,197.935 L1013.89,190.044 L999.69,133.235 Z M174.374,300.507 L186.998,295.773 L239.073,279.993 L273.79,265.79 L305.35,246.853 L325.865,246.853 L345.116,261.576 C345.872,264.058 346.379,266.169 346.379,267.368 C346.379,272.102 343.223,283.148 338.489,289.46 C333.755,295.773 319.552,321.021 319.552,321.021 L316.396,328.911 C316.396,328.911 292.726,347.848 283.258,352.582 C273.79,357.316 262.743,363.628 262.743,363.628 L220.136,398.345 C220.136,398.345 207.512,406.235 193.31,417.281 C180.203,427.476 172.464,428.276 156.465,444.462 C155.819,439.102 155.437,435.525 155.437,434.575 C155.437,428.467 153.859,399.459 153.859,399.459 C153.859,399.459 155.437,376.557 147.547,356.709 C142.315,343.549 142.633,328.379 142.522,317.422 C152.379,310.981 174.374,300.507 174.374,300.507 Z M33.928,363.628 L38.663,387.299 C38.663,387.299 49.708,374.674 49.708,369.94 C49.708,365.206 78.113,351.004 81.27,344.692 C84.426,338.38 90.738,339.957 90.738,339.957 L90.738,375.031 C90.738,379.611 95.472,429.994 100.206,443.736 C103.896,454.448 109.505,473.51 111.798,481.393 C108.803,483.47 106.428,485.226 104.94,486.715 C98.628,493.027 60.755,505.65 60.755,505.65 L41.818,516.7 L48.131,521.43 L73.379,521.43 L98.628,515.12 C98.628,515.12 105.16,514.3 111.764,513.84 L111.252,527.71 L125.454,564.35 C125.454,564.35 128.61,602.52 128.61,607.1 C128.61,611.68 131.767,652.91 131.767,652.91 L131.767,701.76 C131.767,706.34 141.235,732.3 141.235,732.3 C141.235,732.3 157.015,765.89 158.593,761.31 C160.171,756.73 160.171,753.67 160.171,753.67 L175.952,736.88 L182.264,721.61 L196.466,701.76 L188.576,660.54 C188.576,660.54 190.154,640.69 180.686,630 C171.217,619.32 171.217,605.57 171.217,599.47 L171.217,555.19 C171.217,555.19 168.025,532.03 164.513,505.99 C174.429,502.79 185.221,498.349 194.427,494.259 C201.2,499.339 209.09,497.761 213.824,504.07 C218.558,510.39 235.917,513.54 240.651,516.7 C245.385,519.85 267.478,534.06 267.478,534.06 L275.368,540.37 L284.835,549.84 L300.616,562.46 L319.552,584.55 L333.755,605.07 L355.847,635.05 L371.627,639.78 L390.564,631.89 C390.564,631.89 409.5,631.89 414.234,630.32 C418.968,628.74 433.171,627.16 433.171,627.16 L491.558,608.22 C491.558,608.22 469.466,598.76 459.998,594.02 C450.529,589.29 444.217,582.97 444.217,582.97 C444.217,582.97 400.032,551.41 395.298,548.26 C390.564,545.1 344.801,507.23 344.801,507.23 C344.801,507.23 333.755,500.92 329.021,500.92 C324.286,500.92 303.772,496.183 299.038,496.183 L294.304,496.183 L258.009,493.027 L234.338,488.293 L220.483,482.355 L267.478,466.2 C278.523,464.622 302.194,448.842 302.194,448.842 L332.177,428.328 L349.535,403.079 C349.535,403.079 349.535,393.611 357.425,392.033 C365.315,390.454 377.94,376.252 382.674,373.096 C387.408,369.94 404.766,344.692 404.766,344.692 L417.391,292.617 L426.859,261.056 L456.841,210.559 L463.153,183.732 L477.356,112.721 L475.778,98.518 L478.934,40.131 L466.31,25.929 L452.107,5.414 L428.437,0.681 L371.627,19.617 C371.627,19.617 349.535,38.554 341.645,41.709 C333.755,44.865 269.055,73.27 264.321,74.848 C259.587,76.426 210.668,111.143 188.576,119.033 C166.483,126.923 138.079,134.813 138.079,134.813 L84.425,149.015 L47.241,177.451 L0.79,191.622 L2.368,208.981 C2.368,208.981 11.836,242.119 13.414,246.853 C14.992,251.587 19.726,278.414 21.304,284.726 L21.304,291.038 C24.192,298.244 26.038,308.397 26.038,308.397 L37.084,349.426 L33.928,363.628 Z M501.026,448.842 C504.183,439.374 507.338,436.218 508.917,428.328 C509.643,424.697 512.048,420.061 515.099,415.239 L514.491,407.363 L526.887,398.796 C533.812,389.78 534.166,388.877 534.166,388.877 L565.726,376.252 C565.726,376.252 566.827,376.157 568.675,376.001 L574,373.097 C574,373.097 581.549,373.099 592.06,374.177 C600.472,373.585 608.722,373.096 613.067,373.096 C624.113,373.096 633.582,379.409 633.582,379.409 L650.939,392.033 L661.986,409.391 C661.986,409.391 669.876,428.328 673.032,433.061 C676.187,437.795 674.61,442.53 674.61,442.53 L677.766,466.2 L661.986,496.183 L669.379,519.84 L652.517,526.17 L652.517,541.1 L646.206,548.26 L638.316,557.73 L624.263,566.82 L623.589,567.98 L611.191,582.97 L601.273,580.83 L576.478,572.27 L576.114,570.53 L567.304,568.77 L545.211,562.46 L531.009,557.73 L529.431,546.68 C529.431,546.68 505.76,510.39 501.026,507.23 C496.292,504.07 494.714,478.825 494.714,478.825 C494.714,478.825 497.87,458.31 501.026,448.842 Z M428.034,541.95 C434.394,549.84 457.709,571.93 466.188,575.08 C474.666,578.24 491.623,587.71 504.34,590.87 C517.058,594.02 597.603,606.64 597.603,606.64 L656.953,606.64 C656.953,606.64 686.626,586.13 697.225,578.24 C707.824,570.35 743.857,518.28 743.857,518.28 L756.574,478.825 L769.29,399.923 C769.29,399.923 758.693,354.161 756.574,349.426 C754.456,344.692 729.02,302.085 729.02,302.085 C729.02,302.085 690.868,259.478 684.508,256.322 C678.149,253.166 656.953,240.542 642.115,240.542 C627.278,240.542 589.125,235.808 578.527,238.964 C567.929,242.119 534.015,240.542 521.297,245.276 C508.58,250.01 510.7,248.432 500.102,253.166 C489.503,257.9 472.546,270.524 472.546,270.524 L457.709,283.149 C457.709,283.149 456.396,298.47 454.564,315.629 L450.529,322.599 L447.373,344.692 L441.061,355.738 L422.125,373.096 L415.813,395.189 L409.5,425.171 L404.766,444.108 L411.839,455.11 C411.332,463.573 411.078,470.815 411.078,474.091 C411.078,483.559 421.675,534.06 428.034,541.95 Z M810.32,576.66 C805.59,582.97 799.27,581.4 791.38,587.71 C783.49,594.02 774.03,598.76 753.511,606.64 C732.997,614.54 728.263,609.8 710.905,619.27 C693.546,628.74 691.968,625.58 676.188,631.89 C660.408,638.21 652.517,636.63 635.159,638.21 C617.8,639.78 581.505,638.21 581.505,638.21 L568.881,687.13 C568.881,687.13 565.726,698.17 557.835,709.22 C549.945,720.26 542.055,750.25 537.321,754.98 C532.586,759.72 532.586,769.18 532.586,778.65 C532.586,788.12 529.431,799.17 529.431,799.17 C529.431,799.17 549.945,797.59 568.881,796.01 C587.818,794.43 603.598,786.54 603.598,786.54 L628.847,783.39 C628.847,783.39 632.002,844.93 627.269,852.82 C622.535,860.71 616.222,865.44 613.066,879.64 C609.91,893.85 608.333,911.21 605.176,919.1 C602.02,926.99 600.443,941.19 597.287,950.66 C594.13,960.13 595.708,977.48 590.974,988.53 C586.24,999.58 583.083,1009.04 581.505,1018.51 C579.927,1027.98 579.927,1062.7 579.927,1062.7 C579.927,1062.7 575.194,1075.32 573.616,1080.06 C572.038,1084.79 573.616,1086.37 579.927,1084.79 C586.24,1083.21 602.02,1083.21 602.02,1083.21 L609.91,1083.21 C609.91,1083.21 611.488,1070.59 613.066,1062.7 C614.644,1054.81 617.8,1039.03 624.113,1026.4 C630.425,1013.78 636.737,1004.31 638.315,994.84 C639.893,985.37 639.894,983.8 641.471,969.59 C643.048,955.39 647.783,919.1 650.939,912.78 C654.095,906.47 660.408,890.69 660.408,885.96 C660.408,881.22 674.61,838.62 676.188,832.3 C677.766,825.99 680.921,800.74 680.921,800.74 L685.656,778.65 L687.234,769.18 L745.622,766.03 L780.34,761.29 C780.34,761.29 789.81,736.04 791.38,731.31 C792.96,726.58 804.01,715.53 808.74,701.33 C813.48,687.13 815.06,679.23 818.21,672.92 C821.37,666.61 843.46,639.78 845.04,631.89 C846.62,624 863.97,609.8 867.13,601.91 C870.29,594.02 871.86,578.24 871.86,578.24 L893.96,516.7 L868.71,540.37 C868.71,540.37 815.06,570.35 810.32,576.66 Z M584.662,920.67 C579.927,926.99 576.771,955.39 576.771,955.39 C576.771,955.39 570.459,991.69 565.725,994.84 C560.991,998 556.257,1059.54 551.523,1070.59 C546.789,1081.63 542.054,1084.79 542.054,1084.79 C542.054,1084.79 529.431,1091.1 518.384,1089.52 C507.338,1087.95 483.667,1089.52 478.934,1089.52 C474.2,1089.52 461.575,1092.68 461.575,1092.68 L442.639,1098.99 C442.639,1098.99 420.546,1102.15 409.5,1102.15 C398.454,1102.15 374.783,1106.88 374.783,1102.15 C374.783,1097.41 376.361,1084.79 377.939,1080.06 C379.518,1075.32 382.673,1062.7 382.673,1048.49 C382.673,1034.29 393.72,1015.36 395.298,1007.47 C396.876,999.58 395.298,985.37 398.454,980.64 C401.609,975.9 409.5,955.39 415.812,945.92 C422.124,936.45 425.28,908.05 425.28,898.58 C425.28,889.11 436.327,852.82 437.905,843.35 C439.483,833.88 455.263,796.01 458.419,783.39 C461.575,770.76 471.043,743.93 475.777,732.89 C480.511,721.84 499.448,691.86 502.604,687.13 C505.76,682.39 534.165,624 534.165,624 L557.835,625.58 C557.835,625.58 551.523,653.99 551.523,658.72 C551.523,663.45 540.477,685.55 540.477,685.55 C540.477,685.55 529.431,706.06 526.275,712.37 C523.119,718.69 508.916,737.62 507.338,743.93 C505.761,750.25 501.026,769.18 499.448,781.81 C497.87,794.43 486.824,819.68 486.824,829.15 C486.824,838.62 482.089,859.13 478.934,863.87 C475.778,868.6 461.575,903.32 458.419,909.63 C455.263,915.94 455.263,944.35 458.419,939.61 C461.575,934.88 477.355,933.3 488.402,928.56 C499.448,923.83 504.182,923.83 515.228,920.67 C526.274,917.52 542.054,914.36 542.054,914.36 L595.708,889.11 C595.708,889.11 589.396,914.36 584.662,920.67 Z M352.691,985.37 C359.003,980.64 382.673,972.75 382.673,972.75 C382.673,972.75 377.939,983.8 373.205,996.42 C368.471,1009.05 363.737,1026.4 363.737,1026.4 L359.003,1053.23 L338.489,1103.73 L322.708,1108.46 L299.038,1117.93 C299.038,1117.93 261.165,1124.24 246.962,1124.24 C232.76,1124.24 209.09,1127.4 209.09,1127.4 C209.09,1127.4 215.402,1116.35 213.824,1111.62 C212.246,1106.88 215.402,1080.06 215.402,1080.06 L218.558,1062.7 L245.384,1009.04 L248.541,990.11 L248.541,980.64 C248.541,980.64 284.835,897 289.569,879.64 C294.303,862.29 297.459,841.77 297.459,830.73 C297.459,819.68 306.928,802.32 306.928,792.85 C306.928,783.39 330.598,728.15 330.598,721.84 C330.598,715.53 351.113,663.45 355.847,663.45 C360.581,663.45 368.471,661.88 374.783,661.88 C381.095,661.88 404.766,658.72 412.656,657.14 C420.546,655.56 504.182,635.05 504.182,635.05 L482.09,679.23 L471.043,704.48 L464.731,718.69 L428.437,723.42 L388.986,737.62 L363.737,743.93 L347.957,750.25 L344.793,752.51 C342.539,758.01 340.621,762.79 340.066,764.45 C338.488,769.18 335.333,783.39 335.333,783.39 C335.333,783.39 332.176,808.63 338.489,803.9 C344.801,799.17 357.425,796.01 357.425,796.01 L379.518,783.39 L403.188,773.92 L433.17,764.45 L420.546,792.85 C420.546,792.85 417.39,824.41 415.812,830.73 C414.234,837.04 404.766,855.97 404.766,855.97 L392.142,885.96 L376.361,887.54 L366.893,895.43 L313.24,908.05 L306.928,925.41 C306.928,925.41 302.194,947.5 300.616,953.81 C299.038,960.13 300.616,982.22 300.616,982.22 L280.101,1013.78 L295.881,1005.89 L313.24,1001.15 C313.24,1001.15 346.378,990.11 352.691,985.37 Z" id="Fill-1" fill="#ffffff"></path>
    </g>
</svg>