<svg width="651" height="332" viewBox="0 0 651 332" fill="none" xmlns="http://www.w3.org/2000/svg">
<path fill-rule="evenodd" clip-rule="evenodd" d="M646.647 3.98787L642.351 8.02483L638.817 10.0321C634.361 12.5626 627.93 16.4288 625.768 17.876C623.518 19.3821 622.672 20.0455 622.01 20.821C621.41 21.5209 620.572 22.0053 618.893 22.6206C617.677 23.0658 616.504 23.7357 615.152 24.7564C612.962 26.4105 610.009 27.9334 605.362 29.8057C601.446 31.3839 599.613 31.9634 596.935 32.4711C595.688 32.7073 594.236 32.9836 593.71 33.085C591.973 33.4191 590.524 33.9762 587.612 35.4279C584.461 36.9996 583.424 37.3983 580.556 38.1401C579.502 38.4127 577.856 38.9238 576.897 39.2758C572.519 40.8837 571.117 41.1877 566.879 41.4455C565.202 41.5476 562.89 41.7155 561.74 41.8187C560.478 41.9318 556.405 41.9826 551.473 41.9468L543.298 41.8876L542.65 44.4176C542.294 45.8091 541.36 49.461 540.576 52.5329C539.792 55.6048 538.956 58.7073 538.719 59.4273C538.111 61.2732 536.954 63.5997 535.681 65.5362C534.198 67.7917 533.034 70.2806 531.193 75.136C529.252 80.2534 528.875 81.0976 528.048 82.1966C527.682 82.6811 527.259 83.3979 527.109 83.7892C526.701 84.8457 526.459 86.9313 526.459 89.3749C526.459 91.5258 526.163 94.0851 525.664 96.2375C525.523 96.8516 525.427 97.3745 525.454 97.3995C525.48 97.4244 526.206 97.3789 527.069 97.2984C527.931 97.2178 529.773 97.0656 531.163 96.9598C537.273 96.4953 538.301 96.4082 539.7 96.2377C543.561 95.767 547.291 94.7415 550.457 93.2801C550.863 93.0927 551.455 92.9392 551.774 92.9392C552.093 92.9392 552.781 92.8668 553.302 92.7785C554.891 92.5085 559.558 92.0042 559.645 92.0929C559.693 92.1386 559.809 95.1557 559.909 98.7975C560.184 109.036 559.893 114.654 559.011 116.13C558.804 116.479 558.144 117.432 557.548 118.248C554.889 121.881 554.48 123.134 552.94 132.386C552.366 135.83 551.986 137.473 551.295 139.497C551.056 140.193 550.549 142.235 550.166 144.035C549.781 145.836 549.307 147.898 549.112 148.618C548.41 151.2 548.26 152.066 547.981 155.163C547.521 160.288 547.418 160.756 545.922 164.588C544.657 167.826 543.993 169.958 543.557 172.181C543.115 174.439 542.836 179.165 542.836 184.422V188.396L542.068 190.465C540.763 193.98 540.371 195.268 540.479 195.697C540.637 196.328 541.27 196.474 542.622 196.19C544.402 195.816 547.505 195.57 550.445 195.57H553.088L553.182 195.09C553.234 194.825 553.326 194.217 553.387 193.737C553.642 191.716 554.359 187.796 554.929 185.316C556.123 180.107 557.001 177.91 560.736 170.785C562.7 167.038 563.055 165.538 563.924 157.345C564.933 147.85 566.398 138.898 567.292 136.787C567.524 136.238 568.075 134.936 568.517 133.893C569.514 131.537 570.538 128.328 570.538 127.563C570.538 126.951 571.944 121.963 573.582 116.764C576.247 108.306 576.256 108.267 577.072 102.19C577.519 98.8426 577.85 97.0029 578.875 92.1538C579.159 90.8098 579.486 89.1016 579.605 88.3575C579.809 87.0725 579.842 87.0047 580.276 86.9999C580.713 86.995 583.112 86.8727 590.4 86.4837C592.268 86.3838 595.208 86.2283 596.933 86.138C598.658 86.0476 601.754 85.7357 603.815 85.445C609.803 84.5995 609.952 84.5792 610.986 84.4621C611.683 84.383 611.999 84.2663 612.06 84.0631C612.108 83.9051 613.006 81.4443 614.056 78.5949L615.964 73.4138L617.522 71.1769C620.44 66.9867 621.051 65.7769 622.362 61.6072C624.147 55.925 624.583 54.6367 624.991 53.8303C625.212 53.3918 626.393 51.6639 627.615 49.9904C630.86 45.5478 633.66 41.3141 634.014 40.315C634.794 38.1169 635.348 37.2778 637.995 34.2878C640.551 31.4 641.321 30.3937 641.823 29.2863C642.319 28.1935 643.007 25.136 643.368 22.4298C643.57 20.9186 643.598 20.835 648.968 5.86996C650.116 2.66888 651.031 0.0275304 650.999 0.000301966C650.968 -0.0267519 649.01 1.76753 646.647 3.98787ZM358.984 32.6504C358.927 32.7069 358.62 32.8174 358.301 32.896C357.982 32.9747 355.682 33.6423 353.191 34.3797C350.7 35.1172 348.426 35.7855 348.139 35.8649C347.633 36.0046 341.72 37.7496 333.242 40.2614C330.989 40.9285 328.913 41.5405 328.625 41.6211C328.113 41.7648 321.607 43.6818 316.778 45.1125C315.436 45.5097 312.339 46.4247 309.896 47.1457C307.452 47.8666 304.591 48.722 303.537 49.0463C302.483 49.3708 300.874 49.8331 299.965 50.074C298.134 50.5587 296.951 50.9325 294.738 51.7265C293.233 52.2667 291.796 52.6781 290.383 52.9733C289.951 53.0634 289.05 53.259 288.379 53.4079C286.83 53.7516 283.936 54.3413 282.804 54.5436C278.64 55.2881 275.136 55.8164 271.218 56.2906C269.618 56.4842 267.824 56.7085 265.686 56.982C261.538 57.5124 258.377 57.8528 256.757 57.943C252.985 58.1533 249.115 58.5539 247.262 58.9257C246.783 59.0218 245.723 59.4039 244.91 59.7746C242.453 60.8933 242.134 61.0268 234.282 64.2267C230.113 65.9255 225.644 67.8103 224.351 68.4155C223.056 69.0204 220.509 70.0045 218.689 70.6021C210.42 73.3166 208.026 74.1458 207.083 74.622C205.686 75.3284 204.346 75.8281 199.611 77.4087C191.999 79.9495 191.265 80.1576 189.495 80.2804C186.587 80.4826 182.507 80.8763 180.359 81.1622C179.209 81.3151 177.641 81.5117 176.874 81.5988C175.988 81.6996 174.268 82.1555 172.143 82.8537L168.805 83.9503L168.692 85.9576C168.509 89.1972 167.909 96.5932 167.726 97.8559C167.482 99.5528 167.152 100.417 165.674 103.237C163.572 107.247 163.532 107.344 163.278 109.145C163.078 110.559 162.355 113.395 161.874 114.65C161.765 114.936 161.814 114.968 162.255 114.891C162.691 114.816 166.478 113.842 169.905 112.923C170.48 112.769 172.44 112.258 174.261 111.788C176.082 111.318 178.042 110.807 178.617 110.652C179.191 110.496 181.185 109.978 183.045 109.5C184.906 109.023 186.481 108.6 186.542 108.561C186.605 108.522 187.161 108.649 187.776 108.843C190.825 109.802 194.302 110.268 200.794 110.588C205.205 110.805 207.099 110.746 212.678 110.216C213.587 110.13 215.352 109.975 216.598 109.872C217.844 109.769 219.704 109.602 220.734 109.501C222.323 109.344 222.779 109.36 223.752 109.604C224.896 109.892 225.264 109.961 228.358 110.475C229.268 110.627 230.679 110.863 231.494 111.001C233.047 111.263 234.369 111.472 236.547 111.799C237.265 111.907 238.23 112.067 238.69 112.154C239.15 112.242 241.483 112.313 243.875 112.313H248.225L250.532 112.911C255.079 114.091 256.313 114.44 256.759 114.67C257.414 115.01 258.569 116.324 259.203 117.448C259.504 117.984 259.82 118.422 259.905 118.422C259.989 118.422 260.475 118.613 260.984 118.847C261.494 119.081 262.81 119.638 263.907 120.085C265.005 120.532 265.996 120.989 266.109 121.1C266.352 121.338 266.771 124.772 267.298 130.815C267.444 132.495 267.641 134.262 267.735 134.742C267.827 135.222 268.068 136.753 268.268 138.145C269.482 146.583 269.773 148.901 269.991 151.865C270.204 154.764 270.3 155.306 271.129 158.305C271.993 161.432 272.298 162.866 272.704 165.712C273.206 169.229 273.84 172.033 275.491 178.029C275.624 178.509 275.784 179.097 275.849 179.338C275.913 179.577 276.197 180.559 276.481 181.519C276.765 182.479 277.218 184.01 277.488 184.923C277.758 185.834 278.267 187.484 278.621 188.588C278.973 189.691 279.488 191.327 279.767 192.221C280.044 193.116 280.314 193.915 280.365 193.999C280.415 194.081 280.255 194.607 280.006 195.165C279.61 196.055 278.098 199.899 277.134 202.464C276.485 204.196 276.112 205.632 275.934 207.09C275.833 207.905 275.678 209.045 275.587 209.621C275.498 210.197 275.335 211.256 275.225 211.977C275.115 212.696 274.95 213.757 274.857 214.333C274.765 214.909 274.617 216.44 274.528 217.737C274.441 219.032 274.241 220.917 274.087 221.926C273.57 225.284 273.512 225.666 273.251 227.511C273.106 228.518 272.948 229.752 272.896 230.253L272.803 231.164L273.653 230.827C276.075 229.871 276.824 229.461 278.518 228.16C279.534 227.38 280.835 226.38 281.41 225.94C286.696 221.882 288.125 220.873 289.166 220.454C290.278 220.009 290.309 219.98 290.585 219.086C290.74 218.583 291.156 217.231 291.51 216.079C292.681 212.277 293.468 209.462 293.682 208.312C293.799 207.687 293.959 206.823 294.041 206.392C294.385 204.568 294.564 203.423 294.733 201.984C294.832 201.143 294.989 199.808 295.081 199.017C295.766 193.191 295.902 191.666 296.308 185.272C296.832 176.985 297.357 173.284 298.289 171.256C298.519 170.757 299.5 168.947 300.469 167.235C301.437 165.522 302.23 164.055 302.23 163.974C302.23 163.893 301.976 163.417 301.665 162.917C301.212 162.186 300.995 161.475 300.557 159.284L300.012 156.56L302.263 149.98L301.826 148.732C300.615 145.271 300.43 143.938 300.911 142.094C301.251 140.783 302.221 137.81 303.195 135.091C304.441 131.612 305.138 129.435 305.376 128.284C305.643 126.994 306.04 125.368 306.106 125.302C306.429 124.979 308.455 123.934 309.351 123.627C310.281 123.31 310.896 123.232 312.509 123.228C314.698 123.222 315.33 123.374 317.736 124.486C320.287 125.665 322.099 126.214 324.505 126.537C326.047 126.745 326.587 126.744 328.251 126.534C331.557 126.115 332.889 125.938 334 125.767C334.589 125.677 335.777 125.515 336.64 125.407C338.87 125.127 340.656 124.885 341.88 124.695C342.464 124.605 344.515 124.531 346.44 124.531H349.94L350.121 123.964C350.22 123.652 350.546 122.572 350.844 121.564C351.144 120.556 351.74 118.553 352.17 117.113C352.6 115.673 353.222 113.553 353.552 112.401C354.435 109.317 354.428 109.34 355.378 106.03C357.059 100.169 356.909 101.52 357.454 87.1794C357.693 80.899 357.697 54.0165 357.46 54.0165C357.165 54.0165 357.233 42.6823 357.536 41.1005C357.838 39.5223 358.728 35.5603 359.172 33.8134C359.401 32.9143 359.434 32.5479 359.289 32.5479C359.177 32.5479 359.04 32.594 358.984 32.6504ZM137.753 37.5913L128.076 40.8514L125.122 43.2192C122 45.7209 119.662 47.4279 118.508 48.049C117.924 48.3636 112.836 50.5966 108.49 52.4456C107.868 52.7106 105.515 53.7299 103.264 54.7105C98.5839 56.7484 95.2323 58.1867 92.7229 59.2336C90.2681 60.2578 91.1478 59.7329 80.7557 66.373C74.5958 70.3091 69.6819 73.1255 66.589 74.4927C64.6083 75.3683 58.1417 77.5342 52.4767 79.2194C48.591 80.3752 47.7338 80.6133 42.2845 82.0501C40.6076 82.4922 38.5299 83.0426 37.6675 83.2731C36.8051 83.5037 35.0802 83.9605 33.8345 84.2883C28.432 85.7095 29.0785 85.4312 26.3946 87.4906C25.0537 88.5193 23.3468 89.8324 22.6013 90.4084C21.8558 90.9844 20.0797 92.3463 18.6547 93.4347C15.8389 95.5853 16.2322 95.4024 11.0981 96.9514C9.43648 97.4527 7.00586 98.1959 4.21615 99.0555C3.6412 99.2327 2.44305 99.5952 1.55362 99.8612C0.00719213 100.324 -0.0598825 100.364 0.0227006 100.787C0.0702643 101.031 0.198668 102.33 0.308082 103.674C0.492762 105.94 0.626395 106.534 2.15349 111.877C3.05911 115.045 3.9853 118.229 4.21162 118.954C4.43811 119.678 4.94894 121.916 5.34688 123.928C5.74481 125.94 6.30007 128.712 6.58057 130.089C6.86125 131.466 7.09088 133.056 7.09088 133.623C7.09088 134.38 7.15447 134.655 7.32939 134.655C7.49979 134.655 7.72646 135.49 8.1223 137.578C8.66257 140.427 8.94133 141.557 10.8442 148.618C11.3488 150.49 11.933 152.664 12.1426 153.449L12.5234 154.877L11.434 159.729L12.2426 163.817C12.6872 166.065 13.0651 167.92 13.0822 167.94C13.0992 167.959 13.6033 167.354 14.2023 166.595C15.6283 164.789 16.677 163.043 16.8029 162.265C16.9482 161.368 17.959 160.463 21.2606 158.273C25.5863 155.405 27.1796 154.162 27.8274 153.15C28.4959 152.107 29.451 151.539 30.4058 151.619L31.0469 151.672L31.1548 159.701C31.214 164.117 31.313 168.044 31.3746 168.428C31.4363 168.812 31.645 170.58 31.8384 172.356C32.6324 179.647 33.5526 185.194 34.386 187.712C35.8555 192.154 38.355 200.457 38.2442 200.529C37.9335 200.729 36.4646 201.888 35.8852 202.389C34.4908 203.594 29.7733 205.688 23.478 207.901C21.3141 208.661 20.1884 209.191 17.7285 210.612C16.0463 211.582 14.5708 212.467 14.4497 212.577C14.2775 212.734 14.4462 212.939 15.2269 213.511L16.224 214.246H25.4894L29.6608 213.188C32.6752 212.426 34.4555 212.071 36.08 211.914L38.3276 211.696L38.0998 216.478L39.6861 220.554C42.9753 229.007 42.9807 229.023 43.1537 230.915C43.5225 234.945 43.8773 239.933 44.2031 245.663C44.3843 248.851 44.475 250.147 44.9859 256.841C45.1672 259.217 45.2463 262.857 45.2463 268.822V277.39L45.6936 278.936C45.9398 279.788 46.5734 281.741 47.1017 283.277C47.6301 284.813 48.1383 286.325 48.231 286.637C48.4335 287.321 51.7415 293.875 52.5687 295.233C53.4329 296.65 53.97 297.328 54.2315 297.328C54.4767 297.328 54.7671 296.497 54.9396 295.303C55.03 294.678 55.3746 294.235 57.7187 291.725C60.378 288.88 60.3996 288.85 61.2006 286.942C62.6033 283.6 62.75 283.34 65.0475 280.135C66.2859 278.407 67.3572 276.899 67.4279 276.784C67.4988 276.669 67.4786 276.236 67.3833 275.824C67.2878 275.41 67.0554 274.248 66.8669 273.241C66.6784 272.232 66.2441 269.954 65.9021 268.179C65.5601 266.402 65.156 264.297 65.0044 263.502C64.8529 262.704 64.7725 261.939 64.826 261.8C65.0126 261.311 64.5713 257.607 64.1459 256.089C63.6145 254.193 63.1481 253.268 61.8851 251.607C60.2927 249.512 59.536 247.789 59.0832 245.227C58.8919 244.143 58.8363 241.836 58.8361 234.943C58.836 227.052 58.7975 225.78 58.4929 223.598C58.1487 221.132 57.6237 217.311 56.9008 212.014C56.6681 210.308 56.577 209.114 56.6728 209.029C56.7606 208.952 57.6556 208.596 58.6617 208.24C59.6679 207.884 61.9114 207.008 63.6472 206.292L66.8033 204.994L67.5673 205.416C67.9875 205.648 69.224 206.13 70.3152 206.484C72.2049 207.097 72.3522 207.181 73.4216 208.242C74.7026 209.512 75.8948 210.143 79.1333 211.263C82.1023 212.289 82.2054 212.345 87.4376 215.738C92.7803 219.203 93.9829 220.119 96.8172 222.889C97.9192 223.966 99.8653 225.677 101.142 226.691C103.167 228.297 103.879 229.017 106.725 232.341C108.87 234.845 110.801 237.334 112.363 239.605C114.46 242.653 116.31 245.211 121.211 251.835C122.453 253.514 122.569 253.619 123.476 253.896C124.002 254.057 125.226 254.432 126.196 254.731L127.959 255.27L134.189 252.589L137.673 252.448C140.032 252.352 141.664 252.195 142.726 251.961C144.909 251.481 145.979 251.289 147.691 251.071C148.506 250.966 149.995 250.619 151.002 250.296C152.562 249.797 157.784 248.102 167.004 245.107C168.188 244.721 169.09 244.344 169.008 244.269C168.926 244.194 167.292 243.445 165.375 242.604C158.294 239.499 155.905 238.207 153.876 236.383C153.075 235.664 148.38 232.271 139.067 225.682C135.009 222.811 131.066 219.678 121.011 211.342C117.77 208.654 115.378 207.472 112.585 207.181C112.01 207.121 110.52 206.88 109.274 206.646C108.029 206.411 106.578 206.144 106.051 206.05C105.524 205.957 104.858 205.837 104.57 205.782C104.283 205.728 102.715 205.611 101.086 205.522C99.4568 205.435 97.2223 205.28 96.1203 205.179C95.0184 205.077 93.0975 204.915 91.8518 204.817C89.6153 204.641 88.2084 204.412 83.1921 203.405C81.1981 203.005 80.1088 202.67 78.278 201.892C76.9842 201.344 75.981 200.846 76.0486 200.785C76.1162 200.726 77.5827 200.199 79.3075 199.616C81.0324 199.031 84.286 197.916 86.5379 197.136C90.6798 195.703 91.1586 195.546 93.507 194.844C95.0023 194.397 98.495 192.66 101.173 191.03C102.179 190.418 105.557 188.169 108.68 186.033L114.357 182.148L117.347 177.783C118.992 175.383 120.338 173.267 120.338 173.083C120.338 172.535 120.837 171.285 121.296 170.681C121.555 170.342 122.057 169.997 122.556 169.814C124.264 169.19 124.816 168.893 126.183 167.858C126.954 167.274 128.255 166.182 129.073 165.431C129.891 164.68 131.122 163.569 131.808 162.962C133.049 161.867 134.913 159.552 137.832 155.477L139.358 153.348L140.287 149.543C140.798 147.45 141.586 144.206 142.039 142.334C143.488 136.348 143.981 134.453 144.812 131.687C145.259 130.199 145.929 127.95 146.302 126.689C146.675 125.429 147.206 124.015 147.483 123.548C147.759 123.081 149.381 120.342 151.087 117.462C158.234 105.397 157.272 107.346 158.323 102.801C158.501 102.033 158.843 100.579 159.083 99.5706C159.323 98.5619 160.628 92.1999 161.984 85.4327L164.448 73.1288L164.215 71.2088C163.941 68.9573 163.943 66.7755 164.221 61.8709C164.333 59.9029 164.498 56.9968 164.588 55.4128C164.678 53.8289 164.8 51.4993 164.86 50.2358L164.969 47.9386L162.82 45.5354C161.456 44.0095 159.771 41.8262 158.205 39.5547L155.74 35.9771L151.585 35.1371C149.3 34.6751 147.43 34.3047 147.43 34.3141C147.43 34.3235 143.075 35.7982 137.753 37.5913ZM367.391 34.5648C367.391 34.6739 367.842 36.1391 369.567 41.6241C369.884 42.6321 370.391 44.2815 370.694 45.2895C370.997 46.2974 371.316 47.3185 371.403 47.5585C371.553 47.9744 374.569 57.6646 375.234 59.8637C375.408 60.4396 375.759 61.5785 376.015 62.3945C376.271 63.2105 376.598 64.279 376.743 64.7691L377.008 65.6602L375.163 73.0599C374.147 77.1296 373.243 80.8522 373.15 81.3322C373.058 81.8122 372.739 83.3438 372.443 84.7358C372.145 86.1278 371.71 88.1699 371.473 89.2739C371.237 90.3778 370.889 92.0273 370.701 92.9392C370.352 94.6204 369.791 97.2581 369.14 100.27C368.943 101.182 368.589 102.871 368.352 104.023C368.115 105.175 367.645 107.371 367.307 108.904C366.716 111.589 366.694 111.82 366.694 115.258C366.694 120.203 366.378 130.568 366.167 132.513C365.955 134.484 365.803 134.89 363.042 140.851C361.812 143.505 361.519 144.112 357.817 151.672L354.228 159.003L351.482 172.789L349.126 176.161C347.59 178.364 346.727 179.455 346.647 179.305C346.579 179.179 346.276 177.936 345.975 176.545C345.671 175.152 345.353 173.699 345.266 173.316C345.177 172.932 344.825 171.321 344.483 169.737C344.14 168.153 343.786 166.543 343.698 166.159C343.607 165.775 343.292 164.322 342.995 162.93C342.699 161.538 342.344 159.923 342.204 159.341C342.067 158.759 341.953 158.17 341.953 158.032C341.953 157.894 340.612 156.446 338.972 154.814C334.556 150.417 334.714 150.665 332.716 145.04C332.105 143.317 330.683 139.429 329.444 136.095L328.65 133.956H320.405C315.87 133.956 312.161 133.989 312.161 134.028C312.161 134.068 312.758 135.344 313.488 136.865C314.218 138.385 315.229 140.493 315.732 141.549C316.238 142.605 317.179 144.569 317.823 145.913C319.903 150.241 320.698 151.958 320.698 152.116C320.698 152.202 320.809 152.529 320.945 152.845C321.226 153.495 321.433 154.058 323.05 158.567C324.214 161.815 324.395 162.309 325.397 165.019C325.832 166.202 325.975 166.936 326.106 168.685C326.62 175.555 327.481 179.823 328.571 180.916C329.465 181.809 329.784 183.288 330.099 187.977C330.526 194.341 331.026 196.691 332.179 197.736C333.538 198.967 334.12 207.627 333.781 221.587L333.587 229.541L334.103 231.012C334.385 231.822 334.903 233.271 335.251 234.231C335.601 235.191 336.265 237.036 336.727 238.333C337.188 239.628 337.852 241.474 338.201 242.434C338.551 243.394 339.03 244.728 339.265 245.398C339.502 246.068 339.793 246.711 339.91 246.824C340.028 246.938 342.217 248.526 344.776 250.353L349.426 253.678L351.832 253.338C353.155 253.151 354.864 252.914 355.63 252.811C356.397 252.708 357.533 252.554 358.156 252.471C358.778 252.385 359.955 252.228 360.77 252.121C361.584 252.013 362.777 251.846 363.422 251.746L364.591 251.568L365.486 248.746C365.979 247.194 366.539 245.414 366.732 244.791C366.924 244.166 367.343 242.831 367.662 241.823C367.981 240.815 368.413 239.441 368.621 238.769C368.828 238.097 369.26 236.722 369.579 235.715C369.898 234.706 370.33 233.332 370.537 232.66C370.744 231.988 371.18 230.609 371.504 229.597C371.83 228.585 372.095 227.703 372.095 227.637C372.095 227.455 384.407 211.431 388.285 206.564C390.16 204.213 392.016 201.857 392.406 201.328C395.026 197.797 395.803 196.781 397.61 194.523C398.723 193.13 401.075 189.831 402.837 187.192C406.029 182.41 406.044 182.382 406.91 179.861C407.388 178.468 408.341 175.719 409.027 173.752C409.712 171.784 410.572 169.31 410.938 168.254C411.304 167.198 411.813 165.745 412.069 165.025C412.325 164.305 412.952 162.498 413.466 161.01C413.979 159.522 414.921 156.813 415.561 154.989C416.198 153.165 417.101 150.573 417.564 149.229C418.029 147.885 418.956 145.214 419.625 143.294C420.294 141.374 421.484 137.958 422.268 135.702C423.052 133.446 424.268 129.951 424.972 127.935C426.908 122.387 426.734 123.154 427.5 116.851C427.587 116.131 427.744 114.914 427.847 114.146C427.95 113.378 428.107 112.161 428.194 111.441C428.283 110.721 428.556 108.6 428.802 106.728C429.401 102.181 429.915 98.2037 430.112 96.6046C430.331 94.8171 430.913 90.3133 431.239 87.8809C431.387 86.7788 431.556 85.7185 431.615 85.5245C431.868 84.6904 434.605 77.3991 435.776 74.4379C438.051 68.6829 437.879 68.9641 444.698 59.8143C446.364 57.5793 447.874 55.4979 448.054 55.1889C448.383 54.6246 452.068 46.0522 452.122 45.7258C452.138 45.6298 451.838 45.5317 451.455 45.508C451.071 45.4842 449.425 45.3453 447.796 45.1992C443.663 44.8288 441.351 44.6272 438.823 44.4167C437.625 44.3171 435.783 44.16 434.729 44.0677C433.675 43.9753 431.831 43.8182 430.635 43.7186C428.443 43.5362 427.18 43.4266 421.575 42.9331C419.897 42.7855 417.663 42.5896 416.609 42.4978C415.555 42.4062 414.144 42.2816 413.473 42.221C412.681 42.1493 411.677 41.8805 410.599 41.4516C408.13 40.4688 405.832 39.7745 403.978 39.4512C399.891 38.7387 396.065 38.1732 389.169 37.262C388.353 37.1543 387.177 36.9919 386.555 36.9012C385.932 36.8104 383.228 36.4643 380.545 36.1321C374.64 35.4012 372.905 35.1861 371.311 34.9886C370.64 34.9053 369.621 34.7889 369.046 34.7295C368.471 34.6702 367.863 34.5819 367.695 34.533C367.528 34.4843 367.391 34.4986 367.391 34.5648ZM525.609 39.7336C521.469 48.3589 516.441 58.1579 514.923 60.5618C511.665 65.7213 509.066 70.1153 507.679 72.8068C506.146 75.7797 503.163 84.0451 501.262 90.5829C500.112 94.5356 499.708 95.7471 497.966 100.445C495.419 107.318 493.879 111.792 493.879 112.323C493.879 112.589 493.581 113.794 491.267 122.873C489.796 128.639 489.521 130.136 489.347 133.258C488.976 139.9 487.776 145.434 486.108 148.192C485.324 149.488 483.519 153.077 482.456 155.454C482.012 156.446 481.228 158.098 480.712 159.125C479.651 161.243 479.421 162.276 479.418 164.938C479.414 168.338 479.177 169.5 477.759 173.054C475.181 179.51 474.939 180.427 474.703 184.626C474.503 188.175 474.229 190.117 473.571 192.69C473.325 193.65 472.968 195.137 472.778 195.994C472.4 197.687 471.905 201.944 472.043 202.304C472.175 202.649 473.095 202.901 474.236 202.901C474.808 202.901 476.893 202.744 478.871 202.553C480.848 202.363 483.916 202.126 485.69 202.028C487.462 201.929 489.54 201.775 490.307 201.686C491.074 201.599 492.485 201.438 493.443 201.33C494.771 201.182 495.994 200.864 498.583 199.996C503.698 198.282 505.719 197.909 511.289 197.654C515.563 197.457 517.955 197.485 522.075 197.774C524.387 197.937 527.318 197.329 529.464 196.242C530.341 195.799 531.524 194.256 532.456 192.341C533.527 190.142 533.796 188.866 535.006 180.21C536.749 167.766 537.106 165.997 538.134 164.687C538.402 164.345 538.815 163.515 539.052 162.843C539.846 160.595 541.39 153.74 541.786 150.712C542.542 144.907 543.397 141.211 544.366 139.542C545.479 137.625 546.218 135.683 547.377 131.628C547.763 130.269 548.122 129.019 548.171 128.851C548.281 128.475 548.223 128.496 545.362 129.855C544.213 130.402 541.35 131.755 539.003 132.862C536.655 133.97 533.686 135.376 532.405 135.987C529.813 137.222 529.825 137.218 526.285 137.988C524.894 138.29 522.818 138.794 521.668 139.108C520.518 139.421 518.831 139.851 517.922 140.063C515.457 140.638 513.554 141.225 511.127 142.161C509.928 142.624 508.008 143.251 506.858 143.555C503.583 144.422 502.069 144.972 501.261 145.59C500.849 145.905 500.471 146.096 500.423 146.016C500.194 145.648 499.957 142.267 500.06 140.851C500.349 136.813 500.365 136.76 502.414 132.124C502.585 131.74 503.444 129.737 504.325 127.673C505.207 125.609 506.515 122.717 507.231 121.247C508.63 118.382 509.17 116.876 509.745 114.24C510.301 111.691 510.432 110.825 510.596 108.636C510.782 106.134 510.974 105.342 512.784 99.5718C514.751 93.3012 514.639 93.7467 515.324 89.492C515.558 88.0402 516.193 84.9332 516.781 82.3795C517.944 77.3091 517.965 77.2621 520.647 73.1655C523.231 69.217 524.23 67.5449 525.677 64.7508C526.421 63.3108 527.504 61.2687 528.083 60.2127C530.787 55.275 532.802 50.4348 533.074 48.223C533.254 46.7661 534.086 42.3853 534.808 39.0988C534.998 38.238 535.137 37.5189 535.118 37.5009C535.069 37.4559 530.943 37.1256 528.766 36.9925L526.978 36.8832L525.609 39.7336ZM515.221 41.0237C514.024 41.359 500.003 44.7864 491.352 46.8582C490.107 47.1565 488.42 47.5573 487.607 47.7489C486.791 47.9404 485.969 48.1345 485.777 48.1804C484.887 48.3931 482.355 48.7918 479.331 49.1952C474.292 49.8673 472.984 50.0019 471.478 50.0035C470.719 50.0042 469.626 50.0764 469.051 50.1639C468.476 50.2515 467.395 50.3758 466.649 50.44C464.955 50.5857 464.84 50.6973 463.321 53.6615C460.709 58.7581 457.232 67.7814 456.774 70.6505C456.591 71.8018 455.779 74.304 454.415 77.9287C449.932 89.8376 448.855 93.0694 448.594 95.4203C448.413 97.0532 448.116 98.1392 446.601 102.725C445.655 105.587 445.27 107.516 445.268 109.409C445.264 112.71 443.992 120.278 442.623 125.142C441.933 127.595 438.349 136.864 435.468 143.643C434.938 144.891 433.976 147.169 433.332 148.705C432.687 150.241 431.372 153.304 430.412 155.512L428.664 159.527L428.537 161.709C428.467 162.908 428.171 165.274 427.878 166.966L427.347 170.041L422.706 179.341C419.373 186.016 418.019 188.904 417.902 189.575C417.813 190.088 417.663 190.939 417.568 191.468C417.136 193.849 417.026 194.584 416.761 196.879C416.599 198.275 416.461 201.04 416.439 203.337C416.402 207.057 416.369 207.428 415.996 208.399C415.775 208.975 415.451 209.703 415.275 210.019C415.099 210.333 414.954 210.638 414.954 210.698C414.954 210.804 415.592 210.755 418.787 210.401C421.564 210.095 427.141 209.713 428.88 209.71C429.784 209.708 431.234 209.624 432.103 209.521C435.72 209.097 437.854 208.816 440.74 208.387C442.416 208.139 444.231 207.868 444.771 207.79C445.313 207.709 447.665 206.887 449.998 205.962C455.261 203.876 454.706 204.077 457.274 203.348C458.46 203.009 459.452 202.712 459.474 202.686C459.499 202.66 461.095 198.75 463.025 193.999L466.532 185.359L467.138 181.956C467.471 180.083 467.834 178.041 467.943 177.418C468.483 174.345 470.754 167.302 473.107 161.391C474.587 157.673 474.639 157.501 474.228 157.604C472.217 158.109 465.828 160.805 464.403 161.749C463.893 162.086 463.114 162.527 462.67 162.728C459.619 164.113 452.355 166.805 449.88 167.47C445.639 168.609 444.684 168.944 442.221 170.158C440.783 170.867 439.585 171.425 439.555 171.398C439.527 171.371 441.052 168.964 442.945 166.049C444.839 163.134 446.385 160.591 446.381 160.399C446.378 160.207 446.313 158.519 446.238 156.647C446.095 153.054 446.198 151.733 446.829 149.085C447.017 148.3 447.493 146.169 447.886 144.35C448.383 142.06 448.939 140.126 449.691 138.068L450.779 135.095L451.901 134.809C452.986 134.532 455.549 133.921 458.424 133.254C459.19 133.076 460.993 132.652 462.431 132.311C463.868 131.969 466.001 131.464 467.17 131.188L469.294 130.686L470.888 129.353C471.766 128.62 472.651 127.988 472.858 127.949C473.484 127.829 476.855 127.496 477.428 127.497C477.956 127.498 477.982 127.456 479.156 124.662C481.843 118.275 482.395 117.007 483.51 114.67C484.768 112.036 485.89 109.326 486.188 108.209C486.413 107.362 486.965 103.085 487.631 97.0409C487.833 95.1859 487.997 94.6712 489.173 92.1538C489.906 90.5845 492.109 85.5223 492.072 85.4865C492.048 85.4615 491.326 85.6675 490.471 85.9441C489.614 86.2208 487.502 86.8935 485.777 87.4389C481.334 88.844 481.627 88.7384 477.393 90.46C474.39 91.6811 472.698 92.5062 469.727 94.198C467.631 95.3921 465.562 96.4681 465.131 96.5891C463.384 97.0793 461.75 97.7377 460.483 98.4601C459.749 98.8796 459.04 99.2227 458.908 99.2227C458.413 99.2227 458.162 98.0866 458.166 95.8684C458.169 93.2551 458.331 92.0784 459.136 88.808C460.145 84.7122 461.368 81.5169 462.15 80.9371C462.41 80.7449 463.795 80.1026 465.227 79.5097C467.212 78.6883 468.952 78.1465 472.536 77.2337C475.123 76.5748 478.024 75.7478 478.982 75.3956C479.941 75.0435 481.782 74.3762 483.077 73.9128C484.369 73.4492 486.448 72.6998 487.694 72.2472C490.279 71.3078 491.037 71.1497 495.969 70.5192C497.933 70.2681 500.018 69.9867 500.6 69.894C501.184 69.8012 501.952 69.7252 502.309 69.7252C502.959 69.7252 502.959 69.7251 503.701 68.1107C504.109 67.2227 505.379 64.3363 506.522 61.6963C507.665 59.0564 510.385 53.3018 512.564 48.9082C514.744 44.5148 516.528 40.8821 516.528 40.8357C516.528 40.706 516.173 40.757 515.221 41.0237ZM200.482 116.506C199.954 116.575 198.896 116.756 198.13 116.907C197.363 117.058 194.619 117.304 192.032 117.454C183.723 117.935 181.531 118.206 179.198 119.042C178.495 119.294 177.103 119.773 176.104 120.106C174.131 120.765 171.956 121.707 170.638 122.474C170.178 122.742 169.762 122.96 169.712 122.96C169.353 122.96 163.013 127.369 161.705 128.529C161.016 129.139 157.735 131.923 157.683 131.94C157.669 131.945 157.572 132.892 157.467 134.044C157.362 135.196 157.197 136.943 157.101 137.927C157.004 138.911 156.848 140.505 156.755 141.469C156.602 143.03 156.509 143.35 155.904 144.393C155.168 145.662 155.081 146.059 154.299 151.76C154.117 153.091 153.98 153.445 152.972 155.198C151.876 157.105 151.768 157.226 148.636 160.079L145.425 163.004L145.003 164.407C144.642 165.606 143.977 167.942 143.336 170.261C143.186 170.806 142.71 173.023 141.559 178.552C141.359 179.512 140.789 181.945 140.292 183.96L139.389 187.621L141.772 191.33L141.66 195.064C141.528 199.455 141.692 200.707 143.52 209.272C144.324 213.036 145.875 218.264 146.756 220.18C147.305 221.372 147.649 221.777 150.617 224.729C155.917 230 158.365 231.91 161.658 233.344C162.84 233.857 164.67 234.69 165.724 235.191C170.17 237.308 172.834 238.223 176.613 238.931C180.834 239.724 188.718 241.045 198.565 242.614C200.721 242.956 202.837 243.325 203.27 243.431C203.789 243.56 207.845 243.647 215.291 243.691L226.529 243.757L227.7 242.921C228.344 242.461 229.874 241.382 231.097 240.525C241.355 233.334 241.352 233.339 244.803 229.016C247.354 225.823 252.187 219.292 254.989 215.258C256.515 213.057 256.276 213.646 258.623 206.304C258.961 205.248 259.569 203.363 259.977 202.115C260.383 200.867 260.808 199.296 260.921 198.625C261.498 195.204 261.654 194.257 261.979 192.21C262.529 188.745 262.963 186.033 263.635 181.869C263.977 179.757 264.336 177.517 264.433 176.894C264.531 176.269 264.702 175.288 264.811 174.712C265.129 173.066 265.047 171.563 264.529 169.476C264.268 168.42 263.663 165.945 263.189 163.978C261.018 154.995 261.226 155.546 257.731 149.519C251.509 138.787 251.443 138.686 249.077 136.084C244.309 130.842 239.164 125.454 237.679 124.152C236.362 122.995 235.616 122.524 233.019 121.204C226.954 118.122 224.677 117.426 219.908 117.195C218.087 117.107 215.46 116.954 214.072 116.855C206.838 116.343 202.55 116.232 200.482 116.506ZM114.789 121.434C116.193 122.514 117.66 123.632 118.05 123.92C118.836 124.502 118.901 124.614 119.123 125.782C119.508 127.808 118.216 131.765 116.257 134.554C114.522 137.025 110.322 144.313 109.523 146.238C108.929 147.671 108.792 147.857 107.684 148.743C103.151 152.367 99.0818 155.134 95.6848 156.902C91.1302 159.272 90.4178 159.757 85.057 164.136C76.129 171.43 75.5104 171.921 74.1679 172.784C72.5037 173.853 69.1986 176.215 66.8694 178.001C65.8737 178.765 63.6784 180.256 61.991 181.314C58.5239 183.488 57.4737 184.255 55.3199 186.185C54.488 186.93 53.7737 187.541 53.7324 187.541C53.5418 187.541 52.9919 176.957 52.8299 170.174C52.7053 164.961 52.0993 161.347 50.7317 157.662C49.5539 154.488 49.1154 151.876 48.964 147.134L48.8582 143.818L50.5803 142.809C55.66 139.834 61.7813 137.073 66.3277 135.706C67.3338 135.403 69.0195 134.894 70.0736 134.573C71.1276 134.252 72.8133 133.741 73.8194 133.436C75.7091 132.865 78.8089 131.924 80.7885 131.321C81.4113 131.131 84.6573 129.864 88.0018 128.504L94.0824 126.033L104.919 119.501L112.236 119.472L114.789 121.434ZM205.709 163.274C210.157 163.119 213.242 163.179 214.159 163.44C216.69 164.16 217.715 164.754 222.389 168.205L224.347 169.65L226.233 172.617C227.269 174.249 228.416 176.292 228.78 177.156C229.144 178.02 230.147 180.17 231.012 181.935L232.581 185.145L232.632 187.115C232.66 188.197 232.724 189.227 232.778 189.404C232.83 189.578 232.954 190.351 233.05 191.119C233.146 191.887 233.306 193.135 233.404 193.893L233.583 195.272L232.515 197.296C231.926 198.412 231.053 200.068 230.574 200.981C230.095 201.892 229.353 203.297 228.926 204.1L228.147 205.563L228.41 206.456C228.553 206.948 229.111 208.755 229.647 210.471C230.184 212.185 230.623 213.639 230.623 213.7C230.623 213.761 230.172 213.981 229.621 214.187C229.071 214.393 227.795 214.874 226.79 215.255L224.961 215.949L224.786 221.194L222.372 224.043C220.976 225.687 219.615 227.115 219.149 227.422C218.704 227.715 217.628 228.407 216.758 228.958C215.889 229.51 214.992 230.215 214.765 230.525C214.538 230.834 213.526 232.096 212.514 233.327C210.702 235.531 210.665 235.564 210.064 235.474C208.644 235.259 207.036 234.826 204.916 234.088C203.676 233.655 201.766 233 200.675 232.632C199.325 232.177 198.665 231.866 198.609 231.662C198.515 231.316 198.433 231.285 196.562 230.906C195.004 230.59 188.054 228.585 184.976 227.563L182.974 226.9L182.744 225.329C182.617 224.465 182.476 223.573 182.43 223.348C182.336 222.886 177.697 215.923 175.437 212.85C174.625 211.745 173.542 210.41 173.031 209.882C171.71 208.516 171.367 207.47 170.772 202.988C170.478 200.77 170.448 199.251 170.675 198.066C170.763 197.605 170.927 196.717 171.038 196.094C171.89 191.322 172.488 189.239 173.942 185.988C174.473 184.799 175.094 183.132 175.32 182.284C175.716 180.804 176.378 179.303 177.116 178.215C177.416 177.772 177.449 177.512 177.366 176.295L177.27 174.887L179.394 173.431C181.343 172.095 181.618 171.835 182.767 170.256L184.018 168.535L189.506 166.359C192.523 165.162 195.267 164.136 195.604 164.079C195.938 164.023 196.527 163.777 196.91 163.533L197.607 163.091L200.482 163.224C202.062 163.297 204.414 163.32 205.709 163.274Z" fill="#D8D1C5"/>
<path fill-rule="evenodd" clip-rule="evenodd" d="M594.99 202.895C594.711 203.236 593.544 203.752 592.394 204.043C591.245 204.334 589.711 204.825 588.981 205.136C588.251 205.446 586.16 206.165 584.338 206.733C582.512 207.301 580.186 208.058 579.169 208.415C577.52 208.992 576.72 208.978 571.927 208.289C568.38 207.779 565.391 207.608 563.167 207.787C561.315 207.937 556.415 208.133 552.281 208.222C548.147 208.312 544.441 208.526 544.052 208.698C543.535 208.924 543.181 210.147 542.779 213.109C542.474 215.364 541.93 218.412 541.572 219.883C541.214 221.354 540.541 224.964 540.068 227.906C539.6 230.848 539.007 233.625 538.755 234.077C538.224 235.025 538.238 235.023 545.436 233.271L549.65 232.247L554.355 233.169C558.931 234.065 559.064 234.125 559.316 235.4C559.718 237.415 559.625 245.067 559.201 245.067C558.993 245.067 557.799 247.285 556.548 249.997C554.965 253.424 554.271 255.489 554.271 256.766C554.271 257.777 553.974 259.821 553.612 261.307C553.249 262.794 552.666 265.858 552.312 268.117C551.653 272.294 551.215 273.563 549.867 275.153C548.416 276.866 547.32 279.243 547.006 281.33C546.833 282.487 546.409 284.122 546.06 284.962C545.715 285.803 545.427 286.698 545.427 286.951C545.427 287.786 550.198 287.476 552.06 286.52C553.015 286.029 554.187 285.628 554.669 285.628C555.151 285.628 555.655 285.452 555.783 285.237C555.916 285.022 556.902 284.623 557.976 284.351C559.78 283.892 559.939 283.734 560.143 282.179C560.267 281.257 561.08 278.496 561.956 276.045C562.831 273.593 563.556 270.986 563.565 270.25C563.578 269.515 563.972 268.111 564.441 267.13C564.909 266.15 565.303 265.121 565.312 264.845C565.32 264.568 565.621 264.093 565.988 263.789C566.351 263.485 566.881 262.407 567.169 261.394C567.456 260.381 567.854 259.33 568.058 259.059C568.756 258.12 569.738 254.199 569.742 252.336C569.742 251.309 569.954 250.338 570.211 250.179C570.467 250.02 570.666 248.654 570.653 247.144C570.627 243.531 571.436 237.654 572.218 235.765C572.563 234.937 572.842 233.929 572.842 233.524C572.842 232.413 576.932 230.557 581.243 229.712C583.029 229.362 586.248 228.385 589.423 227.229C590.639 226.786 592.359 226.301 593.248 226.15C594.137 225.999 595.061 225.631 595.308 225.331C595.556 225.031 595.98 221.576 596.259 217.654C596.533 213.732 596.958 209.495 597.201 208.239C597.555 206.393 597.502 205.604 596.909 204.116C596.126 202.141 595.79 201.926 594.99 202.895ZM532.383 204.537C522.076 206.442 522.722 206.235 521.55 208.005C520.958 208.899 520.02 210.733 519.468 212.081C518.915 213.428 518.283 214.592 518.057 214.667C517.491 214.857 512.354 221.166 511.647 222.54C511.073 223.657 503.187 231.249 502.601 231.249C502.268 231.249 501.283 226.68 500.767 222.746C500.462 220.425 499.904 218.779 498.267 215.376C497.637 214.067 497.395 213.961 493.89 213.467C490.333 212.965 484.787 213.4 483.887 214.25C483.462 214.651 484.578 218.705 485.687 220.791C486.2 221.755 486.619 222.908 486.619 223.353C486.619 223.798 486.914 224.738 487.276 225.442C489.192 229.178 489.376 230.639 489.438 242.609C489.481 250.993 489.65 254.451 490.048 255.096C490.832 256.366 491.554 258.319 492.188 260.89C492.49 262.116 493.268 264.924 493.917 267.13C494.763 270.007 495.196 272.781 495.447 276.936C495.64 280.123 495.822 282.781 495.851 282.842C496.028 283.213 498.504 282.833 500.672 282.102C502.063 281.633 504.345 281.109 505.743 280.936C508.479 280.599 508.456 280.634 507.835 277.605C507.61 276.502 507.221 273.694 506.972 271.365C506.723 269.036 506.396 266.278 506.246 265.236C506 263.521 506.062 263.342 506.904 263.342C507.415 263.342 509.468 264.695 511.466 266.35C515.669 269.831 516.284 270.451 518.676 273.604C520.617 276.163 523.651 278.865 524.933 279.174C530.712 280.571 531.977 280.737 532.936 280.221C533.484 279.925 533.931 279.408 533.931 279.072C533.931 278.263 532.498 275.47 530.482 272.34C529.58 270.946 528.647 269.371 528.404 268.842C528.161 268.312 526.87 267.022 525.53 265.975C522.099 263.287 514.174 256.354 511.877 254.026L509.943 252.065L511.55 251.088C512.434 250.55 513.788 249.125 514.56 247.922C515.332 246.719 518.062 243.629 520.631 241.055C523.195 238.481 526.091 235.063 527.069 233.46C528.046 231.857 529.5 229.65 530.296 228.557C533.493 224.183 534.913 221.703 535.474 219.509C536.279 216.353 538.795 204.68 538.795 204.091C538.795 203.472 537.751 203.545 532.383 204.537ZM308.834 210.426C305.532 212.685 302.508 214.734 302.112 214.98C300.68 215.867 300.769 240.943 302.216 244.398C302.89 246.008 306.198 271.451 305.831 272.201C305.636 272.599 305.52 273.575 305.573 274.369L305.668 275.814L303.952 274.443C303.007 273.69 302.235 272.774 302.235 272.408C302.235 272.043 301.3 270.304 300.157 268.545C299.014 266.787 297.7 264.595 297.237 263.676C296.774 262.757 296.246 262.004 296.065 262.004C295.883 262.004 295.181 260.651 294.505 258.996C291.485 251.606 289.521 247.962 287.809 246.571C286.867 245.805 284.756 244.074 283.12 242.725C280.254 240.362 280.066 240.279 278.035 240.498C276.875 240.623 275.727 240.858 275.484 241.021C274.965 241.366 271.091 241.263 270.488 240.888C270.261 240.746 269.765 240.977 269.387 241.4C268.84 242.012 268.641 243.908 268.411 250.673L268.122 259.177L270.174 267.388C271.303 271.904 272.511 276.23 272.859 277.001C273.206 277.772 273.788 280.981 274.151 284.133C275.066 292.079 276.382 301.386 277.152 305.352C277.514 307.212 277.847 307.915 278.367 307.915C279.088 307.915 285 304.035 286.403 302.642C286.816 302.233 287.858 300.23 288.72 298.192L290.286 294.488L288.696 289.055C287.822 286.067 286.955 283.422 286.769 283.177C286.231 282.465 285.47 278.673 284.763 273.184C284.132 268.281 284.197 266.841 284.988 268.248C285.194 268.614 285.845 269.615 286.437 270.473C287.029 271.331 288.961 274.942 290.732 278.496C292.503 282.051 294.273 285.606 294.666 286.396C295.351 287.771 300.138 294.283 303.634 298.594C305.255 300.593 305.356 300.642 308.075 300.755C312.96 300.96 314.129 300.825 318.06 299.611C323.314 297.988 323.462 297.826 323.446 293.694C323.432 290.39 322.535 278.733 321.675 270.696C321.434 268.45 321.358 261.488 321.501 254.873C321.648 248.137 321.561 240.571 321.301 237.266C320.928 232.536 320.967 230.735 321.514 227.46C322.858 219.41 323.352 215.333 323.515 210.968L323.68 206.511L314.837 206.317L308.834 210.426ZM464.732 213.038C454.58 213.649 452.778 213.995 451.445 215.592C448.654 218.936 444.643 225.639 443.998 228.038C442.651 233.048 441.411 235.96 439.819 237.848C437.187 240.971 435.371 243.421 434.664 244.801C433.838 246.414 433.771 250.677 434.568 250.985C434.88 251.106 437.039 250.977 439.366 250.698L443.597 250.192L445.966 247.576C447.27 246.137 449.096 244.476 450.025 243.885L451.713 242.81L453.898 243.952C456.679 244.908 456.978 244.771 456.987 247.162C456.991 248.192 457.175 249.997 457.396 251.174C457.618 252.35 458.023 254.817 458.297 256.656C458.738 259.607 459.515 263.894 461.024 271.691C461.272 272.974 461.647 274.131 461.857 274.262C462.066 274.392 462.368 275.55 462.527 276.834C462.989 280.561 463.422 280.897 467.02 280.327C469.374 279.954 471.156 279.997 475.123 280.52C479.831 281.141 480.551 281.131 484.85 280.388L489.493 279.586L489.634 278.118C489.776 276.639 488.236 268.127 487.437 265.969C487.2 265.329 486.941 264.101 486.862 263.237C486.782 262.374 486.21 260.49 485.59 259.05C483.967 255.283 483.057 250.574 482.671 243.952C482.394 239.194 482.163 237.879 481.382 236.598C480.86 235.74 480.431 234.676 480.43 234.235C480.429 233.794 480.097 232.791 479.691 232.007C479.285 231.222 478.802 229.878 478.617 229.02C478.433 228.162 477.793 226.156 477.195 224.563C475.689 220.547 474.864 218.082 474.026 215.091C473.371 212.749 473.206 212.534 472.115 212.596C471.459 212.634 468.136 212.833 464.732 213.038ZM421.37 216.663C420.17 217.453 418.641 218.346 417.972 218.648C416.58 219.275 416.681 218.304 416.591 231.917C416.536 240.317 416.182 242.698 414.492 246.063C414.278 246.489 414.103 247.245 414.103 247.743C414.103 248.241 413.697 250.176 413.201 252.041C412.355 255.226 412.339 255.641 412.949 258.83C414.163 265.187 414.167 265.349 413.189 268.534C412.674 270.213 411.873 272.412 411.409 273.42C410.945 274.427 410.565 275.831 410.564 276.54C410.563 277.248 410.273 279.625 409.92 281.821C409.566 284.017 409.346 285.884 409.431 285.97C409.516 286.056 410.304 285.824 411.181 285.454C412.059 285.084 412.777 284.862 412.777 284.96C412.777 285.057 413.467 284.846 414.31 284.491C415.462 284.006 417.91 283.843 424.149 283.838C430.016 283.833 434.258 283.573 438.603 282.951C441.985 282.467 444.809 282.013 444.878 281.943C444.947 281.874 445.244 279.167 445.538 275.929C445.944 271.445 445.95 269.3 445.563 266.94C444.818 262.391 444.888 261.88 446.806 257.868L448.557 254.204L444.132 254.077C438.561 253.917 435.2 254.435 430.542 256.174C424.894 258.282 425.158 258.466 425.158 252.407C425.158 249.001 425.367 246.761 425.779 245.768C426.653 243.66 426.984 239.212 427.109 227.906C427.169 222.513 427.371 217.752 427.559 217.326C427.814 216.748 427.637 216.454 426.861 216.165C424.145 215.156 423.584 215.206 421.37 216.663ZM404.828 217.197C404.53 217.558 403.61 217.981 402.784 218.138C401.957 218.294 401.28 218.575 401.28 218.762C401.28 218.949 400.634 219.231 399.843 219.389C398.239 219.708 393.21 221.527 390.342 222.824C389.311 223.29 388.262 223.671 388.011 223.671C387.198 223.671 380.941 230.207 380.923 231.075C380.913 231.538 380.317 233.021 379.597 234.369C378.498 236.428 378.289 237.321 378.298 239.941C378.304 241.657 378.503 243.813 378.74 244.732C378.978 245.652 379.345 247.082 379.556 247.912C379.78 248.792 381.402 251.11 383.456 253.486L386.972 257.552L386.778 261.45C386.671 263.593 386.418 265.557 386.214 265.814C386.012 266.071 384.681 266.632 383.258 267.062C380.093 268.018 378.89 267.665 377.127 265.264C375.432 262.955 372.53 260.221 371.773 260.221C371.433 260.221 370.521 260.673 369.746 261.226C367.827 262.594 366.769 263.251 365.465 263.884C363.532 264.822 362.552 265.743 358.22 270.696C351.065 278.877 351.246 279.687 360.935 282.788C364.521 283.935 367.753 285.052 368.118 285.27C368.483 285.488 371.308 286.432 374.395 287.367L380.009 289.068L384.565 287.341C387.071 286.39 389.718 285.338 390.447 285.002C391.177 284.667 393.527 283.728 395.669 282.918C399.835 281.341 400.423 280.833 404.338 275.432C405.615 273.67 406.35 272.155 406.463 271.049C406.708 268.655 405.443 264.993 403.524 262.541C402.622 261.388 401.36 259.542 400.72 258.439C399.582 256.48 396.978 253.98 394.368 252.345C392.836 251.385 386.613 246.385 386.144 245.737C385.445 244.773 386.91 238.865 387.928 238.541C388.341 238.41 389.674 237.823 390.889 237.239C392.105 236.654 393.976 235.867 395.046 235.491C396.916 234.833 397.104 234.852 399.91 235.975C401.515 236.618 403.027 237.293 403.27 237.475C403.513 237.657 404.356 238.023 405.143 238.29C406.925 238.894 407.474 238.417 409.05 234.89C409.671 233.501 410.377 231.996 410.619 231.548C410.916 230.997 410.906 230.548 410.588 230.161C410.329 229.846 410.031 227.572 409.926 225.108C409.645 218.478 409.408 217.578 407.803 217.013C406.006 216.382 405.471 216.415 404.828 217.197ZM460.524 228.463C460.516 232.857 460.229 233.375 458.25 232.58C457.438 232.254 456.703 231.934 456.617 231.87C456.532 231.806 456.953 231.088 457.554 230.275C458.155 229.462 458.788 228.197 458.961 227.463C459.249 226.241 459.954 225.009 460.364 225.009C460.456 225.009 460.528 226.563 460.524 228.463ZM100.606 248.172C99.2684 248.861 97.0589 249.957 95.6957 250.609C92.7283 252.027 88.6536 254.626 88.1549 255.418C87.5142 256.435 87.7623 258.292 88.6997 259.493C89.2033 260.139 89.4974 260.667 89.3528 260.667C89.2078 260.667 89.3758 261.118 89.726 261.67C90.3388 262.635 91.7312 269.025 92.0332 272.256C92.2477 274.552 94.3104 280.987 95.846 284.152C96.5822 285.669 97.0699 287.21 96.9306 287.576C96.6485 288.318 93.117 290.652 89.8551 292.252C87.9272 293.198 87.1866 293.235 87.0836 292.389C87.0641 292.225 86.9235 291.59 86.7714 290.977C86.6193 290.364 86.3934 288.559 86.2691 286.965C86.1449 285.372 85.7531 283.165 85.3976 282.062C85.0425 280.959 84.622 278.891 84.4637 277.466C84.2842 275.855 83.938 274.783 83.5471 274.632C83.1916 274.495 82.9192 273.79 82.9192 273.009C82.9192 272.25 82.6787 269.449 82.3851 266.784L81.8505 261.94L80.3034 262.233C78.5214 262.57 73.3622 267.109 73.4949 268.223C74.1333 273.58 75.2962 279.779 76.2991 283.177C76.5162 283.912 76.8284 285.416 76.9929 286.52C77.1573 287.623 77.4589 288.741 77.6632 289.005C78.3383 289.874 79.4491 296.036 79.6671 300.114C79.7847 302.321 80.0871 305.229 80.3392 306.578C81.4578 312.56 81.6714 313.771 82.4642 318.612C82.9258 321.432 83.5184 324.741 83.7814 325.967C84.3841 328.777 84.5605 329.776 84.6313 330.773C84.7776 332.831 88.7377 332.136 89.5796 329.905C90.0333 328.701 89.7547 321.453 89.1193 317.944C88.8973 316.718 88.7107 315.214 88.7045 314.601C88.6984 313.988 88.6378 313.111 88.5697 312.652C88.4795 312.042 89.1582 311.412 91.0993 310.305C92.5585 309.473 94.0508 308.684 94.4156 308.552C94.7804 308.42 95.5763 308.032 96.1843 307.689C99.9498 305.569 100.671 305.229 100.985 305.424C101.3 305.62 101.635 306.61 102.808 310.812C103.995 315.064 105.16 318.966 105.51 319.859C105.731 320.422 105.912 321.38 105.912 321.987C105.912 323.585 107.524 324.079 110.924 323.522C112.423 323.277 114.975 323.075 116.595 323.073C120.068 323.069 124.493 321.592 124.467 320.445C124.458 320.05 124.154 318.323 123.791 316.607C123.428 314.89 122.943 311.882 122.713 309.921C122.482 307.959 122.2 305.753 122.086 305.018C121.973 304.282 121.74 302.119 121.569 300.212C121.398 298.304 121.085 296.635 120.874 296.504C120.662 296.372 120.595 296.091 120.725 295.88C120.854 295.669 120.439 293.728 119.803 291.565C119.167 289.403 118.538 287.233 118.406 286.742C118.273 286.252 118.022 285.65 117.847 285.405C117.415 284.798 116.15 280.505 115.681 278.051C114.579 272.293 112.158 264.452 109.145 256.878C107.291 252.221 105.476 248.059 105.111 247.629C104.231 246.594 103.498 246.681 100.606 248.172ZM234.086 249.747C233.883 250.566 233.778 254.295 233.551 268.813C233.41 277.829 233.206 285.351 233.099 285.528C232.991 285.706 232.761 287.055 232.587 288.525C232.414 289.996 231.971 292.303 231.603 293.651C231.234 295 230.739 297.306 230.502 298.777C230.265 300.248 229.793 301.984 229.453 302.635C228.305 304.833 228.613 305.482 231.079 306.055C235.006 306.969 236.609 306.76 238.406 305.101C239.591 304.006 240.103 303.083 240.389 301.535C240.902 298.744 241.491 296.042 242.056 293.874C242.312 292.894 242.526 291.439 242.531 290.643C242.537 289.846 242.741 289.194 242.984 289.194C243.227 289.194 243.426 288.818 243.426 288.358C243.426 287.389 245.731 286.725 246.868 287.366C247.254 287.584 247.91 289.137 248.327 290.818C248.744 292.499 249.622 295.98 250.279 298.554C250.936 301.128 251.503 303.92 251.54 304.759C251.591 305.933 251.809 306.3 252.491 306.36C252.977 306.403 254.768 306.571 256.47 306.733C261.895 307.248 269.276 307.468 269.785 307.128C270.055 306.948 270.383 306.199 270.513 305.463C270.644 304.728 270.985 302.903 271.273 301.408C271.685 299.268 271.677 298.274 271.235 296.728C270.927 295.649 270.644 294.365 270.606 293.874C270.496 292.425 269.486 289.041 268.878 288.08C268.436 287.382 266.856 282.763 266.667 281.617C266.646 281.494 266.399 280.792 266.117 280.056C265.835 279.321 265.173 277.321 264.647 275.611C264.027 273.597 263.144 271.893 262.138 270.77C261.284 269.817 260.321 268.4 259.997 267.62C259.674 266.84 258.35 264.959 257.056 263.439C255.761 261.92 253.607 259.288 252.27 257.59C250.494 255.338 249.42 254.384 248.29 254.057C247.439 253.81 245.078 252.99 243.044 252.235C241.01 251.479 238.909 250.861 238.375 250.861C237.842 250.861 237.019 250.566 236.547 250.207C235.718 249.574 234.199 249.29 234.086 249.747ZM178.649 252.325C177.433 252.791 175.997 253.276 175.457 253.403C174.918 253.53 174.378 253.963 174.258 254.365C173.582 256.615 173.222 262.031 173.142 271.142C173.073 278.995 172.903 281.712 172.415 282.755C172.064 283.503 171.574 285.308 171.325 286.766C171.077 288.224 170.67 290.62 170.421 292.091C169.86 295.403 169.548 311.405 170.038 311.711C170.861 312.223 177.055 310.159 177.947 309.075C178.271 308.682 178.997 308.361 179.561 308.361C180.125 308.361 180.739 308.112 180.925 307.808C181.27 307.245 181.177 297.885 180.795 294.721C180.344 290.979 180.83 281.137 181.464 281.198C181.812 281.231 183.787 283.706 187.872 289.228C192.181 295.054 196.075 298.438 197.733 297.797C198.077 297.664 198.644 296.997 198.995 296.314C199.345 295.631 199.884 294.802 200.194 294.471C202.402 292.108 204.958 288.715 204.958 288.147C204.958 287.771 205.157 287.34 205.4 287.188C205.827 286.923 205.868 287.728 206.013 299.203L206.063 303.195L208.274 304.048C209.49 304.516 210.83 305.077 211.252 305.293C211.675 305.509 212.509 305.686 213.106 305.686C213.702 305.686 214.298 305.861 214.429 306.074C215.042 307.075 217.57 306.988 221.046 305.847C223.019 305.2 224.832 304.488 225.074 304.267C225.316 304.045 225.548 301.315 225.59 298.2C225.633 295.086 225.7 290.732 225.741 288.525C225.793 285.695 225.605 284.019 225.104 282.833C224.713 281.909 224.317 280.605 224.223 279.936C224.129 279.267 223.825 277.616 223.548 276.268C223.114 274.157 223.164 267.378 223.695 256.66C223.748 255.582 223.603 255.527 218.665 254.741C212.618 253.777 212.2 253.765 208.495 254.423C206.914 254.704 205.059 254.983 204.372 255.042C203.164 255.148 202.325 255.912 202.311 256.921C202.308 257.189 201.907 257.772 201.42 258.216C200.934 258.659 200.541 259.242 200.548 259.51C200.565 260.261 197.293 266.462 196.88 266.462C196.679 266.462 196.176 265.827 195.762 265.051C195.068 263.751 191.571 259.302 189.166 256.66C188.61 256.05 188.155 255.394 188.155 255.202C188.155 255.01 187.608 254.619 186.939 254.331C186.27 254.044 185.425 253.583 185.06 253.307C184.695 253.031 183.601 252.506 182.628 252.141C181.007 251.532 180.675 251.547 178.649 252.325ZM112.102 254.434C112.102 254.929 113.166 257.486 114.465 260.118C115.765 262.749 117.187 266.005 117.624 267.353C118.062 268.701 118.975 271.008 119.652 272.479C120.33 273.95 121.69 277.26 122.675 279.834C124.835 285.482 129.143 293.839 132.554 299C135.828 303.955 136.048 304.2 140.093 307.434C142.995 309.754 144.078 310.33 146.907 311.059C148.757 311.536 150.885 311.925 151.637 311.925C153.07 311.923 155.877 310.466 155.877 309.724C155.877 309.486 156.379 308.545 156.993 307.633C157.608 306.721 158.215 305.458 158.342 304.827C159.31 300.036 161.602 291.831 162.177 291.094C162.414 290.791 162.486 290.221 162.337 289.829C162.185 289.429 162.455 288.615 162.95 287.98C163.438 287.356 163.836 286.311 163.836 285.657C163.836 285.004 164.014 284.278 164.233 284.046C164.944 283.286 166.921 266.211 167.12 259.107C167.177 257.104 166.595 254.385 165.976 253.761C165.847 253.63 164.568 254.047 163.135 254.685C158.098 256.931 155.456 257.498 148.802 257.757C147.203 257.819 145.587 258.252 144.084 259.02L141.799 260.189L142.398 262.323C143.031 264.574 143.785 270.242 144.194 275.822C144.329 277.661 144.615 280.454 144.83 282.03C145.045 283.605 145.122 285.055 145.001 285.252C144.881 285.449 144.995 286.011 145.255 286.5C145.562 287.079 145.58 287.667 145.307 288.181C145.076 288.615 144.791 289.294 144.672 289.688C144.43 290.494 141.948 291.149 141.063 290.64C140.419 290.27 136.846 285.482 135.964 283.807C135.652 283.215 134.373 281.327 133.123 279.611C131.872 277.895 128.704 272.278 126.083 267.13C123.463 261.982 121.085 257.54 120.801 257.26C120.232 256.7 113.198 253.535 112.523 253.535C112.292 253.535 112.102 253.94 112.102 254.434ZM246.133 270.956C246.831 272.304 247.5 274.302 247.62 275.395C247.741 276.488 247.891 277.783 247.954 278.274C248.048 279.001 247.777 279.19 246.483 279.299C243.835 279.523 243.59 278.743 243.8 270.771C243.884 267.58 244.407 267.622 246.133 270.956ZM273.564 297.663C273.564 298.276 273.664 298.527 273.786 298.22C273.909 297.914 273.909 297.412 273.786 297.106C273.664 296.8 273.564 297.05 273.564 297.663Z" fill="#D8D1C5"/>
</svg>
