<svg id="Lager_1" xmlns="http://www.w3.org/2000/svg" viewBox="22.4 141.1 1154.2 345.9"><path fill="#7c7c93" d="M196.5 141.1C100 141.1 22.4 218.7 22.4 314S100 486.9 195.3 486.9 368.2 409.3 368.2 314c1.2-95.3-76.4-172.9-171.7-172.9zm78.8 249.4c-3.5 4.7-9.4 7.1-15.3 3.5-41.2-24.7-91.8-30.6-151.8-16.5-5.9 1.2-11.8-2.4-12.9-8.2s2.4-11.8 8.2-12.9c65.9-15.3 122.4-8.2 168.2 18.8 4.8 3.5 7.1 10.6 3.6 15.3zm21.2-47.1c-3.5 5.9-11.8 8.2-18.8 4.7-47.1-28.2-117.6-36.5-172.9-20-7.1 2.4-14.1-2.4-16.5-9.4-2.4-7.1 2.4-14.1 9.4-16.5 62.4-18.8 141.2-9.4 194.1 23.5 7 3.6 8.2 11.8 4.7 17.7zm2.3-49.4c-55.3-32.9-148.2-36.5-201.2-20-8.2 2.4-17.6-2.4-20-10.6-2.4-8.2 2.4-17.6 10.6-20 61.2-18.8 162.4-15.3 227.1 23.5 8.2 4.7 10.6 14.1 5.9 22.4-4.7 7.1-15.3 9.4-22.4 4.7z"/><g fill="#7c7c93"><path d="M494.1 301.1c-29.4-7.1-35.3-11.8-35.3-22.4 0-9.4 9.4-16.5 23.5-16.5 12.9 0 27.1 4.7 41.2 15.3h1.2s1.2 0 1.2-1.2l14.1-20c1.2-1.2 0-2.4 0-2.4-16.5-12.9-35.3-20-57.6-20-31.8 0-55.3 18.8-55.3 47.1 0 29.4 20 40 52.9 48.2 28.2 7.1 32.9 11.8 32.9 22.4s-9.4 17.6-25.9 17.6c-17.6 0-31.8-5.9-47.1-20h-1.2s-1.2 0-1.2 1.2l-16.5 20c-1.2 1.2-1.2 2.4 0 2.4 18.8 16.5 41.2 24.7 65.9 24.7 35.3 0 57.6-18.8 57.6-48.2.2-25.9-13.9-40-50.4-48.2zM623.5 271.6c-15.3 0-27.1 5.9-37.6 17.6v-14.1c0-1.2-1.2-2.4-2.4-2.4h-27.1c-1.2 0-2.4 1.2-2.4 2.4v151.8c0 1.2 1.2 2.4 2.4 2.4h27.1c1.2 0 2.4-1.2 2.4-2.4v-48.2c10.6 11.8 22.4 16.5 37.6 16.5 28.2 0 56.5-21.2 56.5-62.4 0-40-28.2-61.2-56.5-61.2zm25.9 62.4c0 21.2-12.9 35.3-31.8 35.3-18.8 0-31.8-15.3-31.8-35.3s14.1-35.3 31.8-35.3c17.7 0 31.8 14.1 31.8 35.3zM752.9 271.6c-36.5 0-64.7 28.2-64.7 63.5s28.2 62.4 63.5 62.4c36.5 0 64.7-28.2 64.7-63.5s-28.2-62.4-63.5-62.4zm0 97.7c-18.8 0-34.1-15.3-34.1-35.3s14.1-35.3 32.9-35.3c18.8 0 34.1 15.3 34.1 35.3.1 21.2-14 35.3-32.9 35.3zM894.1 274h-29.4v-30.6c0-1.2-1.2-2.4-2.4-2.4h-27.1c-1.2 0-2.4 1.2-2.4 2.4V274H820c-1.2 0-2.4 1.2-2.4 2.4v23.5c0 1.2 1.2 2.4 2.4 2.4h12.9v60c0 23.5 11.8 36.5 35.3 36.5 9.4 0 17.6-2.4 24.7-5.9 1.2 0 1.2-1.2 1.2-1.2V367c0-1.2 0-1.2-1.2-1.2h-2.4c-4.7 2.4-10.6 3.5-15.3 3.5-8.2 0-12.9-3.5-12.9-12.9v-55.3h31.8c1.2 0 2.4-1.2 2.4-2.4v-23.5c-1.2-1.2-1.2-1.2-2.4-1.2zM996.5 274v-3.5c0-10.6 4.7-15.3 12.9-15.3 5.9 0 10.6 1.2 15.3 2.4h2.4l1.2-1.2v-23.5c0-1.2 0-1.2-1.2-2.4-5.9-1.2-11.8-3.5-22.4-3.5-24.7 0-37.6 14.1-37.6 40v5.9H953c-1.2 0-2.4 1.2-2.4 2.4v23.5c0 1.2 1.2 2.4 2.4 2.4h12.9V393c0 1.2 1.2 2.4 2.4 2.4h27.1c1.2 0 2.4-1.2 2.4-2.4v-91.8h24.7l38.8 91.8c-4.7 9.4-8.2 11.8-14.1 11.8-4.7 0-9.4-1.2-15.3-4.7h-1.2s-1.2 0-1.2 1.2l-9.4 20c0 1.2 0 2.4 1.2 2.4 9.4 4.7 17.6 7.1 28.2 7.1 20 0 30.6-9.4 40-34.1l45.9-120v-2.4l-1.2-1.2H1106c-1.2 0-1.2 0-2.4 1.2l-28.2 81.2-31.8-81.2c0-1.2-1.2-1.2-2.4-1.2h-44.7v.9zM936.5 274h-27.1c-1.2 0-2.4 1.2-2.4 2.4v116.5c0 1.2 1.2 2.4 2.4 2.4h27.1c1.2 0 2.4-1.2 2.4-2.4V276.4c-.1-2.4-1.3-2.4-2.4-2.4z"/><circle cx="923.5" cy="239.9" r="18.8"/></g><path fill="#7c7c93" d="M1157.6 311.6c-10.6 0-18.8-8.2-18.8-18.8 0-10.6 8.2-18.8 18.8-18.8s18.8 8.2 18.8 18.8c1.2 9.4-8.2 18.8-18.8 18.8zm1.2-36.4c-9.4 0-16.5 8.2-16.5 16.5 0 9.4 7.1 16.5 16.5 16.5s16.5-8.2 16.5-16.5-7.1-16.5-16.5-16.5zm3.6 18.8l5.9 7.1h-4.7l-4.7-7.1h-4.7v7.1h-3.5v-20h8.2c4.7 0 7.1 2.4 7.1 5.9 1.1 4.6-1.3 7-3.6 7zm-3.6-8.2h-4.7v5.9h4.7c2.4 0 3.5-1.2 3.5-3.5 1.2-1.3-1.1-2.4-3.5-2.4z"/></svg>