<svg id="Lager_1" xmlns="http://www.w3.org/2000/svg" viewBox="11.2 235.3 1177.6 155.9"><g fill="#7c7c93"><path d="M439.6 388.1h-30.2V280.9h-39.1V255h108.5v25.8h-39.1l-.1 107.3zM599.6 388.1h-30.4V255h30.4v133.1zM1136.2 361.8h52.6v26.3h-83V255h30.4v106.8zM700.9 254.9h49.3c36.3 0 72.5 19.3 72.5 66.2 0 44.3-35.4 66.8-70.8 66.8h-51v-133zM730.3 362h18.8c25.4 0 42.3-15.8 42.3-41 0-24-17.1-40.1-41.5-40.1h-19.6V362zM991.3 388.1h33.3L969.8 255h-31.5l-55.4 133.1h32.6l9.9-26.3h56.2l9.7 26.3zm-57.6-49.9l20-52.1 19.9 52.1h-39.9z"/><g><path d="M167.1 274.3l-39 39-39-39 39-39z"/><path transform="rotate(-45.001 128.101 352.287)" d="M100.6 324.7h55.1v55.1h-55.1z"/><path d="M89.1 274.3l-38.9 39-39-39 39-39zM245.1 274.3l-39 39-39-39 39-39z"/></g></g></svg>