<svg width="136" height="28" viewBox="0 0 136 28" fill="none" xmlns="http://www.w3.org/2000/svg">
<path d="M132.129 3.31474C132.435 3.31474 132.699 3.15363 132.699 2.71239C132.699 2.3548 132.435 2.22199 132.129 2.22199H131.859V3.31474H132.129ZM132.213 1.83645C132.782 1.83645 133.378 1.99774 133.378 2.71239C133.378 3.09757 133.142 3.39874 132.809 3.50397L133.378 4.46392C133.399 4.49911 133.413 4.53413 133.413 4.56207C133.413 4.63228 133.337 4.68127 133.24 4.68127H132.934C132.802 4.68127 132.712 4.59727 132.636 4.46392L132.227 3.7284H131.859V4.46392C131.859 4.60398 131.776 4.68127 131.644 4.68127H131.394C131.262 4.68127 131.179 4.60398 131.179 4.46392V2.05362C131.179 1.92045 131.262 1.83645 131.394 1.83645H132.213ZM134.378 3.25886C134.378 2.03947 133.593 1.17768 132.289 1.17768C130.985 1.17768 130.18 2.03947 130.18 3.25886C130.18 4.47789 130.985 5.34004 132.289 5.34004C133.593 5.34004 134.378 4.47789 134.378 3.25886ZM129.556 3.25886C129.556 1.72451 130.777 0.687277 132.289 0.687277C133.808 0.687277 135.002 1.72451 135.002 3.25886C135.002 4.79321 133.808 5.83044 132.289 5.83044C130.777 5.83044 129.556 4.79321 129.556 3.25886Z" fill="black"/>
<path d="M38.0943 27.4999H37.8014C36.6715 27.4999 35.9336 26.9899 35.9336 25.855C35.9336 25.6602 35.9595 25.4319 36.006 25.2238L36.1262 24.6327C36.4386 23.1223 37.3957 22.3569 38.9317 22.3569C39.4439 22.3569 39.9425 22.4844 40.2485 22.6321L40.0358 23.6057C40.0027 23.7601 39.9024 23.8472 39.7499 23.8472H39.4504C39.3307 23.8472 39.2576 23.787 39.2576 23.6728C39.2576 23.6594 39.2576 23.6325 39.2643 23.6057L39.3573 23.1424C39.2246 23.0888 38.9454 23.0619 38.759 23.0619C37.8814 23.0619 37.2561 23.5388 37.0168 24.613L36.8842 25.2238C36.8441 25.385 36.8176 25.6268 36.8176 25.781C36.8176 26.4793 37.1902 26.7949 37.941 26.7949H38.254C38.5397 26.7949 38.9118 26.7145 39.1646 26.6339C39.1911 26.6271 39.2246 26.6205 39.2441 26.6205C39.3243 26.6205 39.3708 26.674 39.3708 26.7547C39.3708 26.7749 39.3708 26.7948 39.3106 27.0701C39.2777 27.2246 39.171 27.312 39.0048 27.359C38.7456 27.4329 38.3737 27.4999 38.0943 27.4999Z" fill="black"/>
<path d="M44.0543 25.2037L44.1473 24.7675C44.1874 24.5658 44.2205 24.2503 44.2205 24.1028C44.2205 23.3437 43.8687 23.062 43.1637 23.062C42.2394 23.062 41.8068 23.6057 41.5747 24.6533L41.4814 25.0898C41.4349 25.2908 41.4148 25.5662 41.4148 25.7543C41.4148 26.5131 41.7538 26.7948 42.4586 26.7948C43.3764 26.7948 43.8349 26.2576 44.0543 25.2037V25.2037ZM40.5303 25.8483C40.5303 25.6268 40.5639 25.3447 40.6104 25.1098L40.7101 24.613C41.0159 23.1356 41.8339 22.3569 43.2898 22.3569C44.4402 22.3569 45.0985 22.9209 45.0985 24.0086C45.0985 24.1899 45.0715 24.5389 45.0248 24.7472L44.9188 25.2442C44.6129 26.721 43.8085 27.4999 42.3325 27.4999C41.1821 27.4999 40.5303 26.936 40.5303 25.8483Z" fill="black"/>
<path d="M46.904 27.4461C46.2657 27.4461 45.8066 27.1709 45.8066 26.5263C45.8066 26.3988 45.8331 26.1905 45.8604 26.0832L46.5846 22.6521C46.6182 22.5044 46.7177 22.4104 46.8776 22.4104H47.2494C47.3762 22.4104 47.4492 22.4777 47.4492 22.5851C47.4492 22.6051 47.4427 22.659 47.4357 22.6856L46.7242 25.9957C46.7113 26.0898 46.6777 26.2779 46.6777 26.3583C46.6777 26.6606 46.8374 26.748 47.1764 26.748H48.3998C48.5261 26.748 48.5992 26.8084 48.5992 26.9226C48.5992 26.9427 48.5992 26.9628 48.5462 27.2045C48.513 27.3589 48.3933 27.4462 48.2472 27.4462H46.904" fill="black"/>
<path d="M53.1762 25.2037L53.2694 24.7675C53.3095 24.5658 53.3423 24.2503 53.3423 24.1028C53.3423 23.3437 52.9906 23.062 52.2855 23.062C51.3615 23.062 50.9291 23.6057 50.6967 24.6533L50.6035 25.0898C50.557 25.2908 50.537 25.5662 50.537 25.7543C50.537 26.5131 50.8759 26.7948 51.5809 26.7948C52.4985 26.7948 52.9571 26.2576 53.1762 25.2037V25.2037ZM49.6523 25.8483C49.6523 25.6268 49.6859 25.3447 49.7323 25.1098L49.832 24.613C50.1378 23.1356 50.956 22.3569 52.4119 22.3569C53.5623 22.3569 54.2207 22.9209 54.2207 24.0086C54.2207 24.1899 54.1936 24.5389 54.1471 24.7472L54.0409 25.2442C53.7351 26.721 52.9304 27.4999 51.4546 27.4999C50.3042 27.4999 49.6523 26.936 49.6523 25.8483" fill="black"/>
<path d="M56.4905 23.109L56.0984 24.9955H56.7497C57.4682 24.9955 57.9733 24.5389 57.9733 23.7537C57.9733 23.3035 57.7138 23.109 57.2023 23.109H56.4905ZM55.7325 22.6522C55.7659 22.5045 55.8656 22.4105 56.0253 22.4105H57.4215C58.2857 22.4105 58.8709 22.8403 58.8709 23.6526C58.8709 24.5189 58.4124 25.1363 57.6608 25.4589C57.9402 25.7947 58.2126 26.4392 58.3258 27.0165C58.3393 27.0902 58.3658 27.2046 58.3658 27.2581C58.3658 27.3724 58.2992 27.4463 58.1596 27.4463H57.767C57.6145 27.4463 57.5013 27.3523 57.4812 27.2046C57.3752 26.6271 57.1287 25.9892 56.843 25.7005H55.9454L55.6263 27.2046C55.5929 27.3523 55.4931 27.4463 55.3334 27.4463H54.968C54.8348 27.4463 54.7617 27.379 54.7617 27.2716C54.7617 27.2516 54.7687 27.1978 54.7752 27.171L55.7325 22.6522" fill="black"/>
<path d="M60.1554 23.8941C60.3546 22.9073 60.8999 22.4104 61.9772 22.4104H63.0741C63.2008 22.4104 63.2737 22.4777 63.2737 22.5851C63.2737 22.6051 63.2737 22.6252 63.2203 22.8668C63.1873 23.0281 63.0676 23.1089 62.9212 23.1089H61.8439C61.3518 23.1089 61.126 23.3707 61.0196 23.8876L60.8733 24.5656H62.5159C62.642 24.5656 62.7151 24.6326 62.7151 24.747C62.7151 24.7673 62.7151 24.7871 62.6619 25.0291C62.6285 25.1833 62.5089 25.2708 62.3626 25.2708H60.7205L60.3216 27.2045C60.288 27.3522 60.1885 27.4462 60.0293 27.4462H59.6633C59.53 27.4462 59.457 27.3789 59.457 27.2715C59.457 27.2515 59.464 27.1976 59.4705 27.1709L60.1554 23.8941" fill="black"/>
<path d="M67.5117 25.6268C67.2594 26.8284 66.5079 27.4999 65.2179 27.4999C64.3138 27.4999 63.6289 27.1039 63.6289 26.1907C63.6289 25.9893 63.6889 25.6268 63.7284 25.4454L64.3203 22.6522C64.3537 22.5046 64.4534 22.4105 64.6131 22.4105H64.985C65.1117 22.4105 65.1848 22.4779 65.1848 22.5853C65.1848 22.6053 65.1784 22.6592 65.1714 22.6858L64.5795 25.4722C64.5465 25.6268 64.4935 25.9088 64.4935 26.0566C64.4935 26.5735 64.8188 26.7814 65.364 26.7814C66.0488 26.7814 66.5145 26.3251 66.6676 25.6132L67.286 22.6522C67.3189 22.5046 67.4256 22.4105 67.5782 22.4105H67.9508C68.0769 22.4105 68.1501 22.4779 68.1501 22.5853C68.1501 22.6053 68.1436 22.6592 68.1371 22.6858L67.5117 25.6268" fill="black"/>
<path d="M69.8095 27.4463C69.1711 27.4463 68.7119 27.171 68.7119 26.5265C68.7119 26.3989 68.7385 26.1906 68.7655 26.0834L69.4899 22.6522C69.5235 22.5045 69.623 22.4105 69.7827 22.4105H70.1546C70.2813 22.4105 70.3546 22.4778 70.3546 22.5852C70.3546 22.6052 70.3481 22.6591 70.3411 22.6858L69.6297 25.9958C69.6165 26.0899 69.5831 26.2781 69.5831 26.3584C69.5831 26.6607 69.7427 26.7481 70.0817 26.7481H71.3052C71.4314 26.7481 71.5045 26.8085 71.5045 26.9227C71.5045 26.9428 71.5045 26.963 71.4513 27.2046C71.4184 27.359 71.2988 27.4463 71.1525 27.4463H69.8095" fill="black"/>
<path d="M10.4489 3.90718C7.63311 3.90718 5.44566 5.24667 4.81742 8.39556L4.46838 10.2285C4.37531 10.6984 4.28225 11.3328 4.28225 11.8027C4.28225 13.9882 5.18971 15.0926 7.63311 15.0926H8.44765C9.00617 15.0926 10.0067 14.9046 10.3558 14.8341L10.9608 11.9673H9.42494C8.91297 11.9673 8.6105 11.7323 8.6105 11.2623C8.6105 11.1684 8.63372 11.0743 8.65704 10.9804L8.95956 9.59391C9.09924 8.95945 9.518 8.58334 10.1696 8.58334H14.3583C14.9168 8.58334 15.1961 8.84188 15.1961 9.28838C15.1961 9.3824 15.1728 9.49998 15.1728 9.59391L13.4508 17.4896C12.2639 17.9361 9.91361 18.5 8.00549 18.5H6.28345C2.5601 18.5 0.000488281 16.5731 0.000488281 12.8132C0.000488281 12.1082 0.116859 11.3798 0.279745 10.6044L0.721816 8.3014C1.88531 2.47388 5.91115 0.499926 10.9142 0.499926C12.3338 0.499926 14.1722 0.734878 15.5684 1.15779C16.1269 1.29894 16.4061 1.58088 16.4061 2.07419C16.4061 2.16835 16.3828 2.26233 16.3596 2.35632L16.0571 3.86019C15.9407 4.35367 15.6382 4.68261 15.1961 4.68261C15.103 4.68261 14.9633 4.6592 14.8237 4.61221C13.474 4.14213 11.8916 3.90718 10.4489 3.90718" fill="black"/>
<path d="M21.8515 4.09486L20.6646 9.6874H22.2238C24.7603 9.6874 26.1331 8.58289 26.1331 6.09204C26.1331 4.63516 25.3187 4.09486 23.6898 4.09486H21.8515ZM28.7859 17.4892C28.7859 18.0059 28.5067 18.3114 27.925 18.3114H25.7377C25.086 18.3114 24.6904 17.9357 24.5742 17.301C24.2948 15.6327 23.4338 13.6823 22.6891 13.0712H19.9432L19.0589 17.301C18.9427 17.9356 18.5005 18.3114 17.8722 18.3114H15.8709C15.3125 18.3114 15.0332 18.0529 15.0332 17.6065C15.0332 17.5125 15.0564 17.3949 15.0798 17.301L18.3607 1.6978C18.5005 1.06334 18.9427 0.687414 19.571 0.687414H24.7603C27.7622 0.687414 30.508 2.14429 30.508 5.17562C30.508 8.39509 29.0419 10.5099 26.4123 11.8022C27.4828 12.9537 28.5532 15.3037 28.7859 17.301V17.4891" fill="black"/>
<path d="M33.8059 18.3116C31.6184 18.3116 29.8965 17.3013 29.8965 15.0924C29.8965 14.6458 29.9896 13.988 30.0826 13.5416L32.5726 1.69806C32.7121 1.0636 33.1542 0.68768 33.7825 0.68768H42.0695C42.6047 0.68768 42.954 0.946217 42.954 1.39272C42.954 1.4867 42.8839 1.60426 42.8607 1.69806L42.5582 3.08455C42.4186 3.71919 41.9766 4.09511 41.3249 4.09511H36.0864L35.3185 7.66673H40.1846C40.72 7.66673 41.0224 7.92527 41.0224 8.37177C41.0224 8.46575 40.9992 8.58314 40.976 8.6773L40.6733 10.0402C40.5337 10.6981 40.0915 11.0505 39.44 11.0505H34.6203L34.248 12.813C34.2015 13.0714 34.0851 13.7294 34.0851 13.8941C34.0851 14.74 34.5272 14.9044 35.6209 14.9044H39.6959C40.2545 14.9044 40.5337 15.1629 40.5337 15.6329C40.5337 15.7268 40.5105 15.8443 40.4872 15.9149L40.2078 17.3012C40.0683 17.9359 39.6028 18.3116 38.9745 18.3116H33.8059" fill="black"/>
<path d="M46.049 18.3116C43.8616 18.3116 42.1396 17.3013 42.1396 15.0924C42.1396 14.6458 42.2325 13.988 42.3258 13.5416L44.8158 1.69806C44.9552 1.0636 45.3974 0.68768 46.0259 0.68768H54.3126C54.8479 0.68768 55.1971 0.946217 55.1971 1.39272C55.1971 1.4867 55.1273 1.60426 55.1039 1.69806L54.8015 3.08455C54.6617 3.71919 54.2198 4.09511 53.5681 4.09511H48.3295L47.5616 7.66673H52.4278C52.9632 7.66673 53.2655 7.92527 53.2655 8.37177C53.2655 8.46575 53.2424 8.58314 53.2192 8.6773L52.9165 10.0402C52.777 10.6981 52.3347 11.0505 51.6832 11.0505H46.8635L46.4912 12.813C46.4447 13.0714 46.3284 13.7294 46.3284 13.8941C46.3284 14.74 46.7704 14.9044 47.864 14.9044H51.9391C52.4976 14.9044 52.777 15.1629 52.777 15.6329C52.777 15.7268 52.7537 15.8443 52.7305 15.9149L52.4511 17.3012C52.3115 17.9359 51.846 18.3116 51.2179 18.3116H46.049" fill="black"/>
<path d="M59.8748 7.85465L57.8735 17.301C57.7339 17.9357 57.3151 18.3114 56.6866 18.3114H54.6853C54.1269 18.3114 53.8477 18.053 53.8477 17.6065C53.8477 17.5125 53.871 17.3949 53.871 17.301L57.1753 1.69782C57.3151 1.06336 57.7339 0.687434 58.3853 0.687434H60.2936C60.8288 0.687434 61.108 0.875395 61.271 1.22791L65.3665 11.1444L67.3678 1.69782C67.4842 1.06336 67.9264 0.687434 68.5545 0.687434H70.5558C71.1142 0.687434 71.3936 0.945971 71.3936 1.39247C71.3936 1.48645 71.3702 1.60402 71.3469 1.69782L68.0658 17.301C67.9264 17.9357 67.4842 18.3114 66.8557 18.3114H64.971C64.4358 18.3114 64.1564 18.1235 63.9936 17.771L59.8748 7.85463" fill="black"/>
<path d="M82.3343 4.09518C81.9854 4.00102 81.0545 3.90704 80.6124 3.90704C77.8897 3.90704 76.2376 5.55206 75.6093 8.39542L75.1672 10.4162C75.0741 10.7922 74.981 11.5912 74.981 11.9671C74.981 13.9881 75.8884 15.0925 78.3318 15.0925H79.4257C80.3565 15.0925 81.7761 14.8575 82.7765 14.599C82.8697 14.5754 82.9628 14.552 83.0325 14.552C83.4048 14.552 83.6142 14.787 83.6142 15.1629C83.6142 15.257 83.5911 15.3509 83.5679 15.445L83.242 16.8548C83.1024 17.4895 82.7533 17.8419 82.0087 18.0063C81.0082 18.2414 79.5884 18.4999 78.7043 18.4999H77.6105C73.608 18.4999 70.6992 16.6668 70.6992 12.6252C70.6992 11.9436 70.8156 11.2152 70.9784 10.4162L71.3277 8.58322C72.4213 3.08463 75.9816 0.499806 81.427 0.499806C83.1489 0.499806 84.9641 0.781748 86.5232 1.41621L85.732 5.36412C85.5922 6.02198 85.15 6.3745 84.5219 6.3745H82.8929C82.3343 6.3745 82.0319 6.11596 82.0319 5.66964C82.0319 5.57548 82.0553 5.4581 82.0784 5.36412L82.3343 4.0952" fill="black"/>
<path d="M97.551 9.02984C97.6674 8.58334 97.7604 7.57296 97.7604 7.10306C97.7604 4.72978 96.8296 3.90718 94.7354 3.90718C91.6403 3.90718 90.5234 6.18666 89.9181 8.77149L89.6623 9.96983C89.5459 10.5104 89.4762 11.3328 89.4762 11.8968C89.4762 14.2702 90.2908 15.0926 92.478 15.0926C95.5496 15.0926 96.6902 12.8368 97.2949 10.2285L97.551 9.02984ZM85.1943 12.7192C85.1943 11.8498 85.3108 10.9568 85.4735 10.1344L85.8226 8.39557C86.8699 3.39028 89.9181 0.499927 95.3869 0.499927C99.2962 0.499927 102.019 2.23875 102.019 6.28064C102.019 7.03266 101.856 8.32499 101.74 8.86547L101.367 10.6044C100.343 15.586 97.2949 18.5 91.8264 18.5C87.8239 18.5 85.1943 16.7611 85.1943 12.7192" fill="black"/>
<path d="M106.836 10.6042H111.071C110.931 8.08983 110.698 5.69296 110.326 3.90697C109.302 5.505 108.046 7.97226 106.836 10.6042V10.6042ZM115.585 17.3718C115.585 17.9593 115.283 18.3116 114.655 18.3116H112.328C111.676 18.3116 111.257 17.9359 111.257 17.3013C111.257 16.2439 111.234 15.1159 111.211 13.988H105.3C104.811 15.1395 104.346 16.2907 103.927 17.3012C103.694 17.9359 103.252 18.3116 102.624 18.3116H100.622C100.134 18.3116 99.8545 18.1001 99.8545 17.7243C99.8545 17.6067 99.8545 17.4658 99.9244 17.3012C102.065 11.8496 106.463 3.46065 108.627 0.68768H113.537C114.631 5.22306 115.469 12.1079 115.585 17.3012V17.3718Z" fill="black"/>
<path d="M124.209 4.16552L121.44 17.3013C121.3 17.9359 120.858 18.3116 120.23 18.3116H118.229C117.693 18.3116 117.391 18.0532 117.391 17.6067C117.391 17.5128 117.414 17.3952 117.437 17.3012L120.206 4.1655H116.68C116.144 4.1655 115.842 3.93037 115.842 3.46065C115.842 3.36667 115.865 3.2491 115.888 3.15512L116.214 1.69806C116.354 1.0636 116.773 0.687678 117.401 0.687678H128.155C128.69 0.687678 128.993 0.946215 128.993 1.39271C128.993 1.48669 128.969 1.60426 128.946 1.69806L128.62 3.15512C128.48 3.81298 128.062 4.1655 127.41 4.1655H124.209" fill="black"/>
<path d="M76.6607 23.0617H76.4751C75.9163 23.0617 75.4842 23.2902 75.4842 23.7871C75.4842 24.1093 75.7162 24.2503 75.9758 24.3711L76.5877 24.6397C77.0935 24.8615 77.5254 25.2037 77.5254 25.9091C77.5254 26.9159 76.774 27.4999 75.5775 27.4999H75.3575C75.0449 27.4999 74.6069 27.4195 74.2939 27.319C74.1741 27.2851 74.1074 27.2112 74.1074 27.0969C74.1074 27.0773 74.1074 27.0499 74.1673 26.7684C74.1942 26.6541 74.2609 26.5804 74.3537 26.5804C74.3805 26.5804 74.4067 26.5804 74.4398 26.5935C74.7327 26.7078 75.1712 26.795 75.4842 26.795H75.6571C76.2088 26.795 76.6276 26.5196 76.6276 25.9893C76.6276 25.6197 76.3682 25.459 76.0293 25.3114L75.4506 25.056C75.0719 24.8819 74.5999 24.5121 74.5999 23.8474C74.5999 22.8671 75.4707 22.3569 76.5676 22.3569H76.7207C76.9868 22.3569 77.3788 22.4173 77.6851 22.5247C77.8114 22.5654 77.8776 22.632 77.8776 22.7462C77.8776 22.7664 77.8776 22.7867 77.8246 23.0485C77.7981 23.1628 77.7247 23.2497 77.6183 23.2497C77.5921 23.2497 77.5721 23.2432 77.5391 23.2296C77.2796 23.1289 76.907 23.0617 76.6607 23.0617" fill="black"/>
<path d="M78.5117 22.948C78.5117 22.9278 78.5117 22.9075 78.5647 22.666C78.5981 22.5111 78.7112 22.4244 78.8639 22.4104H82.162C82.2819 22.4104 82.3548 22.4779 82.3548 22.585C82.3548 22.6052 82.3548 22.6253 82.3013 22.867C82.2682 23.0283 82.1552 23.1087 82.0027 23.1223H80.8125L79.9543 27.2047C79.9214 27.3524 79.8145 27.4462 79.6618 27.4462H79.2897C79.1632 27.4462 79.0904 27.379 79.0904 27.2718C79.0904 27.2517 79.0965 27.1982 79.1034 27.1708L79.9543 23.1223H78.7041C78.5845 23.1223 78.5117 23.0617 78.5117 22.948" fill="black"/>
<path d="M83.34 27.4461C82.7016 27.4461 82.2422 27.1707 82.2422 26.5261C82.2422 26.3987 82.269 26.1904 82.2957 26.0834L83.0139 22.6521C83.0467 22.5046 83.147 22.4104 83.3064 22.4104H85.7331C85.8592 22.4104 85.9261 22.4779 85.9261 22.585C85.9261 22.6052 85.9261 22.6253 85.8796 22.867C85.8465 23.0283 85.7267 23.1087 85.5734 23.1087H83.7652L83.486 24.4716H85.1744C85.3012 24.4716 85.3679 24.5324 85.3679 24.6467C85.3679 24.6669 85.3679 24.6864 85.321 24.9286C85.2879 25.0829 85.1682 25.1703 85.0152 25.1703H83.3326L83.1597 25.9959C83.147 26.09 83.1134 26.2779 83.1134 26.3583C83.1134 26.6605 83.2733 26.7482 83.6122 26.7482H84.9753C85.0949 26.7482 85.1682 26.8084 85.1682 26.9226C85.1682 26.9429 85.1683 26.963 85.1149 27.2047C85.0883 27.3589 84.9688 27.4462 84.8091 27.4462H83.34" fill="black"/>
<path d="M87.3515 27.4461C86.7133 27.4461 86.2539 27.1707 86.2539 26.5261C86.2539 26.3987 86.2807 26.1904 86.3078 26.0834L87.0258 22.6521C87.0586 22.5046 87.1589 22.4104 87.3179 22.4104H89.745C89.8711 22.4104 89.9378 22.4779 89.9378 22.585C89.9378 22.6052 89.9378 22.6253 89.8911 22.867C89.8579 23.0283 89.7384 23.1087 89.5851 23.1087H87.7769L87.4976 24.4716H89.1861C89.3127 24.4716 89.3792 24.5324 89.3792 24.6467C89.3792 24.6669 89.3792 24.6864 89.3329 24.9286C89.2993 25.0829 89.1796 25.1703 89.0272 25.1703H87.3447L87.1718 25.9959C87.1589 26.09 87.1251 26.2779 87.1251 26.3583C87.1251 26.6605 87.2848 26.7482 87.6239 26.7482H88.9872C89.1068 26.7482 89.1796 26.8084 89.1796 26.9226C89.1796 26.9429 89.1796 26.963 89.1268 27.2047C89.1002 27.3589 88.9805 27.4462 88.8208 27.4462H87.3515" fill="black"/>
<path d="M91.363 27.4462C90.7247 27.4462 90.2656 27.1708 90.2656 26.5261C90.2656 26.3987 90.2919 26.1905 90.3195 26.0834L91.0436 22.6521C91.0772 22.5046 91.1767 22.4104 91.3368 22.4104H91.7082C91.835 22.4104 91.9082 22.4779 91.9082 22.585C91.9082 22.6052 91.9015 22.6588 91.8945 22.6862L91.1834 25.9959C91.1704 26.09 91.1368 26.2779 91.1368 26.3583C91.1368 26.6605 91.2964 26.7482 91.6354 26.7482H92.8588C92.9849 26.7482 93.0582 26.8084 93.0582 26.9226C93.0582 26.9429 93.0582 26.963 93.0054 27.2047C92.9718 27.3589 92.8521 27.4462 92.7062 27.4462H91.363" fill="black"/>
</svg>
