<svg width="62" height="21" viewBox="0 0 62 21" fill="none" xmlns="http://www.w3.org/2000/svg">
<path d="M10.0735 3.16363H9.33887C7.1355 3.16363 5.43013 4.05549 5.43013 5.99621C5.43013 7.25509 6.3483 7.80562 7.37125 8.27786L9.78469 9.32711C11.7784 10.1925 13.484 11.5305 13.484 14.2843C13.484 18.2184 10.5193 20.5 5.79723 20.5H4.93171C3.69866 20.5 1.96761 20.1852 0.734604 19.7921C0.262286 19.6607 0 19.3724 0 18.9263C0 18.8476 0 18.7428 0.236159 17.6413C0.340992 17.1956 0.603258 16.9068 0.970763 16.9068C1.07558 16.9068 1.18039 16.9068 1.31175 16.9595C2.46606 17.4052 4.1971 17.7461 5.43015 17.7461H6.1121C8.28938 17.7461 9.94214 16.6707 9.94214 14.5987C9.94214 13.1563 8.91913 12.5267 7.58129 11.9501L5.29879 10.9534C3.80392 10.2712 1.94112 8.82879 1.94112 6.2323C1.94112 2.4031 5.37792 0.409725 9.70601 0.409725H10.3096C11.3587 0.409725 12.9066 0.645834 14.1133 1.06549C14.6118 1.22289 14.8741 1.48472 14.8741 1.93084C14.8741 2.00955 14.8741 2.08825 14.6643 3.11102C14.5595 3.55712 14.2709 3.89766 13.8512 3.89766C13.7462 3.89766 13.6676 3.87154 13.5362 3.81936C12.5131 3.42583 11.0438 3.16361 10.0735 3.16361" fill="black"/>
<path d="M23.7245 3.16363H22.9903C20.7865 3.16363 19.0815 4.05549 19.0815 5.99621C19.0815 7.25509 19.9997 7.80562 21.0227 8.27786L23.4361 9.32711C25.4299 10.1925 27.1349 11.5305 27.1349 14.2843C27.1349 18.2184 24.1707 20.5 19.4486 20.5H18.5831C17.3501 20.5 15.6186 20.1852 14.386 19.7921C13.9137 19.6608 13.6514 19.3724 13.6514 18.9263C13.6514 18.8476 13.6514 18.7428 13.8875 17.6413C13.9924 17.1956 14.2546 16.9069 14.6217 16.9069C14.7269 16.9069 14.8318 16.9069 14.9631 16.9595C16.117 17.4052 17.8485 17.7461 19.0815 17.7461H19.7635C21.9407 17.7461 23.5935 16.6708 23.5935 14.5987C23.5935 13.1564 22.5704 12.5267 21.2327 11.9501L18.9502 10.9534C17.4549 10.2712 15.5925 8.82881 15.5925 6.23232C15.5925 2.40312 19.0289 0.409744 23.3573 0.409744H23.9607C25.01 0.409744 26.5576 0.645855 27.7645 1.06551C28.263 1.22291 28.5252 1.48474 28.5252 1.93085C28.5252 2.00957 28.5252 2.08828 28.3156 3.11104C28.2107 3.55714 27.9219 3.89768 27.5022 3.89768C27.3973 3.89768 27.3187 3.87156 27.1873 3.81938C26.1645 3.42584 24.6953 3.16363 23.7245 3.16363" fill="black"/>
<path d="M52.5829 3.34684L51.4025 9.03808H55.0485C57.0423 9.03808 58.4589 7.33346 58.4589 5.44498C58.4589 4.02868 57.5408 3.34684 55.8354 3.34684H52.5829ZM50.8514 11.6349L49.6183 17.5623H53.5532C55.8619 17.5623 57.095 16.0412 57.095 13.9692C57.095 12.4742 55.8881 11.635 54.2617 11.635L50.8514 11.6349ZM49.6444 1.56351C49.7759 0.986097 50.1694 0.619074 50.7989 0.619074H56.8848C60.1116 0.619074 62.0004 2.03533 62.0004 4.97274C62.0004 7.35956 60.4265 9.45771 58.1966 10.3496C59.587 10.9266 60.5574 12.2381 60.5574 14.0479C60.5574 17.6145 58.0392 20.29 53.7894 20.29H46.6278C46.1033 20.29 45.8145 20.0275 45.8145 19.6082C45.8145 19.5291 45.841 19.3195 45.8671 19.2147L49.6444 1.56351Z" fill="black"/>
<path d="M29.506 20.2905H27.9584C27.4861 20.2905 27.1973 20.0805 27.1973 19.7396C27.1973 19.6087 27.2234 19.4774 27.2761 19.3461C30.0826 12.1598 34.5156 4.34395 37.3752 0.619541H41.6512C42.5954 4.23916 44.0119 11.6093 44.1171 19.3461C44.1171 19.9235 43.8023 20.2905 43.1724 20.2905H41.5724C40.969 20.2905 40.5755 19.9235 40.5755 19.3461C40.5228 13.4452 39.6313 7.04525 38.8179 3.426C36.0636 7.51743 32.8894 13.7596 30.7125 19.3461C30.4764 19.9235 30.0826 20.2905 29.506 20.2905" fill="black"/>
<path d="M35.4402 12.0919C34.9861 11.8408 34.6143 12.0595 34.6143 12.5788V16.6184C34.6143 17.1377 34.9861 17.3565 35.4402 17.1053L39.143 15.0554C39.5971 14.8043 39.5971 14.393 39.143 14.1414L35.4402 12.092" fill="black"/>
</svg>
