<?xml version="1.0" encoding="utf-8"?>
<svg viewBox="0 0 104 104" id="logo" xmlns="http://www.w3.org/2000/svg"><path fill="#555" d="M103.83 51.92A51.9 51.9 0 1 1 0 51.92a51.91 51.91 0 1 1 103.83 0"></path><path fill="#fff" d="M34.37 59.8h3.88l-2.1-17.56zM38.36 30l5.54 43.48h-3.93l-1.33-9.97h-4.55l-1.16 9.97H29L34.59 30zm19 31.6c0 3.77-.56 5.38-4.66 5.38h-1.77c-4.48 0-4.93-1.5-4.93-5.32v-5.43h3.93v7.14h3.5v-4.43c0-4.82.33-3.57-2.33-8.17l-2.11-3.54C45.78 41.8 46 42.52 46 36.43v-1.06c0-3.82.56-5.37 4.71-5.37h1.77c4.38 0 4.88 1.44 4.88 5.32v3.93h-3.93v-5.32h-3.5v1.33c0 4.88-.22 4.99 1.78 8.31l2.6 4.21c3.38 5.65 3.05 3.63 3.05 9.17v4.65M61 30h3.93v18.33L69.75 30h4.36l-5.95 21.16 5.95 22.32h-4.3L64.93 54.7v18.78H61V30M46 73.71h11.37V70H46z"></path></svg>
