<?xml version="1.0" encoding="utf-8"?>
<!-- Generator: Adobe Illustrator 17.0.0, SVG Export Plug-In . SVG Version: 6.00 Build 0)  -->
<!DOCTYPE svg PUBLIC "-//W3C//DTD SVG 1.1//EN" "http://www.w3.org/Graphics/SVG/1.1/DTD/svg11.dtd">
<svg version="1.1" id="Livello_1" xmlns="http://www.w3.org/2000/svg" xmlns:xlink="http://www.w3.org/1999/xlink" x="0px" y="0px"
	 width="225.809px" height="102.395px" viewBox="0 0 225.809 102.395" enable-background="new 0 0 225.809 102.395"
	 xml:space="preserve">
<g>
	<defs>
		<rect id="SVGID_1_" x="2.182" width="223.627" height="99.814"/>
	</defs>
	<clipPath id="SVGID_2_">
		<use xlink:href="#SVGID_1_"  overflow="visible"/>
	</clipPath>
	<path clip-path="url(#SVGID_2_)" fill="#D8C344" d="M69.243,5.381c0-1.573,1.274-2.849,2.849-2.849
		c1.573,0,2.848,1.276,2.848,2.849c0,0.605-0.187,1.165-0.508,1.625l7.018,5.887l3.507-7.48c-0.951-0.461-1.605-1.437-1.605-2.564
		C83.352,1.274,84.628,0,86.2,0c1.575,0,2.85,1.275,2.85,2.849c0,1.117-0.643,2.084-1.577,2.551l3.512,7.493l7.119-5.971
		c-0.285-0.444-0.452-0.973-0.452-1.541c0-1.573,1.276-2.849,2.85-2.849c1.573,0,2.849,1.276,2.849,2.849
		c0,1.574-1.276,2.85-2.849,2.85c-0.277,0-0.543-0.039-0.797-0.113L96.947,19.06l-1.325-0.324c-3.041-0.696-5.905-1.066-8.572-1.066
		c-4.155,0-7.989,0.593-11.457,1.807L72.74,8.156L72.092,8.23C70.517,8.23,69.243,6.955,69.243,5.381 M86.297,36.024
		c0,0,9.237,10.823,9.237,15.642c0,5.37-4.136,9.725-9.237,9.725c-5.101,0-9.237-4.355-9.237-9.725
		C77.06,46.714,86.297,36.024,86.297,36.024"/>
	<path clip-path="url(#SVGID_2_)" fill="#004020" d="M153.551,47.084c0-2.206-0.546-3.857-1.64-4.951
		c-1.076-1.094-2.62-1.641-4.635-1.641h-4.117v13.127h4.434c1.843,0,3.29-0.585,4.347-1.756
		C153.013,50.674,153.55,49.081,153.551,47.084 M123.124,65.306l-6.016-14.71l-5.959,14.71H123.124z M191.658,77.081h-22.331h-2.396
		h-8.487l-11.312-18.74h-3.974v18.74h-4.489h-5.299h-5.324l-3.08-7.427h-15.316l-2.735,7.427h-9.672l19.116-44.535h3.05
		l13.961,32.284V32.863h14.711c4.817,0,8.549,1.114,11.198,3.339c2.648,2.227,3.973,5.288,3.973,9.184
		c0,2.898-0.643,5.259-1.928,7.082c-1.268,1.804-2.966,3.042-5.096,3.713l10.702,17.077l0.001-40.395h9.787v36.646h8.568
		c0.87,1.68,1.931,3.234,3.193,4.652C189.465,75.263,190.526,76.235,191.658,77.081 M215.31,55.116
		c0.038-4.816-0.72-8.415-2.274-10.795c-1.555-2.399-3.954-3.617-7.198-3.656c-3.108-0.039-5.488,1.104-7.139,3.426
		c-1.632,2.303-2.447,5.979-2.447,11.025c0,4.721,0.767,8.301,2.303,10.737c1.554,2.439,3.982,3.656,7.283,3.656
		s5.691-1.179,7.168-3.54C214.503,63.609,215.272,59.991,215.31,55.116 M225.788,55.116c0.02,6.756-1.757,12.206-5.326,16.351
		c-3.55,4.145-8.424,6.219-14.624,6.219c-6.122,0-10.978-2.006-14.566-6.017c-3.57-4.011-5.354-9.528-5.354-16.553
		c0-7.024,1.765-12.542,5.296-16.553c3.55-4.03,8.425-6.045,14.624-6.045c6.41,0,11.333,1.9,14.768,5.7
		C224.042,41.999,225.768,47.631,225.788,55.116 M25.875,54.972c0-4.894-0.902-8.53-2.706-10.911
		c-1.805-2.379-4.684-3.568-8.637-3.569H12v28.961h3.108c3.819,0,6.564-1.19,8.234-3.57C25.031,63.485,25.875,59.847,25.875,54.972
		 M68.907,77.081H34.22V64.97c-0.814,2.56-1.993,4.725-3.537,6.497c-3.263,3.742-8.522,5.614-15.777,5.614H2.182V32.863h12.179
		c7.196,0,12.531,1.89,16.005,5.672c1.701,1.851,2.985,4.111,3.854,6.777V32.863h22.934v7.629H43.95v11.803h8.956v4.894H43.95v12.32
		h17.346c0.783,1.188,1.656,2.31,2.623,3.369C65.419,74.519,67.085,75.916,68.907,77.081 M84.812,31.605
		c-2.923,0.624-5.502,2.224-7.729,4.67c-2.927,3.215-4.39,7.52-4.39,12.918c0,5.567,1.163,10.004,3.491,13.315
		c2.326,3.286,5.96,4.93,10.902,4.93c2.111,0,4.499-0.301,7.162-0.9c1.42-0.318,2.727-0.685,3.921-1.103l-5.02,11.696
		c-2.469,0.495-4.717,0.741-6.745,0.742c-8.566,0-15.139-2.506-19.721-7.522c-4.582-5.013-6.872-11.909-6.872-20.69
		c0-7.773,2.386-14.418,7.16-19.936c4.774-5.541,11.467-8.311,20.079-8.311c1.011,0,2.069,0.06,3.173,0.182
		c6.425,0.407,11.72,2.714,15.888,6.92l-8.545,8.386c-0.341-0.4-0.703-0.783-1.085-1.148c-3.144-3.002-6.791-4.503-10.908-4.214
		L84.812,31.605z"/>
</g>
<path fill="#5D5856" d="M197.437,88.516c-1.426,0-2.486,1.955-2.486,4.625c0,2.65,1.06,4.624,2.486,4.624
	c1.445,0,2.504-1.955,2.504-4.624C199.941,90.471,198.882,88.516,197.437,88.516 M197.455,86.852c2.486,0,4.296,2.65,4.296,6.306
	c0,3.639-1.81,6.29-4.314,6.29c-2.486,0-4.296-2.651-4.296-6.29C193.141,89.502,194.951,86.852,197.455,86.852 M26.331,99.247
	l2.559-13.109l4.187,9.471l4.333-9.471l2.303,13.109h-1.884l-1.169-7.349l-3.602,7.916l-3.511-7.935l-1.316,7.368H26.331z
	 M47.732,96.869h-4.181l-1.101,2.378h-1.584l4.841-10.405l4.668,10.405h-1.616L47.732,96.869z M47.131,95.475l-1.452-3.316
	l-1.512,3.316H47.131z M57.147,90.912l-1.189,0.719c-0.455-0.748-0.792-0.969-1.468-0.969c-0.806,0-1.423,0.528-1.423,1.218
	c0,0.323,0.146,0.602,0.469,0.822l0.177,0.125c0.158,0.104,0.34,0.173,1.395,0.593c1.57,0.661,2.288,1.542,2.288,2.847
	c0,1.821-1.32,3.17-3.096,3.17c-1.747,0-2.906-1.056-3.17-2.891l1.497-0.337c0.073,0.588,0.132,0.822,0.279,1.072
	c0.249,0.468,0.807,0.763,1.408,0.763c0.925,0,1.6-0.69,1.6-1.629c0-0.559-0.235-0.983-0.675-1.291
	c-0.221-0.147-0.47-0.28-0.719-0.382l-0.324-0.133l-0.307-0.131l-0.309-0.132c-1.349-0.572-2.011-1.379-2.011-2.466
	c0-1.496,1.263-2.613,2.937-2.613C55.679,89.267,56.486,89.766,57.147,90.912 M62.049,90.853v8.394h-1.482v-8.394h-2.245v-1.394
	h5.973v1.394H62.049z M68.933,95.078l3.023,4.169h-1.804l-2.789-4.006h-0.264v4.006h-1.482v-9.788h1.731
	c1.263,0,1.967,0.161,2.584,0.572c0.718,0.471,1.173,1.365,1.173,2.29C71.105,93.701,70.239,94.8,68.933,95.078 M67.099,93.949
	h0.469c1.365,0,2.099-0.557,2.099-1.599c0-0.983-0.704-1.497-2.04-1.497h-0.528V93.949z M74.91,99.247h-1.482v-9.788h1.482V99.247z
	 M88.238,86.815c3.492,0,6.344,2.852,6.344,6.343c0,3.475-2.852,6.326-6.344,6.326c-3.583,0-6.398-2.76-6.398-6.289
	C81.84,89.667,84.692,86.815,88.238,86.815 M88.219,88.552c-2.559,0-4.533,2.01-4.533,4.626c0,2.558,2.011,4.569,4.533,4.569
	c2.505,0,4.516-2.046,4.516-4.569C92.735,90.545,90.779,88.552,88.219,88.552 M98.075,89.459v8.393h2.875v1.395h-4.359v-9.788
	H98.075z M107.748,90.853h-3.917v2.348h3.8v1.394h-3.8v3.257h3.917v1.395h-5.4v-9.788h5.4V90.853z M115.429,96.869h-4.182
	l-1.1,2.378h-1.585l4.843-10.405l4.665,10.405h-1.613L115.429,96.869z M114.828,95.475l-1.453-3.316l-1.511,3.316H114.828z
	 M122.627,95.078l3.023,4.169h-1.804l-2.789-4.006h-0.263v4.006h-1.482v-9.788h1.731c1.262,0,1.966,0.161,2.582,0.572
	c0.72,0.471,1.175,1.365,1.175,2.29C124.8,93.701,123.934,94.8,122.627,95.078 M120.794,93.949h0.469
	c1.364,0,2.099-0.557,2.099-1.599c0-0.983-0.704-1.497-2.041-1.497h-0.527V93.949z M128.606,99.247h-1.482v-9.788h1.482V99.247z
	 M136.534,99.247v-9.788h2.055c1.687,0,2.671,0.265,3.624,0.953c1.233,0.896,1.893,2.29,1.893,3.963c0,1.643-0.69,3.009-1.966,3.933
	c-0.984,0.72-1.834,0.939-3.581,0.939H136.534z M138.016,97.852h0.66c1.189,0,1.923-0.205,2.612-0.704
	c0.852-0.631,1.336-1.644,1.336-2.802c0-1.145-0.499-2.187-1.336-2.803c-0.645-0.485-1.423-0.69-2.612-0.69h-0.66V97.852z
	 M151.215,96.869h-4.182l-1.101,2.378h-1.584l4.842-10.405l4.666,10.405h-1.614L151.215,96.869z M150.614,95.475l-1.454-3.316
	l-1.51,3.316H150.614z M156.578,89.459v8.393h2.876v1.395h-4.358v-9.788H156.578z M167.187,88.771h-2.102l1.006-1.718h2.942v12.194
	h-1.846V88.771z M178.075,86.633l1.352,1.005l-2.906,3.967l0.75-0.073c1.901,0,3.546,1.792,3.546,3.838
	c0,2.25-1.828,4.078-4.095,4.078c-2.193,0-4.095-1.846-4.095-3.968c0-0.968,0.403-1.974,1.188-3.071L178.075,86.633z
	 M176.722,93.158c-1.28,0-2.304,1.025-2.304,2.304c0,1.262,1.042,2.303,2.304,2.303c1.28,0,2.304-1.023,2.304-2.303
	C179.026,94.183,178.002,93.158,176.722,93.158 M187.098,86.852c2.486,0,4.296,2.65,4.296,6.306c0,3.639-1.81,6.29-4.314,6.29
	c-2.487,0-4.297-2.651-4.297-6.29C182.783,89.502,184.593,86.852,187.098,86.852 M187.08,88.516c-1.426,0-2.487,1.955-2.487,4.625
	c0,2.65,1.061,4.624,2.487,4.624c1.444,0,2.504-1.955,2.504-4.624C189.584,90.471,188.524,88.516,187.08,88.516"/>
</svg>
