<?xml version="1.0" encoding="utf-8"?>
<!-- Generator: Adobe Illustrator 19.2.1, SVG Export Plug-In . SVG Version: 6.00 Build 0)  -->
<svg version="1.1" baseProfile="tiny" id="Layer_1" xmlns="http://www.w3.org/2000/svg" xmlns:xlink="http://www.w3.org/1999/xlink"
	 x="0px" y="0px" viewBox="0 0 841.89 327.37" xml:space="preserve">
<g>
	<path d="M599.91,187.71c-0.66-0.09-1.05-0.09-1.29-0.08c-0.04,0.11-0.1,0.28-0.15,0.51c-0.16,0.48-0.37,1.25-0.71,3.25
		c-0.3,1.72-0.7,3.47-1.2,5.29c-0.51,1.96-1.05,4.13-1.61,6.49c-0.15,1.17,0.04,1.71,0.11,1.85c0.37,0.79,0.72,1.6,1.08,2.44
		c0.06,0.15,0.12,0.37,0.18,0.53l0.19-1.48c0.44-3.3,1.16-5.78,2.28-7.82c1.02-1.85,2.16-3.36,3.47-4.61
		c0.1-0.09,0.2-0.19,0.29-0.28c-0.09-2.16-0.12-4.05-0.11-5.77L599.91,187.71z"/>
	<path d="M232.98,123.98c0.35-0.05,0.64-0.11,0.87-0.16c0.07-0.76,0.06-1.95-0.19-3.7l-2.46-16.91l-2.96,0.43
		c-0.02-0.01-0.03-0.01-0.05-0.01c-0.1,0-0.14,0.19-0.08,0.63l2.92,20L232.98,123.98z"/>
	<path d="M243.17,194.89c0.34,0.35,0.66,0.71,0.96,1.09l-4.7-32.24l-2.19,0.32c-0.32,0.02-0.39,0.19-0.31,0.65l4.12,28.23
		C241.76,193.53,242.47,194.17,243.17,194.89z"/>
	<polygon points="373.62,70.73 373.61,70.77 373.65,71.38 373.67,71.38 	"/>
	<path d="M330.57,93.06c-1.54,1.33-2.21,4-2.05,7.86l3.01-8.54C331.2,92.6,330.87,92.8,330.57,93.06z"/>
	<path d="M141.79,203.4c0.34,0.24,0.94,0.66,2.68,0.29c1.28-0.27,2.09-0.77,2.77-1.76c0.38-0.54,0.61-2.17,0.02-4.97l-3.82-18.37
		c-2.74-0.71-5.2-2.29-7.02-4.6c-0.83-1.04-1.51-2.36-2.14-3.84l6.67,32.02C141.29,202.86,141.61,203.27,141.79,203.4z"/>
</g>
<g>
	<path d="M338.37,177.9c-0.02,0,0.13-0.43,0.23-1.35l-0.58,1.64C338.16,178.08,338.28,177.99,338.37,177.9z"/>
	<path d="M170.77,239.47c2.92-1.63,5.57-3.46,7.98-5.52c0.59-0.57,1.17-0.9,1.61-1.02c0.01,0,0.64,0.16,1.95,1.74
		c0.36,0.48,0.89,0.89,1.6,1.27c0.88,0.47,1.86,0.6,2.83,0.4l4.7-0.98c1.55-0.32,2.36-1.12,2.76-1.73c0.59-0.9,1.06-2.76,0.8-4.02
		l-12.35-59.26c-0.19-0.91-2.44-5.97-2.84-6.77l10.75,54.81c0.59,2.86,1.27,5.39-0.22,7.66c-1.49,2.27-3.88,3.85-6.74,4.44
		l-4.69,0.98c-2.44,0.51-4.88,0.16-7.07-1.01c-0.32-0.17-0.62-0.34-0.91-0.53c-1.92,1.43-4,2.77-6.23,4
		c-3.54,1.97-7.65,3.45-12.23,4.41c-3.92,0.82-7.89,1.16-11.86,1.02c-1.35-0.04-2.69-0.15-4.03-0.31c-2.34-0.27-4.6-0.74-6.81-1.34
		c1.19,0.83,2.41,1.61,3.71,2.27c2.64,1.35,5.47,2.36,8.45,3.06h19.05C164.65,242.23,167.95,241.04,170.77,239.47z"/>
</g>
<g>
	<polygon fill="none" points="373.61,70.76 373.65,71.38 373.67,71.38 373.62,70.73 	"/>
	<path d="M130.2,118.77l-0.13-0.63c-0.86-4.09-2.02-5.05-2.15-5.15c-0.3-0.23-0.83-0.6-2.39-0.27c-1.68,0.35-2.04,0.96-2.26,1.32
		c-0.09,0.15-0.78,1.47,0.05,5.5l5.93,28.47l0.4-0.08l-3.35-16.1c-0.9-4.33-0.68-7.69,0.7-9.98
		C127.79,120.51,128.87,119.52,130.2,118.77z"/>
	<path d="M146.87,134.15c1.06,1.56,2.44,2.75,4.15,3.47c2.97,1.26,5.76,1.64,8.32,1.1l15.29-3.07l-3.64-16.46
		c-0.49-2.38-1.84-3.89-2.28-5.09l2.96,15.74l-20.17,4.02C149.99,134.18,148.44,134.23,146.87,134.15z"/>
	<path d="M263.44,219c0.47,0.62,1,1.21,1.59,1.75c2.41,2.23,5.63,3.07,9.57,2.5l19.44-2.99l-1.67-12.2
		c-0.29-2.46-0.61-4.42-1.63-5.9c-0.03-0.05-0.58-0.41-0.62-0.45l1.56,13.16l-25.66,3.9C265.12,218.9,264.26,218.97,263.44,219z"/>
	<path d="M267.03,136.38c1.84,1.79,3.28,4.01,4.5,6.45c0.62-1.46,1.12-3,1.43-4.65c0.68-3.75,0.71-7.8,0.09-12.04l-2.55-17.48
		c-0.58-3.98-1.66-7.64-3.19-10.96l2.46,16.85c0.72,4.91,0.68,9.66-0.13,14.08C269.13,131.41,268.25,134,267.03,136.38z"/>
	<path d="M283.73,184.85l-2.02-13.87c-0.71-4.83-1.82-9.2-3.32-13c-0.12-0.31-0.28-0.56-0.41-0.85c0.14,0.77,0.33,1.47,0.45,2.26
		l3.53,24.18C282.58,183.93,283.16,184.39,283.73,184.85z"/>
	<path d="M213.23,232.19l39.31-5.73l-1.5-10.25c-0.14-0.98-0.45-1.81-0.76-2.65c-0.36-0.72-1.02-1.03-1.45-1.6l1.33,9.12l-37.75,5.5
		L213.23,232.19z"/>
	<path d="M228.19,103.63c0.02,0,0.03,0,0.05,0.01l2.96-0.43l-0.28-1.91c-0.2-1.4-0.59-2.42-1.04-2.72
		c-0.57-0.39-1.28-0.71-2.61-0.51l-1.61,0.23l3.82,26.2l1.56-0.23l-2.92-20C228.04,103.83,228.08,103.63,228.19,103.63z"/>
	<path d="M237.24,164.06l2.19-0.32l-0.45-3.05c-0.17-1.19-0.39-1.95-0.56-2.41c-0.44,0.03-0.98,0.03-1.79,0.14l-2.17,0.32
		l4.79,32.83c0.6,0.41,1.2,0.87,1.79,1.36l-4.11-28.23C236.86,164.24,236.92,164.08,237.24,164.06z"/>
	<path d="M317.92,212.21c-1.13,0.94-2.82,1.94-5.13,2.09l-4.65,0.34l-0.41,1.94l0.03,0.42c0.11,1.67,1.3,2.51,2.5,2.51
		c0.05,0,0.11,0,0.16,0l11.48-0.79c0.95-0.06,1.61-0.68,2.18-1.35l0.89-2.09c2.35,1.08,4.89,1.9,7.58,2.45
		c4.39,0.9,9.11,1.19,14,0.86h0c4.88-0.34,9.54-1.26,13.84-2.75c4.37-1.52,8.19-3.71,11.35-6.53c3.17-2.82,5.66-6.31,7.39-10.36
		c1.73-4.06,2.42-8.73,2.07-13.89l-6.07-88.92c-0.33-4.69-1.48-8.84-3.37-12.4c0.04,0.43,0.11,0.85,0.14,1.29l6.06,88.92
		c0.42,6.15-0.43,11.8-2.55,16.78c-2.1,4.92-5.13,9.15-9,12.59c-3.77,3.36-8.3,5.98-13.46,7.77c-4.81,1.67-10.01,2.71-15.47,3.08
		c-5.47,0.37-10.74,0.05-15.69-0.96C320.47,212.92,319.17,212.6,317.92,212.21z"/>
	<path d="M328.71,85.96c-1.83,0.12-2.77,0.6-3.24,0.92c-0.12,0.41-0.33,1.48-0.18,3.62l1.12,16.4l2.11-5.99
		c-0.16-3.85,0.51-6.53,2.05-7.86c0.3-0.26,0.63-0.46,0.95-0.68l1.28-3.64c-0.17-1.3-0.42-2-0.55-2.31
		C331.42,86.02,330.23,85.86,328.71,85.96z"/>
	<path d="M375.99,68.5c-0.27-0.52-0.94-1.39-2.61-1.29l-2.97,0.2l-1.63,4.61c1.45,3.23,2.39,6.8,2.86,10.64l4.17-11.83
		C376.49,69.79,376.17,68.87,375.99,68.5z M373.65,71.38l-0.04-0.61l0.01-0.03l0.05,0.65H373.65z"/>
	<path d="M335.09,179.06c1.59-0.11,2.43-0.5,2.93-0.88l0.58-1.64c0.07-0.69,0.12-1.62,0.03-3l-0.91-13.28l-6.19,17.6
		c0.1,0.33,0.19,0.55,0.25,0.68C332.26,178.81,333.22,179.2,335.09,179.06z"/>
	<path d="M422.45,214.58c4.3,1.15,8.91,1.73,13.7,1.73h0.31c4.9-0.03,9.61-0.66,13.98-1.88c4.44-1.24,8.42-3.15,11.8-5.68
		c3.44-2.57,6.21-5.87,8.24-9.78c2.05-3.93,3.07-8.57,3.05-13.77l-0.13-22.09c-0.03-5.21-1.2-9.82-3.41-13.77
		c0.08,1.01,0.19,2.01,0.19,3.06l0.13,22.08c0.03,6.22-1.23,11.83-3.75,16.69c-2.48,4.78-5.87,8.79-10.05,11.92
		c-4.01,3-8.68,5.26-13.88,6.7c-4.91,1.37-10.17,2.08-15.63,2.11h-0.34c-4.95,0-9.71-0.58-14.21-1.68
		C415.4,212.12,418.74,213.6,422.45,214.58z"/>
	<path d="M428.08,104.47l0.21-8.15c-0.01-0.83,0.24-4.48,0.24-4.96l-0.03-5.38c-0.82-0.45-1.57-0.64-2.36-0.64
		c-0.62,0.02-1.31,0.16-1.65,0.37l0.09,15.69c0,0,0.13,0.31,0.74,0.88C426.71,103.59,427.75,104.21,428.08,104.47z"/>
	<path d="M448.22,111.89c2.56,2.92,5.75,4.42,9.48,4.42h0.09l13.43-0.07l-0.12-20.14c-0.02-5.14-0.96-9.72-2.76-13.63
		c-0.2-0.43-0.45-0.83-0.67-1.25c0.13,1.36,0.21,2.74,0.21,4.16l0.14,26.42l-19.69,0.11C448.3,111.91,448.26,111.89,448.22,111.89z"
		/>
	<path d="M422.35,175.49c0.85,0.46,2.2,0.47,3.34,0.57c-0.33-2.63-2.07-9.11-3.71-11.11C421.95,164.92,422.35,175.49,422.35,175.49z
		"/>
	<path d="M496.23,92.71c-3.29,2.22-7.4,2.3-10.81,2.08l-0.57-0.04l-0.24,3.77l10.72,0.68c0.18,0.01,0.31,0,0.48,0.01L496.23,92.71z"
		/>
	<path d="M565.58,75.08c-0.34-0.36-0.74-0.67-1.15-0.97l-1.64,25.46l-14.95-0.96c1.93,2.61,4.67,4.09,8.06,4.3l10.52,0.67
		l1.28-19.91C567.96,79.72,567.26,76.91,565.58,75.08L565.58,75.08z"/>
	<path d="M538.97,96.52c-1.35-0.7-2.62-1.54-3.73-2.6l-5.75,89.72c1.22,1.24,2.34,2.74,3.35,4.46c0.09,0.14,0.14,0.3,0.22,0.44
		L538.97,96.52z"/>
	<path d="M498.22,216.42l39.44,2.53l0.66-10.32c0.18-2.58-0.29-4.83-1.38-6.67c-0.59-1-1.23-1.84-1.92-2.63l-0.99,15.6l-35.57-2.29
		L498.22,216.42z"/>
	<path d="M592.07,221.35l-34.33-4.51l-0.4,3.06l36.71,5.1l0.4-3.06l0.07-0.27l1.79-13.67c-0.06-0.16-0.12-0.37-0.18-0.53
		c-0.36-0.84-0.72-1.65-1.08-2.44c-0.06-0.13-0.25-0.67-0.11-1.85c0.56-2.36,1.1-4.54,1.61-6.49c0.51-1.81,0.9-3.57,1.2-5.29
		c0.34-2,0.55-2.78,0.71-3.25c0.06-0.24,0.11-0.41,0.16-0.52c0.24-0.01,0.63-0.01,1.29,0.08l2.54,0.33c0-0.44-0.01-0.93,0-1.33
		c0.01-0.63,0.02-1.22,0.02-1.78l-8.42-1.1c-0.27,1.28-0.58,2.56-0.94,3.84c-0.41,1.55-0.86,3.32-1.31,5.24
		c0.2,0.46,0.4,0.92,0.61,1.39c0.47,1.13,0.91,2.39,1.32,3.81c0.65,2.23,0.75,4.87,0.32,8.08L592.07,221.35z"/>
	<path d="M637.27,119.22c0.51,6.99,1,14.08,1.48,21.26c1.13,16.55,2.47,35.26,4.04,56.13c0.97,0.89,1.83,1.99,2.64,3.2
		c-1.32-17.68-2.48-33.82-3.46-48.22c-0.48-7.17-0.97-14.25-1.48-21.22c-0.51-6.98-0.98-13.24-1.41-18.79
		c-0.43-5.53-0.77-10.09-1.01-13.67c-0.24-3.63-0.4-5.71-0.46-6.29c-0.37-2.89-1.18-5.12-2.46-6.8c-0.14-0.18-0.32-0.33-0.47-0.5
		c0.05,0.74,0.11,1.57,0.17,2.5c0.24,3.54,0.57,8.07,1.01,13.59C636.3,105.95,636.76,112.23,637.27,119.22z"/>
	<polygon points="611.45,223.9 611.18,226.61 646.83,231.29 647.12,228.62 645.85,228.41 	"/>
</g>
<g>
	<path d="M648.21,210.37l-0.85,11.07l2.29-9.98C649.38,211.09,648.22,210.32,648.21,210.37z"/>
	<path d="M756.15,124.93l-13.73,80.27c-1.95,11.38-6.72,20.19-14.21,26.19c-5.14,4.13-11.55,6.41-19.12,6.83
		c-3.9,0.22-8.11-0.06-12.62-0.83l-41.55-7.37l-0.37,2.38l46.7,8.02c4.53,0.74,14.12,1.86,17.54,1.67c6.26-0.35,11.8-1.8,15.57-5.46
		c5.83-5.65,6.79-8.86,11.04-22.55l13.02-80.01c1.64-9.57,2.06-17.88-1.92-24.6C757.19,114.26,757.09,119.41,756.15,124.93z"/>
</g>
<g>
	<path d="M712.74,113.33l-15.18,88.76l4.81,0.82c0.2,0.03,0.34,0.05,0.48,0.06l14.7-85.98c0.04-0.2,0.16-0.36,0.37-0.49
		c0.09-0.73,0.21-1.49,0.23-2.17c0-0.02,0-0.04,0-0.06c-0.16-0.04-0.37-0.08-0.61-0.12L712.74,113.33z"/>
	<path d="M123.82,104.53c3.51-0.73,6.54-0.15,9.09,1.74c2.55,1.89,4.34,5.28,5.35,10.17l0.47,2.26c0.76,3.64,2.43,6,5.01,7.1
		c2.58,1.1,4.93,1.42,7.07,0.98l12.79-2.67l-3.06-14.67c-0.99-4.76-2.79-8.83-5.39-12.22c-2.6-3.38-5.74-6.03-9.41-7.95
		c-3.67-1.91-7.72-3.13-12.14-3.65c-4.42-0.52-8.96-0.29-13.59,0.67c-4.64,0.97-8.85,2.57-12.64,4.79
		c-3.79,2.23-6.95,4.95-9.48,8.16c-2.54,3.21-4.29,6.88-5.26,11c-0.97,4.13-0.96,8.57,0.03,13.33l17.39,83.49
		c0.99,4.76,2.85,8.82,5.58,12.18c2.72,3.35,5.96,5.98,9.69,7.89c3.73,1.91,7.81,3.12,12.23,3.63c4.43,0.52,8.83,0.32,13.22-0.59
		c3.76-0.78,7.05-1.96,9.86-3.53c2.81-1.57,5.33-3.3,7.55-5.2c0.87-0.84,1.81-1.36,2.81-1.57c1-0.21,2.29,0.64,3.86,2.53
		c0.17,0.23,0.49,0.46,0.93,0.69c0.44,0.24,0.91,0.3,1.41,0.19l4.7-0.98c1.38-0.29,1.93-1.12,1.64-2.5l-13.44-64.5
		c-0.36-1.75-1.2-3.25-2.5-4.48c-1.3-1.23-2.89-1.65-4.77-1.26l-23.88,4.98l1.49,7.14c0.73,3.51,1.58,5.89,2.56,7.12
		c0.98,1.24,2.38,1.86,4.22,1.87c2.11,0.08,3.42,1.38,3.95,3.88l4.31,20.68c1.01,4.89,0.57,8.71-1.34,11.46
		c-1.91,2.75-4.56,4.48-7.94,5.19c-3.51,0.73-6.57,0.19-9.17-1.62c-2.6-1.81-4.41-5.17-5.43-10.05l-16.45-78.97
		c-1.02-4.89-0.71-8.71,0.95-11.48C117.73,107.01,120.31,105.26,123.82,104.53z"/>
</g>
<g>
	<path fill="none" d="M169.65,155.41c-0.34-1.65-1.14-3.08-2.37-4.24c-1.2-1.13-2.62-1.51-4.37-1.15l-23.43,4.88l1.4,6.69
		c0.71,3.43,1.54,5.76,2.47,6.93c0.89,1.13,2.16,1.69,3.86,1.69c2.35,0.09,3.82,1.52,4.39,4.25l4.31,20.68
		c1.04,5,0.56,8.97-1.42,11.82c-1.97,2.84-4.74,4.65-8.22,5.37c-3.62,0.75-6.83,0.19-9.52-1.69c-2.69-1.88-4.58-5.35-5.61-10.34
		l-16.45-78.97c-1.04-4.99-0.7-8.96,1-11.81c1.71-2.87,4.41-4.7,8.04-5.46c3.62-0.76,6.81-0.14,9.46,1.82
		c2.63,1.95,4.49,5.47,5.53,10.44l0.47,2.26c0.72,3.46,2.32,5.74,4.74,6.77c2.48,1.05,4.76,1.37,6.8,0.95l12.34-2.57l-2.96-14.22
		c-0.98-4.67-2.76-8.72-5.31-12.03c-2.54-3.31-5.66-5.94-9.26-7.82c-3.6-1.88-7.63-3.09-11.98-3.6c-1.51-0.18-3.05-0.27-4.6-0.27
		c-2.91,0-5.87,0.31-8.85,0.93c-4.56,0.95-8.77,2.55-12.5,4.74c-3.72,2.19-6.87,4.9-9.36,8.05c-2.48,3.14-4.22,6.78-5.17,10.82
		c-0.95,4.04-0.94,8.46,0.03,13.14l17.39,83.49c0.97,4.67,2.82,8.71,5.48,11.99c2.67,3.29,5.88,5.9,9.54,7.77
		c3.67,1.87,7.73,3.08,12.08,3.59c4.37,0.51,8.76,0.31,13.07-0.59c3.7-0.77,6.97-1.94,9.73-3.48c2.77-1.54,5.28-3.27,7.47-5.15
		c0.91-0.88,1.93-1.44,3.02-1.67c1.19-0.25,2.6,0.63,4.31,2.68c0.1,0.13,0.31,0.32,0.79,0.58c0.34,0.18,0.7,0.23,1.1,0.15l4.7-0.98
		c1.14-0.24,1.52-0.82,1.28-1.95L169.65,155.41z"/>
	<path d="M170.55,155.22c-0.38-1.84-1.27-3.43-2.64-4.72c-1.41-1.34-3.15-1.8-5.18-1.38l-24.33,5.07l1.58,7.59
		c0.75,3.62,1.62,6.01,2.65,7.31c1.06,1.35,2.6,2.03,4.56,2.04c1.89,0.08,3.04,1.23,3.52,3.52l4.31,20.68
		c0.98,4.74,0.56,8.48-1.27,11.11c-1.83,2.64-4.41,4.32-7.66,5c-3.37,0.7-6.33,0.18-8.81-1.55c-2.49-1.74-4.25-5.02-5.24-9.77
		l-16.45-78.97c-0.99-4.75-0.69-8.5,0.89-11.15c1.57-2.64,4.07-4.33,7.44-5.03c3.36-0.7,6.29-0.14,8.73,1.66
		c2.45,1.81,4.19,5.14,5.18,9.89l0.47,2.26c0.79,3.78,2.56,6.27,5.28,7.43c2.65,1.13,5.12,1.47,7.34,1.01l13.24-2.76L161,109.34
		c-1-4.81-2.85-8.98-5.48-12.4c-2.62-3.41-5.84-6.13-9.56-8.08c-3.7-1.93-7.83-3.17-12.3-3.7c-4.45-0.52-9.08-0.29-13.74,0.68
		c-4.66,0.97-8.96,2.6-12.78,4.85c-3.82,2.25-7.05,5.03-9.61,8.27c-2.57,3.25-4.37,7.01-5.35,11.18c-0.98,4.17-0.97,8.72,0.03,13.53
		l17.39,83.49c1,4.82,2.91,8.98,5.67,12.38c2.75,3.39,6.06,6.08,9.83,8c3.76,1.92,7.93,3.16,12.39,3.68
		c1.61,0.19,3.22,0.28,4.83,0.28c2.86,0,5.71-0.29,8.53-0.88c3.79-0.79,7.15-1.99,9.99-3.57c2.82-1.57,5.39-3.34,7.64-5.27
		c0.8-0.77,1.67-1.26,2.59-1.45c0.56-0.12,1.61,0.2,3.4,2.36c0.21,0.28,0.56,0.54,1.08,0.82c0.53,0.28,1.11,0.36,1.72,0.24l4.7-0.98
		c1.62-0.34,2.33-1.42,1.99-3.04L170.55,155.22z M181.81,221.86l-4.7,0.98c-0.4,0.08-0.76,0.03-1.1-0.15
		c-0.49-0.26-0.69-0.45-0.79-0.58c-1.71-2.05-3.12-2.93-4.31-2.68c-1.09,0.23-2.11,0.79-3.02,1.67c-2.19,1.88-4.71,3.61-7.47,5.15
		c-2.76,1.54-6.03,2.71-9.73,3.48c-4.31,0.9-8.7,1.1-13.07,0.59c-4.35-0.51-8.41-1.71-12.08-3.59c-3.66-1.87-6.87-4.48-9.54-7.77
		c-2.67-3.28-4.51-7.31-5.48-11.99l-17.39-83.49c-0.97-4.68-0.99-9.1-0.03-13.14c0.95-4.04,2.69-7.68,5.17-10.82
		c2.49-3.15,5.64-5.85,9.36-8.05c3.73-2.19,7.94-3.79,12.5-4.74c2.98-0.62,5.94-0.93,8.85-0.93c1.55,0,3.08,0.09,4.6,0.27
		c4.35,0.51,8.38,1.72,11.98,3.6c3.6,1.88,6.71,4.51,9.26,7.82c2.55,3.31,4.33,7.36,5.31,12.03l2.96,14.22l-12.34,2.57
		c-2.03,0.42-4.32,0.1-6.8-0.95c-2.42-1.03-4.02-3.31-4.74-6.77l-0.47-2.26c-1.04-4.97-2.9-8.49-5.53-10.44
		c-2.65-1.96-5.84-2.57-9.46-1.82c-3.63,0.75-6.33,2.59-8.04,5.46c-1.7,2.85-2.04,6.82-1,11.81l16.45,78.97
		c1.04,4.98,2.93,8.46,5.61,10.34c2.7,1.88,5.9,2.45,9.52,1.69c3.49-0.73,6.25-2.53,8.22-5.37c1.98-2.84,2.45-6.82,1.42-11.82
		l-4.31-20.68c-0.57-2.73-2.04-4.15-4.39-4.25c-1.7-0.01-2.97-0.56-3.86-1.69c-0.93-1.17-1.76-3.5-2.47-6.93l-1.4-6.69l23.43-4.88
		c1.74-0.36,3.17,0.01,4.37,1.15c1.23,1.16,2.03,2.58,2.37,4.24l13.44,64.5C183.33,221.04,182.94,221.62,181.81,221.86z"/>
</g>
<g>
	<path fill="none" d="M341.29,89.43c-0.34-4.98-1.72-8.26-4.14-9.82c-2.42-1.57-5.42-2.23-8.99-1.99c-3.45,0.23-6.27,1.29-8.45,3.18
		c-2.18,1.88-3.11,5.31-2.77,10.3l3.88,56.91l20.48-58.19L341.29,89.43z"/>
	<path fill="none" d="M240.98,127.85c0.86-2.18,1.03-5.16,0.49-8.86l-2.74-18.81c-0.55-3.77-2.04-6.51-4.43-8.13
		c-1.9-1.28-4.01-1.93-6.3-1.93c-0.62,0-1.25,0.05-1.89,0.14l-7.6,1.11c-0.58,0.08-0.99,0.29-1.24,0.62
		c-0.3,0.4-0.39,1.02-0.27,1.85l5.46,37.44c0.13,0.87,0.38,1.43,0.76,1.67c0.41,0.26,0.8,0.35,1.2,0.29l9.69-1.41
		C237.84,131.28,240.15,129.94,240.98,127.85z"/>
	<path fill="none" d="M343.32,119.18l-20.43,58.05c0.53,3.97,1.85,6.67,3.96,8.09c2.42,1.63,5.36,2.33,8.81,2.09
		c3.58-0.24,6.45-1.43,8.61-3.57c2.16-2.13,3.07-5.76,2.72-10.87L343.32,119.18z"/>
	<path d="M263.13,115.82l-2.55-17.48c-0.67-4.61-2.02-8.77-4.01-12.36c-1.98-3.58-4.54-6.58-7.6-8.92
		c-3.07-2.34-6.66-4.03-10.67-5.03c-4.03-1-8.4-1.17-13-0.49l-39.65,5.79l1.13,7.72c0.35,2.41,1.2,4.21,2.51,5.35
		c1.36,1.18,2.59,2.02,3.65,2.48c0.78,0.18,1.3,0.73,1.41,1.55l15.06,103.2c0.18,1.26,0.1,2.19-0.26,2.84
		c-0.32,0.59-0.73,1.14-1.21,1.63c-0.86,0.87-1.7,2.07-2.49,3.56c-0.76,1.45-1,3.22-0.7,5.27l1.13,7.72l34.26-5l-1.13-7.72
		c-0.3-2.04-1.03-3.67-2.17-4.85c-1.19-1.21-2.33-2.12-3.4-2.7c-0.72-0.3-1.32-0.72-1.75-1.23c-0.45-0.53-0.76-1.45-0.96-2.82
		l-5.82-39.91c-0.38-2.57,1.14-3.35,2.47-3.54l7.98-1.16c4.05-0.59,7.02-0.05,8.84,1.6c1.79,1.63,2.97,4.36,3.52,8.12l6.15,42.19
		c0.39,2.67,1.53,4.89,3.38,6.59c1.85,1.7,4.3,2.31,7.48,1.84l17.98-2.62l-1.43-9.81c-0.3-2.05-0.89-3.61-1.77-4.64
		c-0.89-1.03-1.86-1.79-2.9-2.24c-0.73-0.3-1.39-0.74-1.96-1.28c-0.61-0.58-0.99-1.48-1.17-2.73l-3.8-26.04
		c-0.67-4.62-1.74-8.8-3.16-12.44c-1.39-3.55-3.68-6.19-6.8-7.86c-1.07-0.6-1.67-1.3-1.8-2.08c-0.13-0.76,0.19-1.57,0.93-2.4
		c2.15-2.45,3.57-5.42,4.2-8.85C263.69,123.59,263.72,119.82,263.13,115.82z M241.83,128.19c-0.96,2.42-3.52,3.95-7.6,4.54
		l-9.69,1.41c-0.12,0.02-0.24,0.03-0.36,0.03c-0.5,0-0.99-0.15-1.46-0.45c-0.62-0.4-1.01-1.15-1.18-2.31l-5.46-37.44
		c-0.16-1.07-0.01-1.93,0.44-2.53c0.4-0.53,1.02-0.86,1.84-0.98l7.6-1.11c3.27-0.48,6.24,0.17,8.84,1.94
		c2.61,1.78,4.24,4.72,4.83,8.76l2.74,18.81C242.94,122.72,242.76,125.86,241.83,128.19z"/>
	<path d="M263.95,127.21c0.66-3.55,0.69-7.42,0.09-11.52l-2.55-17.48c-0.69-4.72-2.07-8.99-4.11-12.67
		c-2.04-3.69-4.69-6.79-7.85-9.21c-3.17-2.42-6.87-4.16-11-5.19c-4.15-1.03-8.64-1.2-13.35-0.51l-40.55,5.92l1.26,8.63
		c0.39,2.64,1.33,4.63,2.82,5.91c1.43,1.24,2.74,2.13,3.96,2.65c0.49,0.12,0.74,0.37,0.8,0.81l15.06,103.2
		c0.15,1.04,0.1,1.8-0.16,2.27c-0.28,0.52-0.64,1-1.06,1.42c-0.93,0.93-1.82,2.21-2.65,3.78c-0.85,1.62-1.12,3.58-0.79,5.82
		l1.26,8.63l36.07-5.26l-1.26-8.63c-0.33-2.24-1.14-4.04-2.42-5.35c-1.25-1.28-2.47-2.24-3.66-2.89c-0.62-0.26-1.11-0.59-1.45-1
		c-0.23-0.27-0.54-0.89-0.76-2.36l-5.82-39.91c-0.22-1.53,0.3-2.3,1.69-2.51l7.98-1.16c3.76-0.55,6.49-0.09,8.09,1.37
		c1.63,1.48,2.71,4.03,3.23,7.58l6.15,42.19c0.42,2.89,1.66,5.29,3.67,7.13c2.04,1.88,4.81,2.58,8.23,2.08l18.89-2.76l-1.56-10.71
		c-0.32-2.22-0.99-3.94-1.98-5.11c-0.98-1.14-2.07-1.98-3.23-2.49l-0.01,0c-0.63-0.26-1.2-0.63-1.68-1.1
		c-0.45-0.43-0.75-1.17-0.9-2.21l-3.8-26.04c-0.68-4.69-1.77-8.94-3.22-12.64c-1.47-3.75-3.9-6.56-7.21-8.33
		c-0.81-0.45-1.26-0.93-1.34-1.43c-0.08-0.47,0.16-1.02,0.71-1.64C261.8,133.92,263.29,130.8,263.95,127.21z M257.92,138.29
		c0.13,0.79,0.74,1.49,1.8,2.08c3.12,1.67,5.4,4.32,6.8,7.86c1.42,3.63,2.49,7.82,3.16,12.44l3.8,26.04
		c0.18,1.25,0.57,2.15,1.17,2.73c0.57,0.54,1.23,0.98,1.96,1.28c1.03,0.45,2.01,1.21,2.9,2.24c0.88,1.03,1.47,2.59,1.77,4.64
		l1.43,9.81l-17.98,2.62c-3.18,0.46-5.63-0.14-7.48-1.84c-1.85-1.7-2.99-3.92-3.38-6.59l-6.15-42.19c-0.55-3.76-1.74-6.5-3.52-8.12
		c-1.82-1.65-4.79-2.19-8.84-1.6l-7.98,1.16c-1.33,0.2-2.84,0.97-2.47,3.54l5.82,39.91c0.2,1.37,0.52,2.29,0.96,2.82
		c0.43,0.51,1.04,0.93,1.75,1.23c1.07,0.58,2.22,1.5,3.4,2.7c1.14,1.17,1.87,2.8,2.17,4.85l1.13,7.72l-34.26,5l-1.13-7.72
		c-0.3-2.05-0.06-3.82,0.7-5.27c0.79-1.5,1.62-2.69,2.49-3.56c0.48-0.49,0.89-1.03,1.21-1.63c0.36-0.66,0.44-1.58,0.26-2.84
		l-15.06-103.2c-0.12-0.82-0.63-1.36-1.41-1.55c-1.06-0.47-2.29-1.3-3.65-2.48c-1.31-1.13-2.16-2.94-2.51-5.35l-1.13-7.72
		l39.65-5.79c4.6-0.67,8.97-0.51,13,0.49c4.01,1,7.6,2.69,10.67,5.03c3.06,2.34,5.62,5.34,7.6,8.92c1.98,3.58,3.33,7.74,4.01,12.36
		l2.55,17.48c0.58,3.99,0.55,7.77-0.08,11.22c-0.63,3.42-2.05,6.4-4.2,8.85C258.11,136.72,257.79,137.53,257.92,138.29z"/>
	<path d="M239.63,100.04c-0.59-4.04-2.21-6.99-4.83-8.76c-2.6-1.76-5.58-2.42-8.84-1.94l-7.6,1.11c-0.82,0.12-1.44,0.45-1.84,0.98
		c-0.45,0.6-0.6,1.46-0.44,2.53l5.46,37.44c0.17,1.16,0.56,1.92,1.18,2.31c0.48,0.3,0.97,0.45,1.46,0.45c0.12,0,0.24-0.01,0.36-0.03
		l9.69-1.41c4.08-0.6,6.64-2.13,7.6-4.54c0.92-2.33,1.11-5.47,0.54-9.33L239.63,100.04z M223.21,132.94
		c-0.38-0.24-0.64-0.8-0.76-1.67l-5.46-37.44c-0.12-0.83-0.03-1.45,0.27-1.85c0.25-0.33,0.65-0.54,1.24-0.62l7.6-1.11
		c0.64-0.09,1.28-0.14,1.89-0.14c2.29,0,4.41,0.65,6.3,1.93c2.39,1.62,3.88,4.36,4.43,8.13l2.74,18.81c0.54,3.7,0.38,6.69-0.49,8.86
		c-0.83,2.09-3.14,3.43-6.88,3.98l-9.69,1.41C224.01,133.3,223.62,133.2,223.21,132.94z"/>
	<path d="M363.55,85.6c-0.33-4.86-1.55-9.04-3.65-12.55c-0.07-0.12-0.15-0.23-0.22-0.35l4.76-13.53c0.36-0.41,0.22-0.59-0.42-0.55
		l-11.5,0.79c-0.38,0.03-0.63,0.23-0.73,0.63l-1.31,3.71c-2.97-1.73-6.33-2.99-10.06-3.8c-4.3-0.93-8.81-1.23-13.54-0.91
		c-4.73,0.32-9.13,1.23-13.19,2.73c-4.07,1.5-7.59,3.53-10.56,6.11c-2.97,2.58-5.26,5.75-6.86,9.52c-1.6,3.77-2.24,8.08-1.91,12.93
		l6.07,88.91c0.33,4.85,1.55,9.04,3.65,12.55c0.28,0.46,0.56,0.91,0.86,1.35l-4.59,13.05c0.03,0.38,0.17,0.56,0.42,0.55l11.5-0.78
		c0.13-0.01,0.37-0.22,0.72-0.63l1.29-3.67c2.77,1.53,5.82,2.65,9.18,3.34c4.23,0.87,8.71,1.14,13.43,0.82
		c4.73-0.32,9.16-1.2,13.3-2.64c4.14-1.44,7.68-3.48,10.65-6.12c2.96-2.64,5.25-5.84,6.85-9.61c1.6-3.77,2.24-8.08,1.91-12.93
		L363.55,85.6z M316.95,91.09c-0.34-4.98,0.58-8.42,2.77-10.3c2.18-1.88,5-2.94,8.45-3.18c3.57-0.25,6.57,0.42,8.99,1.99
		c2.42,1.57,3.8,4.84,4.14,9.82l0.03,0.38L320.84,148L316.95,91.09z M344.27,183.84c-2.16,2.14-5.03,3.33-8.61,3.57
		c-3.45,0.23-6.39-0.46-8.81-2.09c-2.11-1.42-3.43-4.12-3.96-8.09l20.43-58.05l3.67,53.79
		C347.34,178.09,346.43,181.71,344.27,183.84z"/>
</g>
<g>
	<path fill="none" d="M336.9,79.99c-2.01-1.3-4.48-1.96-7.34-1.96c-0.45,0-0.9,0.02-1.37,0.05c-3.33,0.23-6.08,1.26-8.18,3.06
		c-2.06,1.77-2.94,5.11-2.61,9.92l3.73,54.69l19.71-56.01l-0.02-0.28C340.5,84.65,339.18,81.46,336.9,79.99z"/>
	<polygon fill="none" points="342.86,119.12 341.01,92.05 321.3,148.06 323.15,175.13 	"/>
	<path fill="none" d="M327.1,184.94c2.32,1.56,5.19,2.25,8.52,2.02c3.45-0.23,6.25-1.39,8.32-3.44c2.06-2.03,2.93-5.56,2.59-10.51
		l-3.52-51.57l-19.66,55.85C323.88,181.05,325.13,183.62,327.1,184.94z"/>
	<path fill="none" d="M359.56,71.65l4.42-12.57l-11.43,0.78c-0.16,0.01-0.26,0.06-0.31,0.28l-1.19,3.39
		c0.35,0.21,0.69,0.42,1.02,0.64C355.03,66.1,357.54,68.61,359.56,71.65z"/>
	<path fill="none" d="M343.63,116.93l15.55-44.2c-2.01-3.19-4.57-5.82-7.61-7.81c-0.27-0.18-0.55-0.35-0.83-0.52l-8.96,25.45
		L343.63,116.93z"/>
	<path fill="none" d="M363.09,85.63c-0.31-4.54-1.42-8.52-3.3-11.87l-16.01,45.48l3.66,53.7c0.36,5.23-0.6,9-2.86,11.23
		c-2.23,2.21-5.23,3.46-8.9,3.71c-3.54,0.24-6.6-0.49-9.09-2.17c-1.88-1.27-3.17-3.5-3.85-6.66l-7.88,22.4
		c2.64,1.41,5.56,2.45,8.71,3.1c4.17,0.85,8.65,1.12,13.31,0.81c4.66-0.32,9.1-1.2,13.18-2.62c4.06-1.41,7.59-3.44,10.5-6.03
		c2.9-2.58,5.16-5.76,6.74-9.45c1.57-3.68,2.2-7.96,1.87-12.72L363.09,85.63z"/>
	<path fill="none" d="M322.25,175.43l-1.72-25.19l-15.07,42.83c1.9,2.76,4.24,5.09,6.98,6.93c0.52,0.35,1.05,0.68,1.6,1l8.38-23.81
		C322.35,176.63,322.29,176.04,322.25,175.43z"/>
	<path fill="none" d="M304.83,192.11l15.55-44.17l-3.88-56.82c-0.35-5.11,0.63-8.71,2.92-10.67c2.25-1.94,5.18-3.05,8.71-3.29
		c3.65-0.25,6.77,0.44,9.27,2.06c2.24,1.45,3.64,4.29,4.18,8.46l8.35-23.74c-2.85-1.6-6.07-2.8-9.6-3.56
		c-3.14-0.68-6.44-1.02-9.84-1.02c-1.18,0-2.37,0.04-3.56,0.12c-4.66,0.32-9.06,1.23-13.07,2.7c-4,1.48-7.51,3.5-10.41,6.03
		c-2.91,2.52-5.17,5.67-6.74,9.35c-1.57,3.68-2.2,7.96-1.87,12.72l6.07,88.91c0.32,4.76,1.53,8.91,3.58,12.35
		C304.6,191.74,304.71,191.92,304.83,192.11z"/>
	<path fill="none" d="M305.09,194.13l-4.26,12.11c0,0.01,0,0.02,0.01,0.03l11.4-0.78c-0.03-0.01,0.09-0.09,0.37-0.41l1.13-3.22
		c-0.62-0.35-1.22-0.72-1.8-1.12C309.28,198.98,306.98,196.75,305.09,194.13z"/>
	<path d="M364.01,85.57c-0.33-4.9-1.58-9.19-3.71-12.76c-0.04-0.06-0.07-0.12-0.11-0.18l4.66-13.24c0.25-0.31,0.31-0.6,0.18-0.85
		c-0.22-0.44-0.81-0.4-1.04-0.38l-11.5,0.79c-0.58,0.04-1,0.39-1.13,0.93l-1.12,3.19c-2.89-1.61-6.15-2.81-9.71-3.58
		c-4.32-0.93-8.91-1.24-13.66-0.92c-4.75,0.32-9.23,1.25-13.32,2.76c-4.11,1.51-7.71,3.6-10.7,6.2c-3.01,2.61-5.36,5.87-6.98,9.68
		c-1.63,3.82-2.28,8.24-1.94,13.14l6.07,88.91c0.33,4.9,1.58,9.19,3.71,12.75c0.24,0.4,0.49,0.8,0.75,1.18l-4.55,12.92l0.01,0.1
		c0.05,0.72,0.46,0.97,0.85,0.97c0.02,0,0.04,0,0.06,0l11.5-0.78c0.23-0.02,0.48-0.16,1.03-0.78l1.2-3.31
		c2.68,1.42,5.64,2.47,8.84,3.12c4.25,0.87,8.81,1.15,13.56,0.83h0c4.75-0.32,9.26-1.22,13.42-2.66c4.18-1.45,7.81-3.54,10.8-6.21
		c3-2.67,5.34-5.96,6.97-9.78c1.62-3.81,2.28-8.23,1.95-13.14L364.01,85.57z M352.24,60.14c0.06-0.22,0.15-0.27,0.31-0.28
		l11.43-0.78l-4.42,12.57c-2.02-3.03-4.54-5.55-7.5-7.48c-0.33-0.22-0.67-0.43-1.02-0.64L352.24,60.14z M350.74,64.41
		c0.28,0.17,0.56,0.34,0.83,0.52c3.05,1.99,5.6,4.61,7.61,7.81l-15.55,44.2l-1.85-27.07L350.74,64.41z M341.01,92.05l1.85,27.07
		l-19.71,56.01l-1.85-27.07L341.01,92.05z M321.14,145.75l-3.73-54.69c-0.33-4.81,0.55-8.15,2.61-9.92
		c2.09-1.81,4.84-2.84,8.18-3.06c0.47-0.03,0.92-0.05,1.37-0.05c2.87,0,5.33,0.66,7.34,1.96c2.28,1.48,3.6,4.66,3.93,9.47l0.02,0.28
		L321.14,145.75z M343.01,121.43l3.52,51.57c0.34,4.95-0.53,8.48-2.59,10.51c-2.07,2.05-4.87,3.21-8.32,3.44
		c-3.33,0.23-6.2-0.45-8.52-2.02c-1.97-1.33-3.23-3.9-3.75-7.66L343.01,121.43z M300.9,179.2l-6.07-88.91
		c-0.33-4.76,0.3-9.04,1.87-12.72c1.56-3.68,3.83-6.83,6.74-9.35c2.91-2.52,6.41-4.55,10.41-6.03c4.01-1.48,8.41-2.38,13.07-2.7
		c1.2-0.08,2.39-0.12,3.56-0.12c3.4,0,6.7,0.34,9.84,1.02c3.53,0.76,6.75,1.96,9.6,3.56l-8.35,23.74c-0.54-4.17-1.94-7.01-4.18-8.46
		c-2.5-1.62-5.62-2.31-9.27-2.06c-3.54,0.24-6.47,1.34-8.71,3.29c-2.29,1.97-3.27,5.56-2.92,10.67l3.88,56.82l-15.55,44.17
		c-0.12-0.19-0.23-0.37-0.34-0.56C302.43,188.11,301.22,183.96,300.9,179.2z M312.6,205.09c-0.28,0.31-0.4,0.4-0.37,0.41l-11.4,0.78
		c0-0.01,0-0.02-0.01-0.03l4.26-12.11c1.9,2.62,4.19,4.84,6.84,6.63c0.58,0.39,1.19,0.76,1.8,1.12L312.6,205.09z M314.04,201
		c-0.55-0.32-1.08-0.65-1.6-1c-2.74-1.84-5.08-4.17-6.98-6.93l15.07-42.83l1.72,25.19c0.04,0.61,0.1,1.19,0.17,1.75L314.04,201z
		 M367.29,187.26c-1.57,3.69-3.84,6.87-6.74,9.45c-2.9,2.58-6.43,4.61-10.5,6.03c-4.08,1.42-8.52,2.3-13.18,2.62
		c-4.67,0.32-9.14,0.04-13.31-0.81c-3.16-0.65-6.07-1.69-8.71-3.1l7.88-22.4c0.68,3.16,1.97,5.39,3.85,6.66
		c2.49,1.68,5.55,2.41,9.09,2.17c3.67-0.25,6.67-1.5,8.9-3.71c2.25-2.22,3.22-6,2.86-11.23l-3.66-53.7l16.01-45.48
		c1.88,3.34,2.99,7.33,3.3,11.87l6.07,88.91C369.49,179.3,368.85,183.58,367.29,187.26z"/>
</g>
<path d="M458.44,139.11c-2.26-3.76-5.07-7.11-8.41-10.04c-3.35-2.93-7.01-5.53-10.99-7.81c-3.99-2.28-7.65-4.47-10.99-6.57
	c-3.34-2.09-6.14-4.19-8.39-6.29c-2.25-2.1-3.39-4.43-3.4-6.99l-0.09-16.9c-0.01-1.92,0.97-3.65,2.95-5.2
	c1.98-1.55,4.31-2.33,7-2.35c2.56-0.01,5,0.71,7.31,2.17c2.31,1.46,3.48,3.54,3.49,6.22l0.03,5.96c0.02,3.07,1.12,5.88,3.31,8.43
	c2.19,2.55,4.89,3.81,8.09,3.8l11.33-0.06l-0.1-18.05c-0.03-4.87-0.88-9.12-2.57-12.76c-1.69-3.64-4.04-6.63-7.06-8.99
	c-3.02-2.35-6.55-4.12-10.59-5.32c-4.04-1.19-8.43-1.78-13.17-1.75c-4.74,0.03-9.09,0.6-13.05,1.71c-3.97,1.11-7.41,2.86-10.34,5.25
	c-2.93,2.39-5.22,5.41-6.86,9.06c-1.64,3.66-2.45,8.05-2.42,13.17l-0.11,14.22c0.04,6.02,1.18,10.97,3.44,14.87
	c2.26,3.89,5.1,7.21,8.51,9.94c3.41,2.74,7.07,5.05,10.98,6.95c3.92,1.9,7.58,3.9,10.98,5.99c3.41,2.09,6.23,4.51,8.49,7.25
	c2.25,2.74,3.4,6.22,3.42,10.45l0.11,20.74c0.01,0.9-0.31,1.83-0.94,2.79c-0.64,0.96-1.53,1.87-2.68,2.7
	c-1.15,0.84-2.49,1.52-4.02,2.04c-1.53,0.52-3.13,0.79-4.8,0.79c-3.33,0.02-6.25-0.73-8.75-2.26c-2.51-1.52-3.76-3.31-3.77-5.35
	l-0.06-9.6c-0.01-2.94-0.89-5.47-2.63-7.57c-1.74-2.1-4.34-3.15-7.8-3.13l-11.91,0.07l0.1,18.25c0.03,4.87,0.98,9.12,2.86,12.76
	c1.87,3.64,4.39,6.64,7.54,8.98c3.15,2.35,6.84,4.09,11.07,5.22c4.23,1.13,8.72,1.68,13.46,1.66c4.73-0.03,9.21-0.63,13.43-1.8
	c4.22-1.18,7.92-2.95,11.11-5.34c3.19-2.39,5.73-5.41,7.63-9.07c1.9-3.66,2.84-7.92,2.81-12.79l-0.13-22.09
	C461.85,147.32,460.7,142.88,458.44,139.11z"/>
<g>
	<path fill="none" d="M458.05,139.35c-2.23-3.7-5.02-7.04-8.32-9.93c-3.31-2.89-6.99-5.51-10.92-7.76c-3.97-2.27-7.67-4.48-11-6.58
		c-3.34-2.09-6.19-4.23-8.46-6.34c-2.34-2.18-3.53-4.65-3.54-7.32l-0.09-16.9c-0.01-2.06,1.04-3.93,3.12-5.56
		c2.05-1.6,4.5-2.43,7.28-2.44c2.66,0,5.18,0.74,7.56,2.24c2.44,1.54,3.69,3.77,3.71,6.61l0.03,5.96c0.01,2.95,1.09,5.69,3.2,8.13
		c2.09,2.43,4.71,3.64,7.74,3.64l10.87-0.06l-0.1-17.6c-0.03-4.77-0.88-9-2.53-12.57c-1.64-3.55-3.97-6.52-6.93-8.82
		c-2.96-2.3-6.48-4.07-10.44-5.24c-3.9-1.15-8.18-1.73-12.75-1.73c-0.1,0-0.19,0-0.29,0c-4.66,0.03-9.01,0.59-12.93,1.69
		c-3.88,1.09-7.31,2.82-10.18,5.16c-2.87,2.33-5.13,5.32-6.73,8.9c-1.61,3.58-2.41,7.95-2.38,12.98l-0.11,14.22
		c0.04,5.91,1.17,10.83,3.38,14.63c2.22,3.83,5.05,7.13,8.4,9.81c3.36,2.7,7.02,5.02,10.9,6.89c3.92,1.9,7.63,3.92,11.02,6.01
		c3.43,2.11,6.32,4.58,8.61,7.35c2.31,2.82,3.5,6.43,3.52,10.74l0.11,20.74c0.01,0.98-0.33,2-1.02,3.04
		c-0.68,1.02-1.62,1.97-2.79,2.82c-1.18,0.86-2.57,1.57-4.15,2.1c-1.57,0.54-3.23,0.81-4.94,0.82c-0.04,0-0.08,0-0.13,0
		c-3.35,0-6.33-0.78-8.86-2.32c-2.64-1.6-3.98-3.53-3.99-5.74l-0.06-9.6c-0.01-2.83-0.86-5.28-2.53-7.28
		c-1.64-1.98-4.13-2.98-7.44-2.96l-11.45,0.06l0.1,17.79c0.03,4.77,0.97,8.99,2.81,12.55c1.83,3.56,4.32,6.53,7.41,8.83
		c3.09,2.31,6.76,4.04,10.92,5.15c4.17,1.11,8.7,1.67,13.33,1.64c4.67-0.03,9.15-0.63,13.31-1.79c4.15-1.16,7.84-2.93,10.96-5.27
		c3.12-2.34,5.64-5.34,7.5-8.92s2.79-7.81,2.76-12.58l-0.13-22.09C461.39,147.44,460.26,143.03,458.05,139.35z"/>
	<path d="M458.83,138.88c-2.27-3.78-5.13-7.2-8.5-10.14c-3.36-2.93-7.08-5.58-11.07-7.87c-3.96-2.27-7.65-4.47-10.97-6.56
		c-3.3-2.06-6.09-4.16-8.32-6.24c-2.18-2.03-3.24-4.21-3.25-6.66l-0.09-16.9c-0.01-1.79,0.89-3.37,2.77-4.84
		c1.88-1.48,4.15-2.23,6.72-2.25c2.44,0.03,4.83,0.69,7.06,2.1c2.19,1.38,3.26,3.29,3.28,5.84l0.03,5.96
		c0.02,3.17,1.17,6.11,3.42,8.73c2.27,2.64,5.11,3.95,8.44,3.96l11.79-0.07l-0.1-18.51c-0.03-4.9-0.9-9.26-2.61-12.95
		c-1.71-3.68-4.13-6.76-7.2-9.16c-3.05-2.37-6.67-4.19-10.75-5.4c-4.07-1.2-8.57-1.8-13.3-1.77c-4.74,0.03-9.17,0.61-13.17,1.72
		c-4,1.12-7.54,2.92-10.51,5.33c-2.98,2.42-5.33,5.53-6.99,9.23c-1.66,3.7-2.49,8.2-2.46,13.35l-0.11,14.22
		c0.04,6.08,1.22,11.16,3.51,15.09c2.28,3.92,5.18,7.31,8.62,10.07c3.41,2.74,7.14,5.1,11.07,7c3.89,1.89,7.57,3.9,10.94,5.97
		c3.34,2.05,6.16,4.46,8.38,7.15c2.18,2.65,3.29,6.07,3.32,10.16l0.11,20.74c0.01,0.8-0.29,1.65-0.87,2.53
		c-0.62,0.93-1.48,1.8-2.56,2.59c-1.1,0.81-2.42,1.47-3.9,1.98c-1.48,0.5-3.04,0.76-4.65,0.77c-0.04,0-0.08,0-0.12,0
		c-3.18,0-6-0.74-8.39-2.19c-2.35-1.42-3.54-3.09-3.55-4.97l-0.06-9.6c-0.02-3.04-0.94-5.69-2.74-7.86
		c-1.81-2.19-4.52-3.29-8.06-3.29c-0.03,0-0.06,0-0.09,0l-12.37,0.07l0.1,18.71c0.03,4.91,1.01,9.28,2.91,12.96
		c1.9,3.69,4.48,6.76,7.67,9.14c3.18,2.38,6.96,4.16,11.23,5.3c4.16,1.11,8.62,1.67,13.27,1.67c0.1,0,0.21,0,0.31,0
		c4.75-0.03,9.31-0.64,13.55-1.82c4.26-1.19,8.05-3.01,11.26-5.42c3.23-2.42,5.84-5.52,7.76-9.23c1.93-3.71,2.89-8.09,2.86-13
		l-0.13-22.09C462.3,147.27,461.13,142.7,458.83,138.88z M458.78,187.11c-1.86,3.58-4.38,6.58-7.5,8.92
		c-3.12,2.34-6.81,4.11-10.96,5.27c-4.17,1.16-8.65,1.76-13.31,1.79c-4.64,0.03-9.16-0.53-13.33-1.64
		c-4.16-1.11-7.83-2.84-10.92-5.15c-3.08-2.3-5.58-5.27-7.41-8.83c-1.84-3.56-2.78-7.78-2.81-12.55l-0.1-17.79l11.45-0.06
		c3.31-0.02,5.8,0.98,7.44,2.96c1.66,2.01,2.51,4.46,2.53,7.28l0.06,9.6c0.01,2.21,1.36,4.15,3.99,5.74
		c2.53,1.54,5.52,2.32,8.86,2.32c0.04,0,0.08,0,0.13,0c1.71-0.01,3.37-0.28,4.94-0.82c1.57-0.53,2.97-1.24,4.15-2.1
		c1.17-0.85,2.11-1.8,2.79-2.82c0.68-1.04,1.02-2.06,1.02-3.04l-0.11-20.74c-0.02-4.31-1.21-7.92-3.52-10.74
		c-2.28-2.77-5.18-5.25-8.61-7.35c-3.4-2.09-7.1-4.11-11.02-6.01c-3.87-1.88-7.54-4.2-10.9-6.89c-3.35-2.68-6.17-5.99-8.4-9.81
		c-2.21-3.8-3.35-8.72-3.38-14.63l0.11-14.22c-0.03-5.03,0.77-9.4,2.38-12.98c1.6-3.57,3.87-6.56,6.73-8.9
		c2.87-2.34,6.29-4.07,10.18-5.16c3.92-1.1,8.27-1.66,12.93-1.69c0.1,0,0.19,0,0.29,0c4.56,0,8.85,0.58,12.75,1.73
		c3.97,1.18,7.48,2.94,10.44,5.24c2.95,2.3,5.28,5.27,6.93,8.82c1.65,3.57,2.5,7.8,2.53,12.57l0.1,17.6l-10.87,0.06
		c-3.03,0-5.65-1.21-7.74-3.64c-2.11-2.45-3.18-5.18-3.2-8.13l-0.03-5.96c-0.02-2.84-1.26-5.06-3.71-6.61
		c-2.38-1.5-4.9-2.24-7.56-2.24c-2.78,0.02-5.23,0.84-7.28,2.44c-2.09,1.63-3.14,3.5-3.12,5.56l0.09,16.9
		c0.01,2.68,1.21,5.14,3.54,7.32c2.27,2.11,5.11,4.25,8.46,6.34c3.33,2.09,7.04,4.3,11,6.58c3.93,2.25,7.61,4.87,10.92,7.76
		c3.29,2.88,6.09,6.23,8.32,9.93c2.21,3.68,3.34,8.09,3.37,13.1l0.13,22.09C461.57,179.3,460.64,183.53,458.78,187.11z"/>
</g>
<path d="M548.07,63.49l-61.15-3.93c-3.32-0.21-5.51,0.39-6.56,1.79c-1.05,1.41-1.67,3.58-1.86,6.52l-0.48,7.48l-0.68,10.54
	l8.62,0.55c3.19,0.2,5.17-0.12,5.93-0.97c0.76-0.85,1.58-2.14,2.46-3.89c0.57-0.99,1.42-1.67,2.54-2.05
	c1.11-0.38,1.93-0.55,2.44-0.52l3.26,0.21c0.64,0.04,1.26,0.31,1.88,0.8c0.61,0.49,0.88,1.25,0.82,2.26l-6.48,101.01
	c-0.08,1.28-0.3,2.16-0.65,2.65c-0.35,0.5-0.86,0.91-1.53,1.25c-1.08,0.7-2.16,1.72-3.28,3.06c-1.12,1.34-1.74,3.1-1.88,5.27
	l-0.53,8.24l35.27,2.26l0.53-8.24c0.14-2.17-0.22-3.99-1.09-5.46c-0.87-1.47-1.79-2.62-2.76-3.45c-0.62-0.43-1.07-0.9-1.35-1.44
	c-0.29-0.53-0.46-1.44-0.5-2.73l6.46-100.63c0.07-1.02,0.4-1.8,1.02-2.34c0.61-0.54,1.3-0.78,2.07-0.73l3.64,0.23
	c0.64,0.04,1.39,0.22,2.27,0.53c0.88,0.32,1.59,1.13,2.15,2.45c1.56,3.7,4.19,5.66,7.89,5.9l8.44,0.54l0.6-9.39l0.54-8.43
	c0.21-3.32-0.31-5.66-1.57-7.03C553.3,64.47,551.14,63.69,548.07,63.49z"/>
<g>
	<path fill="none" d="M554.22,66.14c-1.17-1.27-3.25-2.01-6.18-2.19l-61.15-3.93c-3.14-0.2-5.22,0.34-6.17,1.61
		c-0.99,1.33-1.59,3.44-1.77,6.27l-1.13,17.56l8.17,0.52c3.78,0.24,5.11-0.31,5.56-0.82c0.73-0.82,1.54-2.09,2.39-3.79
		c0.64-1.1,1.58-1.86,2.8-2.28c1.19-0.4,2.04-0.58,2.61-0.54l3.26,0.21c0.73,0.05,1.44,0.35,2.13,0.89
		c0.73,0.59,1.06,1.48,0.99,2.65l-6.48,101.01c-0.09,1.38-0.33,2.32-0.74,2.89c-0.39,0.55-0.96,1.02-1.69,1.39
		c-0.99,0.65-2.06,1.65-3.13,2.95c-1.04,1.25-1.64,2.94-1.77,5l-0.5,7.79l34.36,2.2l0.5-7.78c0.13-2.07-0.21-3.82-1.03-5.2
		c-0.84-1.42-1.73-2.54-2.66-3.33c-0.64-0.44-1.14-0.98-1.46-1.57c-0.32-0.59-0.51-1.55-0.55-2.93l6.46-100.67
		c0.07-1.15,0.47-2.04,1.17-2.66c0.7-0.62,1.51-0.91,2.4-0.85l3.64,0.23c0.68,0.04,1.46,0.23,2.4,0.56c1,0.36,1.81,1.27,2.42,2.7
		c1.5,3.55,3.95,5.39,7.5,5.62l7.98,0.51l1.12-17.37C555.88,69.65,555.39,67.4,554.22,66.14L554.22,66.14z"/>
	<path d="M548.1,63.04l-61.15-3.93c-3.47-0.23-5.81,0.44-6.96,1.98c-1.1,1.47-1.76,3.75-1.95,6.76l-1.18,18.48l9.08,0.58
		c3.38,0.22,5.43-0.15,6.3-1.12c0.79-0.88,1.64-2.22,2.52-3.96c0.52-0.89,1.27-1.5,2.29-1.84c1.32-0.44,1.96-0.51,2.26-0.5
		l3.26,0.21c0.54,0.04,1.08,0.26,1.62,0.7c0.49,0.39,0.7,1.01,0.65,1.88l-6.48,101.01c-0.09,1.47-0.36,2.12-0.57,2.41
		c-0.31,0.44-0.76,0.8-1.4,1.13c-1.11,0.72-2.24,1.78-3.38,3.15c-1.17,1.4-1.84,3.27-1.98,5.53l-0.56,8.7l36.18,2.32l0.56-8.7
		c0.14-2.26-0.25-4.18-1.16-5.72c-0.89-1.5-1.85-2.7-2.89-3.59c-0.56-0.38-0.96-0.81-1.21-1.28c-0.25-0.46-0.4-1.31-0.45-2.48
		l6.46-100.63c0.06-0.91,0.34-1.57,0.86-2.03c0.52-0.46,1.09-0.66,1.73-0.62l3.64,0.23c0.59,0.04,1.31,0.21,2.15,0.5
		c0.75,0.27,1.38,1.01,1.89,2.19c1.62,3.85,4.41,5.93,8.29,6.18l8.89,0.57l1.17-18.28c0.22-3.49-0.33-5.9-1.69-7.37
		C553.56,64.08,551.27,63.24,548.1,63.04z M555.67,72.83l-1.12,17.37l-7.98-0.51c-3.55-0.23-6.01-2.06-7.5-5.62
		c-0.61-1.43-1.42-2.34-2.42-2.7c-0.93-0.33-1.72-0.51-2.4-0.56l-3.64-0.23c-0.89-0.06-1.7,0.23-2.4,0.85
		c-0.7,0.62-1.1,1.51-1.17,2.66l-6.46,100.67c0.05,1.37,0.23,2.33,0.55,2.93c0.32,0.59,0.82,1.13,1.46,1.57
		c0.93,0.79,1.83,1.92,2.66,3.33c0.82,1.38,1.16,3.13,1.03,5.2l-0.5,7.78l-34.36-2.2l0.5-7.79c0.13-2.07,0.73-3.75,1.77-5
		c1.08-1.3,2.14-2.3,3.13-2.95c0.73-0.38,1.29-0.84,1.69-1.39c0.41-0.57,0.65-1.51,0.74-2.89l6.48-101.01
		c0.08-1.17-0.26-2.07-0.99-2.65c-0.69-0.54-1.4-0.85-2.13-0.89l-3.26-0.21c-0.57-0.04-1.43,0.14-2.61,0.54
		c-1.22,0.42-2.16,1.17-2.8,2.28c-0.85,1.69-1.66,2.97-2.39,3.79c-0.46,0.5-1.79,1.06-5.56,0.82l-8.17-0.52l1.13-17.56
		c0.18-2.83,0.78-4.94,1.77-6.27c0.95-1.27,3.03-1.81,6.17-1.61l61.15,3.93c2.93,0.19,5.01,0.93,6.18,2.19l0,0
		C555.39,67.4,555.88,69.65,555.67,72.83z"/>
</g>
<g>
	<path fill="none" d="M601.66,128.15c-1.35,4.41-2.64,8.54-3.85,12.38c-1.14,3.6-2.16,6.92-3.04,9.86c-1.05,3.53-1.25,4.4-1.27,4.6
		c-0.23,0.84-0.18,1.25-0.06,1.37c0.06,0.06,0.41,0.34,2.25,0.58l13.33,1.75c0.74,0.1,1.26,0.01,1.54-0.25
		c0.23-0.21,0.33-0.58,0.31-1.1l-1.12-26.88c-0.2-3.31-0.35-6.66-0.44-9.94c-0.09-3.24-0.19-6.15-0.3-8.75
		c-0.11-2.6-0.19-4.71-0.24-6.33c-0.01-0.28-0.01-0.54-0.02-0.76c-0.15,0.52-0.34,1.18-0.59,2.04c-0.7,2.43-1.63,5.5-2.76,9.23
		C604.26,119.67,603.01,123.74,601.66,128.15z"/>
	<path fill="none" d="M726.02,114.67c0.06-1.41-0.13-2.7-0.56-3.82c-0.42-1.1-1.14-2.05-2.15-2.82c-1.03-0.79-2.53-1.35-4.46-1.68
		l-10.42-1.78c-0.18-0.03-0.35-0.05-0.52-0.05c-0.5,0-0.91,0.15-1.23,0.45c-0.47,0.42-0.75,0.95-0.87,1.61l-17.06,99.77
		c-0.26,1.52,0.31,2.32,1.83,2.58l10.41,1.78c1.93,0.33,3.54,0.26,4.77-0.2c1.23-0.46,2.25-1.15,3.01-2.05
		c0.77-0.91,1.37-2.06,1.79-3.41c0.43-1.4,0.77-2.86,1.03-4.34l13.92-81.41v0C725.8,117.68,725.96,116.12,726.02,114.67z"/>
	<path d="M594.74,86.27c0.55,0.81,0.76,1.79,0.61,2.91l-0.13,0.95c-0.01,0.09-0.03,0.24-1.58,4.63l-4,11.29
		c-1.64,4.63-3.53,9.87-5.65,15.73c-2.13,5.88-4.26,11.89-6.31,17.86l-17.27,48.88c-0.58,1.2-1.36,2.14-2.35,2.84
		c-0.9,0.63-1.79,1.29-2.67,1.96c-0.82,0.63-1.62,1.44-2.37,2.4c-0.73,0.93-1.21,2.32-1.45,4.13l-0.94,7.16l33.75,4.43l0.84-6.4
		c0.26-1.95,0.24-3.46-0.05-4.47c-0.31-1.07-0.64-2.01-0.97-2.79c-0.34-0.82-0.69-1.6-1.04-2.35c-0.39-0.83-0.49-1.97-0.29-3.48
		c0.65-2.7,1.17-4.79,1.65-6.62c0.47-1.71,0.86-3.4,1.14-5.04c0.28-1.65,0.53-2.81,0.75-3.46c0.31-1.26,0.81-2.01,1.51-2.25
		c0.61-0.21,1.51-0.24,2.73-0.08l17.52,2.3c1.03,0.14,1.77,0.59,2.22,1.34c0.41,0.7,0.65,1.75,0.73,3.2
		c0.08,1.37,0.1,3.19,0.05,5.56c-0.05,2.29,0.02,5.22,0.21,8.71c-0.17,1.32-0.58,2.3-1.25,3c-0.6,0.63-1.24,1.27-1.92,1.9
		c-0.62,0.59-1.23,1.41-1.8,2.45c-0.56,1.02-0.99,2.6-1.26,4.7l-0.84,6.4l34.32,4.5l0.94-7.16c0.27-2.05,0.04-3.82-0.68-5.25
		c-0.74-1.46-1.56-2.57-2.44-3.29l-0.04-0.04c-0.59-0.61-1.11-1.25-1.55-1.9c-0.47-0.69-0.78-1.61-0.91-2.73
		c-1.57-20.86-2.96-40.07-4.13-57.13c-0.48-7.16-0.97-14.23-1.48-21.21c-0.51-6.97-0.98-13.23-1.41-18.78
		c-0.48-6.18-0.79-10.4-1.01-13.7c-0.3-4.42-0.41-5.78-0.45-6.14c-0.3-2.39-0.96-4.27-1.96-5.56c-0.98-1.28-2.69-2.35-5.06-3.16
		c-2.43-0.82-5.8-1.49-10-1.98c-4.09-0.47-9.34-1.13-16.04-2.01l-0.84,6.4c-0.33,2.47-0.29,4.36,0.09,5.63
		c0.39,1.3,0.87,2.4,1.44,3.28C593.72,84.75,594.26,85.56,594.74,86.27z M600.78,127.88c1.35-4.41,2.6-8.47,3.73-12.2
		c1.13-3.72,2.05-6.8,2.76-9.22c0.97-3.33,1.07-3.73,1.08-3.78l0.08-0.42l1.27,0.15l-0.06,0.46c0,0.05-0.02,0.39,0.04,2.54
		c0.05,1.62,0.13,3.73,0.24,6.32c0.11,2.6,0.21,5.52,0.3,8.76c0.09,3.27,0.24,6.61,0.44,9.92l1.12,26.89
		c0.04,0.8-0.17,1.41-0.61,1.81c-0.38,0.35-0.92,0.52-1.62,0.52c-0.21,0-0.43-0.02-0.66-0.05l-13.33-1.75
		c-2-0.26-2.54-0.6-2.79-0.86c-0.41-0.42-0.47-1.14-0.17-2.19c0.01-0.09,0.07-0.55,1.29-4.68c0.88-2.95,1.9-6.27,3.04-9.88
		C598.14,136.41,599.43,132.28,600.78,127.88z"/>
	<path d="M594.32,89.98c-0.02,0.09-0.22,0.72-1.54,4.47l-4,11.29c-1.64,4.63-3.52,9.87-5.65,15.72c-2.13,5.88-4.26,11.9-6.32,17.87
		l-17.25,48.83c-0.49,1.02-1.18,1.84-2.03,2.45c-0.91,0.64-1.81,1.31-2.7,1.98c-0.88,0.68-1.74,1.54-2.54,2.56
		c-0.83,1.06-1.38,2.6-1.63,4.58l-1.06,8.07l35.57,4.67l0.96-7.31c0.27-2.08,0.25-3.71-0.08-4.85c-0.33-1.12-0.66-2.06-1-2.89
		c-0.35-0.83-0.7-1.62-1.05-2.38c-0.31-0.66-0.39-1.67-0.22-2.93c0.64-2.65,1.16-4.73,1.63-6.55c0.48-1.73,0.87-3.45,1.16-5.13
		c0.27-1.6,0.51-2.72,0.73-3.36c0.23-0.95,0.55-1.51,0.93-1.65c0.32-0.11,0.99-0.21,2.31-0.04l17.52,2.3
		c0.74,0.1,1.25,0.39,1.55,0.9c0.33,0.56,0.53,1.5,0.61,2.79c0.08,1.33,0.09,3.18,0.05,5.49c-0.05,2.32,0.02,5.27,0.21,8.7
		c-0.14,1.04-0.47,1.85-1,2.4c-0.58,0.62-1.22,1.24-1.88,1.87c-0.7,0.65-1.36,1.55-1.97,2.67c-0.63,1.14-1.07,2.78-1.37,5.02
		l-0.96,7.31l36.14,4.74l1.06-8.07c0.29-2.24,0.03-4.19-0.77-5.79c-0.79-1.56-1.68-2.76-2.65-3.56c-0.55-0.57-1.03-1.16-1.43-1.76
		c-0.39-0.57-0.64-1.35-0.75-2.31c-1.57-20.84-2.96-40.05-4.13-57.11c-0.48-7.17-0.97-14.24-1.48-21.21
		c-0.51-6.97-0.98-13.23-1.41-18.78c-0.48-6.17-0.79-10.4-1.01-13.69c-0.24-3.56-0.39-5.64-0.46-6.19
		c-0.33-2.56-1.05-4.58-2.14-6.01c-1.1-1.43-2.94-2.6-5.5-3.47c-2.49-0.85-5.92-1.53-10.19-2.02c-4.18-0.48-9.57-1.16-16.48-2.07
		l-0.45-0.06l-0.96,7.31c-0.35,2.64-0.31,4.6,0.12,6.02c0.41,1.38,0.93,2.56,1.54,3.51c0.59,0.92,1.13,1.74,1.62,2.45
		c0.43,0.62,0.58,1.37,0.46,2.27L594.32,89.98z M591.61,74.93l0.84-6.4c6.7,0.88,11.95,1.54,16.04,2.01c4.21,0.49,7.57,1.16,10,1.98
		c2.38,0.81,4.08,1.87,5.06,3.16c0.99,1.3,1.65,3.17,1.96,5.56c0.04,0.36,0.15,1.72,0.45,6.14c0.22,3.3,0.53,7.52,1.01,13.7
		c0.43,5.55,0.9,11.81,1.41,18.78c0.5,6.98,0.99,14.04,1.48,21.21c1.17,17.06,2.55,36.27,4.13,57.13c0.13,1.12,0.43,2.04,0.91,2.73
		c0.44,0.65,0.96,1.29,1.55,1.9l0.04,0.04c0.88,0.72,1.69,1.83,2.44,3.29c0.72,1.43,0.95,3.2,0.68,5.25l-0.94,7.16l-34.32-4.5
		l0.84-6.4c0.28-2.1,0.7-3.68,1.26-4.7c0.57-1.04,1.17-1.86,1.8-2.45c0.67-0.63,1.32-1.27,1.92-1.9c0.66-0.7,1.08-1.68,1.25-3
		c-0.18-3.49-0.26-6.42-0.21-8.71c0.05-2.37,0.03-4.19-0.05-5.56c-0.08-1.45-0.32-2.5-0.73-3.2c-0.45-0.75-1.2-1.21-2.22-1.34
		l-17.52-2.3c-1.22-0.16-2.12-0.14-2.73,0.08c-0.71,0.24-1.2,0.99-1.51,2.25c-0.22,0.65-0.48,1.81-0.75,3.46
		c-0.28,1.64-0.67,3.34-1.14,5.04c-0.48,1.83-1,3.92-1.65,6.62c-0.2,1.51-0.1,2.65,0.29,3.48c0.35,0.75,0.69,1.53,1.04,2.35
		c0.33,0.78,0.65,1.72,0.97,2.79c0.29,1.02,0.31,2.52,0.05,4.47l-0.84,6.4l-33.75-4.43l0.94-7.16c0.24-1.81,0.72-3.2,1.45-4.13
		c0.75-0.96,1.55-1.77,2.37-2.4c0.87-0.67,1.77-1.33,2.67-1.96c0.98-0.7,1.77-1.64,2.35-2.84l17.27-48.88
		c2.06-5.97,4.18-11.98,6.31-17.86c2.12-5.85,4.01-11.1,5.65-15.73l4-11.29c1.55-4.39,1.57-4.54,1.58-4.63l0.13-0.95
		c0.15-1.13-0.05-2.1-0.61-2.91c-0.48-0.7-1.02-1.51-1.61-2.43c-0.57-0.88-1.05-1.98-1.44-3.28
		C591.31,79.3,591.28,77.4,591.61,74.93z"/>
	<path d="M592.6,154.81c-0.29,1.05-0.24,1.77,0.17,2.19c0.25,0.26,0.79,0.59,2.79,0.86l13.33,1.75c0.23,0.03,0.45,0.05,0.66,0.05
		c0.7,0,1.24-0.18,1.62-0.52c0.44-0.4,0.64-1.01,0.61-1.81l-1.12-26.89c-0.2-3.31-0.35-6.65-0.44-9.92
		c-0.09-3.24-0.19-6.16-0.3-8.76c-0.11-2.59-0.19-4.7-0.24-6.32c-0.06-2.15-0.05-2.5-0.04-2.54l0.06-0.46l-1.27-0.15l-0.08,0.42
		c-0.01,0.05-0.1,0.44-1.08,3.78c-0.7,2.42-1.62,5.5-2.76,9.22c-1.14,3.73-2.38,7.79-3.73,12.2c-1.35,4.41-2.64,8.53-3.85,12.37
		c-1.14,3.61-2.17,6.93-3.04,9.88C592.67,154.26,592.6,154.72,592.6,154.81z M608.74,104.68c0.01,0.23,0.01,0.48,0.02,0.76
		c0.05,1.62,0.13,3.73,0.24,6.33c0.11,2.6,0.21,5.52,0.3,8.75c0.09,3.28,0.24,6.63,0.44,9.94l1.12,26.88
		c0.02,0.52-0.08,0.89-0.31,1.1c-0.28,0.26-0.8,0.34-1.54,0.25l-13.33-1.75c-1.84-0.24-2.2-0.53-2.25-0.58
		c-0.12-0.12-0.17-0.53,0.06-1.37c0.03-0.2,0.23-1.07,1.27-4.6c0.88-2.94,1.9-6.26,3.04-9.86c1.21-3.84,2.5-7.97,3.85-12.38
		c1.35-4.41,2.6-8.47,3.73-12.2c1.13-3.73,2.06-6.8,2.76-9.23C608.4,105.86,608.59,105.2,608.74,104.68z"/>
	<path d="M733.69,203.71l13.72-80.28c1.57-9.18,0.39-17.01-3.5-23.28c-3.88-6.25-11.26-10.34-21.93-12.17l-41.39-7.08l-1.31,7.69
		c-0.72,4.22,0.06,7.23,2.31,8.95c1.63,1.28,2.27,3.03,1.89,5.22l-16.99,99.39c-0.38,2.21-1.49,3.54-3.3,3.96
		c-1.26,0.39-2.35,1.19-3.3,2.44c-0.95,1.25-1.67,3.26-2.13,5.95l-1.22,7.12l41.39,7.08c10.67,1.83,18.99,0.41,24.72-4.19
		C728.41,219.89,732.12,212.89,733.69,203.71z M711.45,205.32c-0.46,1.48-1.12,2.73-1.97,3.74c-0.87,1.02-2.01,1.8-3.39,2.32
		c-0.82,0.3-1.77,0.46-2.85,0.46c-0.74,0-1.54-0.07-2.4-0.22l-10.41-1.78c-2.03-0.35-2.92-1.6-2.57-3.63l17.06-99.77
		c0.15-0.86,0.54-1.58,1.15-2.13c0.64-0.59,1.48-0.8,2.52-0.63l10.42,1.78c2.08,0.36,3.72,0.98,4.87,1.86
		c1.15,0.88,1.97,1.97,2.45,3.22c0.47,1.24,0.68,2.65,0.62,4.18c-0.06,1.48-0.23,3.08-0.51,4.75v0l-13.92,81.41
		C712.24,202.39,711.89,203.89,711.45,205.32z"/>
	<path d="M722.14,87.08l-42.29-7.23l-1.47,8.59c-0.78,4.58,0.11,7.89,2.66,9.82c1.36,1.06,1.87,2.48,1.55,4.34L665.59,202
		c-0.31,1.84-1.17,2.89-2.63,3.23c-1.46,0.45-2.74,1.38-3.79,2.77c-1.04,1.37-1.82,3.51-2.31,6.35l-1.37,8.02l42.29,7.23
		c3.07,0.52,5.94,0.79,8.63,0.79c6.9,0,12.54-1.73,16.82-5.16c5.93-4.76,9.76-11.95,11.37-21.36l13.72-80.28
		c1.61-9.41,0.39-17.45-3.63-23.92C740.66,93.18,733.08,88.95,722.14,87.08z M697.93,228.69l-41.39-7.08l1.22-7.12
		c0.46-2.69,1.18-4.69,2.13-5.95c0.95-1.25,2.04-2.05,3.3-2.44c1.81-0.41,2.92-1.75,3.3-3.96l16.99-99.39
		c0.38-2.19-0.26-3.94-1.89-5.22c-2.25-1.72-3.03-4.73-2.31-8.95l1.31-7.69l41.39,7.08c10.67,1.82,18.04,5.91,21.93,12.17
		c3.89,6.27,5.07,14.1,3.5,23.28l-13.72,80.28c-1.57,9.18-5.29,16.18-11.04,20.79C716.92,229.11,708.6,230.52,697.93,228.69z"/>
	<path d="M726.42,119.45c0.28-1.66,0.46-3.26,0.51-4.75c0.06-1.53-0.15-2.94-0.62-4.18c-0.48-1.26-1.31-2.34-2.45-3.22
		c-1.15-0.88-2.79-1.5-4.87-1.86l-10.42-1.78c-1.03-0.18-1.88,0.04-2.52,0.63c-0.62,0.56-1,1.27-1.15,2.13l-17.06,99.77
		c-0.34,2.03,0.55,3.29,2.57,3.63l10.41,1.78c0.85,0.15,1.65,0.22,2.4,0.22c1.07,0,2.03-0.15,2.85-0.46
		c1.38-0.51,2.52-1.29,3.39-2.32c0.85-1,1.51-2.26,1.97-3.74c0.44-1.44,0.8-2.94,1.05-4.46L726.42,119.45L726.42,119.45z
		 M711.6,200.71c-0.25,1.48-0.6,2.95-1.03,4.34c-0.42,1.36-1.02,2.5-1.79,3.41c-0.76,0.9-1.78,1.59-3.01,2.05
		c-1.23,0.46-2.84,0.52-4.77,0.2l-10.41-1.78c-1.52-0.26-2.08-1.05-1.83-2.58l17.06-99.77c0.11-0.66,0.4-1.19,0.87-1.61
		c0.32-0.3,0.73-0.45,1.23-0.45c0.16,0,0.33,0.02,0.52,0.05l10.42,1.78c1.93,0.33,3.43,0.9,4.46,1.68c1.01,0.78,1.74,1.73,2.15,2.82
		c0.43,1.12,0.61,2.41,0.56,3.82c-0.06,1.45-0.22,3-0.5,4.63v0L711.6,200.71z"/>
</g>
<polygon points="294.15,245.33 294.17,254.64 254.58,251.35 254.57,249.11 "/>
<polygon points="574.54,255.14 574.52,245.83 614.12,249.11 614.13,251.35 "/>
<g>
	<path d="M307.73,257.51l2.07-1.96c-1.09-1.6-1.74-3.53-1.74-5.68c0-5.63,4.37-9.77,9.86-9.77c2.27,0,4.34,0.7,5.99,1.93l2.02-1.93
		l2.18,2.16l-2.07,1.96c1.09,1.57,1.74,3.5,1.74,5.66c0,5.63-4.37,9.77-9.86,9.77c-2.24,0-4.31-0.7-5.96-1.9
		c-1.06,1.01-2.04,1.93-2.04,1.93L307.73,257.51z M321.25,244.57c-0.9-0.64-2.04-1.01-3.33-1.01c-3.47,0-5.85,2.74-5.85,6.3
		c0,1.09,0.2,2.07,0.59,2.94L321.25,244.57z M323.77,249.87c0-1.06-0.2-2.07-0.56-2.91l-8.62,8.23c0.92,0.64,2.04,0.98,3.33,0.98
		C321.39,256.17,323.77,253.42,323.77,249.87z"/>
	<path d="M336.4,247.15l5.04-6.8h4.45l-6.38,8.62l7.17,10.42h-4.73l-5.07-7.48l-1.85,2.21v5.26h-3.92v-19.04h3.92v6.58
		c0,0.92-0.14,2.24-0.25,3.19C335.23,249.11,335.81,247.93,336.4,247.15z"/>
	<path d="M348.64,249.87c0-5.63,4.37-9.77,9.86-9.77c5.49,0,9.86,4.14,9.86,9.77c0,5.63-4.37,9.77-9.86,9.77
		C353.01,259.64,348.64,255.49,348.64,249.87z M364.32,249.87c0-3.56-2.35-6.27-5.82-6.27c-3.47,0-5.82,2.72-5.82,6.27
		c0,3.56,2.35,6.27,5.82,6.27C361.97,256.14,364.32,253.42,364.32,249.87z"/>
	<path d="M371.68,240.35h3.92v15.6h8.62v3.44h-12.54V240.35z"/>
	<path d="M386.75,249.87c0-5.63,4.37-9.77,9.86-9.77c5.49,0,9.86,4.14,9.86,9.77c0,5.63-4.37,9.77-9.86,9.77
		C391.11,259.64,386.75,255.49,386.75,249.87z M402.43,249.87c0-3.56-2.35-6.27-5.82-6.27c-3.47,0-5.82,2.72-5.82,6.27
		c0,3.56,2.35,6.27,5.82,6.27C400.07,256.14,402.43,253.42,402.43,249.87z"/>
	<path d="M409.14,249.87c0-5.63,3.98-9.74,9.72-9.74c3.11,0,5.35,0.84,6.92,2.63l-2.66,2.63c-0.95-0.98-2.04-1.74-4.26-1.74
		c-3.44,0-5.68,2.66-5.68,6.22c0,3.56,2.3,6.27,6.3,6.27c1.23,0,2.74-0.22,3.72-0.7v-2.8h-4.59v-3.44h8.18v8.23
		c-1.09,0.9-3.84,2.21-7.31,2.21C413.26,259.64,409.14,255.49,409.14,249.87z"/>
	<path d="M430.56,240.35h3.92v19.04h-3.92V240.35z"/>
	<path d="M436.86,255.63l3.19-1.85c0.84,1.37,1.93,2.38,3.86,2.38c1.62,0,2.66-0.81,2.66-1.93c0-1.34-1.06-1.82-2.86-2.6l-0.98-0.42
		c-2.83-1.2-4.7-2.72-4.7-5.91c0-2.94,2.24-5.18,5.74-5.18c2.49,0,4.28,0.87,5.57,3.14l-3.05,1.96c-0.67-1.2-1.4-1.68-2.52-1.68
		c-1.15,0-1.88,0.73-1.88,1.68c0,1.18,0.73,1.65,2.41,2.38l0.98,0.42c3.33,1.43,5.21,2.88,5.21,6.16c0,3.53-2.77,5.46-6.5,5.46
		C440.36,259.64,438.01,257.9,436.86,255.63z"/>
	<path d="M458.84,247.15l5.04-6.8h4.45l-6.38,8.62l7.17,10.42h-4.73l-5.07-7.48l-1.85,2.21v5.26h-3.92v-19.04h3.92v6.58
		c0,0.92-0.14,2.24-0.25,3.19C457.67,249.11,458.26,247.93,458.84,247.15z"/>
	<path d="M483.2,247.15l5.04-6.8h4.45l-6.38,8.62l7.17,10.42h-4.73l-5.07-7.48l-1.85,2.21v5.26h-3.92v-19.04h3.92v6.58
		c0,0.92-0.14,2.24-0.25,3.19C482.03,249.11,482.62,247.93,483.2,247.15z"/>
	<path d="M494.46,256.05l3.19-1.93c0.62,1.09,1.18,2.02,2.52,2.02c1.29,0,2.1-0.5,2.1-2.46v-13.33h3.92v13.38
		c0,4.06-2.38,5.91-5.85,5.91C497.2,259.64,495.38,258.01,494.46,256.05z"/>
	<path d="M508.99,257.51l2.07-1.96c-1.09-1.6-1.74-3.53-1.74-5.68c0-5.63,4.37-9.77,9.86-9.77c2.27,0,4.34,0.7,5.99,1.93l2.02-1.93
		l2.18,2.16l-2.07,1.96c1.09,1.57,1.74,3.5,1.74,5.66c0,5.63-4.37,9.77-9.86,9.77c-2.24,0-4.31-0.7-5.96-1.9
		c-1.06,1.01-2.04,1.93-2.04,1.93L508.99,257.51z M522.51,244.57c-0.9-0.64-2.04-1.01-3.33-1.01c-3.47,0-5.85,2.74-5.85,6.3
		c0,1.09,0.2,2.07,0.59,2.94L522.51,244.57z M525.03,249.87c0-1.06-0.2-2.07-0.56-2.91l-8.62,8.23c0.92,0.64,2.04,0.98,3.33,0.98
		C522.65,256.17,525.03,253.42,525.03,249.87z"/>
	<path d="M536.71,243.79h-5.43v-3.44h14.78v3.44h-5.43v15.6h-3.92V243.79z"/>
	<path d="M553.29,243.79h-5.43v-3.44h14.78v3.44h-5.43v15.6h-3.92V243.79z"/>
</g>
</svg>
