<?xml version="1.0" encoding="UTF-8"?>
<svg width="499px" height="519px" viewBox="0 0 499 519" version="1.1" xmlns="http://www.w3.org/2000/svg" xmlns:xlink="http://www.w3.org/1999/xlink">
    <!-- Generator: Sketch 51.1 (57501) - http://www.bohemiancoding.com/sketch -->
    <title>original logo with ornaments and no frame RGB black</title>
    <desc>Created with Sketch.</desc>
    <defs></defs>
    <g id="Page-1" stroke="none" stroke-width="1" fill="none" fill-rule="evenodd">
        <g id="original-logo-with-ornaments-and-no-frame-RGB-black" fill="#fff" fill-rule="nonzero">
            <polygon id="Shape" points="0.846 203.58 8.87 203.58 8.87 278.6 0.846 278.6"></polygon>
            <polygon id="Shape" points="48.024 203.58 38.55 203.58 13.089 240.492 39.909 278.599 49.866 278.599 22.254 240.385"></polygon>
            <path d="M109.073,255.757 C109.073,261.453 107.742,265.721 105.116,268.443 C102.464,271.194 99.002,272.531 94.53,272.531 C90.306,272.531 86.98,271.136 84.365,268.264 C81.76,265.406 80.439,261.198 80.439,255.757 L80.439,203.58 L72.514,203.58 L72.514,255.683 C72.514,263.378 74.569,269.36 78.621,273.463 C82.676,277.57 88.027,279.653 94.529,279.653 C101.158,279.653 106.625,277.573 110.779,273.471 C114.939,269.364 117.046,263.379 117.046,255.683 L117.046,203.58 L109.072,203.58 L109.072,255.757 L109.073,255.757 Z" id="Shape"></path>
            <polygon id="Shape" points="158.468 203.58 150.394 203.58 150.394 278.599 187.953 278.599 187.953 271.478 158.468 271.478"></polygon>
            <polygon id="Shape" points="196.294 210.902 216.653 210.902 216.653 278.599 224.68 278.599 224.68 210.902 245.088 210.902 245.088 203.58 196.294 203.58"></polygon>
            <polygon id="Shape" points="272.029 203.58 280.103 203.58 280.103 278.6 272.029 278.6"></polygon>
            <polygon id="Shape" points="333.356 264.69 332.935 266.203 314.92 203.58 306.287 203.58 329.42 278.599 336.367 278.599 359.502 203.58 350.868 203.58"></polygon>
            <path d="M418.086,278.599 L426.41,278.599 L402.915,203.579 L395.977,203.579 L372.227,278.599 L380.556,278.599 L388.674,252.173 L409.969,252.173 L418.086,278.599 Z M399.417,217.203 L407.604,244.1 L391.154,244.1 L399.417,217.203 Z" id="Shape"></path>
            <path d="M474.295,245.328 C484.158,243.784 488.953,236.025 489.162,235.68 C491.088,232.512 492.063,228.857 492.063,224.816 C492.063,217.99 490.208,212.697 486.551,209.079 C482.897,205.463 477.6,203.63 470.802,203.63 L448.836,203.63 L448.836,278.599 L456.86,278.599 L456.86,210.902 L470.802,210.902 C475.263,210.902 478.608,212.091 480.74,214.434 C482.896,216.808 483.989,220.293 483.989,224.792 C483.989,229.027 482.871,232.402 480.666,234.822 C478.486,237.217 474.93,238.43 470.1,238.43 L460.339,238.43 L488.477,278.598 L498.438,278.598 L474.295,245.328 Z" id="Shape"></path>
            <path d="M8.072,298.796 L0.846,298.796 L0.846,315.164 L8.072,315.164 C13.501,315.164 17.009,311.975 17.009,307.041 C17.009,302.109 13.418,298.796 8.072,298.796 Z M8.111,313.381 L2.833,313.381 L2.833,300.578 L8.111,300.578 C12.133,300.578 14.942,303.22 14.942,307 C14.942,310.937 12.324,313.381 8.111,313.381 Z" id="Shape"></path>
            <polygon id="Shape" points="28.713 307.319 37.455 307.319 37.455 305.536 28.713 305.536 28.713 300.62 42.031 300.62 42.031 298.796 26.724 298.796 26.724 315.164 42.767 315.164 42.767 313.381 28.713 313.381"></polygon>
            <polygon id="Shape" points="54.058 298.796 52.069 298.796 52.069 315.164 66.722 315.164 66.722 313.381 54.058 313.381"></polygon>
            <polygon id="Shape" points="75.293 298.756 77.321 298.756 77.321 315.205 75.293 315.205"></polygon>
            <polygon id="Shape" points="102.702 298.837 100.221 298.837 90.738 306.777 90.738 298.837 88.75 298.837 88.75 315.164 90.738 315.164 90.738 308.93 94.636 305.618 101.861 315.164 104.007 315.164 96.008 304.496"></polygon>
            <path d="M118.215,298.796 L109.893,315.164 L111.962,315.164 L114.167,310.833 L123.566,310.833 L125.771,315.164 L127.881,315.164 L119.478,298.796 L118.215,298.796 Z M114.97,309.255 L118.87,301.647 L122.723,309.255 L114.97,309.255 Z" id="Shape"></path>
            <polygon id="Shape" points="138.664 315.164 140.648 315.164 140.648 300.496 147.84 300.496 147.84 298.796 131.472 298.796 131.472 300.496 138.664 300.496"></polygon>
            <polygon id="Shape" points="157.986 307.319 166.73 307.319 166.73 305.536 157.986 305.536 157.986 300.62 171.306 300.62 171.306 298.796 156 298.796 156 315.164 172.04 315.164 172.04 313.381 157.986 313.381"></polygon>
            <path d="M188.285,305.292 C184.8,305.292 182.639,304.887 182.639,302.874 C182.639,301.208 184.497,300.089 187.264,300.089 C189.497,300.089 191.971,300.856 194.104,302.203 L195.099,300.573 C192.64,299.076 190.089,298.347 187.305,298.347 C183.24,298.347 180.611,300.124 180.611,302.875 C180.611,306.236 183.353,306.916 188.413,306.994 C190.835,307.049 194.053,307.449 194.053,310.27 C194.053,312.415 191.832,313.914 188.651,313.914 C186.148,313.914 183.3,313.037 180.962,311.559 L179.995,313.221 C182.608,314.798 185.848,315.698 188.939,315.698 C193.193,315.698 196.163,313.533 196.163,310.433 C196.162,307.021 193.51,305.292 188.285,305.292 Z" id="Shape"></path>
            <path d="M212.586,305.292 C209.101,305.292 206.941,304.887 206.941,302.874 C206.941,301.208 208.799,300.089 211.564,300.089 C213.797,300.089 216.271,300.856 218.404,302.203 L219.399,300.573 C216.942,299.076 214.389,298.347 211.606,298.347 C207.539,298.347 204.912,300.124 204.912,302.875 C204.912,306.236 207.653,306.916 212.714,306.994 C215.136,307.049 218.352,307.449 218.352,310.27 C218.352,312.415 216.131,313.914 212.951,313.914 C210.448,313.914 207.599,313.037 205.262,311.559 L204.295,313.221 C206.908,314.798 210.148,315.698 213.239,315.698 C217.491,315.698 220.462,313.533 220.462,310.433 C220.464,307.021 217.813,305.292 212.586,305.292 Z" id="Shape"></path>
            <polygon id="Shape" points="232.694 307.319 241.439 307.319 241.439 305.536 232.694 305.536 232.694 300.62 246.015 300.62 246.015 298.796 230.708 298.796 230.708 315.164 246.751 315.164 246.751 313.381 232.694 313.381"></polygon>
            <polygon id="Shape" points="332.534 298.837 330.054 298.837 320.57 306.777 320.57 298.837 318.581 298.837 318.581 315.164 320.57 315.164 320.57 308.93 324.469 305.618 331.692 315.164 333.84 315.164 325.84 304.496"></polygon>
            <path d="M360.766,307 C360.766,301.904 356.601,298.345 350.64,298.345 C344.798,298.345 340.559,301.985 340.559,307 C340.559,312.039 344.798,315.695 350.64,315.695 C356.507,315.696 360.766,312.039 360.766,307 Z M350.64,313.872 C345.996,313.872 342.625,310.982 342.625,307 C342.625,303.018 345.995,300.128 350.64,300.128 C355.308,300.128 358.697,303.018 358.697,307 C358.697,310.982 355.308,313.872 350.64,313.872 Z" id="Shape"></path>
            <polygon id="Shape" points="372.587 298.796 370.601 298.796 370.601 315.164 385.254 315.164 385.254 313.381 372.587 313.381"></polygon>
            <path d="M401.636,298.346 C395.794,298.346 391.553,301.986 391.553,307.001 C391.553,312.04 395.794,315.696 401.636,315.696 C407.503,315.696 411.761,312.039 411.761,307.001 C411.76,301.904 407.597,298.346 401.636,298.346 Z M401.636,313.872 C396.992,313.872 393.62,310.982 393.62,307 C393.62,303.018 396.992,300.128 401.636,300.128 C406.304,300.128 409.691,303.018 409.691,307 C409.691,310.982 406.303,313.872 401.636,313.872 Z" id="Shape"></path>
            <polygon id="Shape" points="421.639 298.796 421.639 315.164 423.584 315.164 423.584 302.702 434.893 315.164 435.8 315.164 435.8 298.796 433.854 298.796 433.854 311.3 422.544 298.796"></polygon>
            <polygon id="Shape" points="447.188 298.756 449.218 298.756 449.218 315.205 447.188 315.205"></polygon>
            <path d="M465.867,298.796 L457.547,315.164 L459.616,315.164 L461.821,310.833 L471.221,310.833 L473.426,315.164 L475.535,315.164 L467.134,298.796 L465.867,298.796 Z M462.624,309.255 L466.524,301.647 L470.377,309.255 L462.624,309.255 Z" id="Shape"></path>
            <polygon id="Shape" points="485.77 298.796 483.785 298.796 483.785 315.164 498.438 315.164 498.438 313.381 485.77 313.381"></polygon>
            <path d="M435.642,154.568 L436.235,153.494 C441.166,143.525 440.095,131.453 429.476,122.23 C420.351,114.305 408.235,111.801 398.239,115.912 C402.349,105.916 399.846,93.799 391.921,84.675 C382.698,74.055 370.626,72.985 360.657,77.916 L359.583,78.509 C357.73,79.586 355.95,80.995 354.349,82.716 C347.711,89.85 346.648,99.65 351.973,104.605 C355.801,108.166 361.887,108.255 367.472,105.374 L367.656,105.271 L367.499,105.162 C366.8,104.693 366.137,104.15 365.519,103.532 C360.422,98.435 360.388,90.204 365.443,85.148 C369.108,81.483 374.305,80.564 379.077,82.189 L379.6,82.37 C380.698,82.79 381.769,83.343 382.789,84.033 L382.796,84.039 C384.287,84.97 385.699,86.077 386.995,87.373 C391.473,91.851 393.765,97.682 393.887,103.549 C394.267,109.735 392.055,117.086 384.379,125.098 C384.974,105.169 370.506,111.337 370.506,111.337 C370.506,111.337 379.742,119.986 371.678,131.564 C371.422,131.906 370.971,132.498 370.556,132.998 L368.439,135.435 C365.522,138.683 357.93,147.914 360.249,153.636 C360.274,153.698 360.3,153.76 360.328,153.822 C360.389,153.85 360.452,153.876 360.514,153.901 C366.236,156.22 375.467,148.628 378.715,145.711 L381.152,143.594 C381.652,143.179 382.244,142.728 382.586,142.472 C394.165,134.408 402.813,143.644 402.813,143.644 C402.813,143.644 408.981,129.176 389.052,129.771 C397.063,122.095 404.415,119.883 410.601,120.263 C416.469,120.385 422.3,122.677 426.777,127.155 C428.073,128.451 429.18,129.863 430.111,131.354 L430.117,131.361 C430.808,132.381 431.361,133.452 431.78,134.55 L431.961,135.073 C433.586,139.845 432.667,145.042 429.002,148.707 C423.946,153.763 415.716,153.729 410.618,148.631 C410,148.013 409.457,147.349 408.988,146.651 L408.879,146.494 L408.776,146.678 C405.895,152.263 405.984,158.35 409.545,162.177 C414.5,167.502 424.3,166.438 431.434,159.801 C433.156,158.201 434.564,156.422 435.642,154.568 Z" id="Shape"></path>
            <path d="M63.643,154.568 L63.05,153.494 C58.119,143.525 59.19,131.453 69.809,122.23 C78.934,114.305 91.05,111.801 101.046,115.912 C96.936,105.916 99.439,93.799 107.364,84.675 C116.587,74.055 128.659,72.985 138.628,77.916 L139.702,78.509 C141.555,79.586 143.334,80.995 144.936,82.716 C151.574,89.85 152.637,99.65 147.312,104.605 C143.484,108.166 137.398,108.255 131.813,105.374 L131.629,105.271 L131.786,105.162 C132.485,104.693 133.148,104.15 133.766,103.532 C138.863,98.435 138.897,90.204 133.842,85.148 C130.177,81.483 124.98,80.564 120.208,82.189 L119.685,82.37 C118.587,82.79 117.516,83.343 116.496,84.033 L116.489,84.039 C114.998,84.97 113.586,86.077 112.29,87.373 C107.812,91.851 105.52,97.682 105.398,103.549 C105.018,109.735 107.23,117.086 114.906,125.098 C114.311,105.169 128.779,111.337 128.779,111.337 C128.779,111.337 119.543,119.986 127.607,131.564 C127.863,131.906 128.314,132.498 128.729,132.998 L130.846,135.435 C133.763,138.683 141.355,147.914 139.036,153.636 C139.011,153.698 138.985,153.76 138.957,153.822 C138.895,153.85 138.833,153.876 138.771,153.901 C133.049,156.22 123.818,148.628 120.57,145.711 L118.133,143.594 C117.633,143.179 117.041,142.728 116.699,142.472 C105.12,134.408 96.472,143.644 96.472,143.644 C96.472,143.644 90.304,129.176 110.233,129.771 C102.222,122.095 94.87,119.883 88.684,120.263 C82.816,120.385 76.985,122.677 72.508,127.155 C71.212,128.451 70.105,129.863 69.174,131.354 L69.168,131.361 C68.477,132.381 67.924,133.452 67.505,134.55 L67.324,135.073 C65.699,139.845 66.618,145.042 70.283,148.707 C75.339,153.763 83.569,153.729 88.667,148.631 C89.285,148.013 89.828,147.349 90.297,146.651 L90.406,146.494 L90.509,146.678 C93.39,152.263 93.301,158.35 89.74,162.177 C84.785,167.502 74.985,166.438 67.851,159.801 C66.129,158.201 64.72,156.422 63.643,154.568 Z" id="Shape"></path>
            <path d="M303.709,151.688 C304.957,151.07 301.62,149.927 300.908,149.609 C298.265,148.539 289.577,144.598 281.167,137.203 L281.243,137.24 C281.243,137.24 280.648,136.76 279.665,135.838 C279.651,135.825 279.636,135.811 279.622,135.798 C275.432,131.857 264.365,120.034 261.494,102.777 C261.494,102.777 258.829,90.875 264.248,76.107 C267.819,67.234 273.734,63.108 280.153,63.276 C284.355,63.386 288.62,64.986 292.951,68.088 C293.409,67.67 293.766,66.83 294.019,65.557 C294.567,61.943 293.653,58.99 291.281,56.691 C288.918,54.389 285.896,53.094 282.14,52.996 C279.113,52.917 276.326,53.768 273.858,55.349 C275.871,52.304 278.083,49.577 280.503,47.181 C283.872,43.845 287.443,41.251 291.213,39.398 C294.982,37.546 298.783,36.538 302.616,36.374 C306.452,36.209 309.951,36.947 313.283,38.525 C317.318,40.436 320.096,43.782 321.398,47.816 C322.7,51.85 322.733,55.903 320.447,59.625 C317.84,63.869 313.535,66.291 308.339,66.296 C310.75,68.743 313.013,70.518 315.124,71.62 C318.596,73.433 322.278,73.884 325.707,72.88 C329.272,71.836 332.061,69.68 334.015,66.199 C336.89,61.077 337.185,55.649 334.902,49.915 C332.617,44.18 328.412,39.713 322.283,36.514 C315.814,33.137 308.864,31.95 301.434,32.956 C294.003,33.959 286.936,37.019 280.232,42.137 C276.386,45.074 272.884,48.56 269.704,52.557 C269.704,52.557 266.195,56.664 264.406,59.544 C252.901,77.732 254.685,93.704 254.685,93.704 C254.737,94.401 254.804,95.104 254.878,95.81 C257.912,125.88 278.746,140.661 278.746,140.661 L278.734,140.637 C283.828,144.788 291.45,149.52 301.333,151.489 C301.333,151.49 303.11,151.891 303.709,151.688 Z" id="Shape"></path>
            <path d="M343.363,115.564 C331.806,114.08 326.21,119.36 321.631,125.153 C315.032,133.286 307.648,133.428 304.243,133.438 C315.416,129.169 318.581,122.355 319.473,118.917 C319.498,118.835 319.512,118.751 319.535,118.669 C319.554,118.589 319.571,118.514 319.588,118.439 C319.792,117.669 319.925,116.885 319.968,116.095 C320.911,104.763 310.81,102.979 310.81,102.979 L310.821,102.995 C309.606,102.738 308.346,102.688 307.088,102.82 C298.817,103.917 296.902,110.413 296.278,112.258 C295.995,113.075 295.758,113.97 296.013,114.136 C296.013,114.136 296.24,114.256 296.43,113.935 L297.047,113.128 C297.351,112.781 297.763,112.364 298.267,111.976 C298.384,111.895 298.503,111.815 298.63,111.737 C298.63,111.737 303.073,108.745 308.108,112.033 C308.108,112.033 313.273,115.062 309.386,123.078 C306.883,128.241 302.217,129.744 299.091,130.094 C294.523,130.604 291.049,129.183 291.049,129.183 C287.095,127.815 276.351,122.696 274.024,107.107 C274.024,107.062 274.018,107.019 274.018,106.973 L274.005,106.973 C273.664,104.633 273.501,102.072 273.591,99.24 C273.591,99.24 273.606,98.686 273.281,98.361 C272.962,98.042 272.487,97.755 271.867,97.848 C271.867,97.848 270.958,98.016 270.678,98.766 C270.487,99.279 270.26,100.193 270.169,101.839 C270.169,101.839 268.353,121.377 285.899,134.495 C287.059,135.392 288.24,136.189 289.419,136.935 L289.158,136.811 C289.158,136.811 289.511,137.028 290.127,137.39 C291.468,138.208 292.792,138.93 294.078,139.586 C296.431,140.831 299.449,142.316 302.729,143.67 C304.101,144.3 310.381,147.226 314.55,149.924 C318.352,152.726 322.48,157.114 318.282,161.022 C316.719,162.477 314.758,163.058 310.184,163.95 C310.184,163.95 309.355,164.037 309.868,164.333 C310.17,164.474 310.86,164.659 312.248,164.897 L314.264,165.253 C323.445,166.824 326.427,163.058 327.628,160.13 C328.729,157.392 327.968,154.51 327.968,154.51 C326.877,150.752 322.402,147.872 322.402,147.872 C315.426,142.934 305.769,139.827 305.769,139.827 C307.201,139.965 308.6,140.085 309.972,140.179 C317.004,140.426 331.115,139.383 338.438,128.135 C338.438,128.135 339.548,126.438 341.362,121.525 C342.284,118.681 343.621,116.811 344.012,116.159 C344.314,115.608 343.363,115.564 343.363,115.564 Z" id="Shape"></path>
            <path d="M195.575,151.688 C194.327,151.07 197.664,149.927 198.376,149.609 C201.019,148.539 209.707,144.598 218.117,137.203 L218.041,137.24 C218.041,137.24 218.636,136.76 219.619,135.838 C219.633,135.825 219.648,135.811 219.662,135.798 C223.852,131.857 234.919,120.034 237.79,102.777 C237.79,102.777 240.455,90.875 235.036,76.107 C231.465,67.234 225.55,63.108 219.131,63.276 C214.929,63.386 210.664,64.986 206.333,68.088 C205.875,67.67 205.518,66.83 205.265,65.557 C204.717,61.943 205.631,58.99 208.003,56.691 C210.366,54.389 213.388,53.094 217.144,52.996 C220.171,52.917 222.958,53.768 225.426,55.349 C223.413,52.304 221.201,49.577 218.781,47.181 C215.412,43.845 211.841,41.251 208.071,39.398 C204.302,37.546 200.501,36.538 196.668,36.374 C192.832,36.209 189.334,36.947 186.001,38.525 C181.966,40.436 179.188,43.782 177.886,47.816 C176.584,51.85 176.551,55.903 178.837,59.625 C181.444,63.869 185.749,66.291 190.945,66.296 C188.534,68.743 186.271,70.518 184.16,71.62 C180.688,73.433 177.006,73.884 173.577,72.88 C170.012,71.836 167.223,69.68 165.269,66.199 C162.394,61.077 162.099,55.649 164.382,49.915 C166.667,44.18 170.872,39.713 177.001,36.514 C183.47,33.137 190.42,31.95 197.85,32.956 C205.281,33.959 212.348,37.019 219.052,42.137 C222.898,45.074 226.4,48.56 229.58,52.557 C229.58,52.557 233.089,56.664 234.878,59.544 C246.383,77.732 244.599,93.704 244.599,93.704 C244.547,94.401 244.48,95.104 244.406,95.81 C241.372,125.88 220.538,140.661 220.538,140.661 L220.55,140.637 C215.456,144.788 207.834,149.52 197.951,151.489 C197.952,151.49 196.174,151.891 195.575,151.688 Z" id="Shape"></path>
            <path d="M155.921,115.564 C167.478,114.08 173.074,119.36 177.653,125.153 C184.252,133.286 191.636,133.428 195.041,133.438 C183.868,129.169 180.703,122.355 179.811,118.917 C179.786,118.835 179.773,118.751 179.749,118.669 C179.73,118.589 179.713,118.514 179.696,118.439 C179.492,117.669 179.359,116.885 179.316,116.095 C178.373,104.763 188.474,102.979 188.474,102.979 L188.463,102.995 C189.678,102.738 190.938,102.688 192.196,102.82 C200.467,103.917 202.382,110.413 203.006,112.258 C203.289,113.075 203.526,113.97 203.271,114.136 C203.271,114.136 203.044,114.256 202.854,113.935 L202.237,113.128 C201.933,112.781 201.521,112.364 201.017,111.976 C200.9,111.895 200.781,111.815 200.654,111.737 C200.654,111.737 196.211,108.745 191.176,112.033 C191.176,112.033 186.011,115.062 189.898,123.078 C192.401,128.241 197.067,129.744 200.193,130.094 C204.761,130.604 208.235,129.183 208.235,129.183 C212.189,127.815 222.933,122.696 225.26,107.107 C225.26,107.062 225.266,107.019 225.266,106.973 L225.279,106.973 C225.62,104.633 225.783,102.072 225.693,99.24 C225.693,99.24 225.678,98.686 226.003,98.361 C226.322,98.042 226.797,97.755 227.417,97.848 C227.417,97.848 228.326,98.016 228.606,98.766 C228.797,99.279 229.024,100.193 229.115,101.839 C229.115,101.839 230.931,121.377 213.385,134.495 C212.225,135.392 211.044,136.189 209.865,136.935 L210.126,136.811 C210.126,136.811 209.773,137.028 209.157,137.39 C207.816,138.208 206.492,138.93 205.206,139.586 C202.853,140.831 199.835,142.316 196.555,143.67 C195.183,144.3 188.903,147.226 184.734,149.924 C180.932,152.726 176.804,157.114 181.002,161.022 C182.565,162.477 184.526,163.058 189.1,163.95 C189.1,163.95 189.929,164.037 189.416,164.333 C189.114,164.474 188.424,164.659 187.036,164.897 L185.02,165.253 C175.839,166.824 172.857,163.058 171.656,160.13 C170.555,157.392 171.316,154.51 171.316,154.51 C172.407,150.752 176.882,147.872 176.882,147.872 C183.858,142.934 193.515,139.827 193.515,139.827 C192.083,139.965 190.684,140.085 189.312,140.179 C182.28,140.426 168.169,139.383 160.846,128.135 C160.846,128.135 159.736,126.438 157.922,121.525 C157,118.681 155.663,116.811 155.272,116.159 C154.97,115.608 155.921,115.564 155.921,115.564 Z" id="Shape"></path>
            <path d="M274.002,22.05 C273.786,18.094 270.422,16.087 270.422,16.087 C269.397,15.477 268.482,15.117 267.039,15.161 C267.327,13.555 267.134,12.422 266.473,11.761 C265.814,11.102 264.914,10.909 263.782,11.193 C262.646,11.477 261.35,12.163 259.884,13.247 C258.42,14.334 256.935,15.726 255.42,17.427 L259.318,10.131 C259.932,8.949 260.381,7.793 260.663,6.659 C260.945,5.526 260.782,4.477 260.363,3.784 C259.56,2.454 258.174,1.872 256.626,1.347 C256.626,1.347 254.517,0.515 249.917,0.477 C249.839,0.476 249.76,0.475 249.683,0.475 C249.669,0.475 249.655,0.475 249.642,0.475 C249.628,0.475 249.614,0.475 249.601,0.475 C249.524,0.475 249.445,0.477 249.367,0.477 C244.767,0.515 242.658,1.347 242.658,1.347 C241.11,1.873 239.724,2.454 238.921,3.784 C238.502,4.478 238.339,5.526 238.621,6.659 C238.903,7.793 239.352,8.949 239.966,10.131 L243.864,17.427 C242.35,15.726 240.864,14.334 239.4,13.247 C237.934,12.163 236.638,11.476 235.502,11.193 C234.37,10.909 233.471,11.101 232.811,11.761 C232.15,12.422 231.957,13.555 232.245,15.161 C230.801,15.117 229.887,15.477 228.862,16.087 C228.862,16.087 225.499,18.094 225.282,22.05 C225.227,23.058 225.3,24.087 225.655,25.149 C226.365,27.274 227.614,28.858 229.411,29.896 C230.165,30.273 231.096,30.421 231.854,29.663 C232.57,28.947 232.491,28.278 232.292,27.177 C232.178,26.632 231.916,25.14 232.104,23.714 C232.38,22.237 233.636,20.276 236.276,21.835 C237.701,22.653 240.464,25.825 242.809,31.223 C244.683,35.703 246.669,43.016 248.073,53.805 C248.073,53.805 248.123,55.316 249.591,55.284 L249.591,55.286 C249.595,55.286 249.599,55.285 249.603,55.285 C249.612,55.285 249.618,55.288 249.627,55.287 C249.627,55.287 249.637,55.286 249.642,55.285 C249.647,55.286 249.657,55.287 249.657,55.287 C249.666,55.287 249.672,55.285 249.681,55.285 C249.685,55.285 249.689,55.286 249.693,55.286 L249.693,55.284 C251.161,55.316 251.211,53.805 251.211,53.805 C252.614,43.017 254.6,35.704 256.475,31.223 C258.819,25.825 261.583,22.653 263.008,21.835 C265.648,20.276 266.903,22.237 267.18,23.714 C267.368,25.14 267.106,26.633 266.992,27.177 C266.793,28.277 266.714,28.947 267.43,29.663 C268.188,30.421 269.119,30.273 269.873,29.896 C271.67,28.858 272.92,27.274 273.629,25.149 C273.984,24.087 274.057,23.058 274.002,22.05 Z" id="Shape"></path>
            <path d="M435.642,364.707 L436.235,365.781 C441.166,375.75 440.095,387.822 429.476,397.045 C420.351,404.97 408.235,407.474 398.239,403.363 C402.349,413.359 399.846,425.476 391.921,434.6 C382.698,445.22 370.626,446.29 360.657,441.359 L359.583,440.766 C357.73,439.689 355.95,438.28 354.349,436.559 C347.711,429.425 346.648,419.625 351.973,414.67 C355.801,411.109 361.887,411.02 367.472,413.901 L367.656,414.004 L367.499,414.113 C366.8,414.582 366.137,415.125 365.519,415.743 C360.422,420.84 360.388,429.071 365.443,434.127 C369.108,437.792 374.305,438.711 379.077,437.086 L379.6,436.905 C380.698,436.485 381.769,435.932 382.789,435.242 L382.796,435.236 C384.287,434.305 385.699,433.198 386.995,431.902 C391.473,427.424 393.765,421.593 393.887,415.726 C394.267,409.54 392.055,402.189 384.379,394.177 C384.974,414.106 370.506,407.938 370.506,407.938 C370.506,407.938 379.742,399.289 371.678,387.711 C371.422,387.369 370.971,386.777 370.556,386.277 L368.439,383.84 C365.522,380.592 357.93,371.361 360.249,365.639 C360.274,365.577 360.3,365.514 360.328,365.453 C360.389,365.425 360.452,365.399 360.514,365.374 C366.236,363.055 375.467,370.647 378.715,373.564 L381.152,375.681 C381.652,376.096 382.244,376.547 382.586,376.803 C394.165,384.867 402.813,375.631 402.813,375.631 C402.813,375.631 408.981,390.099 389.052,389.504 C397.063,397.18 404.415,399.392 410.601,399.012 C416.469,398.89 422.3,396.598 426.777,392.12 C428.073,390.824 429.18,389.412 430.111,387.921 L430.117,387.914 C430.808,386.894 431.361,385.823 431.78,384.725 L431.961,384.202 C433.586,379.43 432.667,374.233 429.002,370.568 C423.946,365.512 415.716,365.546 410.618,370.644 C410,371.262 409.457,371.925 408.988,372.624 L408.879,372.781 L408.776,372.597 C405.895,367.012 405.984,360.925 409.545,357.098 C414.5,351.773 424.3,352.837 431.434,359.474 C433.156,361.075 434.564,362.854 435.642,364.707 Z" id="Shape"></path>
            <path d="M63.643,364.707 L63.05,365.781 C58.119,375.75 59.19,387.822 69.809,397.045 C78.934,404.97 91.05,407.474 101.046,403.363 C96.936,413.359 99.439,425.476 107.364,434.6 C116.587,445.22 128.659,446.29 138.628,441.359 L139.702,440.766 C141.555,439.689 143.334,438.28 144.936,436.559 C151.574,429.425 152.637,419.625 147.312,414.67 C143.484,411.109 137.398,411.02 131.813,413.901 L131.629,414.004 L131.786,414.113 C132.485,414.582 133.148,415.125 133.766,415.743 C138.863,420.84 138.897,429.071 133.842,434.127 C130.177,437.792 124.98,438.711 120.208,437.086 L119.685,436.905 C118.587,436.485 117.516,435.932 116.496,435.242 L116.489,435.236 C114.998,434.305 113.586,433.198 112.29,431.902 C107.812,427.424 105.52,421.593 105.398,415.726 C105.018,409.54 107.23,402.189 114.906,394.177 C114.311,414.106 128.779,407.938 128.779,407.938 C128.779,407.938 119.543,399.289 127.607,387.711 C127.863,387.369 128.314,386.777 128.729,386.277 L130.846,383.84 C133.763,380.592 141.355,371.361 139.036,365.639 C139.011,365.577 138.985,365.514 138.957,365.453 C138.895,365.425 138.833,365.399 138.771,365.374 C133.049,363.055 123.818,370.647 120.57,373.564 L118.133,375.681 C117.633,376.096 117.041,376.547 116.699,376.803 C105.12,384.867 96.472,375.631 96.472,375.631 C96.472,375.631 90.304,390.099 110.233,389.504 C102.222,397.18 94.87,399.392 88.684,399.012 C82.816,398.89 76.985,396.598 72.508,392.12 C71.212,390.824 70.105,389.412 69.174,387.921 L69.168,387.914 C68.477,386.894 67.924,385.823 67.505,384.725 L67.324,384.202 C65.699,379.43 66.618,374.233 70.283,370.568 C75.339,365.512 83.569,365.546 88.667,370.644 C89.285,371.262 89.828,371.925 90.297,372.624 L90.406,372.781 L90.509,372.597 C93.39,367.012 93.301,360.925 89.74,357.098 C84.785,351.773 74.985,352.837 67.851,359.474 C66.129,361.075 64.72,362.854 63.643,364.707 Z" id="Shape"></path>
            <path d="M303.709,367.587 C304.957,368.205 301.62,369.348 300.908,369.666 C298.265,370.736 289.577,374.677 281.167,382.072 L281.243,382.035 C281.243,382.035 280.648,382.515 279.665,383.437 C279.651,383.45 279.636,383.464 279.622,383.477 C275.432,387.418 264.365,399.241 261.494,416.498 C261.494,416.498 258.829,428.4 264.248,443.168 C267.819,452.041 273.734,456.167 280.153,455.999 C284.355,455.889 288.62,454.289 292.951,451.187 C293.409,451.605 293.766,452.445 294.019,453.718 C294.567,457.332 293.653,460.285 291.281,462.584 C288.918,464.886 285.896,466.18 282.14,466.279 C279.113,466.358 276.326,465.507 273.858,463.926 C275.871,466.971 278.083,469.698 280.503,472.094 C283.872,475.43 287.443,478.024 291.213,479.877 C294.982,481.729 298.783,482.737 302.616,482.901 C306.452,483.066 309.951,482.328 313.283,480.75 C317.318,478.839 320.096,475.493 321.398,471.459 C322.7,467.426 322.733,463.372 320.447,459.65 C317.84,455.406 313.535,452.984 308.339,452.979 C310.75,450.532 313.013,448.757 315.124,447.655 C318.596,445.842 322.278,445.391 325.707,446.395 C329.272,447.439 332.061,449.595 334.015,453.076 C336.89,458.198 337.185,463.626 334.902,469.36 C332.617,475.095 328.412,479.562 322.283,482.761 C315.814,486.138 308.864,487.325 301.434,486.319 C294.003,485.316 286.936,482.256 280.232,477.138 C276.386,474.201 272.884,470.715 269.704,466.718 C269.704,466.718 266.195,462.611 264.406,459.731 C252.901,441.543 254.685,425.571 254.685,425.571 C254.737,424.874 254.804,424.171 254.878,423.465 C257.912,393.395 278.746,378.614 278.746,378.614 L278.734,378.638 C283.828,374.487 291.45,369.755 301.333,367.786 C301.333,367.785 303.11,367.385 303.709,367.587 Z" id="Shape"></path>
            <path d="M343.363,403.712 C331.806,405.196 326.21,399.916 321.631,394.123 C315.032,385.99 307.648,385.848 304.243,385.838 C315.416,390.107 318.581,396.921 319.473,400.359 C319.498,400.441 319.512,400.525 319.535,400.607 C319.554,400.687 319.571,400.762 319.588,400.837 C319.792,401.607 319.925,402.391 319.968,403.181 C320.911,414.513 310.81,416.297 310.81,416.297 L310.821,416.281 C309.606,416.538 308.346,416.588 307.088,416.456 C298.817,415.359 296.902,408.863 296.278,407.018 C295.995,406.201 295.758,405.306 296.013,405.14 C296.013,405.14 296.24,405.02 296.43,405.341 L297.047,406.148 C297.351,406.495 297.763,406.912 298.267,407.3 C298.384,407.381 298.503,407.461 298.63,407.539 C298.63,407.539 303.073,410.531 308.108,407.243 C308.108,407.243 313.273,404.214 309.386,396.198 C306.883,391.035 302.217,389.532 299.091,389.182 C294.523,388.672 291.049,390.093 291.049,390.093 C287.095,391.461 276.351,396.58 274.024,412.169 C274.024,412.214 274.018,412.257 274.018,412.303 L274.005,412.303 C273.664,414.643 273.501,417.204 273.591,420.036 C273.591,420.036 273.606,420.59 273.281,420.915 C272.962,421.234 272.487,421.521 271.867,421.428 C271.867,421.428 270.958,421.26 270.678,420.51 C270.487,419.997 270.26,419.083 270.169,417.437 C270.169,417.437 268.353,397.899 285.899,384.781 C287.059,383.884 288.24,383.087 289.419,382.341 L289.158,382.465 C289.158,382.465 289.511,382.248 290.127,381.886 C291.468,381.068 292.792,380.346 294.078,379.69 C296.431,378.445 299.449,376.96 302.729,375.606 C304.101,374.976 310.381,372.05 314.55,369.352 C318.352,366.55 322.48,362.162 318.282,358.254 C316.719,356.799 314.758,356.218 310.184,355.326 C310.184,355.326 309.355,355.239 309.868,354.943 C310.17,354.802 310.86,354.617 312.248,354.379 L314.264,354.023 C323.445,352.452 326.427,356.218 327.628,359.146 C328.729,361.884 327.968,364.766 327.968,364.766 C326.877,368.524 322.402,371.404 322.402,371.404 C315.426,376.342 305.769,379.449 305.769,379.449 C307.201,379.311 308.6,379.191 309.972,379.097 C317.004,378.85 331.115,379.893 338.438,391.141 C338.438,391.141 339.548,392.838 341.362,397.751 C342.284,400.595 343.621,402.465 344.012,403.117 C344.314,403.668 343.363,403.712 343.363,403.712 Z" id="Shape"></path>
            <path d="M195.575,367.587 C194.327,368.205 197.664,369.348 198.376,369.666 C201.019,370.736 209.707,374.677 218.117,382.072 L218.041,382.035 C218.041,382.035 218.636,382.515 219.619,383.437 C219.633,383.45 219.648,383.464 219.662,383.477 C223.852,387.418 234.919,399.241 237.79,416.498 C237.79,416.498 240.455,428.4 235.036,443.168 C231.465,452.041 225.55,456.167 219.131,455.999 C214.929,455.889 210.664,454.289 206.333,451.187 C205.875,451.605 205.518,452.445 205.265,453.718 C204.717,457.332 205.631,460.285 208.003,462.584 C210.366,464.886 213.388,466.18 217.144,466.279 C220.171,466.358 222.958,465.507 225.426,463.926 C223.413,466.971 221.201,469.698 218.781,472.094 C215.412,475.43 211.841,478.024 208.071,479.877 C204.302,481.729 200.501,482.737 196.668,482.901 C192.832,483.066 189.334,482.328 186.001,480.75 C181.966,478.839 179.188,475.493 177.886,471.459 C176.584,467.426 176.551,463.372 178.837,459.65 C181.444,455.406 185.749,452.984 190.945,452.979 C188.534,450.532 186.271,448.757 184.16,447.655 C180.688,445.842 177.006,445.391 173.577,446.395 C170.012,447.439 167.223,449.595 165.269,453.076 C162.394,458.198 162.099,463.626 164.382,469.36 C166.667,475.095 170.872,479.562 177.001,482.761 C183.47,486.138 190.42,487.325 197.85,486.319 C205.281,485.316 212.348,482.256 219.052,477.138 C222.898,474.201 226.4,470.715 229.58,466.718 C229.58,466.718 233.089,462.611 234.878,459.731 C246.383,441.543 244.599,425.571 244.599,425.571 C244.547,424.874 244.48,424.171 244.406,423.465 C241.372,393.395 220.538,378.614 220.538,378.614 L220.55,378.638 C215.456,374.487 207.834,369.755 197.951,367.786 C197.952,367.785 196.174,367.385 195.575,367.587 Z" id="Shape"></path>
            <path d="M155.921,403.712 C167.478,405.196 173.074,399.916 177.653,394.123 C184.252,385.99 191.636,385.848 195.041,385.838 C183.868,390.107 180.703,396.921 179.811,400.359 C179.786,400.441 179.773,400.525 179.749,400.607 C179.73,400.687 179.713,400.762 179.696,400.837 C179.492,401.607 179.359,402.391 179.316,403.181 C178.373,414.513 188.474,416.297 188.474,416.297 L188.463,416.281 C189.678,416.538 190.938,416.588 192.196,416.456 C200.467,415.359 202.382,408.863 203.006,407.018 C203.289,406.201 203.526,405.306 203.271,405.14 C203.271,405.14 203.044,405.02 202.854,405.341 L202.237,406.148 C201.933,406.495 201.521,406.912 201.017,407.3 C200.9,407.381 200.781,407.461 200.654,407.539 C200.654,407.539 196.211,410.531 191.176,407.243 C191.176,407.243 186.011,404.214 189.898,396.198 C192.401,391.035 197.067,389.532 200.193,389.182 C204.761,388.672 208.235,390.093 208.235,390.093 C212.189,391.461 222.933,396.58 225.26,412.169 C225.26,412.214 225.266,412.257 225.266,412.303 L225.279,412.303 C225.62,414.643 225.783,417.204 225.693,420.036 C225.693,420.036 225.678,420.59 226.003,420.915 C226.322,421.234 226.797,421.521 227.417,421.428 C227.417,421.428 228.326,421.26 228.606,420.51 C228.797,419.997 229.024,419.083 229.115,417.437 C229.115,417.437 230.931,397.899 213.385,384.781 C212.225,383.884 211.044,383.087 209.865,382.341 L210.126,382.465 C210.126,382.465 209.773,382.248 209.157,381.886 C207.816,381.068 206.492,380.346 205.206,379.69 C202.853,378.445 199.835,376.96 196.555,375.606 C195.183,374.976 188.903,372.05 184.734,369.352 C180.932,366.55 176.804,362.162 181.002,358.254 C182.565,356.799 184.526,356.218 189.1,355.326 C189.1,355.326 189.929,355.239 189.416,354.943 C189.114,354.802 188.424,354.617 187.036,354.379 L185.02,354.023 C175.839,352.452 172.857,356.218 171.656,359.146 C170.555,361.884 171.316,364.766 171.316,364.766 C172.407,368.524 176.882,371.404 176.882,371.404 C183.858,376.342 193.515,379.449 193.515,379.449 C192.083,379.311 190.684,379.191 189.312,379.097 C182.28,378.85 168.169,379.893 160.846,391.141 C160.846,391.141 159.736,392.838 157.922,397.751 C157,400.595 155.663,402.465 155.272,403.117 C154.97,403.668 155.921,403.712 155.921,403.712 Z" id="Shape"></path>
            <path d="M274.002,497.226 C273.786,501.182 270.422,503.189 270.422,503.189 C269.397,503.799 268.482,504.159 267.039,504.115 C267.327,505.721 267.134,506.854 266.473,507.515 C265.814,508.174 264.914,508.367 263.782,508.083 C262.646,507.799 261.35,507.113 259.884,506.029 C258.42,504.942 256.935,503.55 255.42,501.849 L259.318,509.145 C259.932,510.327 260.381,511.483 260.663,512.617 C260.945,513.75 260.782,514.799 260.363,515.492 C259.56,516.822 258.174,517.404 256.626,517.93 C256.626,517.93 254.517,518.762 249.917,518.8 C249.839,518.801 249.76,518.802 249.683,518.802 C249.669,518.802 249.655,518.802 249.642,518.802 C249.628,518.802 249.614,518.802 249.601,518.802 C249.524,518.802 249.445,518.8 249.367,518.8 C244.767,518.762 242.658,517.93 242.658,517.93 C241.11,517.404 239.724,516.823 238.921,515.492 C238.502,514.798 238.339,513.75 238.621,512.617 C238.903,511.483 239.352,510.327 239.966,509.145 L243.864,501.849 C242.35,503.55 240.864,504.942 239.4,506.029 C237.934,507.113 236.638,507.8 235.502,508.083 C234.37,508.367 233.471,508.175 232.811,507.515 C232.15,506.854 231.957,505.721 232.245,504.115 C230.801,504.159 229.887,503.799 228.862,503.189 C228.862,503.189 225.499,501.182 225.282,497.226 C225.227,496.218 225.3,495.189 225.655,494.127 C226.365,492.002 227.614,490.418 229.411,489.38 C230.165,489.003 231.096,488.855 231.854,489.613 C232.57,490.329 232.491,490.998 232.292,492.099 C232.178,492.644 231.916,494.136 232.104,495.562 C232.38,497.039 233.636,499 236.276,497.441 C237.701,496.623 240.464,493.451 242.809,488.053 C244.683,483.573 246.669,476.26 248.073,465.471 C248.073,465.471 248.123,463.96 249.591,463.992 L249.591,463.99 C249.595,463.99 249.599,463.991 249.603,463.991 C249.612,463.991 249.618,463.988 249.627,463.989 C249.627,463.989 249.637,463.99 249.642,463.991 C249.647,463.99 249.657,463.989 249.657,463.989 C249.666,463.989 249.672,463.991 249.681,463.991 C249.685,463.991 249.689,463.99 249.693,463.99 L249.693,463.992 C251.161,463.96 251.211,465.471 251.211,465.471 C252.614,476.259 254.6,483.572 256.475,488.053 C258.819,493.451 261.583,496.623 263.008,497.441 C265.648,499 266.903,497.039 267.18,495.562 C267.368,494.136 267.106,492.643 266.992,492.099 C266.793,490.999 266.714,490.329 267.43,489.613 C268.188,488.855 269.119,489.003 269.873,489.38 C271.67,490.418 272.92,492.002 273.629,494.127 C273.984,495.189 274.057,496.218 274.002,497.226 Z" id="Shape"></path>
            <path d="M286.14,311.907 C286.53,311.274 286.808,310.587 286.965,309.865 C287.129,309.108 287.227,308.34 287.258,307.58 L287.266,307.404 L285.531,307.404 L285.531,307.574 C285.531,308.129 285.489,308.683 285.406,309.224 C285.337,309.673 285.193,310.106 284.978,310.516 L281.077,305.904 C281.45,305.675 281.811,305.446 282.161,305.218 C282.571,304.949 282.936,304.649 283.244,304.325 C283.557,303.996 283.809,303.614 283.994,303.188 C284.179,302.759 284.274,302.251 284.274,301.676 C284.274,301.224 284.184,300.785 284.006,300.371 C283.826,299.956 283.571,299.591 283.249,299.286 C282.927,298.979 282.535,298.735 282.084,298.557 C281.186,298.205 280.055,298.218 279.115,298.506 C278.642,298.65 278.222,298.871 277.867,299.161 C277.509,299.454 277.221,299.819 277.012,300.247 C276.801,300.677 276.693,301.172 276.693,301.72 C276.693,302.488 276.888,303.199 277.274,303.833 C277.608,304.383 277.976,304.905 278.372,305.385 C277.898,305.614 277.443,305.879 277.02,306.173 C276.531,306.512 276.097,306.907 275.726,307.347 C275.354,307.79 275.053,308.288 274.832,308.826 C274.609,309.37 274.496,309.967 274.496,310.602 C274.496,311.365 274.638,312.07 274.917,312.695 C275.196,313.325 275.583,313.868 276.068,314.313 C276.552,314.756 277.128,315.107 277.78,315.353 C278.43,315.598 279.135,315.722 279.88,315.722 C281.013,315.722 282.018,315.53 282.867,315.152 C283.671,314.796 284.433,314.21 285.137,313.41 L286.682,315.284 L289.002,315.284 L286.14,311.907 Z M280.474,299.879 C280.872,299.879 281.216,299.964 281.497,300.132 C281.78,300.302 282.006,300.521 282.169,300.782 C282.331,301.043 282.424,301.336 282.445,301.652 C282.466,301.971 282.413,302.274 282.285,302.555 C282.068,303.048 281.734,303.457 281.291,303.769 C280.868,304.067 280.443,304.346 280.026,304.601 C279.895,304.442 279.749,304.261 279.589,304.057 C279.394,303.809 279.206,303.545 279.031,303.272 C278.861,303.006 278.715,302.727 278.594,302.443 C278.48,302.175 278.423,301.925 278.423,301.699 C278.423,301.417 278.479,301.162 278.591,300.941 C278.701,300.719 278.853,300.527 279.043,300.373 C279.233,300.218 279.453,300.095 279.697,300.009 C279.942,299.922 280.202,299.879 280.474,299.879 Z M278.298,307.349 C278.647,307.083 279.028,306.848 279.434,306.649 L284,312.084 C283.481,312.682 282.9,313.174 282.272,313.546 C281.615,313.938 280.847,314.135 279.989,314.135 C279.473,314.135 278.991,314.053 278.555,313.89 C278.126,313.731 277.748,313.502 277.432,313.21 C277.119,312.919 276.868,312.56 276.685,312.142 C276.502,311.727 276.41,311.249 276.41,310.718 C276.41,310.296 276.492,309.877 276.653,309.474 C276.815,309.067 277.037,308.68 277.311,308.324 C277.585,307.968 277.919,307.639 278.298,307.349 Z" id="Shape"></path>
        </g>
    </g>
</svg>
