<svg id="Layer_1" data-name="Layer 1" xmlns="http://www.w3.org/2000/svg" viewBox="0 0 1437.58 506.17"><defs><style>.cls-1{fill:#000;}</style></defs><title>LAKRIDS-BY-BULOW_without_Danish_logo_WHITE</title><path class="cls-1" d="M319.92,489.12h11.89V457.18l31.47-45v-.92H350l-24.15,35-24.14-35H288.44v.92l31.48,45.09Zm-97.31-45V421.59h16.6c9.74,0,15.7,3,15.7,11.45,0,7.78-6.42,11.1-16.27,11.1Zm0,34.69V454.67h19.93c11.44,0,18.2,3.54,18.2,12.48,0,7.67-5.49,11.68-16.25,11.68Zm-11.89,10.29h35.36c18,0,27.35-8,27.35-20.6,0-11.68-7.32-17.86-19.22-19.91,7.9-2.63,13-8.36,13-16.95,0-14-10.06-20.37-26.43-20.37h-30.1Z" transform="translate(-210.72 -112.15)"/><path class="cls-1" d="M1530.53,615H1564l84.29-203.23h-33.78L1547,575.29l-62.76-163.48h-33.77L1477,480l-43,100.12-66.64-168.26h-33.48L1414.57,615h33.48l42.73-98.34ZM1115.1,513.72c0-43.33,31.08-75.32,73.82-75.32,43.34,0,74.13,32,74.13,75.32,0,42.74-30.79,75-74.13,75-42.74,0-73.82-32.28-73.82-75m-30.48,0c0,59.47,44.83,104.31,104.3,104.31,60.08,0,104.91-44.84,104.91-104.31,0-60.07-44.83-104.91-104.91-104.91-59.47,0-104.3,44.84-104.3,104.91M1047.56,615v-27.2H936.38v-176H905.29V615Zm-292-247.17c0,11.65,7.47,16.14,18.23,16.14,10.46,0,17.63-4.49,17.63-16.14,0-11.95-7.17-16.14-17.63-16.14-10.76,0-18.23,4.19-18.23,16.14m-75.32,0c0,11.65,7.48,16.14,17.94,16.14s17.93-4.49,17.93-16.14c0-11.95-7.47-16.14-17.93-16.14s-17.94,4.19-17.94,16.14m-3,43.94H646.17V531.05c0,50.81,30.48,87.27,89.37,87.27,59.47,0,90.25-40.34,90.25-87.27V411.81H794.71V528.67c0,35-18.83,60.66-59.17,60.66-39.76,0-58.28-23.9-58.28-60.37ZM448.32,497.57V438.7h43.33c25.41,0,41,7.77,41,29.88,0,20.34-16.73,29-42.44,29Zm0,90.57V525.07h52c29.89,0,47.52,9.27,47.52,32.59,0,20-14.34,30.48-42.43,30.48ZM417.23,615h92.36c46.92,0,71.42-20.92,71.42-53.8,0-30.48-19.13-46.63-50.21-52,20.62-6.88,34.08-21.83,34.08-44.24,0-36.46-26.3-53.19-69-53.19H417.23Z" transform="translate(-210.72 -112.15)"/><path class="cls-1" d="M1473.45,303.43c12.86,7.47,42.15,17.64,71.43,17.64,48.12,0,82.79-24.82,82.79-62.46,0-28.7-19.13-44.84-55-54.4l-39.45-10.16c-18.53-5.09-28.09-12-28.09-26,0-15.25,13.44-27.2,45.12-27.2,22.72,0,49,7.48,63.36,16.14l9-28.69c-15.25-8.07-42.74-16.14-71.14-16.14-53.79,0-78.6,26.6-78.6,58.58,0,26.6,16.74,44.83,50.82,52.9l36.45,9c24.81,6,35.27,14,35.27,28.39,0,20-20.32,31.38-49.91,31.38-26.6,0-50.8-10.16-64.56-18.83ZM1309.07,142c43.34.29,74.13,26.3,74.13,74.72,0,47.82-30.79,74.12-74.13,74.12h-50.51V142Zm-81.59,176h82.79c60.08,0,104.9-35.87,104.9-101.32,0-66.06-44.82-101.61-104.9-101.91h-82.79Zm-113.57,0H1145V114.85h-31.08ZM967.47,142c22.71,0,40.65,12.56,40.65,38.55,0,24.21-17.94,38-40.65,38H906.79V142Zm-91.76,176h31.08V243.36h37.06l73.83,74.72h35.87V313l-71.14-70.23c32.58-4.19,58-27.79,58-62.77,0-45.12-31.08-65.14-76.21-65.14H875.71Zm-228.94,0h31.09V231.71H703l78.9,86.37h37.07v-4.49L729.86,218l80.7-98.33v-4.77H778.28l-75,89.36h-25.4V114.85H646.77ZM488.68,145.93l41.24,103.71H445ZM386.46,318.08h31.67l18.54-44.83H538l17.93,44.83H587.6L506.91,114.85H470.74Zm-33.47,0v-27.2H241.8v-176H210.72V318.08Z" transform="translate(-210.72 -112.15)"/></svg>
