<?xml version="1.0" encoding="utf-8"?>
<!-- Generator: Adobe Illustrator 19.2.1, SVG Export Plug-In . SVG Version: 6.00 Build 0)  -->
<svg version="1.1" id="Ebene_2" xmlns="http://www.w3.org/2000/svg" xmlns:xlink="http://www.w3.org/1999/xlink" x="0px" y="0px"
	 viewBox="0 0 250 80" style="enable-background:new 0 0 250 80;" xml:space="preserve">
<style type="text/css">
	.st0{fill:#E2231A;}
	.st1{fill:#E2231A;stroke:#E2231A;stroke-width:0.3152;stroke-miterlimit:10;}
	.st2{fill-rule:evenodd;clip-rule:evenodd;fill:#E2231A;}
</style>
<g>
	<path class="st0" d="M212.7,62.2c-0.3,0.4-0.4,0.8-0.7,1.2c-0.3,0.4-0.8,1.3-1.1,1.7c-0.2,0.3-0.4,0.6-0.7,0.8
		c-0.1,0.1-0.4,0.1-0.5,0c-0.1,0-0.1-0.1-0.2-0.1c0,0,0-0.1-0.1-0.1c0,0,0-0.1,0-0.2c0-0.2,0.4-0.7,0.5-0.9c0.1-0.3,0.7-1,0.9-1.4
		c0.2-0.3,0.4-0.7,0.7-1.1c0.3-0.4,0.5-0.8,0.8-1.2"/>
</g>
<g>
	<path class="st1" d="M18,67.6l-3.6,0.2c0,0,0,0.1-0.1,0.2c-0.1,0.2-0.1,0.3-0.2,0.6c-0.1,0.2-0.1,0.4-0.2,0.7
		c-0.1,0.2-0.1,0.4-0.2,0.6c0,0,0,0.1,0,0.2c0,0.1,0,0.2-0.1,0.3c0,0.1,0,0.2-0.1,0.3c0,0.1,0,0.2,0,0.2c-0.1,0.2-0.1,0.3-0.2,0.4
		c-0.1,0.1-0.2,0.1-0.5,0c-0.1,0.1-0.2-0.1-0.1-0.6c0-0.4,0.2-1.1,0.4-2c0.2-0.9,0.5-2,0.9-3.3c0.4-1.3,0.9-2.8,1.5-4.5
		c0-0.1,0.1-0.1,0.2-0.2c0.1,0,0.2-0.1,0.3-0.1c0.1,0,0.2,0,0.3,0.1c0.1,0,0.1,0.1,0.2,0.2c0.1,0.4,0.2,0.8,0.4,1.3
		c0.1,0.5,0.3,1,0.5,1.5c0.2,0.5,0.4,1.1,0.6,1.6c0.2,0.5,0.5,0.9,0.8,1.3c0.2,0.1,0.3,0.1,0.4,0.2c0.1,0.1,0.1,0.1,0.1,0.2
		c0,0.1,0,0.1,0,0.2c0,0.1-0.1,0.1-0.1,0.2c0,0.1,0,0.1-0.1,0.2c0,0.1,0,0.2,0.1,0.3l1.1,2.6c0,0.2,0.1,0.4,0.1,0.5
		c0,0.1,0,0.2-0.1,0.3c0,0.1-0.1,0.2-0.2,0.2l-0.4-0.4L18,67.6z M14.8,66.6C14.7,66.6,14.7,66.6,14.8,66.6c0.1,0.1,0.3,0.1,0.6,0.2
		c0.2,0,0.5,0,0.9,0c0.3,0,0.7-0.1,1-0.2c0-0.2,0-0.3,0-0.5c0-0.2-0.1-0.4-0.2-0.6c-0.1-0.2-0.2-0.5-0.3-0.7
		c-0.1-0.2-0.2-0.5-0.3-0.7c-0.1-0.2-0.2-0.4-0.3-0.6c-0.1-0.2-0.2-0.4-0.2-0.5c-0.1,0.3-0.2,0.6-0.4,0.9c-0.1,0.4-0.3,0.7-0.4,1.1
		c-0.1,0.4-0.2,0.7-0.3,1C14.8,66.2,14.8,66.5,14.8,66.6z"/>
	<path class="st1" d="M22.1,71.1c0,0-0.1-0.1-0.1-0.1c0-0.1-0.1-0.1-0.1-0.2c0-0.1,0-0.1-0.1-0.2c0,0,0-0.1,0-0.1l4-6.3
		c0,0,0.1-0.1,0.1-0.2c0.1-0.1,0.1-0.2,0.2-0.4c0.1-0.1,0.2-0.3,0.2-0.5c0.1-0.2,0.2-0.3,0.2-0.5c0.1-0.2,0.1-0.3,0.1-0.5
		c0-0.2,0-0.3,0-0.4c-0.1-0.1-0.3-0.1-0.5-0.1c-0.2,0-0.4,0.1-0.6,0.1c-0.2,0.1-0.4,0.1-0.7,0.2c-0.2,0.1-0.4,0.2-0.7,0.2
		c-0.2,0.1-0.4,0.1-0.6,0.2c-0.2,0-0.4,0.1-0.5,0c-0.2,0-0.3-0.1-0.4-0.2c-0.1-0.1-0.1-0.3-0.2-0.5c0,0,0.1,0,0.2-0.1
		c0.1,0,0.3-0.1,0.6-0.2c0.2-0.1,0.5-0.1,0.8-0.2c0.3-0.1,0.6-0.1,0.9-0.2c0.3-0.1,0.6-0.1,0.9-0.2c0.3-0.1,0.5-0.1,0.7-0.2
		c0.4-0.1,0.7-0.1,0.9,0c0.2,0.1,0.3,0.3,0.3,0.5c0,0.2,0,0.6-0.1,0.9c-0.1,0.4-0.3,0.8-0.5,1.2c-0.2,0.4-0.5,0.9-0.8,1.4
		c-0.3,0.5-0.6,1-0.9,1.4c-0.3,0.5-0.6,0.9-0.9,1.4c-0.3,0.4-0.5,0.8-0.8,1.2c-0.2,0.4-0.4,0.6-0.5,0.9c-0.1,0.2-0.2,0.4-0.2,0.5
		c0.2,0,0.6,0,1,0c0.4-0.1,0.9-0.1,1.3-0.2c0.5-0.1,1-0.2,1.5-0.2c0.5-0.1,1-0.1,1.4-0.2c0.4,0,0.8,0,1,0c0.3,0.1,0.4,0.2,0.5,0.4
		c0,0.1,0,0.2,0,0.4c0,0.1,0,0.2,0,0.2L23,71.4c-0.2,0-0.3,0-0.5,0C22.4,71.3,22.2,71.3,22.1,71.1z"/>
	<path class="st1" d="M31.9,61c0-0.2,0-0.3,0.1-0.4c0.1-0.1,0.2-0.1,0.3-0.1c0.1,0,0.2,0.1,0.3,0.1c0.1,0.1,0.1,0.2,0.1,0.3l0,10.3
		c0,0.1-0.1,0.1-0.1,0.2c-0.1,0-0.1,0.1-0.2,0c-0.1,0-0.1,0-0.2-0.1c-0.1-0.1-0.1-0.2-0.2-0.3L31.9,61z"/>
	<path class="st1" d="M36.2,62.6c-0.1-0.2-0.1-0.3-0.2-0.4c0-0.1-0.1-0.2-0.1-0.3c0-0.1,0-0.2,0.1-0.3c0.1-0.1,0.2-0.2,0.3-0.3
		c0.1,0,0.2,0,0.4-0.1c0.2,0,0.4-0.1,0.7-0.1c0.3,0,0.5-0.1,0.8-0.1c0.3,0,0.5-0.1,0.8-0.1c0.3,0,0.5-0.1,0.7-0.1c0.2,0,0.3,0,0.4,0
		c0.1,0,0.2,0,0.5-0.1c0.2,0,0.5,0,0.7,0c0.3,0,0.5,0.1,0.8,0.1c0.2,0.1,0.4,0.2,0.5,0.4c0,0.1,0,0.2,0,0.3
		c-0.1,0.1-0.1,0.1-0.2,0.2c-0.1,0-0.2,0-0.4,0c-0.2,0-0.4,0-0.6,0c-0.2,0-0.4,0-0.6,0c-0.2,0-0.3,0-0.4,0c-0.1,0-0.3,0-0.6,0
		c-0.3,0-0.5,0-0.8,0.1c-0.3,0-0.6,0.1-0.9,0.1c-0.3,0.1-0.5,0.1-0.7,0.2c0,0-0.1,0-0.1,0.1c-0.1,0.1-0.1,0.1-0.1,0.1v2.7h4v0.4
		l-4,0.7l-0.2,0.2c0,0,0,0.1,0,0.2c0,0.1,0,0.3,0,0.5c0,0.2,0,0.4,0,0.6c0,0.2,0,0.5,0,0.7c0,0.2,0,0.4,0,0.6c0,0.2,0,0.4,0,0.5
		c0,0.3,0.1,0.5,0.4,0.6c0.2,0.1,0.5,0.2,0.9,0.3c0.4,0,0.8,0.1,1.2,0c0.4,0,0.9,0,1.3-0.1c0.4,0,0.8-0.1,1.1-0.1
		c0.3,0,0.6-0.1,0.8,0c0.2,0.1,0.2,0.2,0.2,0.3c0,0.1-0.1,0.3-0.2,0.3c-0.1,0-0.2,0-0.4,0.1c-0.2,0-0.4,0-0.6,0.1
		c-0.2,0-0.5,0.1-0.7,0.1c-0.3,0-0.5,0.1-0.7,0.1c-0.2,0-0.4,0.1-0.6,0.1c-0.2,0-0.3,0-0.4,0c-0.2,0-0.4,0-0.7,0
		c-0.3,0-0.6,0-0.8-0.1c-0.3,0-0.6-0.1-0.8-0.1c-0.3-0.1-0.5-0.1-0.6-0.2L36.2,62.6z"/>
	<path class="st1" d="M46.5,63c0,0,0,0.2,0,0.5c0,0.3,0,0.7,0.1,1.2c0,0.5,0.1,1,0.1,1.5c0,0.6,0,1.1,0,1.7c0,0.6,0,1.1,0,1.6
		c0,0.5-0.1,0.9-0.2,1.3c-0.1,0.3-0.2,0.6-0.3,0.7c-0.1,0.1-0.3,0.1-0.6-0.1c0-0.1,0-0.4,0-0.7c0-0.3,0-0.7,0-1.1c0-0.4,0-0.9,0-1.4
		c0-0.5,0-1,0-1.5c0-0.5,0-1,0-1.5c0-0.5,0-0.9,0-1.3c0-0.4,0-0.7,0-0.9c0-0.2,0-0.4,0-0.5c0-0.6,0.1-1,0.2-1.3
		c0.1-0.3,0.2-0.4,0.3-0.4c0.1,0,0.3,0.1,0.5,0.2c0.2,0.2,0.3,0.4,0.5,0.6c0.2,0.2,0.3,0.5,0.5,0.8c0.2,0.3,0.3,0.5,0.5,0.7
		c0.2,0.2,0.4,0.4,0.6,0.8c0.3,0.4,0.5,0.7,0.8,1.2c0.3,0.4,0.6,0.8,0.9,1.3c0.3,0.4,0.6,0.8,0.9,1.2c0.3,0.4,0.5,0.7,0.7,0.9
		c0.2,0.2,0.3,0.3,0.4,0.3l-0.1-8c0-0.1,0-0.1,0.1-0.2c0.1,0,0.2-0.1,0.3-0.1c0.1,0,0.2,0,0.3,0c0.1,0,0.2,0,0.2,0
		c0,0.1,0,0.3,0,0.7c0,0.4,0,0.8,0,1.2c0,0.5,0,1,0.1,1.5c0,0.5,0,1,0,1.5c0,0.5,0,0.9,0,1.2c0,0.4,0,0.6,0,0.7c0,0.3,0,0.5,0,0.8
		c0,0.3,0,0.6,0,0.9c0,0.3,0,0.6-0.1,0.9c0,0.3-0.1,0.6-0.2,0.9c0,0-0.1,0.1-0.1,0.1c-0.1,0.1-0.1,0.1-0.1,0.1L46.5,63z"/>
	<path class="st1" d="M56.8,71C56.8,71,56.7,71,56.8,71c-0.1-0.1-0.2-0.2-0.2-0.2c0-0.1-0.1-0.1-0.1-0.1c0,0,0-0.1,0-0.1v-7.9
		c0,0-0.1-0.1-0.2-0.1c-0.1-0.1-0.2-0.1-0.2-0.2c-0.1-0.1-0.2-0.1-0.2-0.2c-0.1-0.1-0.1-0.1-0.1-0.2c-0.1-0.2-0.1-0.4,0.1-0.6
		c0.2-0.2,0.4-0.3,0.7-0.5c0.3-0.1,0.7-0.2,1.2-0.3c0.5-0.1,0.9-0.1,1.4,0c0.5,0.1,1,0.2,1.5,0.4c0.5,0.2,1,0.5,1.4,0.9
		c0.4,0.4,0.8,0.9,1.1,1.5c0.3,0.6,0.5,1.3,0.7,2.2c0.1,0.6,0.1,1.2-0.1,1.8c-0.2,0.6-0.4,1.1-0.7,1.6c-0.3,0.5-0.7,0.9-1.2,1.3
		c-0.5,0.4-1,0.6-1.5,0.8c-0.5,0.2-1.1,0.3-1.7,0.3C57.9,71.4,57.3,71.3,56.8,71z M57.5,69.9c0.1,0.2,0.2,0.4,0.5,0.5
		c0.3,0.1,0.6,0.1,0.9,0.1c0.4,0,0.7-0.1,1.2-0.3c0.4-0.2,0.8-0.4,1.2-0.7c0.4-0.3,0.7-0.6,1-1.1c0.3-0.4,0.5-0.9,0.6-1.4
		c0.1-0.5,0.1-1.1-0.1-1.8c-0.1-0.7-0.5-1.4-0.9-2.2c-0.1-0.2-0.4-0.5-0.6-0.7c-0.3-0.2-0.6-0.4-0.9-0.5c-0.3-0.1-0.6-0.2-1-0.3
		c-0.3,0-0.6,0-0.9,0.1s-0.5,0.3-0.7,0.6c-0.2,0.3-0.3,0.6-0.3,1.1c0,0.2,0,0.4,0,0.8c0,0.4,0,0.7,0,1.2c0,0.4,0,0.9,0,1.4
		c0,0.5,0,1,0,1.4c0,0.4,0,0.8,0,1.2C57.5,69.4,57.5,69.7,57.5,69.9z"/>
	<path class="st1" d="M70.7,67.6l-3.6,0.2c0,0,0,0.1-0.1,0.2c-0.1,0.2-0.1,0.3-0.2,0.6c-0.1,0.2-0.1,0.4-0.2,0.7
		c-0.1,0.2-0.1,0.4-0.2,0.6c0,0,0,0.1,0,0.2c0,0.1,0,0.2-0.1,0.3c0,0.1,0,0.2-0.1,0.3c0,0.1,0,0.2,0,0.2c-0.1,0.2-0.1,0.3-0.2,0.4
		c-0.1,0.1-0.2,0.1-0.5,0c-0.1,0.1-0.2-0.1-0.1-0.6c0-0.4,0.2-1.1,0.4-2c0.2-0.9,0.5-2,0.9-3.3c0.4-1.3,0.9-2.8,1.5-4.5
		c0-0.1,0.1-0.1,0.2-0.2c0.1,0,0.2-0.1,0.3-0.1c0.1,0,0.2,0,0.3,0.1c0.1,0,0.1,0.1,0.2,0.2c0.1,0.4,0.2,0.8,0.4,1.3
		c0.1,0.5,0.3,1,0.5,1.5c0.2,0.5,0.4,1.1,0.6,1.6c0.2,0.5,0.5,0.9,0.8,1.3c0.2,0.1,0.3,0.1,0.4,0.2c0.1,0.1,0.1,0.1,0.1,0.2
		c0,0.1,0,0.1,0,0.2c0,0.1-0.1,0.1-0.1,0.2c0,0.1,0,0.1-0.1,0.2c0,0.1,0,0.2,0.1,0.3l1.1,2.6c0,0.2,0.1,0.4,0.1,0.5
		c0,0.1,0,0.2-0.1,0.3c0,0.1-0.1,0.2-0.2,0.2l-0.4-0.4L70.7,67.6z M67.6,66.6C67.5,66.6,67.5,66.6,67.6,66.6
		c0.1,0.1,0.3,0.1,0.6,0.2c0.2,0,0.5,0,0.9,0c0.3,0,0.7-0.1,1-0.2c0-0.2,0-0.3,0-0.5c0-0.2-0.1-0.4-0.2-0.6
		c-0.1-0.2-0.2-0.5-0.3-0.7c-0.1-0.2-0.2-0.5-0.3-0.7c-0.1-0.2-0.2-0.4-0.3-0.6c-0.1-0.2-0.2-0.4-0.2-0.5c-0.1,0.3-0.2,0.6-0.4,0.9
		c-0.1,0.4-0.3,0.7-0.4,1.1c-0.1,0.4-0.2,0.7-0.3,1C67.6,66.2,67.5,66.5,67.6,66.6z"/>
	<path class="st1" d="M83,71.2c-0.1,0-0.1-0.1-0.3-0.1c-0.1,0-0.3-0.1-0.4-0.2c-0.2-0.1-0.3-0.2-0.5-0.3c-0.2-0.1-0.3-0.2-0.4-0.3
		c-0.1-0.1-0.2-0.2-0.2-0.4c0-0.1,0-0.3,0.1-0.4c0,0,0,0,0.1-0.1c0,0,0.1-0.1,0.1-0.1c0,0,0.1,0,0.1-0.1c0,0,0.1,0,0.1,0
		c0-0.1,0-0.4,0-0.7c0-0.3,0-0.6,0-1c0-0.4,0-0.8,0-1.2c0-0.4,0-0.8,0-1.2c0-0.4,0-0.7,0-1c0-0.3,0-0.5,0-0.7c0-0.1,0-0.3-0.1-0.4
		c-0.1-0.1-0.2-0.3-0.3-0.4c-0.1-0.1-0.2-0.3-0.2-0.4c-0.1-0.1-0.1-0.2,0-0.3c0.2-0.2,0.4-0.4,0.7-0.5c0.3-0.1,0.6-0.3,0.9-0.4
		c0.3-0.1,0.6-0.2,0.9-0.2c0.3-0.1,0.6-0.1,0.8-0.1c0.5-0.1,0.8,0,1.1,0.1c0.2,0.1,0.4,0.2,0.4,0.4c0.1,0.2,0.1,0.4,0,0.7
		c-0.1,0.3-0.1,0.5-0.2,0.8c-0.1,0.3-0.1,0.5-0.2,0.8c-0.1,0.2-0.1,0.5,0,0.6c0.8,0,1.5,0.2,2,0.5c0.5,0.3,0.8,0.6,1,1
		c0.2,0.4,0.3,0.9,0.2,1.4c0,0.5-0.2,1-0.4,1.5c-0.2,0.5-0.5,0.9-0.9,1.4c-0.4,0.4-0.8,0.8-1.3,1.1c-0.5,0.3-1,0.4-1.6,0.5
		C84.1,71.5,83.6,71.4,83,71.2z M82.6,70.1c0,0,0.1,0.1,0.2,0.1c0.1,0,0.2,0.1,0.3,0.1c0.1,0,0.2,0.1,0.3,0.1c0.1,0,0.2,0.1,0.2,0.1
		c0.5,0.1,1.1,0.1,1.5-0.1c0.5-0.1,0.9-0.4,1.3-0.6c0.4-0.3,0.7-0.6,1-1c0.3-0.4,0.5-0.8,0.6-1.2c0.1-0.4,0.2-0.8,0.1-1.1
		c0-0.4-0.1-0.7-0.4-0.9c-0.2-0.2-0.5-0.4-0.9-0.5c-0.4-0.1-0.9-0.1-1.5,0.1c-0.1,0-0.3,0.1-0.6,0.1c-0.2,0.1-0.5,0.1-0.7,0.2
		c-0.2,0.1-0.5,0.2-0.7,0.3c-0.2,0.1-0.4,0.3-0.5,0.4c0,0.6-0.1,1.2-0.1,1.8C82.7,68.7,82.6,69.4,82.6,70.1z M83,65
		c0.3-0.2,0.5-0.4,0.8-0.6c0.2-0.2,0.4-0.4,0.6-0.6c0.2-0.2,0.3-0.4,0.5-0.7c0.1-0.2,0.3-0.5,0.4-0.8c0.1-0.2,0.1-0.4,0-0.5
		c-0.1-0.1-0.2-0.2-0.4-0.2c-0.2,0-0.4,0-0.6,0c-0.2,0-0.5,0.1-0.7,0.2c-0.2,0.1-0.4,0.2-0.5,0.3c-0.1,0.1-0.2,0.2-0.2,0.4L83,65z"
		/>
	<path class="st1" d="M91,61c0-0.2,0-0.3,0.1-0.4c0.1-0.1,0.2-0.1,0.3-0.1c0.1,0,0.2,0.1,0.3,0.1c0.1,0.1,0.1,0.2,0.1,0.3l0,10.3
		c0,0.1-0.1,0.1-0.1,0.2c-0.1,0-0.1,0.1-0.2,0c-0.1,0-0.1,0-0.2-0.1c-0.1-0.1-0.1-0.2-0.2-0.3L91,61z"/>
	<path class="st1" d="M95.9,70c-0.5-0.5-0.9-1-1.1-1.6c-0.2-0.6-0.4-1.3-0.4-1.9c0-0.7,0.1-1.3,0.2-2c0.2-0.7,0.4-1.3,0.7-1.8
		c0.3-0.5,0.7-1,1.1-1.3c0.4-0.4,0.8-0.6,1.3-0.6c0.4,0.1,0.8,0.2,1.2,0.4c0.3,0.2,0.6,0.4,0.9,0.7c0.2,0.3,0.4,0.5,0.6,0.8
		c0.2,0.3,0.3,0.6,0.4,0.9c0.1,0.3,0.2,0.5,0.3,0.8c0.1,0.2,0.1,0.4,0.2,0.5c0.2,0.8,0.3,1.6,0.2,2.3c-0.1,0.7-0.2,1.3-0.5,1.8
		c-0.3,0.5-0.6,0.9-1,1.3c-0.4,0.3-0.8,0.5-1.3,0.7c-0.5,0.1-0.9,0.1-1.4,0C96.8,70.7,96.3,70.4,95.9,70z M96.3,69.1
		c0.1,0.1,0.3,0.3,0.5,0.4c0.2,0.1,0.4,0.2,0.6,0.3c0.2,0.1,0.4,0.1,0.6,0.2c0.2,0,0.4,0,0.6,0c0.4-0.1,0.7-0.3,1-0.5
		c0.3-0.3,0.5-0.6,0.7-1c0.2-0.4,0.3-0.8,0.3-1.4c0.1-0.5,0.1-1.1,0-1.6c-0.4-1.2-0.9-2.1-1.4-2.7c-0.5-0.6-1-0.9-1.4-0.9
		c-0.3,0-0.7,0.1-1,0.4c-0.3,0.3-0.5,0.6-0.8,1c-0.2,0.4-0.4,0.9-0.5,1.4c-0.1,0.5-0.2,1.1-0.2,1.6c0,0.5,0.1,1,0.2,1.5
		C95.7,68.3,96,68.8,96.3,69.1z"/>
	<path class="st1" d="M108.8,67.6l-3.6,0.2c0,0,0,0.1-0.1,0.2c-0.1,0.2-0.1,0.3-0.2,0.6c-0.1,0.2-0.1,0.4-0.2,0.7
		c-0.1,0.2-0.1,0.4-0.2,0.6c0,0,0,0.1,0,0.2c0,0.1,0,0.2-0.1,0.3c0,0.1,0,0.2-0.1,0.3c0,0.1,0,0.2,0,0.2c-0.1,0.2-0.1,0.3-0.2,0.4
		c-0.1,0.1-0.2,0.1-0.5,0c-0.1,0.1-0.2-0.1-0.1-0.6c0-0.4,0.2-1.1,0.4-2c0.2-0.9,0.5-2,0.9-3.3c0.4-1.3,0.9-2.8,1.5-4.5
		c0-0.1,0.1-0.1,0.2-0.2c0.1,0,0.2-0.1,0.3-0.1c0.1,0,0.2,0,0.3,0.1c0.1,0,0.1,0.1,0.2,0.2c0.1,0.4,0.2,0.8,0.4,1.3
		c0.1,0.5,0.3,1,0.5,1.5c0.2,0.5,0.4,1.1,0.6,1.6c0.2,0.5,0.5,0.9,0.8,1.3c0.2,0.1,0.3,0.1,0.4,0.2c0.1,0.1,0.1,0.1,0.1,0.2
		c0,0.1,0,0.1,0,0.2c0,0.1-0.1,0.1-0.1,0.2c0,0.1,0,0.1-0.1,0.2c0,0.1,0,0.2,0.1,0.3l1.1,2.6c0,0.2,0.1,0.4,0.1,0.5
		c0,0.1,0,0.2-0.1,0.3c0,0.1-0.1,0.2-0.2,0.2l-0.4-0.4L108.8,67.6z M105.6,66.6C105.5,66.6,105.5,66.6,105.6,66.6
		c0.1,0.1,0.3,0.1,0.6,0.2c0.2,0,0.5,0,0.9,0c0.3,0,0.7-0.1,1-0.2c0-0.2,0-0.3,0-0.5c0-0.2-0.1-0.4-0.2-0.6
		c-0.1-0.2-0.2-0.5-0.3-0.7c-0.1-0.2-0.2-0.5-0.3-0.7c-0.1-0.2-0.2-0.4-0.3-0.6c-0.1-0.2-0.2-0.4-0.2-0.5c-0.1,0.3-0.2,0.6-0.4,0.9
		c-0.1,0.4-0.3,0.7-0.4,1.1c-0.1,0.4-0.2,0.7-0.3,1C105.6,66.2,105.6,66.5,105.6,66.6z"/>
	<path class="st1" d="M114.4,70.9c-0.2-0.1-0.5-0.2-0.6-0.4c-0.2-0.2-0.3-0.4-0.5-0.7c-0.1-0.2-0.2-0.5-0.3-0.8
		c-0.1-0.3-0.1-0.5-0.1-0.8c0-0.3,0-0.6,0-1c0-0.4,0-0.8,0-1.2c0-0.4,0.1-0.9,0.2-1.4c0.1-0.5,0.2-0.9,0.3-1.4
		c0.1-0.4,0.3-0.8,0.5-1.2c0.2-0.4,0.4-0.7,0.7-0.9c0.3-0.2,0.5-0.4,0.9-0.5c0.3-0.1,0.7-0.1,1.1,0c0,0,0.1,0,0.2,0.1
		c0.1,0,0.3,0.1,0.4,0.2c0.2,0.1,0.3,0.2,0.5,0.3c0.2,0.1,0.3,0.2,0.4,0.3c0.1,0.1,0.2,0.2,0.3,0.4c0.1,0.1,0,0.3,0,0.4
		c-0.2,0.1-0.3,0.1-0.5,0c-0.2,0-0.3-0.1-0.5-0.2c-0.2-0.1-0.3-0.2-0.5-0.3c-0.2-0.1-0.3-0.2-0.5-0.3c-0.2-0.1-0.3-0.1-0.5-0.1
		c-0.2,0-0.4,0.1-0.6,0.2c-0.1,0.1-0.2,0.2-0.3,0.4c-0.1,0.2-0.2,0.4-0.3,0.5c-0.1,0.2-0.2,0.3-0.2,0.5c-0.1,0.1-0.1,0.2-0.1,0.2
		c-0.4,1.1-0.6,2.1-0.7,2.9c-0.1,0.8-0.1,1.5-0.1,2c0.1,0.5,0.2,1,0.5,1.3c0.2,0.3,0.5,0.5,0.8,0.6c0.3,0.1,0.7,0.1,1.1,0
		c0.4-0.1,0.8-0.2,1.2-0.4c0.4-0.2,0.7-0.4,1.1-0.7c0.3-0.3,0.6-0.6,0.9-0.9c0.3-0.3,0.4-0.6,0.6-1c0.1-0.3,0.2-0.6,0.1-0.9
		c0,0-0.1,0-0.2,0c-0.1,0-0.2,0-0.2,0c-0.1,0-0.2,0-0.4,0.1c-0.2,0-0.5,0.1-0.7,0.2c-0.3,0.1-0.5,0.1-0.7,0.2
		c-0.2,0-0.4,0.1-0.4,0.1c-0.1,0-0.3,0-0.4-0.1c-0.1-0.1-0.2-0.1-0.3-0.3c-0.1-0.1-0.1-0.2-0.1-0.3c0-0.1,0.1-0.2,0.2-0.3
		c0,0,0.1,0,0.1-0.1c0.1,0,0.1-0.1,0.2-0.1c0.1,0,0.1,0,0.2-0.1c0.1,0,0.1,0,0.1,0c0.5-0.1,0.9-0.3,1.3-0.4c0.4-0.1,0.8-0.1,1.2-0.1
		c0.3,0,0.6,0.2,0.7,0.4c0.2,0.2,0.2,0.6,0.1,1.2c-0.2,0.7-0.4,1.4-0.9,2c-0.4,0.6-0.9,1.1-1.5,1.4c-0.6,0.4-1.2,0.6-1.9,0.7
		C115.8,71.1,115.1,71.1,114.4,70.9z"/>
	<path class="st1" d="M123.4,71.1c-0.1-0.8-0.1-1.7-0.2-2.5c-0.1-0.8-0.1-1.7-0.2-2.5c-0.1-0.8-0.1-1.7-0.1-2.5c0-0.8,0-1.7,0-2.5
		c0.1,0,0.3,0,0.4,0c0.1,0,0.2,0.1,0.3,0.1c0.1,0,0.2,0.1,0.3,0.1c0.1,0,0.2,0,0.4,0c0.3-0.2,0.6-0.3,1-0.5c0.3-0.1,0.7-0.2,1-0.3
		c0.3-0.1,0.7-0.1,1-0.1c0.3,0,0.7,0.1,1,0.2c0.5,0.1,0.8,0.3,1,0.6c0.2,0.3,0.3,0.5,0.4,0.9c0,0.3-0.1,0.6-0.2,1
		c-0.2,0.3-0.4,0.7-0.7,0.9c-0.1,0.1-0.2,0.2-0.3,0.3c-0.1,0.1-0.3,0.3-0.4,0.4c-0.2,0.2-0.3,0.3-0.5,0.5c-0.2,0.2-0.4,0.3-0.5,0.5
		c-0.2,0.2-0.3,0.3-0.4,0.4c-0.1,0.1-0.2,0.2-0.3,0.3v0.2c0.2,0.1,0.5,0.3,0.7,0.4c0.3,0.1,0.5,0.3,0.8,0.5c0.3,0.2,0.5,0.3,0.7,0.5
		c0.2,0.2,0.5,0.4,0.7,0.5c0.1,0.1,0.3,0.2,0.4,0.4c0.2,0.2,0.4,0.3,0.5,0.5c0.2,0.2,0.4,0.3,0.5,0.5c0.2,0.2,0.3,0.3,0.5,0.5
		c0.1,0.1,0.3,0.3,0.3,0.3c0.1,0.1,0.1,0.1,0.1,0.1v0.4c-0.2,0.1-0.5,0-0.9-0.2c-0.3-0.2-0.7-0.5-1.1-0.8c-0.4-0.3-0.8-0.7-1.3-1.1
		c-0.4-0.4-0.9-0.8-1.4-1.1c-0.5-0.3-0.9-0.6-1.4-0.8c-0.5-0.2-0.9-0.2-1.4-0.2v4c0,0.1,0,0.2-0.1,0.2c-0.1,0-0.2,0.1-0.3,0.1
		c-0.1,0-0.2,0-0.3-0.1C123.4,71.2,123.4,71.2,123.4,71.1z M124,62.8c0,0.5,0,1.1,0,1.6c0,0.5,0.1,1.1,0.3,1.6c0.2,0,0.3,0,0.5,0
		c0.2,0,0.4-0.1,0.6-0.2c0.2-0.1,0.4-0.2,0.5-0.3c0.2-0.1,0.3-0.2,0.4-0.3c0.7-0.5,1.2-1,1.6-1.4c0.4-0.4,0.6-0.8,0.7-1.1
		c0.1-0.3,0.1-0.6,0-0.8c-0.1-0.2-0.3-0.4-0.6-0.4c-0.3-0.1-0.6-0.1-0.9-0.1c-0.4,0-0.7,0.1-1.1,0.2c-0.4,0.1-0.7,0.3-1.1,0.5
		C124.6,62.2,124.3,62.5,124,62.8z"/>
	<path class="st1" d="M133.6,61c0-0.2,0-0.3,0.1-0.4c0.1-0.1,0.2-0.1,0.3-0.1c0.1,0,0.2,0.1,0.3,0.1c0.1,0.1,0.1,0.2,0.1,0.3l0,10.3
		c0,0.1-0.1,0.1-0.1,0.2c-0.1,0-0.1,0.1-0.2,0c-0.1,0-0.1,0-0.2-0.1c-0.1-0.1-0.1-0.2-0.2-0.3L133.6,61z"/>
	<path class="st1" d="M138.6,71.1c-0.4-0.3-0.7-0.6-0.9-1c-0.2-0.3-0.4-0.7-0.5-1c-0.1-0.4-0.2-0.7-0.2-1.2c0-0.4,0-0.9,0-1.3
		c0-0.2,0-0.5,0.1-0.8c0.1-0.3,0.1-0.6,0.2-1c0.1-0.4,0.2-0.7,0.4-1.1c0.1-0.4,0.3-0.7,0.5-1.1c0.2-0.3,0.4-0.7,0.6-0.9
		c0.2-0.3,0.5-0.5,0.7-0.7c0.3-0.2,0.6-0.3,0.9-0.3c0.3,0,0.6,0,1,0.1c0.1,0.1,0.3,0.2,0.4,0.3c0.1,0.2,0.2,0.3,0.3,0.6
		c0.1,0.2,0.2,0.4,0.2,0.6c0,0.2,0.1,0.4,0,0.6c0,0.2-0.1,0.3-0.2,0.4c-0.1,0.1-0.3,0.1-0.5,0c0-0.5,0-0.9-0.1-1.2
		c-0.1-0.3-0.2-0.5-0.3-0.6c-0.1-0.1-0.3-0.1-0.5-0.1c-0.2,0.1-0.4,0.2-0.6,0.3c-0.2,0.2-0.4,0.4-0.6,0.6c-0.2,0.2-0.4,0.5-0.6,0.7
		c-0.2,0.3-0.3,0.5-0.4,0.8c-0.1,0.3-0.2,0.5-0.3,0.7c-0.1,0.3-0.2,0.7-0.3,1.1c-0.1,0.4-0.1,0.9-0.1,1.4c0,0.5,0,0.9,0,1.4
		c0.1,0.5,0.2,0.8,0.3,1.2c0.2,0.3,0.4,0.6,0.7,0.8c0.3,0.2,0.7,0.2,1.2,0.1c0.4-0.1,0.7-0.2,1-0.3c0.3-0.1,0.5-0.3,0.8-0.4
		c0.2-0.2,0.5-0.3,0.7-0.5c0.2-0.2,0.5-0.4,0.8-0.5c0.1-0.1,0.2-0.1,0.3-0.1c0.1,0,0.2,0.1,0.3,0.1c0.1,0.1,0.1,0.2,0.1,0.3
		c0,0.1,0,0.2,0,0.3c-0.1,0.2-0.3,0.4-0.5,0.6c-0.3,0.2-0.6,0.4-0.9,0.6c-0.4,0.2-0.7,0.4-1.1,0.5c-0.4,0.1-0.8,0.3-1.2,0.3
		c-0.4,0.1-0.7,0.1-1.1,0.1C139,71.3,138.8,71.2,138.6,71.1z"/>
	<path class="st1" d="M147.3,70c-0.5-0.5-0.9-1-1.1-1.6c-0.2-0.6-0.4-1.3-0.4-1.9c0-0.7,0.1-1.3,0.2-2c0.2-0.7,0.4-1.3,0.7-1.8
		c0.3-0.5,0.7-1,1.1-1.3c0.4-0.4,0.8-0.6,1.3-0.6c0.4,0.1,0.8,0.2,1.2,0.4c0.3,0.2,0.6,0.4,0.9,0.7c0.2,0.3,0.4,0.5,0.6,0.8
		c0.2,0.3,0.3,0.6,0.4,0.9c0.1,0.3,0.2,0.5,0.3,0.8c0.1,0.2,0.1,0.4,0.2,0.5c0.2,0.8,0.3,1.6,0.2,2.3c-0.1,0.7-0.2,1.3-0.5,1.8
		c-0.3,0.5-0.6,0.9-1,1.3c-0.4,0.3-0.8,0.5-1.3,0.7c-0.5,0.1-0.9,0.1-1.4,0C148.2,70.7,147.7,70.4,147.3,70z M147.8,69.1
		c0.1,0.1,0.3,0.3,0.5,0.4c0.2,0.1,0.4,0.2,0.6,0.3c0.2,0.1,0.4,0.1,0.6,0.2c0.2,0,0.4,0,0.6,0c0.4-0.1,0.7-0.3,1-0.5
		c0.3-0.3,0.5-0.6,0.7-1c0.2-0.4,0.3-0.8,0.3-1.4c0.1-0.5,0.1-1.1,0-1.6c-0.4-1.2-0.9-2.1-1.4-2.7c-0.5-0.6-1-0.9-1.4-0.9
		c-0.3,0-0.7,0.1-1,0.4c-0.3,0.3-0.6,0.6-0.8,1c-0.2,0.4-0.4,0.9-0.5,1.4c-0.1,0.5-0.2,1.1-0.2,1.6c0,0.5,0.1,1,0.2,1.5
		C147.2,68.3,147.4,68.8,147.8,69.1z"/>
	<path class="st1" d="M156.7,70.3c0.1,0,0.3,0.1,0.4,0.1c0.1,0,0.2,0.1,0.4,0.1c0.1,0,0.3,0,0.5,0c0.2,0,0.5,0,0.8,0
		c0.3,0,0.8,0,1.3-0.1c0.5,0,1.1-0.1,1.9-0.1c0,0,0,0.1,0,0.2c0,0.1,0,0.2,0,0.3c0,0.1,0,0.2-0.1,0.3c0,0.1-0.1,0.1-0.2,0.2
		c-1,0-1.9,0.1-2.6,0.1c-0.7,0-1.3,0-1.8,0c-0.5,0-0.8-0.1-1.1-0.1c-0.3-0.1-0.5-0.2-0.6-0.3c-0.1-0.1-0.2-0.3-0.3-0.5
		c-0.1-0.2-0.1-0.4-0.1-0.7l0.2-8.5c0-0.2,0.1-0.3,0.2-0.4c0.1-0.1,0.2-0.1,0.3-0.1c0.1,0,0.2,0.1,0.3,0.2c0.1,0.1,0.1,0.3,0.1,0.5
		c0,0.3-0.1,0.8-0.1,1.3c-0.1,0.6-0.1,1.2-0.1,1.8c0,0.7,0,1.3-0.1,2c0,0.7,0,1.3,0.1,1.8c0,0.6,0.1,1,0.2,1.4
		C156.4,70,156.5,70.2,156.7,70.3z"/>
	<path class="st1" d="M168.9,67.6l-3.6,0.2c0,0,0,0.1-0.1,0.2c-0.1,0.2-0.1,0.3-0.2,0.6c-0.1,0.2-0.1,0.4-0.2,0.7
		c-0.1,0.2-0.1,0.4-0.2,0.6c0,0,0,0.1,0,0.2c0,0.1,0,0.2-0.1,0.3c0,0.1,0,0.2-0.1,0.3c0,0.1,0,0.2,0,0.2c-0.1,0.2-0.1,0.3-0.2,0.4
		c-0.1,0.1-0.2,0.1-0.5,0c-0.1,0.1-0.2-0.1-0.1-0.6c0-0.4,0.2-1.1,0.4-2c0.2-0.9,0.5-2,0.9-3.3c0.4-1.3,0.9-2.8,1.5-4.5
		c0-0.1,0.1-0.1,0.2-0.2c0.1,0,0.2-0.1,0.3-0.1c0.1,0,0.2,0,0.3,0.1c0.1,0,0.1,0.1,0.2,0.2c0.1,0.4,0.2,0.8,0.4,1.3
		c0.1,0.5,0.3,1,0.5,1.5c0.2,0.5,0.4,1.1,0.6,1.6c0.2,0.5,0.5,0.9,0.8,1.3c0.2,0.1,0.3,0.1,0.4,0.2c0.1,0.1,0.1,0.1,0.1,0.2
		c0,0.1,0,0.1,0,0.2c0,0.1-0.1,0.1-0.1,0.2c0,0.1,0,0.1-0.1,0.2c0,0.1,0,0.2,0.1,0.3l1.1,2.6c0,0.2,0.1,0.4,0.1,0.5
		c0,0.1,0,0.2-0.1,0.3c0,0.1-0.1,0.2-0.2,0.2l-0.4-0.4L168.9,67.6z M165.7,66.6C165.6,66.6,165.6,66.6,165.7,66.6
		c0.1,0.1,0.3,0.1,0.6,0.2c0.2,0,0.5,0,0.9,0c0.3,0,0.7-0.1,1-0.2c0-0.2,0-0.3,0-0.5c0-0.2-0.1-0.4-0.2-0.6
		c-0.1-0.2-0.2-0.5-0.3-0.7c-0.1-0.2-0.2-0.5-0.3-0.7c-0.1-0.2-0.2-0.4-0.3-0.6c-0.1-0.2-0.2-0.4-0.2-0.5c-0.1,0.3-0.2,0.6-0.4,0.9
		c-0.1,0.4-0.3,0.7-0.4,1.1c-0.1,0.4-0.2,0.7-0.3,1C165.7,66.2,165.7,66.5,165.7,66.6z"/>
	<path class="st1" d="M180.6,71C180.6,71,180.5,71,180.6,71c-0.1-0.1-0.2-0.2-0.2-0.2c0-0.1-0.1-0.1-0.1-0.1c0,0,0-0.1,0-0.1v-7.9
		c0,0-0.1-0.1-0.2-0.1c-0.1-0.1-0.2-0.1-0.2-0.2c-0.1-0.1-0.2-0.1-0.2-0.2c-0.1-0.1-0.1-0.1-0.1-0.2c-0.1-0.2-0.1-0.4,0.1-0.6
		c0.2-0.2,0.4-0.3,0.7-0.5c0.3-0.1,0.7-0.2,1.2-0.3c0.5-0.1,0.9-0.1,1.4,0c0.5,0.1,1,0.2,1.5,0.4c0.5,0.2,1,0.5,1.4,0.9
		c0.4,0.4,0.8,0.9,1.1,1.5c0.3,0.6,0.5,1.3,0.7,2.2c0.1,0.6,0.1,1.2-0.1,1.8c-0.2,0.6-0.4,1.1-0.7,1.6c-0.3,0.5-0.7,0.9-1.2,1.3
		c-0.5,0.4-1,0.6-1.5,0.8c-0.5,0.2-1.1,0.3-1.7,0.3C181.7,71.4,181.1,71.3,180.6,71z M181.3,69.9c0.1,0.2,0.2,0.4,0.5,0.5
		c0.3,0.1,0.6,0.1,0.9,0.1c0.4,0,0.7-0.1,1.2-0.3c0.4-0.2,0.8-0.4,1.2-0.7c0.4-0.3,0.7-0.6,1-1.1c0.3-0.4,0.5-0.9,0.6-1.4
		c0.1-0.5,0.1-1.1-0.1-1.8c-0.1-0.7-0.5-1.4-0.9-2.2c-0.1-0.2-0.3-0.5-0.6-0.7c-0.3-0.2-0.6-0.4-0.9-0.5c-0.3-0.1-0.6-0.2-1-0.3
		c-0.3,0-0.6,0-0.9,0.1c-0.3,0.1-0.5,0.3-0.7,0.6c-0.2,0.3-0.3,0.6-0.3,1.1c0,0.2,0,0.4,0,0.8c0,0.4,0,0.7,0,1.2c0,0.4,0,0.9,0,1.4
		c0,0.5,0,1,0,1.4c0,0.4,0,0.8,0,1.2C181.3,69.4,181.3,69.7,181.3,69.9z"/>
	<path class="st1" d="M194.3,67.6l-3.6,0.2c0,0,0,0.1-0.1,0.2c-0.1,0.2-0.1,0.3-0.2,0.6c-0.1,0.2-0.1,0.4-0.2,0.7
		c-0.1,0.2-0.1,0.4-0.2,0.6c0,0,0,0.1,0,0.2c0,0.1,0,0.2-0.1,0.3c0,0.1,0,0.2-0.1,0.3c0,0.1,0,0.2,0,0.2c-0.1,0.2-0.1,0.3-0.2,0.4
		c-0.1,0.1-0.2,0.1-0.5,0c-0.1,0.1-0.2-0.1-0.1-0.6c0-0.4,0.2-1.1,0.4-2c0.2-0.9,0.5-2,0.9-3.3c0.4-1.3,0.9-2.8,1.5-4.5
		c0-0.1,0.1-0.1,0.2-0.2c0.1,0,0.2-0.1,0.3-0.1c0.1,0,0.2,0,0.3,0.1c0.1,0,0.1,0.1,0.2,0.2c0.1,0.4,0.2,0.8,0.4,1.3
		c0.1,0.5,0.3,1,0.5,1.5c0.2,0.5,0.4,1.1,0.6,1.6c0.2,0.5,0.5,0.9,0.8,1.3c0.2,0.1,0.3,0.1,0.4,0.2c0.1,0.1,0.1,0.1,0.1,0.2
		c0,0.1,0,0.1,0,0.2c0,0.1-0.1,0.1-0.1,0.2c0,0.1,0,0.1-0.1,0.2c0,0.1,0,0.2,0.1,0.3l1.1,2.6c0,0.2,0.1,0.4,0.1,0.5
		c0,0.1,0,0.2-0.1,0.3c0,0.1-0.1,0.2-0.2,0.2l-0.4-0.4L194.3,67.6z M191.1,66.6C191,66.6,191,66.6,191.1,66.6
		c0.1,0.1,0.3,0.1,0.6,0.2c0.2,0,0.5,0,0.9,0c0.3,0,0.7-0.1,1-0.2c0-0.2,0-0.3,0-0.5c0-0.2-0.1-0.4-0.2-0.6
		c-0.1-0.2-0.2-0.5-0.3-0.7c-0.1-0.2-0.2-0.5-0.3-0.7c-0.1-0.2-0.2-0.4-0.3-0.6c-0.1-0.2-0.2-0.4-0.2-0.5c-0.1,0.3-0.2,0.6-0.4,0.9
		c-0.1,0.4-0.3,0.7-0.4,1.1c-0.1,0.4-0.2,0.7-0.3,1C191.1,66.2,191.1,66.5,191.1,66.6z"/>
	<path class="st1" d="M200.1,70.3c0.1,0,0.3,0.1,0.4,0.1c0.1,0,0.2,0.1,0.4,0.1c0.1,0,0.3,0,0.5,0c0.2,0,0.5,0,0.8,0
		c0.3,0,0.8,0,1.3-0.1c0.5,0,1.1-0.1,1.9-0.1c0,0,0,0.1,0,0.2c0,0.1,0,0.2,0,0.3c0,0.1,0,0.2-0.1,0.3c0,0.1-0.1,0.1-0.2,0.2
		c-1,0-1.9,0.1-2.6,0.1c-0.7,0-1.3,0-1.8,0c-0.5,0-0.8-0.1-1.1-0.1c-0.3-0.1-0.5-0.2-0.6-0.3c-0.1-0.1-0.2-0.3-0.3-0.5
		c-0.1-0.2-0.1-0.4-0.1-0.7l0.2-8.5c0-0.2,0.1-0.3,0.2-0.4c0.1-0.1,0.2-0.1,0.3-0.1c0.1,0,0.2,0.1,0.3,0.2c0.1,0.1,0.1,0.3,0.1,0.5
		c0,0.3-0.1,0.8-0.1,1.3c-0.1,0.6-0.1,1.2-0.1,1.8c0,0.7,0,1.3-0.1,2c0,0.7,0,1.3,0.1,1.8c0,0.6,0.1,1,0.2,1.4
		C199.8,70,199.9,70.2,200.1,70.3z"/>
	<path class="st1" d="M212.4,71.1c-0.1-0.2-0.2-0.4-0.2-0.8c0-0.3-0.1-0.8-0.1-1.2c0-0.5,0-1,0-1.5c0-0.5,0-1.1,0.1-1.7
		c0-0.6,0.1-1.1,0.1-1.6c0-0.5,0.1-1,0.1-1.5c0-0.4,0.1-0.8,0.1-1.1c0-0.3,0-0.5,0-0.7c0.2-0.1,0.3-0.1,0.4-0.1c0.1,0,0.2,0,0.3,0
		c0.1,0,0.1,0.1,0.1,0.1c0,0.1,0.1,0.1,0.1,0.2c0,0.1-0.1,0.4-0.1,0.7c0,0.4-0.1,0.8-0.1,1.3c0,0.5-0.1,1.1-0.1,1.7
		c0,0.6-0.1,1.2-0.1,1.9c0,0.6-0.1,1.2-0.1,1.8c0,0.6,0,1-0.1,1.4c0,0.4,0,0.7,0,0.9c0,0.2,0,0.2,0,0.1c-0.1,0.1-0.1,0.1-0.2,0.1
		c-0.1,0-0.1,0-0.1,0C212.5,71.2,212.4,71.1,212.4,71.1C212.4,71.1,212.4,71.1,212.4,71.1z"/>
	<path class="st1" d="M220.2,71.1c-0.1,0.2-0.2,0.3-0.2,0.3c-0.1,0-0.2,0-0.3,0c-0.1-0.1-0.2-0.1-0.2-0.2c-0.1-0.1-0.1-0.2-0.2-0.3
		l-0.2-5.4c-0.2,0.1-0.4,0.1-0.6,0.2c-0.2,0.1-0.4,0.1-0.6,0.1c-0.2,0-0.4,0-0.6,0c-0.2,0-0.4,0-0.5-0.1c-0.3-0.1-0.6-0.2-0.8-0.4
		c-0.2-0.2-0.3-0.5-0.3-0.8c0-0.3,0-0.6,0.1-0.9c0.1-0.3,0.2-0.7,0.4-1c0.2-0.3,0.4-0.6,0.6-0.9c0.2-0.3,0.5-0.5,0.8-0.6
		c0.3-0.1,0.6-0.2,0.9-0.2c0.3,0,0.6,0.1,0.9,0.3c0.2,0.1,0.4,0.2,0.5,0.4c0.1,0.2,0.2,0.4,0.2,0.7c0,0.3,0.1,0.5,0.1,0.8
		c0,0.3,0,0.6,0,0.9c0,0.3,0,0.5-0.1,0.8c0,0.2,0,0.4,0,0.6c0,0.1,0,0.4,0,0.7c0,0.3,0,0.6,0,1c0,0.4,0,0.8,0,1.2c0,0.4,0,0.8,0,1.2
		c0,0.4,0,0.7,0,1C220.2,70.8,220.2,71,220.2,71.1z M219.2,62c-0.2-0.2-0.4-0.3-0.6-0.4c-0.2,0-0.4,0-0.6,0.1
		c-0.2,0.1-0.4,0.2-0.6,0.4c-0.2,0.2-0.4,0.4-0.5,0.7c-0.1,0.2-0.2,0.5-0.3,0.8c-0.1,0.3,0,0.6,0,0.9c0.4,0.3,0.8,0.4,1.1,0.4
		c0.3-0.1,0.6-0.2,0.9-0.5c0.2-0.3,0.4-0.6,0.5-1.1C219.3,62.9,219.3,62.4,219.2,62z"/>
	<path class="st1" d="M225.2,71c-0.3-0.1-0.5-0.3-0.6-0.6c-0.1-0.2-0.2-0.5-0.2-0.8c0-0.3,0-0.6,0.1-0.9c0.1-0.3,0.1-0.6,0.2-1
		c0.1-0.3,0.2-0.7,0.2-1c0.1-0.3,0.1-0.6,0.1-0.9c-0.1,0-0.3-0.2-0.5-0.4c-0.2-0.2-0.4-0.4-0.7-0.7c-0.2-0.3-0.4-0.6-0.6-0.9
		c-0.2-0.3-0.3-0.6-0.4-0.9c-0.1-0.3-0.1-0.6,0-0.9c0.1-0.2,0.2-0.5,0.4-0.6c0.2-0.2,0.4-0.3,0.6-0.4c0.2-0.1,0.5-0.2,0.7-0.2
		c0.3-0.1,0.5-0.1,0.7-0.1c0.2,0,0.5,0,0.6,0.1c0.3,0.1,0.6,0.2,0.7,0.3c0.2,0.1,0.3,0.2,0.4,0.3c0.1,0.1,0.3,0.1,0.4,0.1
		c0.2,0,0.4-0.1,0.7-0.2c0.1,0,0.1,0,0.2,0c0.1,0,0.1,0.1,0.2,0.1c0.1,0.1,0.1,0.1,0.1,0.2c0,0.1,0,0.1,0,0.2l-2.4,3.8
		c0.4,0.3,0.7,0.7,1,1.2c0.3,0.4,0.5,0.9,0.7,1.3c0.2,0.4,0.2,0.8,0.2,1.2c0,0.4-0.1,0.7-0.3,1c-0.2,0.3-0.5,0.5-1,0.6
		C226.4,71.1,225.9,71.1,225.2,71z M224.7,64.5c0,0,0.1,0.1,0.2,0.2c0.1,0.1,0.2,0.1,0.3,0.2c0.1,0.1,0.2,0.1,0.3,0.2
		c0.1,0.1,0.1,0.1,0.1,0.1l1.4-1.9c0.2-0.2,0.2-0.4,0.2-0.6c-0.1-0.2-0.2-0.4-0.5-0.5c-0.2-0.1-0.5-0.2-0.8-0.3
		c-0.3-0.1-0.6-0.1-0.9-0.1c-0.3,0-0.6,0.1-0.8,0.2c-0.2,0.1-0.4,0.3-0.5,0.5c-0.1,0.2,0,0.5,0.1,0.9
		C223.9,63.6,224.2,64,224.7,64.5z M225.8,66.8c-0.3,0.7-0.5,1.3-0.6,1.7c-0.1,0.5-0.1,0.8,0,1.1c0.1,0.3,0.2,0.5,0.4,0.6
		c0.2,0.1,0.4,0.2,0.6,0.2c0.2,0,0.4,0,0.6-0.1c0.2-0.1,0.4-0.2,0.5-0.3c0.1-0.2,0.1-0.4,0.1-0.7c0-0.2-0.1-0.5-0.1-0.7
		c-0.1-0.2-0.2-0.5-0.3-0.7c-0.1-0.2-0.3-0.4-0.4-0.6c-0.1-0.2-0.3-0.3-0.4-0.4C225.9,66.8,225.8,66.8,225.8,66.8z"/>
	<path class="st1" d="M236.2,68.9c-0.3,0.6-0.6,1.1-0.9,1.4c-0.3,0.3-0.7,0.6-1,0.7c-0.4,0.1-0.7,0.1-1.1,0c-0.4-0.1-0.7-0.2-1-0.5
		c-0.3-0.2-0.6-0.6-0.9-1c-0.3-0.4-0.5-0.8-0.7-1.3c-0.2-0.5-0.3-1-0.4-1.6c-0.1-0.6-0.1-1.2,0-1.8c0.1-1,0.3-1.9,0.7-2.5
		c0.3-0.6,0.7-1,1.1-1.2c0.4-0.2,0.8-0.3,1.3-0.2c0.5,0.1,0.9,0.3,1.3,0.6c0.4,0.3,0.8,0.8,1.2,1.3c0.3,0.5,0.6,1.1,0.8,1.8
		c0.2,0.6,0.2,1.3,0.2,2.1C236.7,67.4,236.5,68.2,236.2,68.9z M231.2,64.2c-0.1,0.6-0.1,1.1-0.1,1.7c0,0.6,0.1,1.1,0.2,1.6
		c0.1,0.5,0.3,1,0.5,1.4c0.2,0.4,0.4,0.7,0.7,1c0.3,0.2,0.6,0.4,0.9,0.4c0.3,0,0.7-0.1,1.1-0.4c0.6-0.6,1-1.3,1.3-1.9
		c0.3-0.7,0.4-1.3,0.4-1.9c0-0.6-0.1-1.2-0.3-1.7c-0.2-0.5-0.5-1-0.8-1.4c-0.3-0.4-0.7-0.7-1.1-0.9c-0.4-0.2-0.8-0.3-1.1-0.2
		c-0.4,0.1-0.7,0.3-1,0.6C231.5,62.9,231.3,63.5,231.2,64.2z"/>
</g>
<g>
	<path class="st0" d="M18,67.6l-3.6,0.2c0,0,0,0.1-0.1,0.2c-0.1,0.2-0.1,0.3-0.2,0.6c-0.1,0.2-0.1,0.4-0.2,0.7
		c-0.1,0.2-0.1,0.4-0.2,0.6c0,0,0,0.1,0,0.2c0,0.1,0,0.2-0.1,0.3c0,0.1,0,0.2-0.1,0.3c0,0.1,0,0.2,0,0.2c-0.1,0.2-0.1,0.3-0.2,0.4
		c-0.1,0.1-0.2,0.1-0.5,0c-0.1,0.1-0.2-0.1-0.1-0.6c0-0.4,0.2-1.1,0.4-2c0.2-0.9,0.5-2,0.9-3.3c0.4-1.3,0.9-2.8,1.5-4.5
		c0-0.1,0.1-0.1,0.2-0.2c0.1,0,0.2-0.1,0.3-0.1c0.1,0,0.2,0,0.3,0.1c0.1,0,0.1,0.1,0.2,0.2c0.1,0.4,0.2,0.8,0.4,1.3
		c0.1,0.5,0.3,1,0.5,1.5c0.2,0.5,0.4,1.1,0.6,1.6c0.2,0.5,0.5,0.9,0.8,1.3c0.2,0.1,0.3,0.1,0.4,0.2c0.1,0.1,0.1,0.1,0.1,0.2
		c0,0.1,0,0.1,0,0.2c0,0.1-0.1,0.1-0.1,0.2c0,0.1,0,0.1-0.1,0.2c0,0.1,0,0.2,0.1,0.3l1.1,2.6c0,0.2,0.1,0.4,0.1,0.5
		c0,0.1,0,0.2-0.1,0.3c0,0.1-0.1,0.2-0.2,0.2l-0.4-0.4L18,67.6z M14.8,66.6C14.7,66.6,14.7,66.6,14.8,66.6c0.1,0.1,0.3,0.1,0.6,0.2
		c0.2,0,0.5,0,0.9,0c0.3,0,0.7-0.1,1-0.2c0-0.2,0-0.3,0-0.5c0-0.2-0.1-0.4-0.2-0.6c-0.1-0.2-0.2-0.5-0.3-0.7
		c-0.1-0.2-0.2-0.5-0.3-0.7c-0.1-0.2-0.2-0.4-0.3-0.6c-0.1-0.2-0.2-0.4-0.2-0.5c-0.1,0.3-0.2,0.6-0.4,0.9c-0.1,0.4-0.3,0.7-0.4,1.1
		c-0.1,0.4-0.2,0.7-0.3,1C14.8,66.2,14.8,66.5,14.8,66.6z"/>
	<path class="st0" d="M22.1,71.1c0,0-0.1-0.1-0.1-0.1c0-0.1-0.1-0.1-0.1-0.2c0-0.1,0-0.1-0.1-0.2c0,0,0-0.1,0-0.1l4-6.3
		c0,0,0.1-0.1,0.1-0.2c0.1-0.1,0.1-0.2,0.2-0.4c0.1-0.1,0.2-0.3,0.2-0.5c0.1-0.2,0.2-0.3,0.2-0.5c0.1-0.2,0.1-0.3,0.1-0.5
		c0-0.2,0-0.3,0-0.4c-0.1-0.1-0.3-0.1-0.5-0.1c-0.2,0-0.4,0.1-0.6,0.1c-0.2,0.1-0.4,0.1-0.7,0.2c-0.2,0.1-0.4,0.2-0.7,0.2
		c-0.2,0.1-0.4,0.1-0.6,0.2c-0.2,0-0.4,0.1-0.5,0c-0.2,0-0.3-0.1-0.4-0.2c-0.1-0.1-0.1-0.3-0.2-0.5c0,0,0.1,0,0.2-0.1
		c0.1,0,0.3-0.1,0.6-0.2c0.2-0.1,0.5-0.1,0.8-0.2c0.3-0.1,0.6-0.1,0.9-0.2c0.3-0.1,0.6-0.1,0.9-0.2c0.3-0.1,0.5-0.1,0.7-0.2
		c0.4-0.1,0.7-0.1,0.9,0c0.2,0.1,0.3,0.3,0.3,0.5c0,0.2,0,0.6-0.1,0.9c-0.1,0.4-0.3,0.8-0.5,1.2c-0.2,0.4-0.5,0.9-0.8,1.4
		c-0.3,0.5-0.6,1-0.9,1.4c-0.3,0.5-0.6,0.9-0.9,1.4c-0.3,0.4-0.5,0.8-0.8,1.2c-0.2,0.4-0.4,0.6-0.5,0.9c-0.1,0.2-0.2,0.4-0.2,0.5
		c0.2,0,0.6,0,1,0c0.4-0.1,0.9-0.1,1.3-0.2c0.5-0.1,1-0.2,1.5-0.2c0.5-0.1,1-0.1,1.4-0.2c0.4,0,0.8,0,1,0c0.3,0.1,0.4,0.2,0.5,0.4
		c0,0.1,0,0.2,0,0.4c0,0.1,0,0.2,0,0.2L23,71.4c-0.2,0-0.3,0-0.5,0C22.4,71.3,22.2,71.3,22.1,71.1z"/>
	<path class="st0" d="M31.9,61c0-0.2,0-0.3,0.1-0.4c0.1-0.1,0.2-0.1,0.3-0.1c0.1,0,0.2,0.1,0.3,0.1c0.1,0.1,0.1,0.2,0.1,0.3l0,10.3
		c0,0.1-0.1,0.1-0.1,0.2c-0.1,0-0.1,0.1-0.2,0c-0.1,0-0.1,0-0.2-0.1c-0.1-0.1-0.1-0.2-0.2-0.3L31.9,61z"/>
	<path class="st0" d="M36.2,62.6c-0.1-0.2-0.1-0.3-0.2-0.4c0-0.1-0.1-0.2-0.1-0.3c0-0.1,0-0.2,0.1-0.3c0.1-0.1,0.2-0.2,0.3-0.3
		c0.1,0,0.2,0,0.4-0.1c0.2,0,0.4-0.1,0.7-0.1c0.3,0,0.5-0.1,0.8-0.1c0.3,0,0.5-0.1,0.8-0.1c0.3,0,0.5-0.1,0.7-0.1c0.2,0,0.3,0,0.4,0
		c0.1,0,0.2,0,0.5-0.1c0.2,0,0.5,0,0.7,0c0.3,0,0.5,0.1,0.8,0.1c0.2,0.1,0.4,0.2,0.5,0.4c0,0.1,0,0.2,0,0.3
		c-0.1,0.1-0.1,0.1-0.2,0.2c-0.1,0-0.2,0-0.4,0c-0.2,0-0.4,0-0.6,0c-0.2,0-0.4,0-0.6,0c-0.2,0-0.3,0-0.4,0c-0.1,0-0.3,0-0.6,0
		c-0.3,0-0.5,0-0.8,0.1c-0.3,0-0.6,0.1-0.9,0.1c-0.3,0.1-0.5,0.1-0.7,0.2c0,0-0.1,0-0.1,0.1c-0.1,0.1-0.1,0.1-0.1,0.1v2.7h4v0.4
		l-4,0.7l-0.2,0.2c0,0,0,0.1,0,0.2c0,0.1,0,0.3,0,0.5c0,0.2,0,0.4,0,0.6c0,0.2,0,0.5,0,0.7c0,0.2,0,0.4,0,0.6c0,0.2,0,0.4,0,0.5
		c0,0.3,0.1,0.5,0.4,0.6c0.2,0.1,0.5,0.2,0.9,0.3c0.4,0,0.8,0.1,1.2,0c0.4,0,0.9,0,1.3-0.1c0.4,0,0.8-0.1,1.1-0.1
		c0.3,0,0.6-0.1,0.8,0c0.2,0.1,0.2,0.2,0.2,0.3c0,0.1-0.1,0.3-0.2,0.3c-0.1,0-0.2,0-0.4,0.1c-0.2,0-0.4,0-0.6,0.1
		c-0.2,0-0.5,0.1-0.7,0.1c-0.3,0-0.5,0.1-0.7,0.1c-0.2,0-0.4,0.1-0.6,0.1c-0.2,0-0.3,0-0.4,0c-0.2,0-0.4,0-0.7,0
		c-0.3,0-0.6,0-0.8-0.1c-0.3,0-0.6-0.1-0.8-0.1c-0.3-0.1-0.5-0.1-0.6-0.2L36.2,62.6z"/>
	<path class="st0" d="M46.5,63c0,0,0,0.2,0,0.5c0,0.3,0,0.7,0.1,1.2c0,0.5,0.1,1,0.1,1.5c0,0.6,0,1.1,0,1.7c0,0.6,0,1.1,0,1.6
		c0,0.5-0.1,0.9-0.2,1.3c-0.1,0.3-0.2,0.6-0.3,0.7c-0.1,0.1-0.3,0.1-0.6-0.1c0-0.1,0-0.4,0-0.7c0-0.3,0-0.7,0-1.1c0-0.4,0-0.9,0-1.4
		c0-0.5,0-1,0-1.5c0-0.5,0-1,0-1.5c0-0.5,0-0.9,0-1.3c0-0.4,0-0.7,0-0.9c0-0.2,0-0.4,0-0.5c0-0.6,0.1-1,0.2-1.3
		c0.1-0.3,0.2-0.4,0.3-0.4c0.1,0,0.3,0.1,0.5,0.2c0.2,0.2,0.3,0.4,0.5,0.6c0.2,0.2,0.3,0.5,0.5,0.8c0.2,0.3,0.3,0.5,0.5,0.7
		c0.2,0.2,0.4,0.4,0.6,0.8c0.3,0.4,0.5,0.7,0.8,1.2c0.3,0.4,0.6,0.8,0.9,1.3c0.3,0.4,0.6,0.8,0.9,1.2c0.3,0.4,0.5,0.7,0.7,0.9
		c0.2,0.2,0.3,0.3,0.4,0.3l-0.1-8c0-0.1,0-0.1,0.1-0.2c0.1,0,0.2-0.1,0.3-0.1c0.1,0,0.2,0,0.3,0c0.1,0,0.2,0,0.2,0
		c0,0.1,0,0.3,0,0.7c0,0.4,0,0.8,0,1.2c0,0.5,0,1,0.1,1.5c0,0.5,0,1,0,1.5c0,0.5,0,0.9,0,1.2c0,0.4,0,0.6,0,0.7c0,0.3,0,0.5,0,0.8
		c0,0.3,0,0.6,0,0.9c0,0.3,0,0.6-0.1,0.9c0,0.3-0.1,0.6-0.2,0.9c0,0-0.1,0.1-0.1,0.1c-0.1,0.1-0.1,0.1-0.1,0.1L46.5,63z"/>
	<path class="st0" d="M56.8,71C56.8,71,56.7,71,56.8,71c-0.1-0.1-0.2-0.2-0.2-0.2c0-0.1-0.1-0.1-0.1-0.1c0,0,0-0.1,0-0.1v-7.9
		c0,0-0.1-0.1-0.2-0.1c-0.1-0.1-0.2-0.1-0.2-0.2c-0.1-0.1-0.2-0.1-0.2-0.2c-0.1-0.1-0.1-0.1-0.1-0.2c-0.1-0.2-0.1-0.4,0.1-0.6
		c0.2-0.2,0.4-0.3,0.7-0.5c0.3-0.1,0.7-0.2,1.2-0.3c0.5-0.1,0.9-0.1,1.4,0c0.5,0.1,1,0.2,1.5,0.4c0.5,0.2,1,0.5,1.4,0.9
		c0.4,0.4,0.8,0.9,1.1,1.5c0.3,0.6,0.5,1.3,0.7,2.2c0.1,0.6,0.1,1.2-0.1,1.8c-0.2,0.6-0.4,1.1-0.7,1.6c-0.3,0.5-0.7,0.9-1.2,1.3
		c-0.5,0.4-1,0.6-1.5,0.8c-0.5,0.2-1.1,0.3-1.7,0.3C57.9,71.4,57.3,71.3,56.8,71z M57.5,69.9c0.1,0.2,0.2,0.4,0.5,0.5
		c0.3,0.1,0.6,0.1,0.9,0.1c0.4,0,0.7-0.1,1.2-0.3c0.4-0.2,0.8-0.4,1.2-0.7c0.4-0.3,0.7-0.6,1-1.1c0.3-0.4,0.5-0.9,0.6-1.4
		c0.1-0.5,0.1-1.1-0.1-1.8c-0.1-0.7-0.5-1.4-0.9-2.2c-0.1-0.2-0.4-0.5-0.6-0.7c-0.3-0.2-0.6-0.4-0.9-0.5c-0.3-0.1-0.6-0.2-1-0.3
		c-0.3,0-0.6,0-0.9,0.1s-0.5,0.3-0.7,0.6c-0.2,0.3-0.3,0.6-0.3,1.1c0,0.2,0,0.4,0,0.8c0,0.4,0,0.7,0,1.2c0,0.4,0,0.9,0,1.4
		c0,0.5,0,1,0,1.4c0,0.4,0,0.8,0,1.2C57.5,69.4,57.5,69.7,57.5,69.9z"/>
	<path class="st0" d="M70.7,67.6l-3.6,0.2c0,0,0,0.1-0.1,0.2c-0.1,0.2-0.1,0.3-0.2,0.6c-0.1,0.2-0.1,0.4-0.2,0.7
		c-0.1,0.2-0.1,0.4-0.2,0.6c0,0,0,0.1,0,0.2c0,0.1,0,0.2-0.1,0.3c0,0.1,0,0.2-0.1,0.3c0,0.1,0,0.2,0,0.2c-0.1,0.2-0.1,0.3-0.2,0.4
		c-0.1,0.1-0.2,0.1-0.5,0c-0.1,0.1-0.2-0.1-0.1-0.6c0-0.4,0.2-1.1,0.4-2c0.2-0.9,0.5-2,0.9-3.3c0.4-1.3,0.9-2.8,1.5-4.5
		c0-0.1,0.1-0.1,0.2-0.2c0.1,0,0.2-0.1,0.3-0.1c0.1,0,0.2,0,0.3,0.1c0.1,0,0.1,0.1,0.2,0.2c0.1,0.4,0.2,0.8,0.4,1.3
		c0.1,0.5,0.3,1,0.5,1.5c0.2,0.5,0.4,1.1,0.6,1.6c0.2,0.5,0.5,0.9,0.8,1.3c0.2,0.1,0.3,0.1,0.4,0.2c0.1,0.1,0.1,0.1,0.1,0.2
		c0,0.1,0,0.1,0,0.2c0,0.1-0.1,0.1-0.1,0.2c0,0.1,0,0.1-0.1,0.2c0,0.1,0,0.2,0.1,0.3l1.1,2.6c0,0.2,0.1,0.4,0.1,0.5
		c0,0.1,0,0.2-0.1,0.3c0,0.1-0.1,0.2-0.2,0.2l-0.4-0.4L70.7,67.6z M67.6,66.6C67.5,66.6,67.5,66.6,67.6,66.6
		c0.1,0.1,0.3,0.1,0.6,0.2c0.2,0,0.5,0,0.9,0c0.3,0,0.7-0.1,1-0.2c0-0.2,0-0.3,0-0.5c0-0.2-0.1-0.4-0.2-0.6
		c-0.1-0.2-0.2-0.5-0.3-0.7c-0.1-0.2-0.2-0.5-0.3-0.7c-0.1-0.2-0.2-0.4-0.3-0.6c-0.1-0.2-0.2-0.4-0.2-0.5c-0.1,0.3-0.2,0.6-0.4,0.9
		c-0.1,0.4-0.3,0.7-0.4,1.1c-0.1,0.4-0.2,0.7-0.3,1C67.6,66.2,67.5,66.5,67.6,66.6z"/>
	<path class="st0" d="M83,71.2c-0.1,0-0.1-0.1-0.3-0.1c-0.1,0-0.3-0.1-0.4-0.2c-0.2-0.1-0.3-0.2-0.5-0.3c-0.2-0.1-0.3-0.2-0.4-0.3
		c-0.1-0.1-0.2-0.2-0.2-0.4c0-0.1,0-0.3,0.1-0.4c0,0,0,0,0.1-0.1c0,0,0.1-0.1,0.1-0.1c0,0,0.1,0,0.1-0.1c0,0,0.1,0,0.1,0
		c0-0.1,0-0.4,0-0.7c0-0.3,0-0.6,0-1c0-0.4,0-0.8,0-1.2c0-0.4,0-0.8,0-1.2c0-0.4,0-0.7,0-1c0-0.3,0-0.5,0-0.7c0-0.1,0-0.3-0.1-0.4
		c-0.1-0.1-0.2-0.3-0.3-0.4c-0.1-0.1-0.2-0.3-0.2-0.4c-0.1-0.1-0.1-0.2,0-0.3c0.2-0.2,0.4-0.4,0.7-0.5c0.3-0.1,0.6-0.3,0.9-0.4
		c0.3-0.1,0.6-0.2,0.9-0.2c0.3-0.1,0.6-0.1,0.8-0.1c0.5-0.1,0.8,0,1.1,0.1c0.2,0.1,0.4,0.2,0.4,0.4c0.1,0.2,0.1,0.4,0,0.7
		c-0.1,0.3-0.1,0.5-0.2,0.8c-0.1,0.3-0.1,0.5-0.2,0.8c-0.1,0.2-0.1,0.5,0,0.6c0.8,0,1.5,0.2,2,0.5c0.5,0.3,0.8,0.6,1,1
		c0.2,0.4,0.3,0.9,0.2,1.4c0,0.5-0.2,1-0.4,1.5c-0.2,0.5-0.5,0.9-0.9,1.4c-0.4,0.4-0.8,0.8-1.3,1.1c-0.5,0.3-1,0.4-1.6,0.5
		C84.1,71.5,83.6,71.4,83,71.2z M82.6,70.1c0,0,0.1,0.1,0.2,0.1c0.1,0,0.2,0.1,0.3,0.1c0.1,0,0.2,0.1,0.3,0.1c0.1,0,0.2,0.1,0.2,0.1
		c0.5,0.1,1.1,0.1,1.5-0.1c0.5-0.1,0.9-0.4,1.3-0.6c0.4-0.3,0.7-0.6,1-1c0.3-0.4,0.5-0.8,0.6-1.2c0.1-0.4,0.2-0.8,0.1-1.1
		c0-0.4-0.1-0.7-0.4-0.9c-0.2-0.2-0.5-0.4-0.9-0.5c-0.4-0.1-0.9-0.1-1.5,0.1c-0.1,0-0.3,0.1-0.6,0.1c-0.2,0.1-0.5,0.1-0.7,0.2
		c-0.2,0.1-0.5,0.2-0.7,0.3c-0.2,0.1-0.4,0.3-0.5,0.4c0,0.6-0.1,1.2-0.1,1.8C82.7,68.7,82.6,69.4,82.6,70.1z M83,65
		c0.3-0.2,0.5-0.4,0.8-0.6c0.2-0.2,0.4-0.4,0.6-0.6c0.2-0.2,0.3-0.4,0.5-0.7c0.1-0.2,0.3-0.5,0.4-0.8c0.1-0.2,0.1-0.4,0-0.5
		c-0.1-0.1-0.2-0.2-0.4-0.2c-0.2,0-0.4,0-0.6,0c-0.2,0-0.5,0.1-0.7,0.2c-0.2,0.1-0.4,0.2-0.5,0.3c-0.1,0.1-0.2,0.2-0.2,0.4L83,65z"
		/>
	<path class="st0" d="M91,61c0-0.2,0-0.3,0.1-0.4c0.1-0.1,0.2-0.1,0.3-0.1c0.1,0,0.2,0.1,0.3,0.1c0.1,0.1,0.1,0.2,0.1,0.3l0,10.3
		c0,0.1-0.1,0.1-0.1,0.2c-0.1,0-0.1,0.1-0.2,0c-0.1,0-0.1,0-0.2-0.1c-0.1-0.1-0.1-0.2-0.2-0.3L91,61z"/>
	<path class="st0" d="M95.9,70c-0.5-0.5-0.9-1-1.1-1.6c-0.2-0.6-0.4-1.3-0.4-1.9c0-0.7,0.1-1.3,0.2-2c0.2-0.7,0.4-1.3,0.7-1.8
		c0.3-0.5,0.7-1,1.1-1.3c0.4-0.4,0.8-0.6,1.3-0.6c0.4,0.1,0.8,0.2,1.2,0.4c0.3,0.2,0.6,0.4,0.9,0.7c0.2,0.3,0.4,0.5,0.6,0.8
		c0.2,0.3,0.3,0.6,0.4,0.9c0.1,0.3,0.2,0.5,0.3,0.8c0.1,0.2,0.1,0.4,0.2,0.5c0.2,0.8,0.3,1.6,0.2,2.3c-0.1,0.7-0.2,1.3-0.5,1.8
		c-0.3,0.5-0.6,0.9-1,1.3c-0.4,0.3-0.8,0.5-1.3,0.7c-0.5,0.1-0.9,0.1-1.4,0C96.8,70.7,96.3,70.4,95.9,70z M96.3,69.1
		c0.1,0.1,0.3,0.3,0.5,0.4c0.2,0.1,0.4,0.2,0.6,0.3c0.2,0.1,0.4,0.1,0.6,0.2c0.2,0,0.4,0,0.6,0c0.4-0.1,0.7-0.3,1-0.5
		c0.3-0.3,0.5-0.6,0.7-1c0.2-0.4,0.3-0.8,0.3-1.4c0.1-0.5,0.1-1.1,0-1.6c-0.4-1.2-0.9-2.1-1.4-2.7c-0.5-0.6-1-0.9-1.4-0.9
		c-0.3,0-0.7,0.1-1,0.4c-0.3,0.3-0.5,0.6-0.8,1c-0.2,0.4-0.4,0.9-0.5,1.4c-0.1,0.5-0.2,1.1-0.2,1.6c0,0.5,0.1,1,0.2,1.5
		C95.7,68.3,96,68.8,96.3,69.1z"/>
	<path class="st0" d="M108.8,67.6l-3.6,0.2c0,0,0,0.1-0.1,0.2c-0.1,0.2-0.1,0.3-0.2,0.6c-0.1,0.2-0.1,0.4-0.2,0.7
		c-0.1,0.2-0.1,0.4-0.2,0.6c0,0,0,0.1,0,0.2c0,0.1,0,0.2-0.1,0.3c0,0.1,0,0.2-0.1,0.3c0,0.1,0,0.2,0,0.2c-0.1,0.2-0.1,0.3-0.2,0.4
		c-0.1,0.1-0.2,0.1-0.5,0c-0.1,0.1-0.2-0.1-0.1-0.6c0-0.4,0.2-1.1,0.4-2c0.2-0.9,0.5-2,0.9-3.3c0.4-1.3,0.9-2.8,1.5-4.5
		c0-0.1,0.1-0.1,0.2-0.2c0.1,0,0.2-0.1,0.3-0.1c0.1,0,0.2,0,0.3,0.1c0.1,0,0.1,0.1,0.2,0.2c0.1,0.4,0.2,0.8,0.4,1.3
		c0.1,0.5,0.3,1,0.5,1.5c0.2,0.5,0.4,1.1,0.6,1.6c0.2,0.5,0.5,0.9,0.8,1.3c0.2,0.1,0.3,0.1,0.4,0.2c0.1,0.1,0.1,0.1,0.1,0.2
		c0,0.1,0,0.1,0,0.2c0,0.1-0.1,0.1-0.1,0.2c0,0.1,0,0.1-0.1,0.2c0,0.1,0,0.2,0.1,0.3l1.1,2.6c0,0.2,0.1,0.4,0.1,0.5
		c0,0.1,0,0.2-0.1,0.3c0,0.1-0.1,0.2-0.2,0.2l-0.4-0.4L108.8,67.6z M105.6,66.6C105.5,66.6,105.5,66.6,105.6,66.6
		c0.1,0.1,0.3,0.1,0.6,0.2c0.2,0,0.5,0,0.9,0c0.3,0,0.7-0.1,1-0.2c0-0.2,0-0.3,0-0.5c0-0.2-0.1-0.4-0.2-0.6
		c-0.1-0.2-0.2-0.5-0.3-0.7c-0.1-0.2-0.2-0.5-0.3-0.7c-0.1-0.2-0.2-0.4-0.3-0.6c-0.1-0.2-0.2-0.4-0.2-0.5c-0.1,0.3-0.2,0.6-0.4,0.9
		c-0.1,0.4-0.3,0.7-0.4,1.1c-0.1,0.4-0.2,0.7-0.3,1C105.6,66.2,105.6,66.5,105.6,66.6z"/>
	<path class="st0" d="M114.4,70.9c-0.2-0.1-0.5-0.2-0.6-0.4c-0.2-0.2-0.3-0.4-0.5-0.7c-0.1-0.2-0.2-0.5-0.3-0.8
		c-0.1-0.3-0.1-0.5-0.1-0.8c0-0.3,0-0.6,0-1c0-0.4,0-0.8,0-1.2c0-0.4,0.1-0.9,0.2-1.4c0.1-0.5,0.2-0.9,0.3-1.4
		c0.1-0.4,0.3-0.8,0.5-1.2c0.2-0.4,0.4-0.7,0.7-0.9c0.3-0.2,0.5-0.4,0.9-0.5c0.3-0.1,0.7-0.1,1.1,0c0,0,0.1,0,0.2,0.1
		c0.1,0,0.3,0.1,0.4,0.2c0.2,0.1,0.3,0.2,0.5,0.3c0.2,0.1,0.3,0.2,0.4,0.3c0.1,0.1,0.2,0.2,0.3,0.4c0.1,0.1,0,0.3,0,0.4
		c-0.2,0.1-0.3,0.1-0.5,0c-0.2,0-0.3-0.1-0.5-0.2c-0.2-0.1-0.3-0.2-0.5-0.3c-0.2-0.1-0.3-0.2-0.5-0.3c-0.2-0.1-0.3-0.1-0.5-0.1
		c-0.2,0-0.4,0.1-0.6,0.2c-0.1,0.1-0.2,0.2-0.3,0.4c-0.1,0.2-0.2,0.4-0.3,0.5c-0.1,0.2-0.2,0.3-0.2,0.5c-0.1,0.1-0.1,0.2-0.1,0.2
		c-0.4,1.1-0.6,2.1-0.7,2.9c-0.1,0.8-0.1,1.5-0.1,2c0.1,0.5,0.2,1,0.5,1.3c0.2,0.3,0.5,0.5,0.8,0.6c0.3,0.1,0.7,0.1,1.1,0
		c0.4-0.1,0.8-0.2,1.2-0.4c0.4-0.2,0.7-0.4,1.1-0.7c0.3-0.3,0.6-0.6,0.9-0.9c0.3-0.3,0.4-0.6,0.6-1c0.1-0.3,0.2-0.6,0.1-0.9
		c0,0-0.1,0-0.2,0c-0.1,0-0.2,0-0.2,0c-0.1,0-0.2,0-0.4,0.1c-0.2,0-0.5,0.1-0.7,0.2c-0.3,0.1-0.5,0.1-0.7,0.2
		c-0.2,0-0.4,0.1-0.4,0.1c-0.1,0-0.3,0-0.4-0.1c-0.1-0.1-0.2-0.1-0.3-0.3c-0.1-0.1-0.1-0.2-0.1-0.3c0-0.1,0.1-0.2,0.2-0.3
		c0,0,0.1,0,0.1-0.1c0.1,0,0.1-0.1,0.2-0.1c0.1,0,0.1,0,0.2-0.1c0.1,0,0.1,0,0.1,0c0.5-0.1,0.9-0.3,1.3-0.4c0.4-0.1,0.8-0.1,1.2-0.1
		c0.3,0,0.6,0.2,0.7,0.4c0.2,0.2,0.2,0.6,0.1,1.2c-0.2,0.7-0.4,1.4-0.9,2c-0.4,0.6-0.9,1.1-1.5,1.4c-0.6,0.4-1.2,0.6-1.9,0.7
		C115.8,71.1,115.1,71.1,114.4,70.9z"/>
	<path class="st0" d="M123.4,71.1c-0.1-0.8-0.1-1.7-0.2-2.5c-0.1-0.8-0.1-1.7-0.2-2.5c-0.1-0.8-0.1-1.7-0.1-2.5c0-0.8,0-1.7,0-2.5
		c0.1,0,0.3,0,0.4,0c0.1,0,0.2,0.1,0.3,0.1c0.1,0,0.2,0.1,0.3,0.1c0.1,0,0.2,0,0.4,0c0.3-0.2,0.6-0.3,1-0.5c0.3-0.1,0.7-0.2,1-0.3
		c0.3-0.1,0.7-0.1,1-0.1c0.3,0,0.7,0.1,1,0.2c0.5,0.1,0.8,0.3,1,0.6c0.2,0.3,0.3,0.5,0.4,0.9c0,0.3-0.1,0.6-0.2,1
		c-0.2,0.3-0.4,0.7-0.7,0.9c-0.1,0.1-0.2,0.2-0.3,0.3c-0.1,0.1-0.3,0.3-0.4,0.4c-0.2,0.2-0.3,0.3-0.5,0.5c-0.2,0.2-0.4,0.3-0.5,0.5
		c-0.2,0.2-0.3,0.3-0.4,0.4c-0.1,0.1-0.2,0.2-0.3,0.3v0.2c0.2,0.1,0.5,0.3,0.7,0.4c0.3,0.1,0.5,0.3,0.8,0.5c0.3,0.2,0.5,0.3,0.7,0.5
		c0.2,0.2,0.5,0.4,0.7,0.5c0.1,0.1,0.3,0.2,0.4,0.4c0.2,0.2,0.4,0.3,0.5,0.5c0.2,0.2,0.4,0.3,0.5,0.5c0.2,0.2,0.3,0.3,0.5,0.5
		c0.1,0.1,0.3,0.3,0.3,0.3c0.1,0.1,0.1,0.1,0.1,0.1v0.4c-0.2,0.1-0.5,0-0.9-0.2c-0.3-0.2-0.7-0.5-1.1-0.8c-0.4-0.3-0.8-0.7-1.3-1.1
		c-0.4-0.4-0.9-0.8-1.4-1.1c-0.5-0.3-0.9-0.6-1.4-0.8c-0.5-0.2-0.9-0.2-1.4-0.2v4c0,0.1,0,0.2-0.1,0.2c-0.1,0-0.2,0.1-0.3,0.1
		c-0.1,0-0.2,0-0.3-0.1C123.4,71.2,123.4,71.2,123.4,71.1z M124,62.8c0,0.5,0,1.1,0,1.6c0,0.5,0.1,1.1,0.3,1.6c0.2,0,0.3,0,0.5,0
		c0.2,0,0.4-0.1,0.6-0.2c0.2-0.1,0.4-0.2,0.5-0.3c0.2-0.1,0.3-0.2,0.4-0.3c0.7-0.5,1.2-1,1.6-1.4c0.4-0.4,0.6-0.8,0.7-1.1
		c0.1-0.3,0.1-0.6,0-0.8c-0.1-0.2-0.3-0.4-0.6-0.4c-0.3-0.1-0.6-0.1-0.9-0.1c-0.4,0-0.7,0.1-1.1,0.2c-0.4,0.1-0.7,0.3-1.1,0.5
		C124.6,62.2,124.3,62.5,124,62.8z"/>
	<path class="st0" d="M133.6,61c0-0.2,0-0.3,0.1-0.4c0.1-0.1,0.2-0.1,0.3-0.1c0.1,0,0.2,0.1,0.3,0.1c0.1,0.1,0.1,0.2,0.1,0.3l0,10.3
		c0,0.1-0.1,0.1-0.1,0.2c-0.1,0-0.1,0.1-0.2,0c-0.1,0-0.1,0-0.2-0.1c-0.1-0.1-0.1-0.2-0.2-0.3L133.6,61z"/>
	<path class="st0" d="M138.6,71.1c-0.4-0.3-0.7-0.6-0.9-1c-0.2-0.3-0.4-0.7-0.5-1c-0.1-0.4-0.2-0.7-0.2-1.2c0-0.4,0-0.9,0-1.3
		c0-0.2,0-0.5,0.1-0.8c0.1-0.3,0.1-0.6,0.2-1c0.1-0.4,0.2-0.7,0.4-1.1c0.1-0.4,0.3-0.7,0.5-1.1c0.2-0.3,0.4-0.7,0.6-0.9
		c0.2-0.3,0.5-0.5,0.7-0.7c0.3-0.2,0.6-0.3,0.9-0.3c0.3,0,0.6,0,1,0.1c0.1,0.1,0.3,0.2,0.4,0.3c0.1,0.2,0.2,0.3,0.3,0.6
		c0.1,0.2,0.2,0.4,0.2,0.6c0,0.2,0.1,0.4,0,0.6c0,0.2-0.1,0.3-0.2,0.4c-0.1,0.1-0.3,0.1-0.5,0c0-0.5,0-0.9-0.1-1.2
		c-0.1-0.3-0.2-0.5-0.3-0.6c-0.1-0.1-0.3-0.1-0.5-0.1c-0.2,0.1-0.4,0.2-0.6,0.3c-0.2,0.2-0.4,0.4-0.6,0.6c-0.2,0.2-0.4,0.5-0.6,0.7
		c-0.2,0.3-0.3,0.5-0.4,0.8c-0.1,0.3-0.2,0.5-0.3,0.7c-0.1,0.3-0.2,0.7-0.3,1.1c-0.1,0.4-0.1,0.9-0.1,1.4c0,0.5,0,0.9,0,1.4
		c0.1,0.5,0.2,0.8,0.3,1.2c0.2,0.3,0.4,0.6,0.7,0.8c0.3,0.2,0.7,0.2,1.2,0.1c0.4-0.1,0.7-0.2,1-0.3c0.3-0.1,0.5-0.3,0.8-0.4
		c0.2-0.2,0.5-0.3,0.7-0.5c0.2-0.2,0.5-0.4,0.8-0.5c0.1-0.1,0.2-0.1,0.3-0.1c0.1,0,0.2,0.1,0.3,0.1c0.1,0.1,0.1,0.2,0.1,0.3
		c0,0.1,0,0.2,0,0.3c-0.1,0.2-0.3,0.4-0.5,0.6c-0.3,0.2-0.6,0.4-0.9,0.6c-0.4,0.2-0.7,0.4-1.1,0.5c-0.4,0.1-0.8,0.3-1.2,0.3
		c-0.4,0.1-0.7,0.1-1.1,0.1C139,71.3,138.8,71.2,138.6,71.1z"/>
	<path class="st0" d="M147.3,70c-0.5-0.5-0.9-1-1.1-1.6c-0.2-0.6-0.4-1.3-0.4-1.9c0-0.7,0.1-1.3,0.2-2c0.2-0.7,0.4-1.3,0.7-1.8
		c0.3-0.5,0.7-1,1.1-1.3c0.4-0.4,0.8-0.6,1.3-0.6c0.4,0.1,0.8,0.2,1.2,0.4c0.3,0.2,0.6,0.4,0.9,0.7c0.2,0.3,0.4,0.5,0.6,0.8
		c0.2,0.3,0.3,0.6,0.4,0.9c0.1,0.3,0.2,0.5,0.3,0.8c0.1,0.2,0.1,0.4,0.2,0.5c0.2,0.8,0.3,1.6,0.2,2.3c-0.1,0.7-0.2,1.3-0.5,1.8
		c-0.3,0.5-0.6,0.9-1,1.3c-0.4,0.3-0.8,0.5-1.3,0.7c-0.5,0.1-0.9,0.1-1.4,0C148.2,70.7,147.7,70.4,147.3,70z M147.8,69.1
		c0.1,0.1,0.3,0.3,0.5,0.4c0.2,0.1,0.4,0.2,0.6,0.3c0.2,0.1,0.4,0.1,0.6,0.2c0.2,0,0.4,0,0.6,0c0.4-0.1,0.7-0.3,1-0.5
		c0.3-0.3,0.5-0.6,0.7-1c0.2-0.4,0.3-0.8,0.3-1.4c0.1-0.5,0.1-1.1,0-1.6c-0.4-1.2-0.9-2.1-1.4-2.7c-0.5-0.6-1-0.9-1.4-0.9
		c-0.3,0-0.7,0.1-1,0.4c-0.3,0.3-0.6,0.6-0.8,1c-0.2,0.4-0.4,0.9-0.5,1.4c-0.1,0.5-0.2,1.1-0.2,1.6c0,0.5,0.1,1,0.2,1.5
		C147.2,68.3,147.4,68.8,147.8,69.1z"/>
	<path class="st0" d="M156.7,70.3c0.1,0,0.3,0.1,0.4,0.1c0.1,0,0.2,0.1,0.4,0.1c0.1,0,0.3,0,0.5,0c0.2,0,0.5,0,0.8,0
		c0.3,0,0.8,0,1.3-0.1c0.5,0,1.1-0.1,1.9-0.1c0,0,0,0.1,0,0.2c0,0.1,0,0.2,0,0.3c0,0.1,0,0.2-0.1,0.3c0,0.1-0.1,0.1-0.2,0.2
		c-1,0-1.9,0.1-2.6,0.1c-0.7,0-1.3,0-1.8,0c-0.5,0-0.8-0.1-1.1-0.1c-0.3-0.1-0.5-0.2-0.6-0.3c-0.1-0.1-0.2-0.3-0.3-0.5
		c-0.1-0.2-0.1-0.4-0.1-0.7l0.2-8.5c0-0.2,0.1-0.3,0.2-0.4c0.1-0.1,0.2-0.1,0.3-0.1c0.1,0,0.2,0.1,0.3,0.2c0.1,0.1,0.1,0.3,0.1,0.5
		c0,0.3-0.1,0.8-0.1,1.3c-0.1,0.6-0.1,1.2-0.1,1.8c0,0.7,0,1.3-0.1,2c0,0.7,0,1.3,0.1,1.8c0,0.6,0.1,1,0.2,1.4
		C156.4,70,156.5,70.2,156.7,70.3z"/>
	<path class="st0" d="M168.9,67.6l-3.6,0.2c0,0,0,0.1-0.1,0.2c-0.1,0.2-0.1,0.3-0.2,0.6c-0.1,0.2-0.1,0.4-0.2,0.7
		c-0.1,0.2-0.1,0.4-0.2,0.6c0,0,0,0.1,0,0.2c0,0.1,0,0.2-0.1,0.3c0,0.1,0,0.2-0.1,0.3c0,0.1,0,0.2,0,0.2c-0.1,0.2-0.1,0.3-0.2,0.4
		c-0.1,0.1-0.2,0.1-0.5,0c-0.1,0.1-0.2-0.1-0.1-0.6c0-0.4,0.2-1.1,0.4-2c0.2-0.9,0.5-2,0.9-3.3c0.4-1.3,0.9-2.8,1.5-4.5
		c0-0.1,0.1-0.1,0.2-0.2c0.1,0,0.2-0.1,0.3-0.1c0.1,0,0.2,0,0.3,0.1c0.1,0,0.1,0.1,0.2,0.2c0.1,0.4,0.2,0.8,0.4,1.3
		c0.1,0.5,0.3,1,0.5,1.5c0.2,0.5,0.4,1.1,0.6,1.6c0.2,0.5,0.5,0.9,0.8,1.3c0.2,0.1,0.3,0.1,0.4,0.2c0.1,0.1,0.1,0.1,0.1,0.2
		c0,0.1,0,0.1,0,0.2c0,0.1-0.1,0.1-0.1,0.2c0,0.1,0,0.1-0.1,0.2c0,0.1,0,0.2,0.1,0.3l1.1,2.6c0,0.2,0.1,0.4,0.1,0.5
		c0,0.1,0,0.2-0.1,0.3c0,0.1-0.1,0.2-0.2,0.2l-0.4-0.4L168.9,67.6z M165.7,66.6C165.6,66.6,165.6,66.6,165.7,66.6
		c0.1,0.1,0.3,0.1,0.6,0.2c0.2,0,0.5,0,0.9,0c0.3,0,0.7-0.1,1-0.2c0-0.2,0-0.3,0-0.5c0-0.2-0.1-0.4-0.2-0.6
		c-0.1-0.2-0.2-0.5-0.3-0.7c-0.1-0.2-0.2-0.5-0.3-0.7c-0.1-0.2-0.2-0.4-0.3-0.6c-0.1-0.2-0.2-0.4-0.2-0.5c-0.1,0.3-0.2,0.6-0.4,0.9
		c-0.1,0.4-0.3,0.7-0.4,1.1c-0.1,0.4-0.2,0.7-0.3,1C165.7,66.2,165.7,66.5,165.7,66.6z"/>
	<path class="st0" d="M180.6,71C180.6,71,180.5,71,180.6,71c-0.1-0.1-0.2-0.2-0.2-0.2c0-0.1-0.1-0.1-0.1-0.1c0,0,0-0.1,0-0.1v-7.9
		c0,0-0.1-0.1-0.2-0.1c-0.1-0.1-0.2-0.1-0.2-0.2c-0.1-0.1-0.2-0.1-0.2-0.2c-0.1-0.1-0.1-0.1-0.1-0.2c-0.1-0.2-0.1-0.4,0.1-0.6
		c0.2-0.2,0.4-0.3,0.7-0.5c0.3-0.1,0.7-0.2,1.2-0.3c0.5-0.1,0.9-0.1,1.4,0c0.5,0.1,1,0.2,1.5,0.4c0.5,0.2,1,0.5,1.4,0.9
		c0.4,0.4,0.8,0.9,1.1,1.5c0.3,0.6,0.5,1.3,0.7,2.2c0.1,0.6,0.1,1.2-0.1,1.8c-0.2,0.6-0.4,1.1-0.7,1.6c-0.3,0.5-0.7,0.9-1.2,1.3
		c-0.5,0.4-1,0.6-1.5,0.8c-0.5,0.2-1.1,0.3-1.7,0.3C181.7,71.4,181.1,71.3,180.6,71z M181.3,69.9c0.1,0.2,0.2,0.4,0.5,0.5
		c0.3,0.1,0.6,0.1,0.9,0.1c0.4,0,0.7-0.1,1.2-0.3c0.4-0.2,0.8-0.4,1.2-0.7c0.4-0.3,0.7-0.6,1-1.1c0.3-0.4,0.5-0.9,0.6-1.4
		c0.1-0.5,0.1-1.1-0.1-1.8c-0.1-0.7-0.5-1.4-0.9-2.2c-0.1-0.2-0.3-0.5-0.6-0.7c-0.3-0.2-0.6-0.4-0.9-0.5c-0.3-0.1-0.6-0.2-1-0.3
		c-0.3,0-0.6,0-0.9,0.1c-0.3,0.1-0.5,0.3-0.7,0.6c-0.2,0.3-0.3,0.6-0.3,1.1c0,0.2,0,0.4,0,0.8c0,0.4,0,0.7,0,1.2c0,0.4,0,0.9,0,1.4
		c0,0.5,0,1,0,1.4c0,0.4,0,0.8,0,1.2C181.3,69.4,181.3,69.7,181.3,69.9z"/>
	<path class="st0" d="M194.3,67.6l-3.6,0.2c0,0,0,0.1-0.1,0.2c-0.1,0.2-0.1,0.3-0.2,0.6c-0.1,0.2-0.1,0.4-0.2,0.7
		c-0.1,0.2-0.1,0.4-0.2,0.6c0,0,0,0.1,0,0.2c0,0.1,0,0.2-0.1,0.3c0,0.1,0,0.2-0.1,0.3c0,0.1,0,0.2,0,0.2c-0.1,0.2-0.1,0.3-0.2,0.4
		c-0.1,0.1-0.2,0.1-0.5,0c-0.1,0.1-0.2-0.1-0.1-0.6c0-0.4,0.2-1.1,0.4-2c0.2-0.9,0.5-2,0.9-3.3c0.4-1.3,0.9-2.8,1.5-4.5
		c0-0.1,0.1-0.1,0.2-0.2c0.1,0,0.2-0.1,0.3-0.1c0.1,0,0.2,0,0.3,0.1c0.1,0,0.1,0.1,0.2,0.2c0.1,0.4,0.2,0.8,0.4,1.3
		c0.1,0.5,0.3,1,0.5,1.5c0.2,0.5,0.4,1.1,0.6,1.6c0.2,0.5,0.5,0.9,0.8,1.3c0.2,0.1,0.3,0.1,0.4,0.2c0.1,0.1,0.1,0.1,0.1,0.2
		c0,0.1,0,0.1,0,0.2c0,0.1-0.1,0.1-0.1,0.2c0,0.1,0,0.1-0.1,0.2c0,0.1,0,0.2,0.1,0.3l1.1,2.6c0,0.2,0.1,0.4,0.1,0.5
		c0,0.1,0,0.2-0.1,0.3c0,0.1-0.1,0.2-0.2,0.2l-0.4-0.4L194.3,67.6z M191.1,66.6C191,66.6,191,66.6,191.1,66.6
		c0.1,0.1,0.3,0.1,0.6,0.2c0.2,0,0.5,0,0.9,0c0.3,0,0.7-0.1,1-0.2c0-0.2,0-0.3,0-0.5c0-0.2-0.1-0.4-0.2-0.6
		c-0.1-0.2-0.2-0.5-0.3-0.7c-0.1-0.2-0.2-0.5-0.3-0.7c-0.1-0.2-0.2-0.4-0.3-0.6c-0.1-0.2-0.2-0.4-0.2-0.5c-0.1,0.3-0.2,0.6-0.4,0.9
		c-0.1,0.4-0.3,0.7-0.4,1.1c-0.1,0.4-0.2,0.7-0.3,1C191.1,66.2,191.1,66.5,191.1,66.6z"/>
	<path class="st0" d="M200.1,70.3c0.1,0,0.3,0.1,0.4,0.1c0.1,0,0.2,0.1,0.4,0.1c0.1,0,0.3,0,0.5,0c0.2,0,0.5,0,0.8,0
		c0.3,0,0.8,0,1.3-0.1c0.5,0,1.1-0.1,1.9-0.1c0,0,0,0.1,0,0.2c0,0.1,0,0.2,0,0.3c0,0.1,0,0.2-0.1,0.3c0,0.1-0.1,0.1-0.2,0.2
		c-1,0-1.9,0.1-2.6,0.1c-0.7,0-1.3,0-1.8,0c-0.5,0-0.8-0.1-1.1-0.1c-0.3-0.1-0.5-0.2-0.6-0.3c-0.1-0.1-0.2-0.3-0.3-0.5
		c-0.1-0.2-0.1-0.4-0.1-0.7l0.2-8.5c0-0.2,0.1-0.3,0.2-0.4c0.1-0.1,0.2-0.1,0.3-0.1c0.1,0,0.2,0.1,0.3,0.2c0.1,0.1,0.1,0.3,0.1,0.5
		c0,0.3-0.1,0.8-0.1,1.3c-0.1,0.6-0.1,1.2-0.1,1.8c0,0.7,0,1.3-0.1,2c0,0.7,0,1.3,0.1,1.8c0,0.6,0.1,1,0.2,1.4
		C199.8,70,199.9,70.2,200.1,70.3z"/>
	<path class="st0" d="M212.4,71.1c-0.1-0.2-0.2-0.4-0.2-0.8c0-0.3-0.1-0.8-0.1-1.2c0-0.5,0-1,0-1.5c0-0.5,0-1.1,0.1-1.7
		c0-0.6,0.1-1.1,0.1-1.6c0-0.5,0.1-1,0.1-1.5c0-0.4,0.1-0.8,0.1-1.1c0-0.3,0-0.5,0-0.7c0.2-0.1,0.3-0.1,0.4-0.1c0.1,0,0.2,0,0.3,0
		c0.1,0,0.1,0.1,0.1,0.1c0,0.1,0.1,0.1,0.1,0.2c0,0.1-0.1,0.4-0.1,0.7c0,0.4-0.1,0.8-0.1,1.3c0,0.5-0.1,1.1-0.1,1.7
		c0,0.6-0.1,1.2-0.1,1.9c0,0.6-0.1,1.2-0.1,1.8c0,0.6,0,1-0.1,1.4c0,0.4,0,0.7,0,0.9c0,0.2,0,0.2,0,0.1c-0.1,0.1-0.1,0.1-0.2,0.1
		c-0.1,0-0.1,0-0.1,0C212.5,71.2,212.4,71.1,212.4,71.1C212.4,71.1,212.4,71.1,212.4,71.1z"/>
	<path class="st0" d="M220.2,71.1c-0.1,0.2-0.2,0.3-0.2,0.3c-0.1,0-0.2,0-0.3,0c-0.1-0.1-0.2-0.1-0.2-0.2c-0.1-0.1-0.1-0.2-0.2-0.3
		l-0.2-5.4c-0.2,0.1-0.4,0.1-0.6,0.2c-0.2,0.1-0.4,0.1-0.6,0.1c-0.2,0-0.4,0-0.6,0c-0.2,0-0.4,0-0.5-0.1c-0.3-0.1-0.6-0.2-0.8-0.4
		c-0.2-0.2-0.3-0.5-0.3-0.8c0-0.3,0-0.6,0.1-0.9c0.1-0.3,0.2-0.7,0.4-1c0.2-0.3,0.4-0.6,0.6-0.9c0.2-0.3,0.5-0.5,0.8-0.6
		c0.3-0.1,0.6-0.2,0.9-0.2c0.3,0,0.6,0.1,0.9,0.3c0.2,0.1,0.4,0.2,0.5,0.4c0.1,0.2,0.2,0.4,0.2,0.7c0,0.3,0.1,0.5,0.1,0.8
		c0,0.3,0,0.6,0,0.9c0,0.3,0,0.5-0.1,0.8c0,0.2,0,0.4,0,0.6c0,0.1,0,0.4,0,0.7c0,0.3,0,0.6,0,1c0,0.4,0,0.8,0,1.2c0,0.4,0,0.8,0,1.2
		c0,0.4,0,0.7,0,1C220.2,70.8,220.2,71,220.2,71.1z M219.2,62c-0.2-0.2-0.4-0.3-0.6-0.4c-0.2,0-0.4,0-0.6,0.1
		c-0.2,0.1-0.4,0.2-0.6,0.4c-0.2,0.2-0.4,0.4-0.5,0.7c-0.1,0.2-0.2,0.5-0.3,0.8c-0.1,0.3,0,0.6,0,0.9c0.4,0.3,0.8,0.4,1.1,0.4
		c0.3-0.1,0.6-0.2,0.9-0.5c0.2-0.3,0.4-0.6,0.5-1.1C219.3,62.9,219.3,62.4,219.2,62z"/>
	<path class="st0" d="M225.2,71c-0.3-0.1-0.5-0.3-0.6-0.6c-0.1-0.2-0.2-0.5-0.2-0.8c0-0.3,0-0.6,0.1-0.9c0.1-0.3,0.1-0.6,0.2-1
		c0.1-0.3,0.2-0.7,0.2-1c0.1-0.3,0.1-0.6,0.1-0.9c-0.1,0-0.3-0.2-0.5-0.4c-0.2-0.2-0.4-0.4-0.7-0.7c-0.2-0.3-0.4-0.6-0.6-0.9
		c-0.2-0.3-0.3-0.6-0.4-0.9c-0.1-0.3-0.1-0.6,0-0.9c0.1-0.2,0.2-0.5,0.4-0.6c0.2-0.2,0.4-0.3,0.6-0.4c0.2-0.1,0.5-0.2,0.7-0.2
		c0.3-0.1,0.5-0.1,0.7-0.1c0.2,0,0.5,0,0.6,0.1c0.3,0.1,0.6,0.2,0.7,0.3c0.2,0.1,0.3,0.2,0.4,0.3c0.1,0.1,0.3,0.1,0.4,0.1
		c0.2,0,0.4-0.1,0.7-0.2c0.1,0,0.1,0,0.2,0c0.1,0,0.1,0.1,0.2,0.1c0.1,0.1,0.1,0.1,0.1,0.2c0,0.1,0,0.1,0,0.2l-2.4,3.8
		c0.4,0.3,0.7,0.7,1,1.2c0.3,0.4,0.5,0.9,0.7,1.3c0.2,0.4,0.2,0.8,0.2,1.2c0,0.4-0.1,0.7-0.3,1c-0.2,0.3-0.5,0.5-1,0.6
		C226.4,71.1,225.9,71.1,225.2,71z M224.7,64.5c0,0,0.1,0.1,0.2,0.2c0.1,0.1,0.2,0.1,0.3,0.2c0.1,0.1,0.2,0.1,0.3,0.2
		c0.1,0.1,0.1,0.1,0.1,0.1l1.4-1.9c0.2-0.2,0.2-0.4,0.2-0.6c-0.1-0.2-0.2-0.4-0.5-0.5c-0.2-0.1-0.5-0.2-0.8-0.3
		c-0.3-0.1-0.6-0.1-0.9-0.1c-0.3,0-0.6,0.1-0.8,0.2c-0.2,0.1-0.4,0.3-0.5,0.5c-0.1,0.2,0,0.5,0.1,0.9
		C223.9,63.6,224.2,64,224.7,64.5z M225.8,66.8c-0.3,0.7-0.5,1.3-0.6,1.7c-0.1,0.5-0.1,0.8,0,1.1c0.1,0.3,0.2,0.5,0.4,0.6
		c0.2,0.1,0.4,0.2,0.6,0.2c0.2,0,0.4,0,0.6-0.1c0.2-0.1,0.4-0.2,0.5-0.3c0.1-0.2,0.1-0.4,0.1-0.7c0-0.2-0.1-0.5-0.1-0.7
		c-0.1-0.2-0.2-0.5-0.3-0.7c-0.1-0.2-0.3-0.4-0.4-0.6c-0.1-0.2-0.3-0.3-0.4-0.4C225.9,66.8,225.8,66.8,225.8,66.8z"/>
	<path class="st0" d="M236.2,68.9c-0.3,0.6-0.6,1.1-0.9,1.4c-0.3,0.3-0.7,0.6-1,0.7c-0.4,0.1-0.7,0.1-1.1,0c-0.4-0.1-0.7-0.2-1-0.5
		c-0.3-0.2-0.6-0.6-0.9-1c-0.3-0.4-0.5-0.8-0.7-1.3c-0.2-0.5-0.3-1-0.4-1.6c-0.1-0.6-0.1-1.2,0-1.8c0.1-1,0.3-1.9,0.7-2.5
		c0.3-0.6,0.7-1,1.1-1.2c0.4-0.2,0.8-0.3,1.3-0.2c0.5,0.1,0.9,0.3,1.3,0.6c0.4,0.3,0.8,0.8,1.2,1.3c0.3,0.5,0.6,1.1,0.8,1.8
		c0.2,0.6,0.2,1.3,0.2,2.1C236.7,67.4,236.5,68.2,236.2,68.9z M231.2,64.2c-0.1,0.6-0.1,1.1-0.1,1.7c0,0.6,0.1,1.1,0.2,1.6
		c0.1,0.5,0.3,1,0.5,1.4c0.2,0.4,0.4,0.7,0.7,1c0.3,0.2,0.6,0.4,0.9,0.4c0.3,0,0.7-0.1,1.1-0.4c0.6-0.6,1-1.3,1.3-1.9
		c0.3-0.7,0.4-1.3,0.4-1.9c0-0.6-0.1-1.2-0.3-1.7c-0.2-0.5-0.5-1-0.8-1.4c-0.3-0.4-0.7-0.7-1.1-0.9c-0.4-0.2-0.8-0.3-1.1-0.2
		c-0.4,0.1-0.7,0.3-1,0.6C231.5,62.9,231.3,63.5,231.2,64.2z"/>
</g>
<g>
	<g>
		<path class="st0" d="M236.9,52.8c0.5,0,1,0,0.8,0.1c1.1-0.1,1.1,0,1.3-0.1c0.7,0,1.5,0,0.7,0.1l2-0.1l-1.2,0
			c0.3-0.1,1.9,0,2.3-0.1l-2.2,0l0.1,0c-0.5,0-1.5,0-1.8,0c0.1,0,0,0,0.4,0c-2.6,0-0.7,0.2-2.9,0.2
			C236.5,52.8,236.7,52.8,236.9,52.8z"/>
		<path class="st0" d="M234.7,52.6l-0.9,0.1l-1.5,0c0,0-1.1,0.1-0.4,0.1c0.2,0,0.5,0,0.7,0c-0.2,0.1-2.1,0-1.6,0.1
			c1.2,0,1.4,0,2.2-0.1c1.1,0,1.9,0,2.5,0.1c0.3,0,0.4-0.1,0.8-0.1c-0.1,0-0.2,0-0.3,0l0-0.1c-0.4,0-0.7,0-1.1,0l1.8-0.1
			c-0.6-0.1-2.4-0.1-3.1-0.1C234.5,52.5,233,52.5,234.7,52.6z"/>
		<path class="st0" d="M236.3,52.8L236.3,52.8L236.3,52.8z"/>
		<path class="st0" d="M100.8,53.1c-0.4,0-0.5,0-0.6,0l4.3,0c-0.1,0-1.4-0.1-0.5-0.1c-0.4,0-1.5,0-1.7,0l0.3-0.1
			c-1,0.1-1.7-0.1-1-0.1h-0.1l-2.8,0.2C99.8,53.2,99.6,53.1,100.8,53.1z"/>
		<path class="st0" d="M11.6,52.7c0.6,0,0.6,0,0.6,0C12,52.7,11.8,52.7,11.6,52.7z"/>
		<path class="st0" d="M98.2,53.3l-0.9,0.1C97.6,53.3,97.9,53.3,98.2,53.3z"/>
		<path class="st0" d="M104.2,52.1C104.2,52.1,104.2,52.1,104.2,52.1l-0.4,0h0C103.9,52.1,104,52.1,104.2,52.1z"/>
		<path class="st0" d="M78.5,53.5c-0.1,0-0.2,0-0.3,0C78.3,53.5,78.4,53.5,78.5,53.5z"/>
		<path class="st0" d="M115.9,51.7l-1.9,0.1c0.3,0-0.7,0-0.3-0.1c-0.1,0-0.8,0-0.6,0h0.4c-1,0.1-0.4,0.1-2.1,0.2c1,0.1,1.5,0,2.1,0
			c0.2,0,0.3,0,0.5,0l1.6-0.1L115.9,51.7z"/>
		<path class="st0" d="M38.5,52.2L38.5,52.2C38.5,52.2,38.5,52.2,38.5,52.2z"/>
		<path class="st0" d="M38.6,52.2L38.6,52.2C38.7,52.2,39.1,52.2,38.6,52.2z"/>
		<path class="st0" d="M98.5,53.2c0,0-0.1,0-0.3,0.1l0.6-0.1C98.7,53.2,98.6,53.2,98.5,53.2z"/>
		<path class="st0" d="M99.9,53l1.6,0l0.6-0.1C101.5,52.9,100.9,52.9,99.9,53z"/>
		<path class="st0" d="M81,53.6c-3.4,0,0.8-0.1-0.7-0.1c-0.9,0-1.3,0.1-1.8,0.1c2.7,0-0.4,0.2,2.3,0.2c-0.4,0.1-1.9,0.1-2.9,0.1
			c-1-0.1,0.9-0.1,1.1-0.2c-1.1,0-0.9,0-1.3,0.1c-1.7,0-3.5,0.1-4.5,0c-1.2,0-1.1,0.1-1.9,0.1c-0.1,0.1,1.8,0.1,2.3,0.1
			c-0.1,0-0.3,0-0.2,0l1.1,0c-1,0,0.1-0.1,0.7-0.1c0.4,0,1.2,0,1.1,0l-0.6,0c0.8,0,1.7-0.1,2.5,0c0,0-0.3,0-0.3,0
			c0.9-0.1,1.8-0.1,3.1-0.1l-0.8,0.1c1.1-0.1,3.5-0.1,5.2,0c-0.2,0-0.5,0-0.3-0.1c1,0,1.7,0.1,1.3,0.1c1-0.1,3.7,0.1,5,0l6-0.5
			c-0.3,0-0.5,0-0.7,0c-0.5-0.1-0.8-0.1,0.1-0.2c-0.9,0-0.6,0.1-2,0.1c0.6,0,0.7-0.1-0.7-0.2c-3.4,0.1-5.7,0.3-8.8,0.5
			c-0.1-0.1-2.6-0.1-3.8-0.1c0.5-0.1,1.4-0.1,2.3-0.1c-0.6,0-1.6,0-2.3,0L81,53.6z"/>
		<path class="st0" d="M88.9,53.3c-0.1,0-0.2,0-0.3,0C88.7,53.3,88.8,53.3,88.9,53.3z"/>
		<path class="st0" d="M84,53.4C84,53.4,84,53.4,84,53.4l-0.3,0C83.8,53.4,83.9,53.4,84,53.4z"/>
		<path class="st0" d="M97.7,53c0.2,0,0.3,0,0.6,0c-0.1,0-0.3,0-0.4,0C97.7,53,97.6,53,97.7,53z"/>
		<path class="st0" d="M98.4,53.2l-0.1,0c0.1,0,0.1,0,0.2,0C98.5,53.2,98.5,53.2,98.4,53.2z"/>
		<path class="st0" d="M68.2,52.9l-0.3,0C68,52.9,68.1,52.9,68.2,52.9z"/>
		<path class="st0" d="M77.3,53.4c1.2,0,0.1-0.1,1.8-0.1l-0.5,0c1.2,0,3.3,0,4.7,0c-0.2,0,0.9,0.1,0.7,0.1c1,0,1.9,0,2.4-0.1
			c0.6,0,1.5,0,2.3,0c-0.3,0,1.1-0.1-0.8-0.1c0.1,0,0.1,0,0.2,0c-1.2-0.1-1.7,0-2.7,0c-0.6,0,1-0.1,0.4-0.1c-1.3,0-4-0.1-3.9,0.1
			c-0.9,0-1.1,0-1.3-0.1c-1.5,0.2-5.5-0.1-5.5,0.1c0.5,0,1.4,0,2.2,0L77.3,53.4z"/>
		<path class="st0" d="M95.7,53c-0.1,0-0.2,0-0.2,0C95.6,53,95.6,53,95.7,53z"/>
		<path class="st0" d="M110.5,53.6l-0.5,0.1c-2.8,0-3.8,0-6.2,0c-0.2,0,0.1,0,0.3,0c-1.7,0-4.3,0-5.5,0c-0.5,0-2,0-1.4-0.1l-0.9,0
			c-0.1,0,0.7,0,0.7-0.1c-0.2,0-0.3,0-0.4,0c0.4,0-0.4-0.2,1.5-0.2c0.7,0.1-1.3,0-0.9,0.1c0.6,0,0.6,0,0.6-0.1c0.8,0,0.8,0,0.7,0.1
			c0.3,0,1.3,0,1.7,0c1.6,0-0.1,0.1,0.9,0.1l0.6-0.1l1.7,0c2.5,0-0.4-0.2,2.5-0.3c-0.4,0.1,0.8,0.2,2.1,0.2c-0.8,0-2.2,0.1-3.2,0
			c1.4,0.1-2,0-1.2,0.1c0.7-0.1,1.9-0.1,2.8,0l-0.3,0c1,0,1.7-0.1,3-0.1c0.7,0,0.5,0,0.4,0.1C110,53.6,110.5,53.6,110.5,53.6z
			 M109,53.7l-0.9,0C108.4,53.7,108.7,53.7,109,53.7z"/>
		<path class="st0" d="M222.2,52.5c0.1,0,0.2,0,0.3,0C222.4,52.6,222.3,52.5,222.2,52.5z"/>
		<path class="st0" d="M143.1,52.3l0.5,0C143.4,52.3,143.2,52.3,143.1,52.3z"/>
		<path class="st0" d="M154.7,51.9l0.8,0C155.2,51.9,154.9,51.9,154.7,51.9z"/>
		<polygon class="st0" points="216.1,52.5 216,52.5 215.9,52.5 		"/>
		<path class="st0" d="M177.9,52.3c0.1,0,0.3,0,0.4,0C178.3,52.3,178.2,52.3,177.9,52.3z"/>
		<path class="st0" d="M154.5,51.9C154.6,51.9,154.6,51.9,154.5,51.9l0.1,0L154.5,51.9z"/>
		<path class="st0" d="M138,51.9c-0.1,0-0.2,0-0.3,0C137.8,51.9,137.9,51.9,138,51.9z"/>
		<path class="st0" d="M138.7,52.3c-0.1,0-0.2,0-0.3,0L138.7,52.3z"/>
		<path class="st0" d="M120.9,52l-0.7,0C120.5,52,120.7,52,120.9,52z"/>
		<path class="st0" d="M136.9,52.2l-0.1,0C136.9,52.2,136.9,52.2,136.9,52.2z"/>
		<path class="st0" d="M226.6,52.9C226.6,52.9,226.6,52.9,226.6,52.9L226.6,52.9L226.6,52.9z"/>
		<path class="st0" d="M228.3,52.7l0.6,0C228.7,52.7,228.5,52.7,228.3,52.7z"/>
		<path class="st0" d="M188,52.5c0.2,0,0.6,0,0.4,0.1C188.8,52.5,188.8,52.5,188,52.5z"/>
		<path class="st0" d="M223.2,53.7c0.1,0,0.3,0,0.4,0C223.4,53.7,223.1,53.7,223.2,53.7z"/>
		<path class="st0" d="M223.6,53.6l0.4,0C223.9,53.6,223.8,53.6,223.6,53.6z"/>
		<path class="st0" d="M183.3,53.5c0,0-0.1,0-0.2,0C183.1,53.5,183.2,53.5,183.3,53.5z"/>
		<path class="st0" d="M229.4,52.8c0.1,0,2.8-0.1,0.5-0.1c0.1-0.1,1.4,0,2-0.1c-0.4,0,0.2-0.1,0.1-0.1c-0.3,0-0.6,0-1.1,0
			c-0.2,0,0.5-0.1,1.1-0.1c-0.7-0.1,0.9-0.1-0.1-0.1c-2.2,0-3.7,0.1-5.2,0.2c1.2,0,2.6,0,3.6,0l-0.4,0.1c-1.1-0.1-1.8,0-3,0l2.5,0.1
			c1.2,0.1,0.4,0.1-0.5,0.1C229.2,52.7,229.4,52.7,229.4,52.8z"/>
		<polygon class="st0" points="227.7,53.4 227.8,53.4 227.9,53.4 		"/>
		<path class="st0" d="M121,53.6l-0.2,0C120.9,53.6,121,53.6,121,53.6z"/>
		<path class="st0" d="M226.2,53.1L226.2,53.1C226.2,53.1,226.2,53.1,226.2,53.1z"/>
		<path class="st0" d="M126.4,53.6L126.4,53.6L126.4,53.6z"/>
		<path class="st0" d="M127.8,51.9C127.8,51.9,127.8,51.9,127.8,51.9C127.7,51.9,127.7,51.9,127.8,51.9z"/>
		<path class="st0" d="M126.4,53.6C126.4,53.6,126.4,53.6,126.4,53.6C126.4,53.6,126.4,53.6,126.4,53.6z"/>
		<path class="st0" d="M152.5,53.4c0,0-0.1,0-0.2,0C152.3,53.3,152.3,53.3,152.5,53.4z"/>
		<path class="st0" d="M147.4,53.2C147.3,53.2,147.3,53.2,147.4,53.2L147.4,53.2z"/>
		<path class="st0" d="M186.8,52.1c-0.3,0-0.4,0-0.6,0C186.4,52.1,186.6,52.1,186.8,52.1z"/>
		<path class="st0" d="M126.3,53.6c-0.1,0-0.1,0-0.3,0C126.2,53.6,126.3,53.6,126.3,53.6z"/>
		<path class="st0" d="M160.4,53l-0.2,0C160.3,53,160.3,53,160.4,53L160.4,53z"/>
		<path class="st0" d="M163.1,53c-0.1,0-0.1,0-0.2,0c1,0,2.7,0,2.9-0.1c-0.3,0-2-0.1-1.7-0.1c-0.7,0-1.7,0-2,0
			c1.1,0,0.1,0.1-0.6,0.1c-0.7,0,0.1-0.1-0.5-0.1l-1.6,0l1.4,0l-0.4,0.1c0.1,0,0.1,0,0.1,0C162.8,52.9,160.7,53.1,163.1,53z"/>
		<path class="st0" d="M162.9,53.1c-0.1,0-0.2,0-0.4,0C162.8,53.1,162.8,53.1,162.9,53.1z"/>
		<path class="st0" d="M172.3,53.2c0.1,0,0.2,0,0.4,0C172.7,53.2,172.5,53.2,172.3,53.2z"/>
		<path class="st0" d="M103.3,52.9c0,0,1.4,0.1,1.4,0c-0.4,0-0.8,0-1.2,0L103.3,52.9z"/>
		<path class="st0" d="M198,52.9l-0.4,0l-0.1,0C197.5,53,197.8,52.9,198,52.9z"/>
		<path class="st0" d="M164.5,52.9c-0.2,0-0.4,0-0.4,0C164.3,52.9,164.4,52.9,164.5,52.9z"/>
		<path class="st0" d="M198.1,53.1c0.2,0,0.5,0,0.5,0.1c0.3,0,0.7,0,1.1,0C199.2,53.1,198.7,53.1,198.1,53.1z"/>
		<path class="st0" d="M199.7,53.1L199.7,53.1L199.7,53.1z"/>
		<path class="st0" d="M102.5,52.9l-0.4,0l0.2,0l-0.9,0c-0.1,0-0.2,0-0.4,0c0.1,0,0.1,0,0.1,0l-0.3,0c-1,0-2.5,0.1-3.1,0.1
			c-0.7,0-1.6,0-2.1,0c0.5,0,1.2,0,1,0c-1,0-1.5-0.1-3.2-0.1h1l-2.3,0.1c-0.8-0.1,1.1-0.1,1.5-0.1c-1.8,0.1-3.3-0.1-4.1,0
			c-0.1-0.1-0.3-0.2-1.5-0.2c0.8,0.1-0.7,0.1,0,0.1c-0.4,0-1.3,0-1.4,0l0.1,0c-2-0.1-2.7,0.1-3.5,0.1c-2.4,0-3.5,0-5.5,0
			c-0.1,0-0.6-0.2-1.4-0.2c-0.4,0.1-2.1,0.1-2.3,0.2c1.4,0,1.1-0.1,2-0.1c0.7,0.1,0.1,0.1,1,0.1c-0.8,0-3.5,0-4.3,0l0.3,0
			c-1.3-0.1-1.6-0.3-3.8-0.1l-1.1,0c0.1,0,0.1,0,0.1,0c-1.8,0-1.3-0.1-3.2,0c0.1,0,0.1,0,0.2,0c-1.1-0.1-2.2,0-3,0.1
			c-0.5-0.1,0.1-0.1,0.4-0.1c-1.9,0-4,0.1-5.2,0.2l-1.2,0c0.7,0,1.6-0.1,1.4-0.1c-0.7,0-0.6,0-1.5,0c0.2,0,0.6-0.1,1-0.1
			c-2-0.1-0.5,0.2-1.9,0c-0.6,0-1,0.1-1.1,0.1L53,52.7c-0.1,0.1-1.5,0.1-2.5,0.1c-0.1,0,0.7,0.1,1.1,0c-0.1,0.1-1.1,0.1-1.7,0.1
			c-0.2-0.1-4.1,0-3.4-0.2c-2.9,0-6.7,0.1-8.7,0.1c-0.6,0-1.9,0-1.1-0.1c-2.3,0-3.5,0.1-5.7,0.1c-0.2,0,1,0,0.9,0
			c-1.5,0.1-2.7-0.1-5,0c0.4,0,0.5,0,0.6,0c0,0-0.9,0-1.5,0.1c-0.3,0,0.4,0,0.3,0c-4.5-0.1-7.8,0.1-12.3,0.1c1.3,0,1.7-0.1,1.8-0.1
			l-1.2,0c-0.5,0-1.4,0-2.2,0.1c-0.1,0-0.5,0-0.1-0.1c-2.4-0.1-3.8,0.2-6.8,0.1l3.6-0.2L8,52.5l1.6-0.1c-1-0.1-1.8,0.1-1.9,0
			c0.2,0,0.7,0,0.7-0.1c-0.9,0-1,0-1.7,0c1.8-0.1,5.4-0.1,7.3-0.2c0.3,0-0.3,0-0.3,0c0.8,0,1.2,0,2.2,0c0.6-0.1-0.5,0-1-0.1
			c0.1-0.1,0.3-0.1,0.9-0.1c0.1,0.1,3,0,3.7,0.1c2.9,0-0.5-0.2,2.4-0.1l0.8,0.1c1.6-0.1,3.7-0.1,5.6-0.1l-0.4,0
			c-0.3,0,0.2,0.1,0.4,0.1c1.4,0,2.7-0.1,3.5,0c1.6-0.1,4.3-0.1,6.1-0.2c0.5,0.1-2.4,0.1-3.1,0.1l1.7,0c-1,0-1.4,0-2,0.1
			c1.5,0,1.9-0.1,3.3-0.1c-0.1,0,0.1,0,0.7,0l0.2-0.1c0,0,0.1,0,0.3,0l2.5,0c-0.5,0-0.5-0.1-1.2-0.1c0.2,0-0.3,0-0.9,0
			c0.6,0-0.6,0-0.6-0.1c1.3,0,2.8,0,3.7,0l0.3,0.1c1.2,0,2.5,0,3.3,0l-0.3,0c1.5,0,2.9,0,4.2,0.1c1.3-0.1,2.8-0.1,4-0.2
			c0.6-0.1,3.8,0.1,5.3,0c0.1,0-1,0.1-1.5,0.1c1,0,1.7-0.1,2.1,0c-2.2,0,0.1,0.1-0.9,0.1c1,0,2.1,0,2.6,0c-1.7,0,0.6-0.1-1.1-0.1
			c1.3-0.1,3.1-0.1,4.6-0.1c0,0,0.2,0.1,0.8,0.1l0.5-0.1c0.7,0-1.4,0.1,0.1,0.1c1.5-0.1,4.5,0.1,5.2-0.1c1.1,0.1-2.2,0.1-0.5,0.2
			c-1,0.1-2.4,0-2.7,0.1c1,0,0.4,0.1,1,0.1l1.1-0.1l-0.2,0c1.8-0.1,4.7,0,7.1,0c2-0.1,3.4-0.2,5.7-0.2c-0.7,0.1,2,0.1,0.5,0.1
			c0.6,0,1.1,0,1.5,0c0.4,0,0.7,0,0.7-0.1c-0.9,0-0.4,0-1.2,0c0.6,0,1.8,0,2.3,0c-0.2,0-0.2,0-0.2,0c1.2,0,0.6,0,1.4-0.1
			c0.3,0.1,1.8,0,2.6,0.1l1.1-0.1c-0.6,0.1,1.1,0,1.2,0.1c0.8,0,1.5-0.1,2.7-0.1c-0.5,0,1.1,0,1.1,0.1c2.1,0.1,3.4-0.2,5.4-0.1
			c-0.1,0-0.5,0.1,0.1,0.1c0.5,0,1.2,0,1.7,0h0h0c0.2,0,0.4,0,0.4,0c0.8-0.1,1.3-0.1,2.9-0.2c-0.1-0.1-1.5,0-2.1,0l-0.5,0.1
			c-0.5-0.1-1.5,0-1.8,0c1-0.1,3.8-0.1,5.5-0.2c-1-0.1-3.3-0.1-5.2-0.1l0.9,0h-1l1,0.1c-1,0-1.8,0-2.7,0c1,0,1.4,0.1,0.8,0.1
			c-1.1-0.1-1.2,0-2.1,0c0.5,0,1.1,0,0.7,0.1c-1.7-0.1-2.2,0-3.8-0.1c0.2,0.1-2,0-2.2,0.1l0.7,0L93.7,52c-1.4-0.1,1.3-0.1-0.9-0.2
			c-2,0-1.9,0.1-3.5,0.1c0.5-0.1,1.8-0.1,3-0.1l-0.8,0c0.4,0,2.2,0,3,0c-1.4,0.1,0.7,0,1.3,0.1c0.1-0.1-0.8-0.1,0.3-0.1
			c-1,0-1.1,0-2.5,0c2.8,0,2.5-0.2,5-0.2c-1.1,0,0.4,0.1,0.5,0.1c0.5,0,1.6,0,2.1,0l-0.4-0.1c1.4,0,1.9,0.2,3.6,0.1
			c0.2-0.1-1.5,0-1.2,0c2.3-0.1,3.1,0.1,5.1,0.2c0.1,0,0.1-0.1,0.8-0.1c-0.2,0.1,0.3,0.1-0.5,0.1c0.7,0,1.5,0,2.1,0
			c-1.4,0,0.6-0.1,0.8-0.1c0.7,0-0.2,0.1-0.7,0.1c0.6,0,1.3,0.1,1.6,0c0,0.1-1.6,0.2-2.7,0.2l0.7,0c-0.5,0-0.6,0-1.3,0
			c0.7,0.1,0.6,0.1,0.5,0.1c-0.1,0,0.1,0,0,0c-0.6,0-1,0-0.9,0c-0.5,0.1,0.8,0.1,1.2,0.1l0.9,0l3-0.3c1.3,0,1.9,0,2.8,0.1l0.3-0.1
			c1.1,0,2.2,0,1.5,0.1c0,0-0.2,0-0.4,0c0,0-0.1,0-0.2,0l-0.1,0c1.2,0,1.9,0,2,0c-2,0.1-0.1,0.1-0.4,0.3l2.1,0c-1.2,0,0-0.1,0.4-0.1
			c0.1,0.1,1.7,0,2.4,0l-0.1,0c0.7,0,1.8,0,2.7,0c0,0,1-0.1,1.5-0.2c-1.4,0-0.6-0.1-0.7-0.1c0.1,0,0.4,0,0.4,0c0.2,0-0.3,0-0.3-0.1
			c-1.5,0-3.1,0-3.7,0.1c0.5,0,0.8,0,1.3,0c-0.8,0.1-1.7,0-3,0l-0.4-0.1l-1.3,0c0.5,0,0.2-0.1,1.5-0.1c-0.2-0.1-1.3,0-2.1,0
			l-0.4,0.1c0.2,0-1.6-0.1-0.3-0.1l2-0.1l-0.6-0.1l1.7,0l-0.4,0c2.7,0,0.8,0.2,3.6,0.1c0.9-0.1,1.8-0.1,3.5-0.1
			c-1.2,0-0.1,0.1-0.6,0.1c1.3,0,1.7,0,2.3-0.1c0.3,0.1,0.5,0.1-0.6,0.1c-0.1,0.1,1.5,0,1.6,0.1c3.7,0,3-0.3,7.3-0.2l-0.2,0
			c2.8,0,4.3,0,6.9,0l2,0.1c-0.4,0-1.7,0.1-1.1,0.2c-1-0.1-2-0.1-3.1-0.1c-0.1,0,0.3,0.1,0.5,0.1c-0.6,0-1-0.1-1.8,0
			c0,0,1,0.1,0.3,0.1l-1.1-0.1c-1.5,0-0.8,0.2-2.5,0.1c0.3-0.1,1-0.1,1.7-0.2c-0.8,0,1.1,0,0.3-0.1c-1.2,0.1-1.7,0-3.3,0.1
			c0.2,0,0.2,0,0.6,0l-2.3,0c0.6,0.1-1.9,0.1-1.7,0.1c2.4,0,1.7,0,4.5,0c-0.8,0-1.8,0.1-2.3,0.2c0,0-0.1,0-0.1,0
			c-0.4,0.1,0,0.1,0,0.2c1.3-0.1,2.1,0,3.6-0.1c0.3-0.1-0.9-0.1-1.6-0.1l1.3,0l-0.3,0l3.3,0c-0.6,0-0.8,0-1.2,0.1c0.4,0,0.8,0,1.3,0
			c-0.1-0.1,0-0.1,0.4-0.1c2.1,0,3.3,0.1,4.1,0.2c0.1,0,0.2,0,0.2,0c-0.4-0.1,1.5-0.1,2.2-0.2c0,0.1,1.1,0.1,1.7,0.1
			c0.3-0.1-0.1-0.2-0.9-0.3c-1.4,0.1-0.8,0.1-1.5,0.2l-2.3,0.1l0.5-0.1c-1.2,0-2.3,0.1-2.2,0c0.6-0.1,1.6,0,2.2-0.1l-0.8,0
			c1.4-0.1,0.7,0.1,2.3,0c-0.6-0.1,0.1,0,0.8-0.1c-0.6-0.1-2.9,0-2.4-0.1c0.9-0.1,2.9,0.2,4,0l-0.1,0c1.7,0,2.2-0.1,2.9-0.1
			c0.7,0,1.7,0,2.4,0l0,0l1.1,0c-0.5,0.1-1.3,0-2.2,0L156,52c-1.1-0.1-1.8,0-2.6,0.1c1.2-0.1,3.4,0,3.7-0.1l0.7,0.1l0.4,0
			c0.6,0.1,0,0.1-1.1,0.2c-0.2,0-0.3,0-0.2,0c-0.5,0-1,0.1-2.2,0.1l0.6,0c-1.5,0-2.9,0-3.4,0.1c2.2,0,4.3,0,6.4,0.1
			c0.6-0.2,1.3-0.2,1.6-0.4c1.4,0,3.2,0,4.4,0l-0.1,0c0.6,0,1.1,0,1.6,0c0.6,0-0.4,0.1,0,0.1l2,0c-0.1,0.1-1.8,0.1-2.6,0.1
			c0.1,0,0.4,0,0.4,0c-0.9,0-2.6,0.1-3,0c-0.4,0,0.9-0.1-0.6-0.1c-1,0-1.3,0-1.4,0.1c0,0,1.6,0.1,1,0.1c0.8,0,1.1-0.1,2.1,0
			c-0.8,0-1.8,0.1-2.3,0c-1.5,0.1-1.3,0.2-0.6,0.3c-0.2-0.1,2.8-0.1,0.8-0.1c0.9-0.1,2.6-0.1,3.8-0.1l-0.1,0l1.5,0
			c-0.2,0-0.7,0-0.7,0.1l2-0.1c-1.1,0.1,0.7,0.1,1.2,0.1c0.2-0.1,1-0.1,0.3-0.1c-0.9,0-0.5,0-1.3,0l1.1-0.1l0.1,0l0.7-0.1
			c1.5,0-0.7,0.2,1.3,0.1l-0.2-0.1c2.2,0,5.1,0.1,6.7,0.1c-0.4,0.1-0.6,0.2,0,0.2c-0.7,0-2,0-3,0c-0.2,0,1.2-0.1,2.3-0.1
			c-0.5-0.2-2.7,0.1-2.8-0.1c-2.7-0.1-2,0.2-4.3,0.1c0,0.1-0.7,0-0.8,0.1c0.7,0.1,3.1,0,4.6,0.1c-0.1,0-0.4,0-0.5,0
			c1.1,0,1.5,0,2.3,0l-0.1,0c1.3-0.1,0.8,0.1,1.6,0.1c0.3,0,1.4,0,1.2,0l1.4,0.1l-0.1-0.1c0.8,0,1,0.1,1.7,0l0-0.1l-1.9,0
			c1,0,0.3-0.1,1.4-0.1c-1.2,0.1,0.9,0,1,0.1l0.8,0l-0.2,0c0.6,0,0.7,0,1.5,0c-0.9,0-1.4-0.1-2.5,0c0.9,0,2.4-0.1,2.8-0.1
			c0.8,0,1.4,0,2.2,0c-1.5,0,0.5,0.2-2.5,0.2c0.1,0,0.3,0,0.4,0c-0.4-0.1-1.8,0-2.5,0c0.2,0.1-0.5,0.1,0.6,0.1c-0.4,0,1-0.1,2.1-0.1
			l-0.2,0.1l1.6,0l-0.2,0c0.6,0.1,1.7,0,2.8,0c0.8,0,3.9,0,2.5-0.1c1,0.1,1.9,0,2.9,0l-1.3-0.1c1.6-0.1,1.1,0,2.4-0.2
			c0.1,0,0.4,0.1,0.2,0.1c2.1,0,5.2,0.1,6.5,0c1.5,0,1.7,0.2,3.9,0.1c0.4,0-0.3-0.1,1.1-0.1c0.1,0-1.4,0.1,0.2,0.1
			c1.1-0.1,2.6,0.1,4.1,0c0.8,0,2.1,0,1.8,0.1c-1.2,0-2.9,0-3.2,0c0.2,0-0.9,0,0-0.1c-1.8-0.1-1.2,0-2.8,0c-0.1,0,0.8,0.1,1.2,0.1
			c0,0.1-3.2,0-1.8,0.2c1.8,0,2.3-0.2,3.8-0.1c-0.6,0.1-1.6,0-2.3,0.1l1.2,0l0.9-0.1l-0.1,0c2.2,0.1,2-0.1,4-0.1
			c-1.1-0.1,0.3-0.2-0.6-0.2c1.3,0,2.3,0,2.3,0.1c-2.5,0.1-0.1,0.1-2.4,0.2c0.4,0-0.5,0.1,0.8,0.2c1.5-0.1-0.5-0.1,1.1-0.1
			c0.1,0,0.2,0,0.1,0c0.7-0.1,0.8,0,1.7,0l-0.2,0c1,0.1,1.1-0.1,2,0c-0.4-0.1,0.6-0.1,1.2-0.1c-0.9,0-1.4-0.1-3.2-0.1
			c-0.2,0.1-0.1,0.1-0.8,0.1l1.2,0l-0.7,0l-1.1,0c1.4,0,0.8-0.1,1.4-0.2c1.3,0,1.1,0,1.9,0c-0.1,0.1,2.5,0.2,4,0.2
			c-0.2,0-0.5,0-0.7,0c-1.1,0.1,0.8,0.1,0.8,0.1l0.8,0c-0.1,0-0.4,0,0,0c1.1,0,1-0.1,2.1-0.1c0.1,0-0.8,0.1-0.2,0.1
			c0.2,0,1,0.2,2.4,0.1c0.1,0,0.5,0,0.9,0c-0.1,0-0.1,0-0.2,0l0.9,0.1c-0.8,0.1-1.6,0-2.5,0l-0.1,0.1c-0.6,0-1.5,0-1.9,0.1
			c1,0,1.2,0,2.2,0c0.2,0-0.6,0.1-0.7,0.1l0.2,0c-1.3-0.1-1.9,0.1-3.5,0c-0.2,0-0.1,0,0,0c-1.3,0.1-2.6,0-3.8,0.1l0.4,0
			c-0.8,0-2.5,0.1-4.2,0.2l0,0c0.2,0-0.4,0-0.8,0h0c-0.9,0-1.7,0.1-2.3,0.1c0.2,0,0.5,0,0.8,0c0.3,0,1.8,0,1.6-0.1
			c0.7,0.1,1.9,0,2.4,0c-1-0.1,0.7-0.1,0.8-0.1c0.3,0.1,1.4,0,1.3,0.1c0.2,0-0.5,0-0.9,0c-1,0.1,1.8,0.1,0.6,0.1
			c1.7,0,3.5,0,5.3-0.1l-0.9,0c0.7,0,2.4,0,2.6,0c-0.5,0-1.2,0-1.9,0c0,0.1,1.7,0,1.7,0.1l2-0.1l-0.9,0c0.6,0,2.4,0,3.7,0
			c-0.8,0.1-2.1,0-3.5,0c-1,0,0.6,0.1-0.3,0.1c0.3,0,0.9,0,1.2,0l0.4,0c-0.9,0.1-2.8,0.1-4.2,0.1c0.1,0,0.2,0,0.3,0c-1,0-2,0-3,0
			c0.5,0,0.7,0,1,0c0,0-0.9,0-1.2,0.1c0.9,0,0.2,0.1,0.7,0.1c-0.6,0-1.1,0-1.8,0c-0.4,0,0.3,0,0.2-0.1c-0.7,0-1.1-0.1-2.2,0
			c1.5,0-0.4,0.1-0.9,0.1l0.2,0c-0.5,0.1-0.9,0.1-1.2,0c0.6,0,1.2,0,1-0.1c-0.4,0-0.7,0-1.2,0l0.4,0l-2,0c-0.3,0-0.8,0.1-1.1,0.2
			c-0.5,0-1.1,0-1.6,0l0.2,0c-0.9,0-2.8,0-2.9,0c-0.6,0,4.4-0.3,0-0.2c-1.7,0-1,0.1-2,0.2c0,0,0.1,0,0,0c-0.7,0-0.8,0-1.4,0.1
			c0.4,0,1.1,0,1.3,0c-0.2,0.1-1.5,0-2.1,0c0.7-0.1-1.4,0-0.8-0.1c-1.4-0.1-3,0-3.7,0.1c-1-0.1-1.7,0-3.3,0c0.2,0,0.6,0,1,0
			c0.9-0.1-1.6,0-0.3-0.1c-0.3,0,0,0,0.3,0c0.5,0,1,0,0.9-0.1l-1.3-0.1l0.5,0l-2-0.1c-0.1,0,0.1,0,0.2,0c-2.3,0-4.9,0-6.9,0
			c-0.4,0.2-4.9,0.1-6.5,0.2c0.4-0.1,0.7-0.2,0.4-0.2c0.4,0,1.1-0.1,1.9-0.1c0.1,0,1.1,0.1,0.5,0.1c2.3,0-0.3-0.1,0.4-0.2
			c-2.5,0-4,0.1-5.5,0.2l0,0l-1.2,0c1,0,0.9,0.1-0.3,0.1l0.2,0c-0.7-0.1-2.2,0-3.3,0l-0.8,0.1c-1.1,0-1.2-0.1-1.5-0.2
			c-1.8,0-2.8,0.1-4,0.1c-0.6-0.1-3.2-0.1-1.8-0.1c-1.6,0-1.3,0.3-4,0.2l0.7-0.1c-2.6,0-6.3,0.1-7.5,0c1-0.2-3.2-0.2-3.7-0.4
			c0.1,0-0.8,0.1-1,0.1c-0.2,0-0.6,0-0.9,0c1,0-0.7,0.2,1.2,0.1c-1,0.1-2.2,0.2-4.4,0.2l0-0.1l1.7,0c-0.2-0.1,0.7-0.1,1.1-0.1
			c-3.2-0.1,0.4-0.2-2.8-0.2c-0.3,0-0.1,0-0.9,0c0.4,0,0.5-0.1-0.2-0.1l-0.6,0.1c-1.1-0.1,1.9-0.1,0.9-0.2c1.2-0.1,3.4-0.1,3-0.2
			c-2,0-1.8,0.2-4,0.1l-0.2,0c-0.7,0-0.9,0.1-1.3,0.1c0,0-0.2,0-0.7-0.1c-1.3,0.1-1.9,0.1-3.3,0.2c3.1-0.1,2.6,0.1,5.8,0
			c-0.5,0-2.8,0-2.9,0.2l0-0.1c-1,0-2.1,0.1-3.4,0l0.8,0c-1.7,0-2.9-0.1-4.2,0c0.5,0,0.8,0,1.2,0c-0.9,0-2,0-3,0l-2,0.1
			c0,0-1.3,0-0.6-0.1c-1.4-0.1-2.1,0-3,0.1c-1.5-0.1,1.3,0,1.4-0.1c-2,0-4.2,0-5.3,0c0.4,0,0.6,0,0.6,0.1c-0.1,0-0.9,0-1.3,0l-0.3,0
			c-0.8,0-0.7-0.1,0-0.1c-0.7,0-1.6,0.1-2.3,0c1.2-0.1,2.8,0,3.5,0c-2.6,0-2.6-0.2-5.9-0.1c0,0,0.5-0.1-0.1-0.1
			c-1.5,0-0.4,0.1-0.8,0.2c1.1,0,1.7,0,2.3,0.1l-0.3,0c0,0-0.8,0-1,0l-0.2,0.1c0.1-0.1-1.1-0.2-1.9-0.1c0.9,0.1,0.7,0.1,0.9,0.2
			c-1.3,0.1-1.4-0.1-2.8,0c0.1,0,1.3,0,0.3-0.1c-0.9,0-0.8,0.1-1.4,0.1c0.7-0.1,0.5-0.1,1.2-0.2c1.5,0,0.6,0,2.2,0l-1.3-0.1
			c1.3,0,1-0.1,1.1-0.1c-2.3-0.1-1.7,0.1-3.2,0.1c-0.7,0.1,1.4,0,0.3,0.1c-1.4,0-0.3,0-1.8,0.1l0.3,0c-0.5,0-0.9,0-1.5,0
			c-0.6,0,0.7,0.3-1.8,0.3c0.1,0,0.2,0,0.2,0l2.4-0.6c-2.5,0-5.3-0.1-8.2-0.1c-0.7-0.1,2-0.1,1.9-0.2l1.3,0c-0.1,0.1-2.7,0-1.6,0.1
			c2.3,0,3.4,0,5.5-0.1c-0.7-0.1-2.9,0-4.3-0.1c0.6,0,1.1,0,1.6,0c-1.3,0-2.8,0-4.3-0.1l-0.3,0c1,0,1.7,0,1.8,0
			c-1.4,0-2.5,0.1-2.6,0.1l0.2,0l-0.5,0L102.5,52.9z M14.4,52.6c0.1,0,0.1,0,0.2,0C14.6,52.6,14.6,52.6,14.4,52.6z M129.1,52.7
			c-1.8,0-3.6,0-5.4-0.1c3.1,0.2,5.4,0.3,0.1,0.3l-0.3,0c0.7,0,1.9,0,3,0c0.4,0,1.4-0.1,2.2-0.2c0.8-0.1,1.5-0.1,1.5-0.1
			c-0.3-0.1-0.8,0-1.4,0L129.1,52.7z M130.4,53c1,0,0.8,0,1-0.1c-0.4,0-0.7,0-1.1,0C130.4,52.9,130.5,53,130.4,53z M131.3,52.9
			c-0.1,0-0.2,0-0.3,0L131.3,52.9z M111.3,52.8c0,0,0.1,0,0.1,0c-0.2,0-0.5,0-0.7,0C110.8,52.8,111,52.8,111.3,52.8z M113.4,52.9
			l0.2-0.1c-0.2,0-0.5,0-0.7,0C113.1,52.8,113.1,52.9,113.4,52.9z M120.1,53.1c0.4-0.1,1.8-0.1,1.9-0.2c0.1,0-0.2,0-0.5,0
			c-0.4,0-0.8,0-1.2,0c0,0-0.1,0-0.2,0c0.4,0,0.7,0,0.5,0.1c-1.1-0.1-1,0.1-2.1,0.1C118.1,53.1,119.8,53.1,120.1,53.1z M209.2,53.1
			c0,0,0.2,0,0.3,0.1l-0.8,0c-1.5,0-2.6-0.2-3.9,0c-0.6,0-0.9-0.1-1.3-0.1c0.3,0,0.6,0,0.8,0C207.9,52.9,206.2,53.2,209.2,53.1z
			 M192.4,52.9c0.2,0,0.2,0,0.2,0c-3.3,0.2-5.9,0.2-7.7,0.2c0.3,0.1,1.9,0.1,2.7,0.2l-0.7,0.1l-0.4-0.1l-1.1,0.1
			c0.3,0.1,1.2,0,1.9,0.1c0.2,0,1.9-0.1,2.6-0.1l-1.6-0.1c0.4,0,2.5,0,3.4,0c0,0-1.4-0.1-1.6,0c-0.2-0.1,1.5-0.1,0.4-0.1
			c1.2-0.1,3.2,0,4.1,0l0.2,0.1c1,0,0.7-0.1,1.9-0.1c-1.5,0,0.2,0.1-0.9,0.1c0.4,0,0,0.1,1.2,0.1c1-0.1,1.2,0.1,2.2,0
			c0.6,0-0.7,0.1,0.5,0.1c1.4-0.1,1.3-0.1,1.4-0.2c-1.3,0-1.5,0.1-2.5,0.1l2.1-0.1c-0.4,0-0.7,0-0.9,0c0.4,0,0.8,0,1.1-0.1
			c0.2,0,0.3,0,0.5,0c-1.2,0-2.3,0-2.5,0l0.2,0c-0.4,0-1.1,0-1.4,0c-1.1,0-2.1,0.1-2.4,0l0.4,0C194.2,52.9,194.1,52.9,192.4,52.9z
			 M149.2,52.7c0.8,0.2,1.7,0.3,5.4,0.3l-0.3,0c1.9,0.1,3.7-0.1,6,0c-1.1,0.1-1.1,0.1-2.3,0.2l1.2,0c-0.3,0.1,0.9,0,1.7,0.1
			l-0.8,0.1c-0.5,0-1.9,0-1.8,0c0.3,0-1.8-0.1-2.9-0.1c0.1,0.1,2.5,0.1,1.4,0.2c0.9,0,1.1,0,2.1,0c-0.9,0-0.2,0.1-0.9,0.1l1.6,0
			c0,0-2.4,0-1,0.1c0.6,0,2.4,0,2.4-0.1l0,0c1.2,0,0.5-0.1,2-0.1c0,0-0.3-0.1-0.8-0.1c-0.5,0-0.5,0.1-1.5,0.1
			c-0.4-0.1,1.1,0,0.5-0.1c-0.3-0.1-2.5,0-1.8-0.1l1.2,0c0-0.1,0.9-0.1,0.9-0.1c0.7,0,1.4,0.1,2.2,0c0.3,0-0.2-0.1,1-0.1
			c1,0.1,3.9,0.1,4.9,0.1l0.9,0c-0.1,0-1.8,0-1.2-0.1l1.5,0l-0.1,0c0.5,0,1,0,1.4,0c-0.5,0.1-1.5,0-1.3,0.1c0.7,0,0.8,0,1.4,0
			c-0.1,0-0.3,0-0.2,0c1.4,0,1.4-0.1,1.7-0.1c1.4-0.1-1.4-0.1-1.2-0.2l4.1,0c-0.4,0-0.7,0.1-0.6,0.1c1,0,0,0.1,1.4,0.1
			c-0.1-0.1,1.8-0.1,2.8-0.1c0.5,0,0.6,0.1-0.5,0.1c0.1,0.1,1.5,0,2,0.1c0.3,0,0.7,0,1.1,0c-0.4,0-0.2-0.1,0.7-0.1l0.1,0
			c-1.5,0-3.7-0.1-4.6,0l0.3,0c-1.7-0.1-3.7,0.1-4.4,0c0.1-0.1-0.3,0-0.3-0.1l-1.2,0.1l0.3,0l-2.1,0l0.1,0c-1,0.1-1.8,0.1-2.4,0.2
			c0,0,0.1,0-0.3,0.1c-0.3,0-0.6,0-0.8,0h0l0,0c-0.4,0-0.9-0.1-1.5-0.1l2,0c0.2-0.1,0-0.1-1-0.2c0.4,0,0.6,0,0.1-0.1
			c-0.1,0-1.3,0-0.8,0.1c-1.9,0-4.9-0.1-7.7,0c2-0.1-1.6-0.1,0.6-0.1c-1.6-0.1-1.4,0.1-3,0.1c-0.1,0,0.9,0,1.2-0.1
			c-2.7,0-4.5,0.1-7.1,0.1l-0.1-0.1C150.3,52.7,149.7,52.7,149.2,52.7z M144.1,52.8c-0.5,0-1,0-1.5,0l0.1,0l-1.5,0.1
			c0.9,0,1.5,0.1,0.2,0.1c0.1,0-0.3-0.1,0.2-0.1c-0.9,0-2.7-0.1-2.3,0c1.6-0.1,0.4,0.1,1.7,0.1c-0.7,0.1-1.4,0-2,0.1
			c0.7-0.1-0.2-0.1-1.2-0.2c-0.5,0-1.6,0-2.4,0c0.3,0.1-0.4,0.1,0.8,0.1c-0.4,0-1.1,0-1.9,0c0.3,0,0.8,0,0.8,0
			c-0.5-0.1-1.1-0.1-1.4-0.1c-0.3,0-0.5,0-0.8,0c0.1,0,0.1,0,0.2,0l-0.9,0.1c1.1,0,0.5,0,0.5,0.1c0-0.1-0.7,0-1.1,0l0.8,0.1
			c-0.4,0-1.4-0.1-1.2,0c1.8,0,2.5,0,4.1,0l-0.7-0.1c1.8,0,1.1,0.1,3.2,0.1c0.9-0.1,3.1,0,3.1-0.1c-0.3,0,1.3,0.1,2,0.1
			c0.8-0.1,3.1-0.1,2.4-0.2c-0.6,0-1.5,0.1-2,0l1.2,0l-0.8-0.1C144.3,52.9,144.3,52.9,144.1,52.8z M116.6,52.1L116.6,52.1
			L116.6,52.1L116.6,52.1z"/>
		<path class="st0" d="M227.3,52.9c0.4,0,1.2,0,1.1-0.1C228.4,52.9,226.8,52.9,227.3,52.9z"/>
		<path class="st0" d="M228.4,53c0.1,0,0,0,0.4,0l-1.1,0L228.4,53z"/>
		<path class="st0" d="M229.5,53.4c0.6,0,0.9-0.1,1.8-0.1c0.3,0.2-1.4,0-1.8,0.2c1.6,0,2.1-0.1,3.4-0.1
			C232.2,53.3,229.5,53.3,229.5,53.4z"/>
		<polygon class="st0" points="228.8,53.6 229.7,53.6 229.6,53.6 228.7,53.6 		"/>
		<path class="st0" d="M209.5,52.3c-0.1,0-0.6,0-0.9,0C208.8,52.3,209.1,52.3,209.5,52.3z"/>
		<path class="st0" d="M34.5,51.7l-6.8,0C29.6,51.7,31.4,51.7,34.5,51.7z"/>
		<path class="st0" d="M186.9,52.5c1.8,0,2.6-0.1,4.5-0.1c-2.4-0.1-3.2,0.1-5.3,0L186.9,52.5z"/>
		<path class="st0" d="M187.6,52.1c0.3,0.1-1.4,0.1-1.1,0.2c1.2,0,0.6-0.1,1.7-0.1L187.6,52.1z"/>
		<polygon class="st0" points="195.8,53.6 195.3,53.6 195.7,53.6 		"/>
		<polygon class="st0" points="179.3,52.2 179.5,52.2 178.6,52.1 		"/>
		<path class="st0" d="M179.7,52.1l-0.2,0L179.7,52.1z"/>
		<polygon class="st0" points="195.1,53.8 196,53.8 196.4,53.8 		"/>
		<path class="st0" d="M187.9,53.3l0.7,0C188.5,53.3,187.5,53.2,187.9,53.3z"/>
		<polygon class="st0" points="173.7,52.1 172.8,52.2 172.9,52.2 173.8,52.1 		"/>
		<path class="st0" d="M182.1,53.5c0.5,0.1-1.5,0-0.4,0.1C182.6,53.6,182.2,53.6,182.1,53.5z"/>
		<path class="st0" d="M171.3,53c-0.1,0-0.2,0-0.4,0C171.1,53,171.2,53,171.3,53z"/>
		<path class="st0" d="M171.3,53c0.4,0,0.8,0,1,0C171.9,53,171.7,53,171.3,53z"/>
		<path class="st0" d="M166.9,53l0.4,0c-0.4,0-0.2,0,0.1,0c0.4,0,0.4,0,0.4,0c0.1,0,0.2,0,0.2,0c-0.1,0-0.2,0-0.3,0
			C167.1,53,166.7,53,166.9,53z"/>
		<path class="st0" d="M150.3,51.9c1.3,0,1.6,0,1.6,0.1c1.2,0,1-0.1,1.8-0.1C152.2,51.9,152,51.9,150.3,51.9z"/>
		<path class="st0" d="M153.6,51.9c0.2,0,0.3,0,0.5,0C153.9,51.9,153.8,51.9,153.6,51.9z"/>
		<polygon class="st0" points="172.1,53.6 171.3,53.7 171.6,53.7 		"/>
		<path class="st0" d="M148.3,51.8c0.2,0,0.6,0,0.8,0C149.2,51.8,148.1,51.8,148.3,51.8z"/>
		<path class="st0" d="M153.4,52.9c0.1,0,1,0,1.3,0C154.2,52.9,153.8,52.8,153.4,52.9z"/>
		<path class="st0" d="M144.6,52c0.2,0,0.6,0,0.5,0.1C145.4,52.1,145.9,52,144.6,52z"/>
		<polygon class="st0" points="151,52.8 151.2,52.9 152.1,52.8 		"/>
		<path class="st0" d="M154.2,53.6c1-0.1-1.6-0.2,0.1-0.2c-2.2-0.1,0.2,0.1-1.5,0.1C153.8,53.5,154.3,53.6,154.2,53.6z"/>
		<path class="st0" d="M152.8,53.5c-0.1,0-0.3,0-0.5,0C152.6,53.5,152.7,53.5,152.8,53.5z"/>
		<path class="st0" d="M138.7,53.1c0.1,0,0.2,0,0.3,0C138.9,53.1,138.8,53.1,138.7,53.1z"/>
		<path class="st0" d="M147.6,53.5l1.5-0.1c-1,0.1-3.5,0.1-3.4,0.1c0.8,0,1.8,0,2.2,0L147.6,53.5z"/>
		<path class="st0" d="M130.3,51.8l0.6,0l-0.8,0C130.4,51.8,129.9,51.8,130.3,51.8z"/>
		<path class="st0" d="M130,51.7l0.2,0C130.1,51.7,130,51.7,130,51.7z"/>
		<path class="st0" d="M141.5,53c0.5,0,0.9,0,1.3,0C142.7,53,141.5,53,141.5,53z"/>
		<polygon class="st0" points="125.7,51.9 126.8,51.9 125.6,51.9 		"/>
		<polygon class="st0" points="120.7,51.7 120.5,51.7 119.6,51.8 119.8,51.8 		"/>
		<path class="st0" d="M127.2,53.6c0.7,0,1.3-0.1,1.1-0.1h-1.4c0.4,0.1,0.4,0,1.2,0L127.2,53.6z"/>
		<path class="st0" d="M83.5,51.8c0.3,0,1.9,0,1.9,0c-0.2,0-1,0-0.5,0.1l1.2-0.1c1.6,0.1-1.2,0.2-2,0.2c1.7,0,2.1-0.1,3.9-0.1
			c-0.5,0-0.8,0-1.1-0.1c-0.1-0.1,1.6,0,2.8,0c-0.7,0-0.3-0.1,0.2-0.1c0.1,0,0.1,0,0.2,0l0.2,0h-0.1c0,0,0,0-0.1,0
			c-1,0-1.7-0.1-2.4-0.1c0.6,0.1-2.2,0-3,0.1l-0.9,0h-0.3c-0.1,0,0,0,0.6-0.1c-0.4,0-1.9,0-1.8,0.1l-3.3,0c-0.1,0-0.2,0-0.3,0
			c-0.1,0-0.1,0-0.1,0l-14.5,0c0.7,0,1.4,0,2.1,0.1c-1.1,0.1,1.2,0,0.9,0.1c-0.5,0-1.2,0-1.7,0c-0.2,0,0.5,0.1,0.4,0.1
			c1.8,0.1,2.1-0.1,3.9-0.1c-0.1,0.1-0.6,0.1,0.5,0.1l-0.3,0c1.9-0.1,1.5,0.1,2.6,0l0,0.1c0.9-0.1,2.5-0.1,3.4-0.1l-0.1,0
			c2.6-0.1,1.5,0,4.4,0L78.9,52c1,0,1.2-0.1,2,0c-0.1,0,0.1,0.1-0.6,0.1l3.6-0.1C84.7,51.8,83.6,51.8,83.5,51.8z"/>
		<path class="st0" d="M88,51.9c0.2,0,0.4,0,0.7,0C88.4,51.9,88.2,51.9,88,51.9z"/>
		<path class="st0" d="M62.9,51.6l1,0C63.6,51.6,63.3,51.6,62.9,51.6z"/>
		<path class="st0" d="M93.1,51.8c-0.6,0,0.5-0.1,0.6-0.1l-2.2,0c0,0-0.2,0.1-0.2,0.1H93.1z"/>
		<path class="st0" d="M90.9,51.6c-0.1,0-0.3,0-0.6,0.1l1.2,0C91.5,51.6,91.3,51.6,90.9,51.6z"/>
		<polygon class="st0" points="91.1,53.2 90.7,53.2 90.1,53.2 		"/>
		<path class="st0" d="M84.9,53c0.5,0,1.4,0,1.7,0C85.6,53,86,53,84.9,53z"/>
		<polygon class="st0" points="86.2,53.5 85.2,53.5 85.3,53.5 		"/>
		<path class="st0" d="M55.4,51.9l-0.5,0C55.1,51.9,55.3,51.9,55.4,51.9z"/>
		<path class="st0" d="M63.9,51.8c-2.4-0.1,1.5-0.1,0.8-0.2l-1.3,0l0.1,0l-1.6,0c0.3,0.1,0.6,0.1,0.5,0.1c-2.1,0-0.7-0.1-2.2-0.1
			l-2.3,0l0.2,0c-0.2,0-0.3,0-0.4,0l-7.9,0c-1.4,0,0.8,0.1-0.3,0.2c1.7,0,4.1,0.1,4.3,0c-0.1,0-0.2,0,0.2,0.1l1-0.1l-0.9,0
			c1-0.1,4.1-0.1,4.6,0c-1.8,0-0.9,0.1-3.3,0.1c0.1,0,0.6,0.1,0,0.1C58.3,51.9,60.9,51.9,63.9,51.8z"/>
		<path class="st0" d="M34.9,51.8L34.9,51.8C34.9,51.8,34.9,51.8,34.9,51.8z"/>
		<path class="st0" d="M35.9,51.8l1.4-0.1l-2.2,0l-0.2,0.1c0.2,0,1-0.1,1.3,0L35.9,51.8z"/>
		<path class="st0" d="M38.9,51.7c-1.1,0-1.1,0.1-0.5,0.2c-1,0-0.5-0.1-1.3,0c0,0.1,1.3,0,1.6,0L38.9,51.7z"/>
		<polygon class="st0" points="47.3,51.7 47,51.8 47.7,51.8 		"/>
		<path class="st0" d="M47,51.8l-0.8,0c0.1,0,0.1,0.1,0.2,0.1L47,51.8z"/>
		<path class="st0" d="M44.1,51.7c-0.3,0-0.7,0-1.1,0L44.1,51.7z"/>
		<path class="st0" d="M45,51.7L45,51.7l-0.9,0C44.5,51.7,44.7,51.7,45,51.7z"/>
		<path class="st0" d="M46.2,51.8c-0.1-0.1-0.3-0.1-1.4-0.1l0.2,0.1L46.2,51.8z"/>
		<polygon class="st0" points="79,53.4 78.1,53.4 78.2,53.4 79.1,53.4 		"/>
		<path class="st0" d="M73.9,53.3c-0.2,0-0.4,0-0.5,0C73.6,53.4,73.8,53.3,73.9,53.3z"/>
		<path class="st0" d="M70.1,53.7c-1-0.1,1.4-0.1-0.5-0.1c-0.2-0.1,0.7-0.1,1.7-0.1c-0.1,0.1-0.9,0-0.3,0.1c0.6-0.1,0.8,0,0.6-0.1
			c1,0,1.1-0.1,1.8-0.2c-1.2,0-3.8-0.1-5.4,0c-0.9,0.1-0.3,0.2-0.3,0.4C67.7,53.8,70,53.8,70.1,53.7z"/>
		<path class="st0" d="M71.7,53.9c0.5,0,0.6,0,0.9,0C72.6,53.8,72.1,53.9,71.7,53.9z"/>
		<path class="st0" d="M60.6,52.8c-0.1,0-1,0-0.8,0.1l1.3,0C60.8,52.9,60.7,52.8,60.6,52.8z"/>
		<path class="st0" d="M61.7,52.8l-0.6,0C61.3,52.9,61.4,52.8,61.7,52.8z"/>
		<path class="st0" d="M60.5,52.8L60.5,52.8C60.6,52.8,60.6,52.8,60.5,52.8z"/>
		<path class="st0" d="M40.9,51.7c0,0-0.6,0-0.9,0C40.3,51.7,40.6,51.7,40.9,51.7z"/>
		<path class="st0" d="M18.6,51.8l-0.5,0C18.2,51.8,18.3,51.8,18.6,51.8z"/>
		<path class="st0" d="M10.5,52.8c0,0-0.1,0-0.1,0C10.4,52.8,10.5,52.8,10.5,52.8z"/>
		<path class="st0" d="M10.4,52.8c-0.4,0-1.5,0-1.9,0l0.1,0l-0.7,0C8.5,52.8,10,52.8,10.4,52.8z"/>
	</g>
	<g>
		<path class="st2" d="M88.6,37c0,2.3-1.4,3-2.9,3c-1.9,0-2.3-2.3-2.3-3.8c0-3.2,2.5-5.1,5.2-5.7L88.6,37z M96.7,26.1
			c0-6.6-4.4-8-10.2-8c-4.3,0-10.4,1.7-10.4,7c0,2.1,1.3,3.8,3.5,3.8c2.1,0,3.9-1.4,3.9-3.5c0-2.2-1.4-2.3-1.4-3.7
			c0-1.3,1.6-2.1,3.3-2.1c2.2,0,3.3,1.2,3.3,4.4l0,4.6c-4.7,1.4-13.3,4.1-13.3,10c0,3.6,2.3,5.4,5.8,5.4c2.8,0,5.5-1.5,7.6-3.3
			c0.8,2.2,2.4,3.3,4.6,3.3c1.9,0,3.9-0.9,5.5-2.3v-1.2c-0.3,0.2-0.6,0.3-1,0.3c-1.2,0-1.2-1.2-1.2-2.1L96.7,26.1z"/>
		<path class="st2" d="M100.4,44.3l1.4,0c0.3-1,0.7-1.6,1.8-1.6c1.4,0,4.4,1.6,8,1.6c7.5-0.1,12.8-4.9,12.8-12c0-4.1-2.2-8-6.5-10.3
			l-6.6-3.5c-2.5-1.4-4.9-2.6-4.9-5.9c0-2.8,2.3-4.4,5-4.4c4.8,0,8.5,4.9,9.4,9.3l1.4,0l-0.4-11.5h-1.4c0,1.1-0.9,1.5-1.8,1.5
			c-0.6,0-1.3-0.2-1.8-0.4c-1.8-0.8-4.4-1.1-5.5-1.1c-6.4,0-10.9,4.7-10.9,11.1c0,4.7,2.1,7.7,6.5,10.2l5.7,3.2
			c2.6,1.3,4.9,3,4.9,6.2c0,3.5-2.8,5.4-6.2,5.4c-5.4,0-8.9-5.6-9.8-10.4l-1.4,0L100.4,44.3z"/>
		<path class="st2" d="M147.9,30.5c0.1-1.9,0-3.7-0.9-6c-1.4-3.9-5.4-6.3-9.5-6.3c-7.4,0-11.9,5.5-11.9,12.6
			c0,7.3,3.7,13.3,11.6,13.3c4.2,0,7.3-1.7,9.6-5.2c0.5-0.6,0.9-1.6,1.1-2.3l-1.1-0.7c-0.6,0.9-2.4,3.8-6.3,3.8
			c-5,0-6.9-4.8-6.8-9.3L147.9,30.5z M133.8,28.6c0.1-2.7,0-8.9,3.8-8.9c3.2,0,3,3.5,3,8.9L133.8,28.6z"/>
		<path class="st2" d="M147.7,43.4l12.6,0v-1.3c-2,0-2-1.3-2-3.3l0-31.7l-10.5,0v1.3c2.1,0,2.4,0.8,2.4,3.2l0,27.3
			c0,2-0.1,3.3-2.5,3.3V43.4z"/>
		<path class="st2" d="M183.5,18.9l-7.2,0v1.3c1,0,2.3,0.2,2.3,1.5c0,0.3-0.1,0.8-0.3,1.3l-3.9,9.7l-3.9-9.9
			c-0.2-0.4-0.2-0.8-0.2-1.1c0-1.3,1.2-1.5,2.6-1.5v-1.3l-13.8,0l0,1.3c0.8,0,1.4,0.1,2.3,2.1l9.1,22.1h0.6l9.3-21.1
			c0.6-1.5,1.2-3.1,3.1-3.1V18.9z"/>
		<path class="st2" d="M194.1,37.1c0,2.3-1.3,3-2.9,3c-1.9,0-2.3-2.3-2.3-3.8c0-3.2,2.5-5,5.2-5.7L194.1,37.1z M202.2,26.2
			c0-6.6-4.5-8-10.2-8c-4.3,0-10.4,1.7-10.4,7c0,2.1,1.3,3.8,3.5,3.8c2.1,0,3.9-1.4,3.9-3.5c0-2.2-1.4-2.3-1.4-3.7
			c0-1.3,1.6-2.1,3.3-2.1c2.2,0,3.3,1.2,3.3,4.4l0,4.6c-4.7,1.4-13.3,4.1-13.3,10c0,3.6,2.3,5.4,5.8,5.4c2.8,0,5.5-1.5,7.6-3.3
			c0.8,2.2,2.4,3.3,4.7,3.3c1.9,0,3.9-0.9,5.5-2.3v-1.2c-0.3,0.2-0.6,0.3-1,0.3c-1.2,0-1.2-1.2-1.2-2.1L202.2,26.2z"/>
		<path class="st0" d="M45.5,43.3l28,0l1.9-11.9L74.2,31c-1.6,5.9-5.2,10.2-10.1,10.2c-4.4,0-4.5-0.4-4.5-3.6l0-24.7
			c0-4.3,1.2-4.5,4.4-4.6V7L45.6,7l0,1.3c3.2,0.1,4.4,0.4,4.4,4.6l0,24.5c0,4.3-1.2,4.5-4.4,4.6L45.5,43.3z"/>
		<g>
			<path class="st0" d="M197.6,14.3c0-1.6,1.3-3,3-3l0,0c1.6,0,3,1.3,3,3l0,0c0,1.6-1.3,2.9-3,2.9l0,0
				C198.9,17.3,197.6,15.9,197.6,14.3L197.6,14.3z M198.2,14.3c0,1.3,1.1,2.4,2.4,2.4l0,0c1.3,0,2.4-1.1,2.4-2.4l0,0
				c0-1.3-1.1-2.4-2.4-2.4l0,0C199.2,11.9,198.2,13,198.2,14.3L198.2,14.3z"/>
		</g>
		<path class="st0" d="M199.6,12.8L199.6,12.8l0,3h0.5l0-1.2l0.3,0c0.3,0,0.4,0.1,0.5,0.5c0.1,0.5,0.2,0.6,0.2,0.7l0,0h0.5l0-0.1
			l-0.2-0.8c-0.1-0.3-0.2-0.5-0.4-0.6c0.3-0.1,0.5-0.4,0.5-0.7c0-0.2-0.1-0.5-0.3-0.6c-0.2-0.2-0.5-0.2-0.9-0.2L199.6,12.8z
			 M200.4,13.1c0.3,0,0.6,0.1,0.6,0.5c0,0.3-0.2,0.5-0.6,0.5h-0.3v-0.9C200.2,13.1,200.4,13.1,200.4,13.1"/>
	</g>
</g>
<g>
</g>
<g>
</g>
<g>
</g>
<g>
</g>
<g>
</g>
<g>
</g>
</svg>
