<svg xmlns="http://www.w3.org/2000/svg" viewBox="0 0 181.35 31.45"><defs><style>.cls-1{fill:none;stroke:#1d1d1b;}.cls-2{fill:#1d1d1b;}.cls-2,.cls-3{fill-rule:evenodd;}</style></defs><title>birstall-microAsset 3</title><g id="Layer_2" data-name="Layer 2"><g id="Layer_1-2" data-name="Layer 1"><path class="cls-1" d="M180.85,15.73c0,8.4-6.56,15.22-12.19,15.22h-156C7.06,31,.5,24.13.5,15.73h0C.5,7.32,7.06.5,12.68.5h156c5.63,0,12.19,6.82,12.19,15.23Z"/><path class="cls-2" d="M175.45,9.6a1.48,1.48,0,1,0,1.47,1.48A1.47,1.47,0,0,0,175.45,9.6Zm0,2.57a1,1,0,0,1-1-1.09,1,1,0,1,1,2,0A1,1,0,0,1,175.45,12.17Z"/><path class="cls-2" d="M16.34,7.19a8.42,8.42,0,1,0,8.42,8.41A8.41,8.41,0,0,0,16.34,7.19Zm0,14a5.54,5.54,0,1,1,5.54-5.54A5.54,5.54,0,0,1,16.34,21.14Z"/><path class="cls-3" d="M16.34,11.05A4.56,4.56,0,1,0,20.9,15.6a4.55,4.55,0,0,0-4.56-4.55Z"/><path class="cls-2" d="M25.36,17.88a9.3,9.3,0,1,1,.06-4.29h3.94a13.19,13.19,0,1,0-.05,4.29Z"/><polygon class="cls-2" points="49.11 21.41 36.79 21.41 36.79 9.61 41.05 9.61 41.05 18.52 49.11 18.52 49.11 21.41 49.11 21.41"/><polygon class="cls-2" points="63.38 21.41 50.19 21.41 50.19 9.61 62.89 9.61 62.89 12.33 54.93 12.33 54.93 14.05 61.24 14.05 61.24 16.68 54.93 16.68 54.93 18.59 63.38 18.59 63.38 21.41 63.38 21.41"/><polygon class="cls-2" points="114.46 21.41 101.27 21.41 101.27 9.61 113.97 9.61 113.97 12.33 106 12.33 106 14.05 112.32 14.05 112.32 16.68 106 16.68 106 18.59 114.46 18.59 114.46 21.41 114.46 21.41"/><polygon class="cls-2" points="159.68 21.41 146.48 21.41 146.48 9.61 159.18 9.61 159.18 12.33 151.22 12.33 151.22 14.05 157.54 14.05 157.54 16.68 151.22 16.68 151.22 18.59 159.68 18.59 159.68 21.41 159.68 21.41"/><path class="cls-2" d="M83.52,17.11c-.33,2.72-3.28,4.48-7.33,4.48-5.27,0-8-2.57-8-5.92s2.43-6.23,8-6.23c4.48,0,7,1.79,7.4,4.73l-5,.17a2.09,2.09,0,0,0-2.33-2.25c-2.38,0-2.84,2.46-2.84,3.58s.46,3.2,2.89,3.2a2.09,2.09,0,0,0,2.38-2l4.92.2Z"/><path class="cls-2" d="M100,13.16a3.36,3.36,0,0,0-2.15-3,11.47,11.47,0,0,0-4.54-.55H85.21v11.8h4.34v-4.5H92l2.56,4.5h5.33L97,16.85A3.21,3.21,0,0,0,100,13.16Zm-7.35,1.22H89.55V12.12h3.3a4.83,4.83,0,0,1,1.53.16,1.11,1.11,0,0,1,.85,1C95.23,14.26,93.82,14.38,92.64,14.38Z"/><path class="cls-2" d="M129.33,17.2a3.33,3.33,0,0,1-1.81,3.39,10.16,10.16,0,0,1-4.91,1,12.36,12.36,0,0,1-4.79-.85,3.21,3.21,0,0,1-2.11-3.35V9.61h4.11v6.83c0,.39,0,1.46.31,1.83a4.71,4.71,0,0,0,2.35.6,6,6,0,0,0,2.28-.47c.65-.39.58-1.55.58-2.1V9.61h4V17.2Z"/><path class="cls-2" d="M135.29,18c.47,1.05,1.44,1.16,3,1.16.7,0,1.74-.4,1.74-1.06s-1.35-.86-2.15-1c-3.3-.43-7.22-1-7.22-3.84a3.51,3.51,0,0,1,2.25-3A12.44,12.44,0,0,1,138,9.44c4.86,0,6.4,1.67,7,3.78h-5c-.51-.88-.88-1.17-2.24-1.17-.72,0-1.74.14-1.74.76s1.28.88,1.94,1a25.91,25.91,0,0,1,5,1c1.72.62,2.62,1.52,2.62,2.81,0,2.84-4.21,4-7.84,4s-6.3-1-7.25-3.6Z"/><polygon class="cls-2" points="169.37 21.41 165.05 21.41 165.05 12.45 160.83 12.45 160.83 9.61 173.52 9.61 173.52 12.45 169.37 12.45 169.37 21.41 169.37 21.41"/><path class="cls-2" d="M176.12,10.78c0-.38-.26-.49-.67-.49h-.6v1.59h.36v-.67h.14l.36.67h.39l-.41-.69C176,11.18,176.12,11.07,176.12,10.78Zm-.6.16h-.31v-.37h.31c.13,0,.22,0,.22.17S175.67,10.94,175.52,10.94Z"/></g></g></svg>