<?xml version="1.0" encoding="utf-8"?>
<!-- Generator: Adobe Illustrator 19.1.0, SVG Export Plug-In . SVG Version: 6.00 Build 0)  -->
<svg version="1.1" id="svg_logo" xmlns="http://www.w3.org/2000/svg" xmlns:xlink="http://www.w3.org/1999/xlink" x="0px" y="0px"
	 viewBox="-972 780.3 222.9 62" style="enable-background:new -972 780.3 222.9 62;" xml:space="preserve">
<style type="text/css">
	.st0{fill:#221F1F;}
	.st1{display:none;}
</style>
<g id="logo_Footer">
</g>
<g id="logo_Content">
</g>
<g id="logo_header">
	<g>
		<g>
			<path class="st0" d="M-932.3,797.7c0.5,0.8,1.4,1.3,2.6,1.3c1.1,0,1.5-0.5,1.5-1c0-0.9-1.2-1.1-2.6-1.6c-1.5-0.5-2.5-1.3-2.5-2.9
				c0-1.8,1.6-2.9,3.4-2.9c1.7,0,2.8,0.8,3.5,1.6l-1.5,1.1c-0.4-0.5-1-0.8-1.9-0.8c-0.8,0-1.2,0.4-1.2,0.8c0,0.8,0.8,0.9,2.5,1.5
				c1.9,0.7,2.7,1.5,2.7,3c0,1.8-1.2,3.1-3.8,3.1c-2.2,0-3.6-1-4.3-2.2L-932.3,797.7z"/>
			<path class="st0" d="M-917.1,792.7h-2.8v-2h7.9v2h-2.8v8h-2.3L-917.1,792.7L-917.1,792.7z"/>
			<path class="st0" d="M-904.5,799.5c-1.1-0.9-1.8-2.4-1.8-3.8c0-2.9,2.4-5.2,5.5-5.2c0.9,0,1.6,0.1,2.8,0.8l0.6-0.7h1.7l-1.1,1.4
				c1.2,1.1,1.6,2.3,1.6,3.6c0,2.9-2.4,5.2-5.5,5.2c-0.9,0-2-0.3-2.7-0.7l-0.5,0.5h-1.7L-904.5,799.5z M-899.2,792.8
				c-0.5-0.3-1.1-0.4-1.6-0.4c-1.8,0-3.2,1.4-3.2,3.2c0,0.8,0.2,1.5,0.9,2.2L-899.2,792.8z M-900.7,798.9c1.8,0,3.2-1.4,3.2-3.2
				c0-0.6-0.2-1.5-0.7-2l-3.9,4.9C-901.8,798.8-901.1,798.9-900.7,798.9z"/>
			<path class="st0" d="M-888.7,790.6h2.3v8h4v2h-6.3V790.6z"/>
			<path class="st0" d="M-874.7,797.4c0.5,0.8,1.4,1.3,2.6,1.3c1.1,0,1.5-0.5,1.5-1c0-0.9-1.2-1.1-2.6-1.6c-1.5-0.5-2.5-1.3-2.5-2.9
				c0-1.8,1.6-2.9,3.4-2.9c1.7,0,2.8,0.8,3.5,1.6l-1.5,1.1c-0.4-0.5-1-0.8-1.9-0.8c-0.8,0-1.2,0.4-1.2,0.8c0,0.8,0.8,0.9,2.5,1.5
				c1.9,0.7,2.7,1.5,2.7,3c0,1.8-1.2,3.1-3.8,3.1c-2.2,0-3.6-1-4.3-2.2L-874.7,797.4z"/>
		</g>
		<path class="st0" d="M-753.8,815.1c-2.4,0.3-6.5,1.2-9.1,1.8c-3.4,0.8-6.6,2.6-9.8,4c-1.6,0.7-3.1,1.2-4.4,1.4c0-3.5,1-8,1.8-11.1
			c0.2-0.7-1.4-1.8-2.1-1.9c-1.7-0.3-3.1,0.4-3.6,0.8c-1.5,1-2.8,2.2-4.1,3.5c-1.1,1-4,3.8-5.1,4.7c-1,0.8-1.4,0.8-2.8,0.5
			c-1.4-0.3,0.6-3.8,2.7-4.9c1.5-0.8,2.4,0.1,3-1.2c0.2-0.3-3.3-1.9-4.8-0.6c-0.4,0.4-1.2,0.8-1.7,1.1c-1.7,1-3.2,2.6-4.7,3.9
			c-1.9,1.7-2.7,2.5-4.8,4.7c-2.3,2.3-2.8,3.2-5.1,5.9c-1.1,1.3-3.4,4.2-4.4,5.2c-0.1-4.6,0-7.4,0.4-13.8c0.2-3.3,0.7-6.2,1.4-11.7
			c0.2-1.6,1.2-8,1.4-9.6c1-7.4,3.7-16.2,3-16.1c-2.5,0.3-3.7,0.4-4.6,3.6c-0.9,3-4.1,12.4-4.7,15.4c-0.3,1.4-1,4.4-1.5,5.5
			c-0.5,1.1-4.1,5.6-5,7.1c-1,1.5-4.4,8.9-6.4,8.8c-1-0.1-1.2-8,1.2-10.2c1.6-1.5,2.1-0.4,3.4-0.3c1.1,0.1,1-0.9-1.2-2
			c-1-0.5-1.8-0.8-2.4-0.5c-0.4,0.2-1.2,0.7-2.4,1.5c-1.8,1.4-7,5.8-9.2,7.7c-1.7,1.4-3.7,3.5-5.4,4.9c-1.2,0.9-2.7,1-2.9-0.6
			c-0.4-2.7,0.2-9.1,0.5-13.3c0.3-3.4,2.7-11.7,3.3-13.8c0.8-2.7-0.6-2.2-1.6-1.5c-1.1,0.8-2.5,1.2-3.1,3.1
			c-0.6,2.1-4.6,10.9-5.1,12.9c-1.1,4.4-5.7,13.1-7.3,13.1s-2.5-3.8-2.3-6.1c0.2-2,3.5-1,4-1.1c1.3-0.2,0.8-1,0.1-1.2
			c-0.9-0.3-2.1-0.6-3-0.6c-0.8,0-2.4,0.7-2.7,0.8c-2.5,1-4.1,1.7-5.6,2.8c-1.9,1.4-4.9,3.1-5.8,3.6c-0.9,0.6-2.5,1.6-3.9,2.2
			c-3.2,1.5-4.1,2.2-4.1,0.4c0-1.8-0.4-4.4-0.3-6.2c0.1-2.4,0.2-7.4,0.1-8.1c-0.2-1.1-2.3-0.6-3.6-0.2c-1.5,0.4-2.5,1.3-3,1.5
			c-3,1.5-10.9,6.2-13.9,6.8c-2.3,0.5-4.1,0.1-4.9-2.9c-0.1-0.5-0.9-1.5-1.3-1.6c-0.8-0.1-1.5,0.2-2,1.3c-1.7,4.2-3.8,7.5-5,9
			c-1.7,2.3-2.7,3.1-4.5,4.5c-0.8,0.6-4.4,3.3-5.2,3.4c0-0.5-0.7-12.9-0.8-19c0-2.2-4.6-1.3-6.5-0.3l0,0c-2.6,1.1-7.6,3.2-10.8,3.5
			c-4.5,0.4-8.6,0.7-10.2,1c-3.8,0.6-7.6,2.1-14.1,2.7c-0.3,0-0.7,1.2,0.8,1.2c0.2,0,11-1.9,13.1-2c1.1-0.1,7-0.3,9-0.3
			c4.5-0.1,9.1-1.3,11.6-2.5c-0.7,4.9-1.7,13.5-1.7,15.9c-0.1,3.1,0.1,5.4,1.8,6c5.4,1.9,17.1-10.6,18.6-12c1.6-1.5,5.5-8.6,5.7-8.8
			c1.5,3.4,5.6,2.7,7.7,2.2c1.6-0.4,6-2.3,8-3.2c1.6-0.7,2.5-1.6,4.2-2.4c-0.1,0.4-0.6,4-0.8,4.7c-0.5,2.9-1,4.8-1,6
			c0,2.3-0.5,3.1,2.2,3.8c1,0.3,3.2,0.3,4.5,0.2c0.9,0,2.7-0.3,3.5-0.9c2.2-1.4,8.1-4.9,10.6-5.6c1.4-0.4,3-1.5,3.7-0.3
			s1.3,4.3,4.3,4.4c1,0,1,0.1,2.7,0c3.2-0.1,5.9-6.2,7-8.1c0.8-1.5-0.6,4.8,0.2,12.3c0.2,2.1,2.9,2.6,4.2,1.7
			c1.2-0.8,2.6-2.9,3.7-3.9c1.8-1.7,3.4-3.2,5.1-4.9c4.9-4.8,5.4-2.1,7,0.6c0.8,1.4,4.2,1.4,4.9,1.3c3-0.2,4.3-2.3,5.4-4
			c1.2-1.8,2.2-4.2,3.3-5.9c1-1.5,1.7-2.9,2.8-3.8c0,0-1.4,7.5-1.5,9.8c0,0.7-0.6,8.3-0.6,9c-0.2,3.9-0.5,5.2,0.1,9
			c0.5,3,2.9,2,3.8,1.4c1.3-1,2.1-1.9,3.1-3.2c2.1-2.8,4.4-5.7,6.8-8.4c0.7-0.8,3.2-3.7,4.2-4.7c2.3-2.4,1.7-0.3,3.9,0.1
			c2.9,0.5,4.2,0.9,6.7-1.3c0.8-0.7,2.8-2.9,3.6-3.7c0.9-0.9,4.3-4.2,4.3-4.2c-0.2,1.4-1.1,3.2-1.2,4.8c-0.1,1.3-0.4,3.3-0.4,4
			c-0.1,1.2,1.1,2,2.2,2.7c0.7,0.4,2.7-0.1,4.5-0.9c0.4-0.2,6.2-2.5,8.6-3.7c1.6-0.8,5.1-2.3,6.8-2.7c3-0.7,7.9-1.9,10.7-2.5
			C-749.3,815.4-750,814.6-753.8,815.1z"/>
	</g>
</g>
<g id="Top_text" class="st1">
</g>
<g id="FONTER">
</g>
<g id="Cart" class="st1">
</g>
<g id="_x34__Columns" class="st1">
</g>
<g id="_x33__Columns">
</g>
</svg>
