<svg width="1359" height="381" viewBox="0 0 1359 381" fill="none" xmlns="http://www.w3.org/2000/svg">
<rect width="1359" height="381" fill="white"/>
<path d="M1257.13 121V261H1221.13V165L1162.93 261H1136.93L1078.73 165V261H1042.73V121H1091.33L1149.93 219.8L1208.53 121H1257.13Z" fill="black"/>
<path d="M1003.71 190.8C1003.71 239.4 977.111 263 915.711 263C854.111 263 827.711 239.6 827.711 190.8V121H863.711V190.8C863.711 210.4 869.111 232.8 915.711 232.8C962.311 232.8 967.711 210.2 967.711 190.8V121H1003.71V190.8Z" fill="black"/>
<path d="M787.758 121V261H751.758V121H787.758Z" fill="black"/>
<path d="M720.306 121L635.506 183.2L720.306 261H670.506L608.906 202.8L565.906 234.2V261H529.906V121H565.906V193.6L665.706 121H720.306Z" fill="black"/>
<path d="M314.062 212.8H350.062C350.062 227.6 362.062 234.4 407.663 234.4C445.463 234.4 456.862 230.2 456.862 219.2C456.862 207.6 448.862 205.6 403.462 203.4C342.462 200.6 318.262 191 318.262 159.6C318.262 128.8 349.662 119 402.062 119C454.863 119 486.862 132.2 486.862 166.8H450.862C450.862 151.4 435.463 147.6 398.062 147.6C362.663 147.6 354.262 151 354.262 161.4C354.262 172.2 362.662 174.2 403.462 176.6C458.662 179.6 492.863 182.6 492.863 218C492.863 255.4 457.463 263 405.663 263C348.263 263 314.062 253.2 314.062 212.8Z" fill="black"/>
<path d="M254.4 261L239.4 231.2H155.6L140.6 261H101L173.2 121H221.8L294.2 261H254.4ZM169 204.4H226L197.6 147.6L169 204.4Z" fill="black"/>
</svg>
