<svg width="28" height="29" viewBox="0 0 28 29" fill="none" xmlns="http://www.w3.org/2000/svg">
<path fill-rule="evenodd" clip-rule="evenodd" d="M14.9203 3.39643L14.9437 3.39643C16.0822 3.39643 17.208 3.13334 18.2203 2.61235L18.8557 2.28538L19.9424 4.3971L17.5226 5.64242C17.3907 5.71034 17.3247 5.7443 17.2557 5.76375C17.2321 5.77039 17.2102 5.7754 17.1861 5.77965C17.1155 5.7921 17.0384 5.79009 16.8842 5.78607C16.3202 5.77139 15.6723 5.77139 14.9203 5.77139L12.6127 5.77139C9.89697 5.77139 8.5391 5.77139 7.5872 6.46298C7.27977 6.68634 7.00942 6.95669 6.78606 7.26412L4.86468 5.86815C5.23453 5.35911 5.68219 4.91144 6.19123 4.5416C7.13951 3.85264 8.18271 3.60504 9.1827 3.4967C10.1098 3.39625 11.2384 3.39633 12.4967 3.39642C12.5353 3.39643 12.5739 3.39643 12.6127 3.39643L14.9142 3.39643L14.9203 3.39643ZM7.5872 20.4238C7.27977 20.2005 7.00942 19.9301 6.78606 19.6227C6.09447 18.6708 6.09447 17.3129 6.09447 14.5972L6.09447 12.2896C6.09447 9.57388 6.09447 8.21602 6.78606 7.26412L4.86468 5.86815C4.17572 6.81643 3.92812 7.85962 3.81978 8.85962C3.71933 9.78676 3.71941 10.9153 3.7195 12.1736C3.71951 12.2122 3.71951 12.2508 3.71951 12.2896L3.71951 14.5972C3.71951 14.6359 3.71951 14.6746 3.7195 14.7131C3.71941 15.9715 3.71933 17.1 3.81978 18.0272C3.92812 19.0272 4.17572 20.0704 4.86468 21.0186C5.23453 21.5277 5.68219 21.9754 6.19123 22.3452L7.5872 20.4238ZM12.2008 21.5536C12.1441 21.4348 12.091 21.3538 12.0194 21.2912C11.9769 21.2539 11.9313 21.2227 11.8813 21.1964C11.7298 21.117 11.5417 21.1147 11.1654 21.1102C9.38036 21.0889 8.35256 20.9799 7.5872 20.4238L6.19123 22.3452C7.15314 23.0441 8.2611 23.3079 9.37947 23.4123C10.0082 23.471 10.5693 23.851 10.8039 24.4372C11.7327 26.7582 14.9866 26.844 16.0364 24.5752C16.3453 23.9077 17.01 23.487 17.744 23.4409C18.0825 23.4196 18.4067 23.3888 18.7137 23.3443C19.6018 23.2153 20.5081 22.9508 21.3417 22.3452C21.8508 21.9754 22.2984 21.5277 22.6683 21.0187C23.3572 20.0704 23.6048 19.0272 23.7132 18.0272C23.8136 17.1 23.8135 15.9715 23.8135 14.7132L23.8135 12.1738C23.8136 10.9154 23.8136 9.7868 23.7132 8.85962C23.6249 8.04444 23.444 7.20055 23.007 6.40278C22.8728 6.15797 22.823 5.87177 22.8998 5.60339C23.5864 3.20361 21.075 1.1432 18.8557 2.28538L19.9424 4.3971C20.3123 4.20673 20.7309 4.55014 20.6164 4.9501L20.3696 5.81293C20.2792 6.12874 20.234 6.28668 20.2461 6.41914C20.251 6.47374 20.255 6.49549 20.2699 6.54826C20.283 6.59473 20.3093 6.64815 20.3503 6.71463C20.3703 6.74701 20.3939 6.78248 20.4211 6.82176C20.492 6.92396 20.5881 7.05194 20.7129 7.21816C20.7244 7.23338 20.7357 7.2487 20.7469 7.26412C21.4385 8.21602 21.4385 9.57389 21.4385 12.2896L21.4385 14.5972C21.4385 17.3129 21.4385 18.6708 20.7469 19.6227C20.5235 19.9301 20.2532 20.2005 19.9458 20.4238C19.1081 21.0324 17.956 21.1055 15.8409 21.1142C15.4859 21.1157 15.3083 21.1164 15.1609 21.189C15.1124 21.2129 15.0672 21.2419 15.0253 21.2761C14.9355 21.3493 14.8723 21.4503 14.7909 21.6156C14.7569 21.6847 14.7198 21.7651 14.6761 21.8593L13.881 23.5779C13.706 23.956 13.1637 23.9417 13.0089 23.5549L12.3547 21.9199C12.3438 21.8927 12.3334 21.8667 12.3233 21.8416C12.2767 21.7257 12.238 21.6315 12.2008 21.5536Z" fill="#D74B67"/>
<rect x="12.582" y="9.56281" width="2.61245" height="7.83736" rx="1.30623" fill="#D74B67"/>
<rect x="7.83594" y="11.2249" width="2.61245" height="4.03743" rx="1.30623" fill="#D74B67"/>
<rect x="17.3359" y="11.2249" width="2.61245" height="4.03743" rx="1.30623" fill="#D74B67"/>
<rect y="10.512" width="2.61245" height="5.6999" rx="1.30623" fill="#D74B67"/>
<rect x="24.9336" y="10.512" width="2.61246" height="5.6999" rx="1.30623" fill="#D74B67"/>
</svg>
