<svg width="110" height="29" viewBox="0 0 110 29" fill="none" xmlns="http://www.w3.org/2000/svg">
<path fill-rule="evenodd" clip-rule="evenodd" d="M16.3453 3.39644L16.3687 3.39644C17.5072 3.39643 18.633 3.13334 19.6453 2.61236L20.2806 2.28539L21.3674 4.39711L18.9476 5.64243C18.8156 5.71035 18.7497 5.74431 18.6807 5.76375C18.6571 5.7704 18.6352 5.77541 18.611 5.77966C18.5405 5.7921 18.4634 5.7901 18.3091 5.78608C17.7452 5.77139 17.0973 5.77139 16.3453 5.77139L14.0377 5.77139C11.3219 5.77139 9.96407 5.77139 9.01217 6.46299C8.70475 6.68635 8.43439 6.9567 8.21104 7.26412L6.28966 5.86816C6.6595 5.35911 7.10716 4.91145 7.6162 4.54161C8.56449 3.85264 9.60768 3.60505 10.6077 3.4967C11.5348 3.39625 12.6634 3.39634 13.9217 3.39643C13.9602 3.39643 13.9989 3.39644 14.0377 3.39644L16.3392 3.39644L16.3453 3.39644ZM9.01217 20.4238C8.70474 20.2005 8.43439 19.9301 8.21103 19.6227C7.51944 18.6708 7.51944 17.3129 7.51944 14.5972L7.51944 12.2896C7.51944 9.57389 7.51944 8.21602 8.21104 7.26412L6.28966 5.86816C5.60069 6.81644 5.35309 7.85963 5.24475 8.85962C5.1443 9.78677 5.14438 10.9153 5.14448 12.1736C5.14448 12.2122 5.14448 12.2508 5.14448 12.2896L5.14448 14.5972C5.14448 14.636 5.14448 14.6746 5.14448 14.7131C5.14438 15.9715 5.1443 17.1 5.24475 18.0272C5.35309 19.0272 5.60069 20.0704 6.28965 21.0187C6.6595 21.5277 7.10716 21.9754 7.6162 22.3452L9.01217 20.4238ZM13.6257 21.5536C13.5691 21.4348 13.516 21.3538 13.4444 21.2912C13.4019 21.254 13.3563 21.2227 13.3063 21.1965C13.1548 21.117 12.9666 21.1147 12.5904 21.1102C10.8053 21.0889 9.77753 20.9799 9.01217 20.4238L7.6162 22.3452C8.57812 23.0441 9.68607 23.3079 10.8044 23.4123C11.4331 23.471 11.9943 23.851 12.2289 24.4372C13.1577 26.7582 16.4116 26.844 17.4614 24.5752C17.7702 23.9077 18.4349 23.487 19.169 23.4409C19.5074 23.4196 19.8317 23.3889 20.1387 23.3443C21.0267 23.2153 21.9331 22.9508 22.7667 22.3452C23.2757 21.9754 23.7234 21.5277 24.0932 21.0187C24.7822 20.0704 25.0298 19.0272 25.1382 18.0272C25.2386 17.1001 25.2385 15.9715 25.2384 14.7132L25.2384 12.1738C25.2385 10.9154 25.2386 9.7868 25.1382 8.85963C25.0498 8.04445 24.869 7.20056 24.4319 6.40279C24.2978 6.15797 24.248 5.87178 24.3248 5.6034C25.0114 3.20362 22.5 1.14321 20.2806 2.28539L21.3674 4.39711C21.7373 4.20674 22.1559 4.55014 22.0414 4.95011L21.7946 5.81294C21.7042 6.12875 21.659 6.28669 21.671 6.41915C21.676 6.47375 21.68 6.4955 21.6949 6.54826C21.708 6.59474 21.7342 6.64816 21.7753 6.71464C21.7953 6.74701 21.8188 6.78249 21.8461 6.82176C21.917 6.92397 22.0131 7.05195 22.1379 7.21817C22.1494 7.23339 22.1607 7.24871 22.1719 7.26413C22.8635 8.21603 22.8635 9.5739 22.8635 12.2896L22.8635 14.5972C22.8635 17.3129 22.8635 18.6708 22.1719 19.6227C21.9485 19.9301 21.6782 20.2005 21.3707 20.4238C20.5331 21.0324 19.381 21.1055 17.2659 21.1142C16.9108 21.1157 16.7333 21.1164 16.5859 21.189C16.5374 21.2129 16.4922 21.2419 16.4503 21.2761C16.3605 21.3493 16.2973 21.4503 16.2159 21.6156C16.1819 21.6847 16.1447 21.7651 16.1011 21.8593L15.306 23.5779C15.131 23.956 14.5887 23.9417 14.4339 23.5549L13.7796 21.9199C13.7688 21.8927 13.7583 21.8667 13.7483 21.8416C13.7017 21.7257 13.6629 21.6315 13.6257 21.5536Z" fill="#333333"/>
<rect x="14.007" y="9.56281" width="2.61245" height="7.83736" rx="1.30623" fill="#333333"/>
<rect x="9.26091" y="11.2249" width="2.61245" height="4.03743" rx="1.30623" fill="#333333"/>
<rect x="18.7609" y="11.2249" width="2.61245" height="4.03743" rx="1.30623" fill="#333333"/>
<rect x="1.42497" y="10.512" width="2.61245" height="5.6999" rx="1.30623" fill="#333333"/>
<rect x="26.3547" y="10.512" width="2.61246" height="5.6999" rx="1.30623" fill="#333333"/>
<path d="M49.6161 9.21734C48.0321 9.21734 46.6641 9.91334 45.8961 11.0173V5.13734H42.3921V21.9133H45.8961V14.5693C45.8961 13.2253 47.0241 12.1693 48.4881 12.1693C49.8801 12.1693 50.8641 13.2253 50.8641 14.7613V21.9133H54.2241V14.0173C54.2241 11.1853 52.3281 9.21734 49.6161 9.21734Z" fill="#333333"/>
<path d="M64.9242 9.50534V16.8493C64.9242 18.1933 63.7722 19.2493 62.3082 19.2493C60.9162 19.2493 59.9562 18.1933 59.9562 16.6573V9.50534H56.5722V17.4013C56.5722 20.2333 58.4682 22.2013 61.1802 22.2013C62.7882 22.2013 64.1802 21.4813 64.9242 20.3773V21.9133H68.4042V9.50534H64.9242Z" fill="#333333"/>
<path d="M73.0116 7.80134C74.0436 7.80134 74.9076 6.93734 74.9076 5.88134C74.9076 4.89734 74.0436 4.00934 73.0116 4.00934C71.9316 4.00934 71.0916 4.89734 71.0916 5.88134C71.0916 6.93734 71.9316 7.80134 73.0116 7.80134ZM71.2356 21.9133H74.7396V9.50534H71.2356V21.9133Z" fill="#333333"/>
<path d="M77.7405 21.9133H81.2445V18.8893L82.7325 17.2573L85.8285 21.9133H89.8365L85.0605 15.0013L89.9085 9.50534H85.8765L81.2445 14.8813V5.13734H77.7405V21.9133Z" fill="#333333"/>
<path d="M99.9679 9.50534V16.8493C99.9679 18.1933 98.8159 19.2493 97.3519 19.2493C95.9599 19.2493 94.9999 18.1933 94.9999 16.6573V9.50534H91.6159V17.4013C91.6159 20.2333 93.5119 22.2013 96.2239 22.2013C97.8319 22.2013 99.2239 21.4813 99.9679 20.3773V21.9133H103.448V9.50534H99.9679Z" fill="#333333"/>
<path d="M108.055 7.80134C109.087 7.80134 109.951 6.93734 109.951 5.88134C109.951 4.89734 109.087 4.00934 108.055 4.00934C106.975 4.00934 106.135 4.89734 106.135 5.88134C106.135 6.93734 106.975 7.80134 108.055 7.80134ZM106.279 21.9133H109.783V9.50534H106.279V21.9133Z" fill="#333333"/>
</svg>
