<svg width="2389" height="162" viewBox="0 0 2389 162" fill="none" xmlns="http://www.w3.org/2000/svg">
<rect y="111" width="15.5" height="51" rx="7.75" fill="#BDBDBD"/>
<rect x="23.5" y="68" width="15.5" height="94" rx="7.75" fill="#BDBDBD"/>
<rect x="47" y="82" width="15.5" height="80" rx="7.75" fill="#BDBDBD"/>
<rect x="70.5" y="82" width="15.5" height="80" rx="7.75" fill="#BDBDBD"/>
<rect x="94" y="57" width="15.5" height="105" rx="7.75" fill="#BDBDBD"/>
<rect x="117.5" y="68" width="15.5" height="94" rx="7.75" fill="#BDBDBD"/>
<rect x="141" y="68" width="15.5" height="94" rx="7.75" fill="#BDBDBD"/>
<rect x="164.5" y="82" width="15.5" height="80" rx="7.75" fill="#BDBDBD"/>
<rect x="188" y="68" width="15.5" height="94" rx="7.75" fill="#BDBDBD"/>
<rect x="211.5" y="57" width="15.5" height="105" rx="7.75" fill="#BDBDBD"/>
<rect x="235" y="45" width="15.5" height="117" rx="7.75" fill="#BDBDBD"/>
<rect x="258.5" width="15.5" height="162" rx="7.75" fill="#BDBDBD"/>
<rect x="282" y="23" width="15.5" height="139" rx="7.75" fill="#BDBDBD"/>
<rect x="305.5" y="23" width="15.5" height="139" rx="7.75" fill="#BDBDBD"/>
<rect x="329" width="15.5" height="162" rx="7.75" fill="#BDBDBD"/>
<rect x="352.5" y="7" width="15.5" height="155" rx="7.75" fill="#BDBDBD"/>
<rect x="376" y="23" width="15.5" height="139" rx="7.75" fill="#BDBDBD"/>
<rect x="399.5" width="15.5" height="162" rx="7.75" fill="#BDBDBD"/>
<rect x="423" y="7" width="15.5" height="155" rx="7.75" fill="#BDBDBD"/>
<rect x="446.5" y="14" width="15.5" height="148" rx="7.75" fill="#BDBDBD"/>
<rect x="470" width="15.5" height="162" rx="7.75" fill="#BDBDBD"/>
<rect x="493.5" y="14" width="15.5" height="148" rx="7.75" fill="#BDBDBD"/>
<rect x="517" y="57" width="15.5" height="105" rx="7.75" fill="#BDBDBD"/>
<rect x="540.5" y="23" width="15.5" height="139" rx="7.75" fill="#BDBDBD"/>
<rect x="564" y="45" width="15.5" height="117" rx="7.75" fill="#BDBDBD"/>
<rect x="587.5" y="23" width="15.5" height="139" rx="7.75" fill="#BDBDBD"/>
<rect x="611" y="68" width="15.5" height="94" rx="7.75" fill="#BDBDBD"/>
<rect x="634.5" y="57" width="15.5" height="105" rx="7.75" fill="#BDBDBD"/>
<rect x="658" y="95" width="15.5" height="67" rx="7.75" fill="#BDBDBD"/>
<rect x="681.5" y="45" width="15.5" height="117" rx="7.75" fill="#BDBDBD"/>
<rect x="705" y="68" width="15.5" height="94" rx="7.75" fill="#BDBDBD"/>
<rect x="728.5" y="68" width="15.5" height="94" rx="7.75" fill="#BDBDBD"/>
<rect x="752" y="82" width="15.5" height="80" rx="7.75" fill="#BDBDBD"/>
<rect x="775.5" y="45" width="15.5" height="117" rx="7.75" fill="#BDBDBD"/>
<rect x="799" y="82" width="15.5" height="80" rx="7.75" fill="#BDBDBD"/>
<rect x="822.5" y="57" width="15.5" height="105" rx="7.75" fill="#BDBDBD"/>
<rect x="846" y="23" width="15.5" height="139" rx="7.75" fill="#BDBDBD"/>
<rect x="869.5" y="23" width="15.5" height="139" rx="7.75" fill="#BDBDBD"/>
<rect x="893" y="35" width="15.5" height="127" rx="7.75" fill="#BDBDBD"/>
<rect x="916.5" y="68" width="15.5" height="94" rx="7.75" fill="#BDBDBD"/>
<rect x="940" y="35" width="15.5" height="127" rx="7.75" fill="#BDBDBD"/>
<rect x="963.5" y="23" width="15.5" height="139" rx="7.75" fill="#BDBDBD"/>
<rect x="987" y="14" width="15.5" height="148" rx="7.75" fill="#BDBDBD"/>
<rect x="1010.5" y="23" width="15.5" height="139" rx="7.75" fill="#BDBDBD"/>
<rect x="1034" y="35" width="15.5" height="127" rx="7.75" fill="#BDBDBD"/>
<rect x="1057.5" width="15.5" height="162" rx="7.75" fill="#BDBDBD"/>
<rect x="1081" y="45" width="15.5" height="117" rx="7.75" fill="#BDBDBD"/>
<rect x="1104.5" y="14" width="15.5" height="148" rx="7.75" fill="#BDBDBD"/>
<rect x="1128" y="23" width="15.5" height="139" rx="7.75" fill="#BDBDBD"/>
<rect x="1151.5" y="7" width="15.5" height="155" rx="7.75" fill="#BDBDBD"/>
<rect x="1175" y="23" width="15.5" height="139" rx="7.75" fill="#BDBDBD"/>
<rect x="1198.5" y="7" width="15.5" height="155" rx="7.75" fill="#BDBDBD"/>
<rect x="1222" y="57" width="15.5" height="105" rx="7.75" fill="#BDBDBD"/>
<rect x="1245.5" y="7" width="15.5" height="155" rx="7.75" fill="#BDBDBD"/>
<rect x="1269" width="15.5" height="162" rx="7.75" fill="#BDBDBD"/>
<rect x="1292.5" y="35" width="15.5" height="127" rx="7.75" fill="#BDBDBD"/>
<rect x="1316" y="45" width="15.5" height="117" rx="7.75" fill="#BDBDBD"/>
<rect x="1339.5" y="57" width="15.5" height="105" rx="7.75" fill="#BDBDBD"/>
<rect x="1363" y="35" width="15.5" height="127" rx="7.75" fill="#BDBDBD"/>
<rect x="1386.5" y="14" width="15.5" height="148" rx="7.75" fill="#BDBDBD"/>
<rect x="1410" y="57" width="15.5" height="105" rx="7.75" fill="#BDBDBD"/>
<rect x="1433.5" y="57" width="15.5" height="105" rx="7.75" fill="#BDBDBD"/>
<rect x="1457" y="35" width="15.5" height="127" rx="7.75" fill="#BDBDBD"/>
<rect x="1480.5" y="14" width="15.5" height="148" rx="7.75" fill="#BDBDBD"/>
<rect x="1504" y="14" width="15.5" height="148" rx="7.75" fill="#BDBDBD"/>
<rect x="1527.5" y="35" width="15.5" height="127" rx="7.75" fill="#BDBDBD"/>
<rect x="1551" y="14" width="15.5" height="148" rx="7.75" fill="#BDBDBD"/>
<rect x="1574.5" y="14" width="15.5" height="148" rx="7.75" fill="#BDBDBD"/>
<rect x="1598" y="57" width="15.5" height="105" rx="7.75" fill="#BDBDBD"/>
<rect x="1621.5" y="14" width="15.5" height="148" rx="7.75" fill="#BDBDBD"/>
<rect x="1645" y="35" width="15.5" height="127" rx="7.75" fill="#BDBDBD"/>
<rect x="1668.5" y="14" width="15.5" height="148" rx="7.75" fill="#BDBDBD"/>
<rect x="1692" y="35" width="15.5" height="127" rx="7.75" fill="#BDBDBD"/>
<rect x="1715.5" y="57" width="15.5" height="105" rx="7.75" fill="#BDBDBD"/>
<rect x="1739" y="68" width="15.5" height="94" rx="7.75" fill="#BDBDBD"/>
<rect x="1762.5" y="57" width="15.5" height="105" rx="7.75" fill="#BDBDBD"/>
<rect x="1786" y="57" width="15.5" height="105" rx="7.75" fill="#BDBDBD"/>
<rect x="1809.5" y="45" width="15.5" height="117" rx="7.75" fill="#BDBDBD"/>
<rect x="1833" y="57" width="15.5" height="105" rx="7.75" fill="#BDBDBD"/>
<rect x="1856.5" y="57" width="15.5" height="105" rx="7.75" fill="#BDBDBD"/>
<rect x="1880" y="45" width="15.5" height="117" rx="7.75" fill="#BDBDBD"/>
<rect x="1903.5" y="35" width="15.5" height="127" rx="7.75" fill="#BDBDBD"/>
<rect x="1927" y="45" width="15.5" height="117" rx="7.75" fill="#BDBDBD"/>
<rect x="1950.5" y="35" width="15.5" height="127" rx="7.75" fill="#BDBDBD"/>
<rect x="1974" y="57" width="15.5" height="105" rx="7.75" fill="#BDBDBD"/>
<rect x="1997.5" y="35" width="15.5" height="127" rx="7.75" fill="#BDBDBD"/>
<rect x="2021" y="57" width="15.5" height="105" rx="7.75" fill="#BDBDBD"/>
<rect x="2044.5" y="14" width="15.5" height="148" rx="7.75" fill="#BDBDBD"/>
<rect x="2068" y="23" width="15.5" height="139" rx="7.75" fill="#BDBDBD"/>
<rect x="2091.5" y="35" width="15.5" height="127" rx="7.75" fill="#BDBDBD"/>
<rect x="2115" width="15.5" height="162" rx="7.75" fill="#BDBDBD"/>
<rect x="2138.5" y="14" width="15.5" height="148" rx="7.75" fill="#BDBDBD"/>
<rect x="2162" y="57" width="15.5" height="105" rx="7.75" fill="#BDBDBD"/>
<rect x="2185.5" y="14" width="15.5" height="148" rx="7.75" fill="#BDBDBD"/>
<rect x="2209" y="7" width="15.5" height="155" rx="7.75" fill="#BDBDBD"/>
<rect x="2232.5" y="23" width="15.5" height="139" rx="7.75" fill="#BDBDBD"/>
<rect x="2256" y="14" width="15.5" height="148" rx="7.75" fill="#BDBDBD"/>
<rect x="2279.5" y="35" width="15.5" height="127" rx="7.75" fill="#BDBDBD"/>
<rect x="2303" y="95" width="15.5" height="67" rx="7.75" fill="#BDBDBD"/>
<rect x="2326.5" y="111" width="15.5" height="51" rx="7.75" fill="#BDBDBD"/>
<rect x="2350" y="121" width="15.5" height="41" rx="7.75" fill="#BDBDBD"/>
<rect x="2373.5" y="141" width="15.5" height="21" rx="7.75" fill="#BDBDBD"/>
</svg>
