<svg width="440" height="162" viewBox="0 0 440 162" fill="none" xmlns="http://www.w3.org/2000/svg">
<rect y="112" width="16.8889" height="50" rx="8.44444" fill="#BDBDBD"/>
<rect x="24.8889" y="68" width="16.8889" height="94" rx="8.44444" fill="#BDBDBD"/>
<rect x="49.7778" y="86" width="16.8889" height="76" rx="8.44444" fill="#BDBDBD"/>
<rect x="74.6667" y="23" width="16.8889" height="139" rx="8.44444" fill="#BDBDBD"/>
<rect x="99.5556" width="16.8889" height="162" rx="8.44444" fill="#BDBDBD"/>
<rect x="124.444" y="23" width="16.8889" height="139" rx="8.44444" fill="#BDBDBD"/>
<rect x="149.333" y="68" width="16.8889" height="94" rx="8.44444" fill="#BDBDBD"/>
<rect x="174.222" y="35" width="16.8889" height="127" rx="8.44444" fill="#BDBDBD"/>
<rect x="199.111" y="45" width="16.8889" height="117" rx="8.44444" fill="#BDBDBD"/>
<rect x="224" y="14" width="16.8889" height="148" rx="8.44444" fill="#BDBDBD"/>
<rect x="248.889" y="14" width="16.8889" height="148" rx="8.44444" fill="#BDBDBD"/>
<rect x="273.778" y="35" width="16.8889" height="127" rx="8.44444" fill="#BDBDBD"/>
<rect x="298.667" y="14" width="16.8889" height="148" rx="8.44444" fill="#BDBDBD"/>
<rect x="323.556" y="7" width="16.8889" height="155" rx="8.44444" fill="#BDBDBD"/>
<rect x="348.444" y="35" width="16.8889" height="127" rx="8.44444" fill="#BDBDBD"/>
<rect x="373.333" y="14" width="16.8889" height="148" rx="8.44444" fill="#BDBDBD"/>
<rect x="398.222" y="35" width="16.8889" height="127" rx="8.44444" fill="#BDBDBD"/>
<rect x="423.111" y="112" width="16.8889" height="50" rx="8.44444" fill="#BDBDBD"/>
</svg>
