<svg width="282" height="84" viewBox="0 0 282 84" fill="none" xmlns="http://www.w3.org/2000/svg">
<g clip-path="url(#clip0_458_1977)">
<path d="M21.2892 6.33203L0.214844 27.0483L6.06896 32.803L27.1432 12.0867L21.2892 6.33203Z" fill="white"/>
<path d="M18.9473 24.7471C20.5001 26.2729 22.6059 27.1299 24.8014 27.1299C26.997 27.1299 29.1027 26.2729 30.6556 24.7471L37.6806 17.8414L52.9014 32.8037L58.7556 27.049L37.6806 6.33203L18.9473 24.7471Z" fill="#3960BF"/>
<path d="M32.9977 27.0491C30.8239 29.1857 27.8759 30.386 24.8018 30.386C21.7278 30.386 18.7798 29.1857 16.606 27.0491L8.41016 35.1057L29.4852 55.8227L32.9977 52.3698L24.8018 44.3132L27.1435 42.0114L35.3393 50.068L38.8518 46.6151L30.656 38.5585L32.9977 36.2566L41.1935 44.3132L44.706 40.8604L36.5102 32.8038L38.8518 30.5019L47.0477 38.5585L50.5602 35.1057L37.681 22.4453L32.9977 27.0491Z" fill="white"/>
<path d="M77.4863 43.7109H83.4936V28.1535L92.2769 36.9912L101.06 28.1535V43.7109H107.067V14.3066L92.2769 29.131L77.4863 14.3066V43.7109Z" fill="white"/>
<path d="M115.895 20.0082C117.925 20.0082 119.541 18.4199 119.541 16.4651C119.541 14.5102 117.925 12.9219 115.895 12.9219C113.948 12.9219 112.291 14.5102 112.291 16.4651C112.291 18.4199 113.948 20.0082 115.895 20.0082ZM113.078 43.7109H118.754V23.3478H113.078V43.7109Z" fill="white"/>
<path d="M126.732 43.7112H132.407V28.2352H138.664V23.3481H132.407V15.5693L126.732 18.8274V23.3481H122.133V28.2352H126.732V43.7112Z" fill="white"/>
<path d="M144.494 43.7112H150.169V28.2352H156.426V23.3481H150.169V15.5693L144.494 18.8274V23.3481H139.895V28.2352H144.494V43.7112Z" fill="white"/>
<path d="M168.136 44.1586C170.995 44.1586 173.149 42.7332 174.102 41.4299V43.7105H179.777V23.3475H174.102V25.6282C173.149 24.3249 170.995 22.8994 168.136 22.8994C162.626 22.8994 158.4 27.7867 158.4 33.5291C158.4 39.2715 162.626 44.1586 168.136 44.1586ZM169.337 39.0678C166.189 39.0678 164.118 36.7464 164.118 33.5291C164.118 30.3116 166.189 27.9903 169.337 27.9903C172.487 27.9903 174.558 30.3116 174.558 33.5291C174.558 36.7464 172.487 39.0678 169.337 39.0678Z" fill="white"/>
<path d="M185.297 43.7105H190.973V33.7734C190.973 29.8637 192.92 27.9903 195.572 27.9903C197.934 27.9903 199.218 29.7822 199.218 32.7145V43.7105H204.894V31.7778C204.894 26.4833 201.911 22.8994 196.897 22.8994C194.205 22.8994 192.092 24.0398 190.973 25.6688V23.3475H185.297V43.7105Z" fill="white"/>
<path d="M221.781 44.1587C227.291 44.1587 231.517 39.2716 231.517 33.5292C231.517 27.7868 227.291 22.8995 221.781 22.8995C218.922 22.8995 216.727 24.325 215.774 25.6283V13.166H210.098V43.7107H215.774V41.4301C216.727 42.7333 218.922 44.1587 221.781 44.1587ZM220.538 39.0679C217.39 39.0679 215.318 36.7465 215.318 33.5292C215.318 30.3117 217.39 27.9904 220.538 27.9904C223.686 27.9904 225.759 30.3117 225.759 33.5292C225.759 36.7465 223.686 39.0679 220.538 39.0679Z" fill="white"/>
<path d="M243.208 44.1588C245.86 44.1588 247.766 43.0184 248.885 41.3894V43.7107H254.561V23.3477H248.885V33.2849C248.885 37.2353 247.145 39.0679 244.617 39.0679C242.131 39.0679 241.096 37.3168 241.096 34.2215V23.3477H235.42V35.1583C235.42 40.5341 238.237 44.1588 243.208 44.1588Z" fill="white"/>
<path d="M268.435 44.1587C271.294 44.1587 273.448 42.7333 274.401 41.4301V43.7107H280.076V13.166H274.401V25.6283C273.448 24.325 271.294 22.8995 268.435 22.8995C262.925 22.8995 258.699 27.7868 258.699 33.5292C258.699 39.2716 262.925 44.1587 268.435 44.1587ZM269.636 39.0679C266.488 39.0679 264.416 36.7465 264.416 33.5292C264.416 30.3117 266.488 27.9904 269.636 27.9904C272.784 27.9904 274.857 30.3117 274.857 33.5292C274.857 36.7465 272.784 39.0679 269.636 39.0679Z" fill="white"/>
</g>
<g clip-path="url(#clip1_458_1977)">
<path d="M10.3891 64.5977C10.2153 64.2324 9.84811 64 9.44485 64C9.04159 64 8.67768 64.2324 8.50064 64.5977L6.39256 68.9904L1.68462 69.6943C1.2912 69.7541 0.963349 70.033 0.842044 70.4148C0.720739 70.7967 0.819094 71.2184 1.10105 71.5006L4.51725 74.9238L3.71074 79.7615C3.64517 80.16 3.80909 80.565 4.13367 80.8008C4.45824 81.0365 4.88772 81.0664 5.2418 80.8771L9.44813 78.6027L13.6545 80.8771C14.0085 81.0664 14.438 81.0398 14.7626 80.8008C15.0872 80.5617 15.2511 80.16 15.1855 79.7615L14.3757 74.9238L17.7919 71.5006C18.0739 71.2184 18.1755 70.7967 18.0509 70.4148C17.9264 70.033 17.6018 69.7541 17.2084 69.6943L12.4971 68.9904L10.3891 64.5977Z" fill="#F1BE42"/>
</g>
<g clip-path="url(#clip2_458_1977)">
<path d="M34.2738 64.5977C34.1001 64.2324 33.7329 64 33.3296 64C32.9264 64 32.5624 64.2324 32.3854 64.5977L30.2773 68.9904L25.5694 69.6943C25.176 69.7541 24.8481 70.033 24.7268 70.4148C24.6055 70.7967 24.7039 71.2184 24.9858 71.5006L28.402 74.9238L27.5955 79.7615C27.5299 80.16 27.6939 80.565 28.0184 80.8008C28.343 81.0365 28.7725 81.0664 29.1266 80.8771L33.3329 78.6027L37.5392 80.8771C37.8933 81.0664 38.3228 81.0398 38.6474 80.8008C38.9719 80.5617 39.1359 80.16 39.0703 79.7615L38.2605 74.9238L41.6767 71.5006C41.9587 71.2184 42.0603 70.7967 41.9357 70.4148C41.8111 70.033 41.4865 69.7541 41.0931 69.6943L36.3819 68.9904L34.2738 64.5977Z" fill="#F1BE42"/>
</g>
<g clip-path="url(#clip3_458_1977)">
<path d="M58.1566 64.5977C57.9829 64.2324 57.6157 64 57.2124 64C56.8092 64 56.4453 64.2324 56.2682 64.5977L54.1601 68.9904L49.4522 69.6943C49.0588 69.7541 48.7309 70.033 48.6096 70.4148C48.4883 70.7967 48.5867 71.2184 48.8686 71.5006L52.2848 74.9238L51.4783 79.7615C51.4127 80.16 51.5767 80.565 51.9012 80.8008C52.2258 81.0365 52.6553 81.0664 53.0094 80.8771L57.2157 78.6027L61.422 80.8771C61.7761 81.0664 62.2056 81.0398 62.5302 80.8008C62.8547 80.5617 63.0187 80.16 62.9531 79.7615L62.1433 74.9238L65.5595 71.5006C65.8415 71.2184 65.9431 70.7967 65.8185 70.4148C65.6939 70.033 65.3694 69.7541 64.9759 69.6943L60.2647 68.9904L58.1566 64.5977Z" fill="#F1BE42"/>
</g>
<g clip-path="url(#clip4_458_1977)">
<path d="M82.0414 64.5977C81.8676 64.2324 81.5005 64 81.0972 64C80.6939 64 80.33 64.2324 80.153 64.5977L78.0449 68.9904L73.337 69.6943C72.9435 69.7541 72.6157 70.033 72.4944 70.4148C72.3731 70.7967 72.4714 71.2184 72.7534 71.5006L76.1696 74.9238L75.3631 79.7615C75.2975 80.16 75.4614 80.565 75.786 80.8008C76.1106 81.0365 76.5401 81.0664 76.8941 80.8771L81.1005 78.6027L85.3068 80.8771C85.6609 81.0664 86.0904 81.0398 86.4149 80.8008C86.7395 80.5617 86.9034 80.16 86.8379 79.7615L86.0281 74.9238L89.4443 71.5006C89.7262 71.2184 89.8279 70.7967 89.7033 70.4148C89.5787 70.033 89.2541 69.7541 88.8607 69.6943L84.1495 68.9904L82.0414 64.5977Z" fill="#F1BE42"/>
</g>
<g clip-path="url(#clip5_458_1977)">
<path d="M105.926 64.5977C105.752 64.2324 105.385 64 104.982 64C104.579 64 104.215 64.2324 104.038 64.5977L101.93 68.9904L97.2217 69.6943C96.8283 69.7541 96.5005 70.033 96.3792 70.4148C96.2578 70.7967 96.3562 71.2184 96.6382 71.5006L100.054 74.9238L99.2478 79.7615C99.1823 80.16 99.3462 80.565 99.6708 80.8008C99.9953 81.0365 100.425 81.0664 100.779 80.8771L104.985 78.6027L109.192 80.8771C109.546 81.0664 109.975 81.0398 110.3 80.8008C110.624 80.5617 110.788 80.16 110.723 79.7615L109.913 74.9238L113.329 71.5006C113.611 71.2184 113.713 70.7967 113.588 70.4148C113.463 70.033 113.139 69.7541 112.745 69.6943L108.034 68.9904L105.926 64.5977Z" fill="#F1BE42"/>
</g>
<path d="M132.713 68.34H127.448V71.76C127.678 71.44 128.018 71.18 128.468 70.98C128.918 70.77 129.403 70.665 129.923 70.665C130.753 70.665 131.428 70.84 131.948 71.19C132.468 71.53 132.838 71.975 133.058 72.525C133.288 73.065 133.403 73.64 133.403 74.25C133.403 74.97 133.268 75.615 132.998 76.185C132.728 76.755 132.313 77.205 131.753 77.535C131.203 77.865 130.518 78.03 129.698 78.03C128.648 78.03 127.798 77.76 127.148 77.22C126.498 76.68 126.103 75.96 125.963 75.06H127.298C127.428 75.63 127.703 76.075 128.123 76.395C128.543 76.715 129.073 76.875 129.713 76.875C130.503 76.875 131.098 76.64 131.498 76.17C131.898 75.69 132.098 75.06 132.098 74.28C132.098 73.5 131.898 72.9 131.498 72.48C131.098 72.05 130.508 71.835 129.728 71.835C129.198 71.835 128.733 71.965 128.333 72.225C127.943 72.475 127.658 72.82 127.478 73.26H126.188V67.14H132.713V68.34ZM135.877 78.09C135.617 78.09 135.397 78 135.217 77.82C135.037 77.64 134.947 77.42 134.947 77.16C134.947 76.9 135.037 76.68 135.217 76.5C135.397 76.32 135.617 76.23 135.877 76.23C136.127 76.23 136.337 76.32 136.507 76.5C136.687 76.68 136.777 76.9 136.777 77.16C136.777 77.42 136.687 77.64 136.507 77.82C136.337 78 136.127 78.09 135.877 78.09ZM138.366 72.465C138.366 70.745 138.646 69.405 139.206 68.445C139.766 67.475 140.746 66.99 142.146 66.99C143.536 66.99 144.511 67.475 145.071 68.445C145.631 69.405 145.911 70.745 145.911 72.465C145.911 74.215 145.631 75.575 145.071 76.545C144.511 77.515 143.536 78 142.146 78C140.746 78 139.766 77.515 139.206 76.545C138.646 75.575 138.366 74.215 138.366 72.465ZM144.561 72.465C144.561 71.595 144.501 70.86 144.381 70.26C144.271 69.65 144.036 69.16 143.676 68.79C143.326 68.42 142.816 68.235 142.146 68.235C141.466 68.235 140.946 68.42 140.586 68.79C140.236 69.16 140.001 69.65 139.881 70.26C139.771 70.86 139.716 71.595 139.716 72.465C139.716 73.365 139.771 74.12 139.881 74.73C140.001 75.34 140.236 75.83 140.586 76.2C140.946 76.57 141.466 76.755 142.146 76.755C142.816 76.755 143.326 76.57 143.676 76.2C144.036 75.83 144.271 75.34 144.381 74.73C144.501 74.12 144.561 73.365 144.561 72.465ZM155.519 80.79C154.559 79.85 153.809 78.655 153.269 77.205C152.739 75.755 152.474 74.19 152.474 72.51C152.474 70.79 152.754 69.185 153.314 67.695C153.884 66.195 154.694 64.96 155.744 63.99H157.169V64.125C156.049 65.175 155.204 66.44 154.634 67.92C154.074 69.39 153.794 70.92 153.794 72.51C153.794 74.06 154.059 75.54 154.589 76.95C155.129 78.36 155.914 79.595 156.944 80.655V80.79H155.519ZM158.431 76.905C159.701 75.885 160.696 75.05 161.416 74.4C162.136 73.74 162.741 73.055 163.231 72.345C163.731 71.625 163.981 70.92 163.981 70.23C163.981 69.58 163.821 69.07 163.501 68.7C163.191 68.32 162.686 68.13 161.986 68.13C161.306 68.13 160.776 68.345 160.396 68.775C160.026 69.195 159.826 69.76 159.796 70.47H158.476C158.516 69.35 158.856 68.485 159.496 67.875C160.136 67.265 160.961 66.96 161.971 66.96C163.001 66.96 163.816 67.245 164.416 67.815C165.026 68.385 165.331 69.17 165.331 70.17C165.331 71 165.081 71.81 164.581 72.6C164.091 73.38 163.531 74.07 162.901 74.67C162.271 75.26 161.466 75.95 160.486 76.74H165.646V77.88H158.431V76.905ZM173.268 69.735C173.048 68.625 172.363 68.07 171.213 68.07C170.323 68.07 169.658 68.415 169.218 69.105C168.778 69.785 168.563 70.91 168.573 72.48C168.803 71.96 169.183 71.555 169.713 71.265C170.253 70.965 170.853 70.815 171.513 70.815C172.543 70.815 173.363 71.135 173.973 71.775C174.593 72.415 174.903 73.3 174.903 74.43C174.903 75.11 174.768 75.72 174.498 76.26C174.238 76.8 173.838 77.23 173.298 77.55C172.768 77.87 172.123 78.03 171.363 78.03C170.333 78.03 169.528 77.8 168.948 77.34C168.368 76.88 167.963 76.245 167.733 75.435C167.503 74.625 167.388 73.625 167.388 72.435C167.388 68.765 168.668 66.93 171.228 66.93C172.208 66.93 172.978 67.195 173.538 67.725C174.098 68.255 174.428 68.925 174.528 69.735H173.268ZM171.228 71.97C170.798 71.97 170.393 72.06 170.013 72.24C169.633 72.41 169.323 72.675 169.083 73.035C168.853 73.385 168.738 73.815 168.738 74.325C168.738 75.085 168.958 75.705 169.398 76.185C169.838 76.655 170.468 76.89 171.288 76.89C171.988 76.89 172.543 76.675 172.953 76.245C173.373 75.805 173.583 75.215 173.583 74.475C173.583 73.695 173.383 73.085 172.983 72.645C172.583 72.195 171.998 71.97 171.228 71.97ZM188.469 73.575C188.469 73.835 188.454 74.11 188.424 74.4H181.854C181.904 75.21 182.179 75.845 182.679 76.305C183.189 76.755 183.804 76.98 184.524 76.98C185.114 76.98 185.604 76.845 185.994 76.575C186.394 76.295 186.674 75.925 186.834 75.465H188.304C188.084 76.255 187.644 76.9 186.984 77.4C186.324 77.89 185.504 78.135 184.524 78.135C183.744 78.135 183.044 77.96 182.424 77.61C181.814 77.26 181.334 76.765 180.984 76.125C180.634 75.475 180.459 74.725 180.459 73.875C180.459 73.025 180.629 72.28 180.969 71.64C181.309 71 181.784 70.51 182.394 70.17C183.014 69.82 183.724 69.645 184.524 69.645C185.304 69.645 185.994 69.815 186.594 70.155C187.194 70.495 187.654 70.965 187.974 71.565C188.304 72.155 188.469 72.825 188.469 73.575ZM187.059 73.29C187.059 72.77 186.944 72.325 186.714 71.955C186.484 71.575 186.169 71.29 185.769 71.1C185.379 70.9 184.944 70.8 184.464 70.8C183.774 70.8 183.184 71.02 182.694 71.46C182.214 71.9 181.939 72.51 181.869 73.29H187.059ZM193.331 76.74L195.881 69.78H197.336L194.111 78H192.521L189.296 69.78H190.766L193.331 76.74ZM198.169 73.86C198.169 73.02 198.339 72.285 198.679 71.655C199.019 71.015 199.484 70.52 200.074 70.17C200.674 69.82 201.339 69.645 202.069 69.645C202.789 69.645 203.414 69.8 203.944 70.11C204.474 70.42 204.869 70.81 205.129 71.28V69.78H206.509V78H205.129V76.47C204.859 76.95 204.454 77.35 203.914 77.67C203.384 77.98 202.764 78.135 202.054 78.135C201.324 78.135 200.664 77.955 200.074 77.595C199.484 77.235 199.019 76.73 198.679 76.08C198.339 75.43 198.169 74.69 198.169 73.86ZM205.129 73.875C205.129 73.255 205.004 72.715 204.754 72.255C204.504 71.795 204.164 71.445 203.734 71.205C203.314 70.955 202.849 70.83 202.339 70.83C201.829 70.83 201.364 70.95 200.944 71.19C200.524 71.43 200.189 71.78 199.939 72.24C199.689 72.7 199.564 73.24 199.564 73.86C199.564 74.49 199.689 75.04 199.939 75.51C200.189 75.97 200.524 76.325 200.944 76.575C201.364 76.815 201.829 76.935 202.339 76.935C202.849 76.935 203.314 76.815 203.734 76.575C204.164 76.325 204.504 75.97 204.754 75.51C205.004 75.04 205.129 74.495 205.129 73.875ZM210.181 66.9V78H208.816V66.9H210.181ZM219.797 69.78V78H218.432V76.785C218.172 77.205 217.807 77.535 217.337 77.775C216.877 78.005 216.367 78.12 215.807 78.12C215.167 78.12 214.592 77.99 214.082 77.73C213.572 77.46 213.167 77.06 212.867 76.53C212.577 76 212.432 75.355 212.432 74.595V69.78H213.782V74.415C213.782 75.225 213.987 75.85 214.397 76.29C214.807 76.72 215.367 76.935 216.077 76.935C216.807 76.935 217.382 76.71 217.802 76.26C218.222 75.81 218.432 75.155 218.432 74.295V69.78H219.797ZM229.602 73.575C229.602 73.835 229.587 74.11 229.557 74.4H222.987C223.037 75.21 223.312 75.845 223.812 76.305C224.322 76.755 224.937 76.98 225.657 76.98C226.247 76.98 226.737 76.845 227.127 76.575C227.527 76.295 227.807 75.925 227.967 75.465H229.437C229.217 76.255 228.777 76.9 228.117 77.4C227.457 77.89 226.637 78.135 225.657 78.135C224.877 78.135 224.177 77.96 223.557 77.61C222.947 77.26 222.467 76.765 222.117 76.125C221.767 75.475 221.592 74.725 221.592 73.875C221.592 73.025 221.762 72.28 222.102 71.64C222.442 71 222.917 70.51 223.527 70.17C224.147 69.82 224.857 69.645 225.657 69.645C226.437 69.645 227.127 69.815 227.727 70.155C228.327 70.495 228.787 70.965 229.107 71.565C229.437 72.155 229.602 72.825 229.602 73.575ZM228.192 73.29C228.192 72.77 228.077 72.325 227.847 71.955C227.617 71.575 227.302 71.29 226.902 71.1C226.512 70.9 226.077 70.8 225.597 70.8C224.907 70.8 224.317 71.02 223.827 71.46C223.347 71.9 223.072 72.51 223.002 73.29H228.192ZM232.769 71.115C233.009 70.645 233.349 70.28 233.789 70.02C234.239 69.76 234.784 69.63 235.424 69.63V71.04H235.064C233.534 71.04 232.769 71.87 232.769 73.53V78H231.404V69.78H232.769V71.115ZM237.704 68.445C237.444 68.445 237.224 68.355 237.044 68.175C236.864 67.995 236.774 67.775 236.774 67.515C236.774 67.255 236.864 67.035 237.044 66.855C237.224 66.675 237.444 66.585 237.704 66.585C237.954 66.585 238.164 66.675 238.334 66.855C238.514 67.035 238.604 67.255 238.604 67.515C238.604 67.775 238.514 67.995 238.334 68.175C238.164 68.355 237.954 68.445 237.704 68.445ZM238.364 69.78V78H236.999V69.78H238.364ZM244.696 69.63C245.696 69.63 246.506 69.935 247.126 70.545C247.746 71.145 248.056 72.015 248.056 73.155V78H246.706V73.35C246.706 72.53 246.501 71.905 246.091 71.475C245.681 71.035 245.121 70.815 244.411 70.815C243.691 70.815 243.116 71.04 242.686 71.49C242.266 71.94 242.056 72.595 242.056 73.455V78H240.691V69.78H242.056V70.95C242.326 70.53 242.691 70.205 243.151 69.975C243.621 69.745 244.136 69.63 244.696 69.63ZM253.675 69.645C254.385 69.645 255.005 69.8 255.535 70.11C256.075 70.42 256.475 70.81 256.735 71.28V69.78H258.115V78.18C258.115 78.93 257.955 79.595 257.635 80.175C257.315 80.765 256.855 81.225 256.255 81.555C255.665 81.885 254.975 82.05 254.185 82.05C253.105 82.05 252.205 81.795 251.485 81.285C250.765 80.775 250.34 80.08 250.21 79.2H251.56C251.71 79.7 252.02 80.1 252.49 80.4C252.96 80.71 253.525 80.865 254.185 80.865C254.935 80.865 255.545 80.63 256.015 80.16C256.495 79.69 256.735 79.03 256.735 78.18V76.455C256.465 76.935 256.065 77.335 255.535 77.655C255.005 77.975 254.385 78.135 253.675 78.135C252.945 78.135 252.28 77.955 251.68 77.595C251.09 77.235 250.625 76.73 250.285 76.08C249.945 75.43 249.775 74.69 249.775 73.86C249.775 73.02 249.945 72.285 250.285 71.655C250.625 71.015 251.09 70.52 251.68 70.17C252.28 69.82 252.945 69.645 253.675 69.645ZM256.735 73.875C256.735 73.255 256.61 72.715 256.36 72.255C256.11 71.795 255.77 71.445 255.34 71.205C254.92 70.955 254.455 70.83 253.945 70.83C253.435 70.83 252.97 70.95 252.55 71.19C252.13 71.43 251.795 71.78 251.545 72.24C251.295 72.7 251.17 73.24 251.17 73.86C251.17 74.49 251.295 75.04 251.545 75.51C251.795 75.97 252.13 76.325 252.55 76.575C252.97 76.815 253.435 76.935 253.945 76.935C254.455 76.935 254.92 76.815 255.34 76.575C255.77 76.325 256.11 75.97 256.36 75.51C256.61 75.04 256.735 74.495 256.735 73.875ZM267.922 73.575C267.922 73.835 267.907 74.11 267.877 74.4H261.307C261.357 75.21 261.632 75.845 262.132 76.305C262.642 76.755 263.257 76.98 263.977 76.98C264.567 76.98 265.057 76.845 265.447 76.575C265.847 76.295 266.127 75.925 266.287 75.465H267.757C267.537 76.255 267.097 76.9 266.437 77.4C265.777 77.89 264.957 78.135 263.977 78.135C263.197 78.135 262.497 77.96 261.877 77.61C261.267 77.26 260.787 76.765 260.437 76.125C260.087 75.475 259.912 74.725 259.912 73.875C259.912 73.025 260.082 72.28 260.422 71.64C260.762 71 261.237 70.51 261.847 70.17C262.467 69.82 263.177 69.645 263.977 69.645C264.757 69.645 265.447 69.815 266.047 70.155C266.647 70.495 267.107 70.965 267.427 71.565C267.757 72.155 267.922 72.825 267.922 73.575ZM266.512 73.29C266.512 72.77 266.397 72.325 266.167 71.955C265.937 71.575 265.622 71.29 265.222 71.1C264.832 70.9 264.397 70.8 263.917 70.8C263.227 70.8 262.637 71.02 262.147 71.46C261.667 71.9 261.392 72.51 261.322 73.29H266.512ZM271.089 71.115C271.329 70.645 271.669 70.28 272.109 70.02C272.559 69.76 273.104 69.63 273.744 69.63V71.04H273.384C271.854 71.04 271.089 71.87 271.089 73.53V78H269.724V69.78H271.089V71.115ZM274.885 80.79V80.655C275.915 79.595 276.695 78.36 277.225 76.95C277.765 75.54 278.035 74.06 278.035 72.51C278.035 70.92 277.75 69.39 277.18 67.92C276.62 66.44 275.78 65.175 274.66 64.125V63.99H276.085C277.135 64.96 277.94 66.195 278.5 67.695C279.07 69.185 279.355 70.79 279.355 72.51C279.355 74.19 279.085 75.755 278.545 77.205C278.015 78.655 277.27 79.85 276.31 80.79H274.885Z" fill="white"/>
<defs>
<clipPath id="clip0_458_1977">
<rect width="281" height="61" fill="white" transform="translate(0.210938)"/>
</clipPath>
<clipPath id="clip1_458_1977">
<rect width="18.8842" height="17" fill="white" transform="translate(0 64)"/>
</clipPath>
<clipPath id="clip2_458_1977">
<rect width="18.8842" height="17" fill="white" transform="translate(23.8848 64)"/>
</clipPath>
<clipPath id="clip3_458_1977">
<rect width="18.8842" height="17" fill="white" transform="translate(47.7676 64)"/>
</clipPath>
<clipPath id="clip4_458_1977">
<rect width="18.8842" height="17" fill="white" transform="translate(71.6523 64)"/>
</clipPath>
<clipPath id="clip5_458_1977">
<rect width="18.8842" height="17" fill="white" transform="translate(95.5371 64)"/>
</clipPath>
</defs>
</svg>
