<svg width="387" height="77" viewBox="0 0 387 77" fill="none" xmlns="http://www.w3.org/2000/svg">
<path d="M129.953 59.2628V50.4658H137.757V51.8892H131.849V54.0564H137.115V55.4798H131.849V57.8394H137.844V59.2628H129.953Z" fill="#8EBEEB"/>
<path d="M117.646 59.2628V50.4658H120.637L122.212 55.3644C122.27 55.5354 122.329 55.7278 122.387 55.9415C122.445 56.1552 122.499 56.3604 122.547 56.557C122.606 56.7536 122.649 56.9246 122.679 57.07H122.795C122.815 56.9417 122.844 56.7836 122.883 56.5955C122.922 56.4074 122.965 56.2065 123.014 55.9928C123.072 55.7705 123.136 55.5568 123.204 55.3516L124.779 50.4658H127.74V59.2628H125.844V54.813C125.844 54.4198 125.849 54.0265 125.858 53.6332C125.868 53.24 125.878 52.9023 125.888 52.6202C125.907 52.3381 125.917 52.1714 125.917 52.1201H125.8C125.781 52.197 125.732 52.3637 125.654 52.6202C125.576 52.8766 125.494 53.1545 125.406 53.4537C125.319 53.7529 125.241 54.0094 125.173 54.2231L123.525 59.2628H121.774L120.126 54.2359C120.068 54.0564 120 53.8427 119.922 53.5948C119.854 53.3383 119.781 53.0776 119.703 52.8125C119.635 52.5475 119.572 52.3167 119.513 52.1201H119.397C119.407 52.3509 119.416 52.6287 119.426 52.9536C119.436 53.2699 119.445 53.5948 119.455 53.9282C119.465 54.253 119.47 54.548 119.47 54.813V59.2628H117.646Z" fill="#8EBEEB"/>
<path d="M107.191 59.2628V50.4658H112.457C113.196 50.4658 113.809 50.577 114.295 50.7992C114.781 51.0215 115.146 51.3378 115.389 51.7482C115.632 52.1585 115.753 52.6416 115.753 53.1972C115.753 53.77 115.607 54.2787 115.316 54.7232C115.024 55.1592 114.596 55.4884 114.032 55.7107L116.103 59.2628H114.032L112.194 55.9928H109.088V59.2628H107.191ZM109.088 54.595H112.311C112.797 54.595 113.172 54.471 113.434 54.2231C113.697 53.9752 113.828 53.6332 113.828 53.1972C113.828 52.9151 113.77 52.68 113.653 52.4919C113.536 52.2953 113.366 52.1457 113.142 52.0431C112.919 51.9405 112.642 51.8892 112.311 51.8892H109.088V54.595Z" fill="#8EBEEB"/>
<path d="M95.8145 59.2628L99.7089 50.4658H102.101L106.01 59.2628H103.953L103.151 57.3905H98.5712L97.769 59.2628H95.8145ZM99.1692 55.98H102.539L101.532 53.5948C101.493 53.5093 101.445 53.4024 101.386 53.2742C101.338 53.1374 101.284 52.9921 101.226 52.8382C101.167 52.6757 101.109 52.5133 101.051 52.3509C100.992 52.1885 100.939 52.0431 100.89 51.9149H100.817C100.759 52.0859 100.686 52.2825 100.599 52.5048C100.521 52.727 100.443 52.9365 100.365 53.1331C100.287 53.3297 100.224 53.4836 100.176 53.5948L99.1692 55.98Z" fill="#8EBEEB"/>
<path d="M90.2617 59.2628L86.6152 50.4658H88.6718L91.0494 56.5185C91.0883 56.604 91.1271 56.7023 91.166 56.8135C91.2049 56.9246 91.2438 57.0315 91.2827 57.1341C91.3216 57.2281 91.3557 57.3136 91.3848 57.3905H91.4578C91.4869 57.3222 91.5161 57.2409 91.5453 57.1469C91.5842 57.0529 91.6231 56.9545 91.662 56.852C91.7009 56.7408 91.7398 56.634 91.7787 56.5314L94.1416 50.4658H96.1107L92.4642 59.2628H90.2617Z" fill="#8EBEEB"/>
<path d="M153.414 56.9694C154.688 56.9694 155.722 56.0232 155.722 54.8558C155.722 53.6884 154.688 52.7422 153.414 52.7422C152.139 52.7422 151.105 53.6884 151.105 54.8558C151.105 56.0232 152.139 56.9694 153.414 56.9694Z" fill="#DFD9D2"/>
<path d="M226.666 59.4171V50.6201H231.932C232.671 50.6201 233.283 50.7313 233.769 50.9535C234.256 51.1758 234.62 51.4921 234.863 51.9025C235.106 52.3128 235.228 52.7958 235.228 53.3515C235.228 53.9243 235.082 54.433 234.79 54.8775C234.499 55.3135 234.071 55.6427 233.507 55.865L235.578 59.4171H233.507L231.669 56.1471H228.562V59.4171H226.666ZM228.562 54.7493H231.786C232.272 54.7493 232.646 54.6253 232.909 54.3774C233.171 54.1295 233.303 53.7875 233.303 53.3515C233.303 53.0694 233.244 52.8343 233.128 52.6462C233.011 52.4496 232.841 52.3 232.617 52.1974C232.393 52.0948 232.116 52.0435 231.786 52.0435H228.562V54.7493Z" fill="#8EBEEB"/>
<path d="M210.912 59.4171L215.813 50.6201H224.667V52.0435H218.774L219.445 54.2107H224.025V55.6341H219.882L220.612 57.9937H224.754V59.4171H219.109L218.541 57.532H213.873L212.867 59.4171H210.912ZM214.617 56.1342H218.132L217.082 52.6719C217.072 52.6206 217.058 52.5693 217.038 52.518C217.019 52.4667 216.999 52.4154 216.98 52.3641C216.97 52.3043 216.956 52.2487 216.936 52.1974C216.926 52.1461 216.912 52.0948 216.892 52.0435H216.819C216.79 52.0948 216.761 52.1461 216.732 52.1974C216.703 52.2487 216.674 52.3043 216.644 52.3641C216.625 52.4154 216.601 52.4667 216.571 52.518C216.542 52.5693 216.513 52.6206 216.484 52.6719L214.617 56.1342Z" fill="#8EBEEB"/>
<path d="M206.753 59.4171V52.0564H203.559V50.6201H211.858V52.0564H208.649V59.4171H206.753Z" fill="#8EBEEB"/>
<path d="M200.186 59.4171V50.6201H202.082V59.4171H200.186Z" fill="#8EBEEB"/>
<path d="M189.502 59.4171V50.6201H191.311L195.584 55.8137C195.633 55.865 195.691 55.9376 195.759 56.0317C195.827 56.1172 195.891 56.2026 195.949 56.2881C196.007 56.3736 196.046 56.442 196.066 56.4933H196.139C196.139 56.3736 196.139 56.2582 196.139 56.1471C196.139 56.0359 196.139 55.9248 196.139 55.8137V50.6201H197.962V59.4171H196.168L191.879 54.1851C191.802 54.0825 191.709 53.9585 191.602 53.8132C191.505 53.6593 191.437 53.5524 191.398 53.4926H191.325C191.325 53.6037 191.325 53.7191 191.325 53.8388C191.325 53.95 191.325 54.0654 191.325 54.1851V59.4171H189.502Z" fill="#8EBEEB"/>
<path d="M178.125 59.4171L182.019 50.6201H184.412L188.321 59.4171H186.264L185.462 57.5448H180.882L180.08 59.4171H178.125ZM181.48 56.1342H184.849L183.843 53.7491C183.804 53.6636 183.755 53.5567 183.697 53.4285C183.648 53.2917 183.595 53.1464 183.536 52.9925C183.478 52.83 183.42 52.6676 183.361 52.5052C183.303 52.3427 183.25 52.1974 183.201 52.0692H183.128C183.07 52.2402 182.997 52.4368 182.909 52.6591C182.831 52.8813 182.754 53.0908 182.676 53.2874C182.598 53.484 182.535 53.6379 182.486 53.7491L181.48 56.1342Z" fill="#8EBEEB"/>
<path d="M173.167 59.5705C172.612 59.5705 172.082 59.5193 171.577 59.4167C171.071 59.3055 170.624 59.1388 170.235 58.9165C169.846 58.6857 169.54 58.4036 169.316 58.0702C169.092 57.7282 168.98 57.3264 168.98 56.8648C168.98 56.8135 168.98 56.7622 168.98 56.7109C168.99 56.6596 168.995 56.6211 168.995 56.5955H170.906C170.906 56.6126 170.901 56.6468 170.891 56.6981C170.891 56.7408 170.891 56.7793 170.891 56.8135C170.891 57.0956 170.984 57.3392 171.168 57.5444C171.353 57.7411 171.621 57.8949 171.971 58.0061C172.321 58.1087 172.734 58.16 173.21 58.16C173.531 58.16 173.813 58.1429 174.056 58.1087C174.309 58.0745 174.523 58.0274 174.698 57.9676C174.883 57.8992 175.034 57.8223 175.15 57.7368C175.267 57.6427 175.35 57.5402 175.398 57.429C175.457 57.3179 175.486 57.1982 175.486 57.07C175.486 56.822 175.398 56.6169 175.223 56.4544C175.048 56.292 174.81 56.1552 174.509 56.0441C174.217 55.9329 173.881 55.8346 173.502 55.7491C173.133 55.6551 172.748 55.561 172.35 55.467C171.961 55.373 171.577 55.2618 171.198 55.1336C170.828 54.9968 170.493 54.8344 170.191 54.6463C169.899 54.4582 169.666 54.2231 169.491 53.941C169.316 53.6503 169.228 53.3041 169.228 52.9023C169.228 52.4919 169.326 52.1329 169.52 51.8251C169.724 51.5174 170.006 51.2652 170.366 51.0685C170.736 50.8634 171.163 50.7137 171.65 50.6197C172.136 50.5171 172.666 50.4658 173.24 50.4658C173.774 50.4658 174.275 50.5171 174.742 50.6197C175.218 50.7137 175.637 50.8676 175.996 51.0814C176.356 51.2865 176.638 51.5515 176.842 51.8764C177.046 52.1927 177.149 52.5732 177.149 53.0177V53.1716H175.267V53.0434C175.267 52.7954 175.179 52.586 175.004 52.415C174.839 52.244 174.601 52.1115 174.29 52.0175C173.988 51.9234 173.633 51.8764 173.225 51.8764C172.787 51.8764 172.413 51.9149 172.102 51.9918C171.791 52.0602 171.552 52.1671 171.387 52.3124C171.222 52.4492 171.139 52.6202 171.139 52.8254C171.139 53.0391 171.227 53.2186 171.402 53.3639C171.577 53.5093 171.81 53.6332 172.102 53.7358C172.403 53.8384 172.739 53.9325 173.108 54.0179C173.488 54.1034 173.872 54.1975 174.261 54.3001C174.659 54.3941 175.043 54.5052 175.413 54.6335C175.792 54.7617 176.128 54.9241 176.419 55.1208C176.721 55.3089 176.959 55.544 177.134 55.8261C177.309 56.1082 177.397 56.4459 177.397 56.8391C177.397 57.4974 177.212 58.0274 176.842 58.4293C176.482 58.8311 175.982 59.1217 175.34 59.3013C174.708 59.4808 173.983 59.5705 173.167 59.5705Z" fill="#8EBEEB"/>
<path d="M251.146 56.9694C252.421 56.9694 253.454 56.0232 253.454 54.8558C253.454 53.6884 252.421 52.7422 251.146 52.7422C249.871 52.7422 248.838 53.6884 248.838 54.8558C248.838 56.0232 249.871 56.9694 251.146 56.9694Z" fill="#DFD9D2"/>
<path d="M368.673 59.5705C367.127 59.5705 365.926 59.2072 365.071 58.4805C364.215 57.7453 363.787 56.5912 363.787 55.0182C363.787 53.9838 363.986 53.1331 364.385 52.4663C364.794 51.7909 365.377 51.2908 366.135 50.9659C366.904 50.6325 367.823 50.4658 368.892 50.4658C369.534 50.4658 370.137 50.5299 370.701 50.6582C371.265 50.7864 371.761 50.983 372.189 51.2481C372.626 51.5045 372.967 51.8294 373.21 52.2226C373.453 52.6159 373.574 53.0818 373.574 53.6204H371.62C371.62 53.3383 371.547 53.0904 371.401 52.8766C371.265 52.6544 371.07 52.4706 370.818 52.3252C370.574 52.1714 370.292 52.0602 369.972 51.9918C369.651 51.9149 369.31 51.8764 368.951 51.8764C368.416 51.8764 367.944 51.9405 367.536 52.0688C367.137 52.1885 366.802 52.3765 366.529 52.633C366.267 52.8809 366.067 53.193 365.931 53.5691C365.805 53.9453 365.742 54.3856 365.742 54.8899V55.1592C365.742 55.8517 365.853 56.4202 366.077 56.8648C366.301 57.3093 366.636 57.6385 367.084 57.8522C367.541 58.0574 368.105 58.16 368.775 58.16C369.349 58.16 369.85 58.083 370.278 57.9291C370.715 57.7753 371.056 57.553 371.299 57.2623C371.552 56.9631 371.678 56.5998 371.678 56.1723V56.0825H368.484V54.6976H373.574V59.4167H372.218L372.057 58.4421C371.766 58.6985 371.454 58.9123 371.124 59.0833C370.793 59.2457 370.429 59.3654 370.03 59.4423C369.631 59.5278 369.179 59.5705 368.673 59.5705Z" fill="#8EBEEB"/>
<path d="M353.439 59.4171V50.6201H355.248L359.522 55.8137C359.57 55.865 359.629 55.9376 359.697 56.0317C359.765 56.1172 359.828 56.2026 359.886 56.2881C359.945 56.3736 359.984 56.442 360.003 56.4933H360.076C360.076 56.3736 360.076 56.2582 360.076 56.1471C360.076 56.0359 360.076 55.9248 360.076 55.8137V50.6201H361.899V59.4171H360.105L355.817 54.1851C355.739 54.0825 355.647 53.9585 355.54 53.8132C355.443 53.6593 355.375 53.5524 355.336 53.4926H355.263C355.263 53.6037 355.263 53.7191 355.263 53.8388C355.263 53.95 355.263 54.0654 355.263 54.1851V59.4171H353.439Z" fill="#8EBEEB"/>
<path d="M349.322 59.4171V50.6201H351.218V59.4171H349.322Z" fill="#8EBEEB"/>
<path d="M343.329 59.5705C342.774 59.5705 342.245 59.5193 341.739 59.4167C341.233 59.3055 340.786 59.1388 340.397 58.9165C340.008 58.6857 339.702 58.4036 339.478 58.0702C339.254 57.7282 339.143 57.3264 339.143 56.8648C339.143 56.8135 339.143 56.7622 339.143 56.7109C339.152 56.6596 339.157 56.6211 339.157 56.5955H341.068C341.068 56.6126 341.063 56.6468 341.053 56.6981C341.053 56.7408 341.053 56.7793 341.053 56.8135C341.053 57.0956 341.146 57.3392 341.33 57.5444C341.515 57.7411 341.783 57.8949 342.133 58.0061C342.483 58.1087 342.896 58.16 343.373 58.16C343.693 58.16 343.975 58.1429 344.218 58.1087C344.471 58.0745 344.685 58.0274 344.86 57.9676C345.045 57.8992 345.196 57.8223 345.312 57.7368C345.429 57.6427 345.512 57.5402 345.56 57.429C345.619 57.3179 345.648 57.1982 345.648 57.07C345.648 56.822 345.56 56.6169 345.385 56.4544C345.21 56.292 344.972 56.1552 344.671 56.0441C344.379 55.9329 344.043 55.8346 343.664 55.7491C343.295 55.6551 342.911 55.561 342.512 55.467C342.123 55.373 341.739 55.2618 341.36 55.1336C340.99 54.9968 340.655 54.8344 340.353 54.6463C340.061 54.4582 339.828 54.2231 339.653 53.941C339.478 53.6503 339.391 53.3041 339.391 52.9023C339.391 52.4919 339.488 52.1329 339.682 51.8251C339.886 51.5174 340.168 51.2652 340.528 51.0685C340.898 50.8634 341.326 50.7137 341.812 50.6197C342.298 50.5171 342.828 50.4658 343.402 50.4658C343.936 50.4658 344.437 50.5171 344.904 50.6197C345.381 50.7137 345.799 50.8676 346.158 51.0814C346.518 51.2865 346.8 51.5515 347.004 51.8764C347.209 52.1927 347.311 52.5732 347.311 53.0177V53.1716H345.429V53.0434C345.429 52.7954 345.342 52.586 345.167 52.415C345.001 52.244 344.763 52.1115 344.452 52.0175C344.15 51.9234 343.795 51.8764 343.387 51.8764C342.95 51.8764 342.575 51.9149 342.264 51.9918C341.953 52.0602 341.715 52.1671 341.549 52.3124C341.384 52.4492 341.301 52.6202 341.301 52.8254C341.301 53.0391 341.389 53.2186 341.564 53.3639C341.739 53.5093 341.972 53.6332 342.264 53.7358C342.565 53.8384 342.901 53.9325 343.27 54.0179C343.65 54.1034 344.034 54.1975 344.423 54.3001C344.821 54.3941 345.205 54.5052 345.575 54.6335C345.954 54.7617 346.29 54.9241 346.581 55.1208C346.883 55.3089 347.121 55.544 347.296 55.8261C347.471 56.1082 347.559 56.4459 347.559 56.8391C347.559 57.4974 347.374 58.0274 347.004 58.4293C346.645 58.8311 346.144 59.1217 345.502 59.3013C344.87 59.4808 344.146 59.5705 343.329 59.5705Z" fill="#8EBEEB"/>
<path d="M328.91 59.4171V50.6201H330.719L334.992 55.8137C335.041 55.865 335.099 55.9376 335.168 56.0317C335.236 56.1172 335.299 56.2026 335.357 56.2881C335.415 56.3736 335.454 56.442 335.474 56.4933H335.547C335.547 56.3736 335.547 56.2582 335.547 56.1471C335.547 56.0359 335.547 55.9248 335.547 55.8137V50.6201H337.37V59.4171H335.576L331.288 54.1851C331.21 54.0825 331.117 53.9585 331.011 53.8132C330.913 53.6593 330.845 53.5524 330.806 53.4926H330.733C330.733 53.6037 330.733 53.7191 330.733 53.8388C330.733 53.95 330.733 54.0654 330.733 54.1851V59.4171H328.91Z" fill="#8EBEEB"/>
<path d="M319.111 59.4171V50.6201H326.915V52.0435H321.007V54.2107H326.273V55.6341H321.007V57.9937H327.002V59.4171H319.111Z" fill="#8EBEEB"/>
<path d="M308.656 59.4171V50.6201H313.922C314.661 50.6201 315.273 50.7313 315.76 50.9535C316.246 51.1758 316.61 51.4921 316.854 51.9025C317.097 52.3128 317.218 52.7958 317.218 53.3515C317.218 53.9243 317.072 54.433 316.781 54.8775C316.489 55.3135 316.061 55.6427 315.497 55.865L317.568 59.4171H315.497L313.659 56.1471H310.552V59.4171H308.656ZM310.552 54.7493H313.776C314.262 54.7493 314.636 54.6253 314.899 54.3774C315.162 54.1295 315.293 53.7875 315.293 53.3515C315.293 53.0694 315.234 52.8343 315.118 52.6462C315.001 52.4496 314.831 52.3 314.607 52.1974C314.384 52.0948 314.107 52.0435 313.776 52.0435H310.552V54.7493Z" fill="#8EBEEB"/>
<path d="M297.973 59.4171V50.6201H299.781L304.055 55.8137C304.104 55.865 304.162 55.9376 304.23 56.0317C304.298 56.1172 304.361 56.2026 304.42 56.2881C304.478 56.3736 304.517 56.442 304.536 56.4933H304.609C304.609 56.3736 304.609 56.2582 304.609 56.1471C304.609 56.0359 304.609 55.9248 304.609 55.8137V50.6201H306.432V59.4171H304.638L300.35 54.1851C300.272 54.0825 300.18 53.9585 300.073 53.8132C299.976 53.6593 299.908 53.5524 299.869 53.4926H299.796C299.796 53.6037 299.796 53.7191 299.796 53.8388C299.796 53.95 299.796 54.0654 299.796 54.1851V59.4171H297.973Z" fill="#8EBEEB"/>
<path d="M287.289 59.4171V50.6201H289.098L293.371 55.8137C293.42 55.865 293.478 55.9376 293.546 56.0317C293.614 56.1172 293.678 56.2026 293.736 56.2881C293.794 56.3736 293.833 56.442 293.853 56.4933H293.926C293.926 56.3736 293.926 56.2582 293.926 56.1471C293.926 56.0359 293.926 55.9248 293.926 55.8137V50.6201H295.749V59.4171H293.955L289.667 54.1851C289.589 54.0825 289.496 53.9585 289.389 53.8132C289.292 53.6593 289.224 53.5524 289.185 53.4926H289.112C289.112 53.6037 289.112 53.7191 289.112 53.8388C289.112 53.95 289.112 54.0654 289.112 54.1851V59.4171H287.289Z" fill="#8EBEEB"/>
<path d="M275.912 59.4171L279.807 50.6201H282.199L286.108 59.4171H284.051L283.249 57.5448H278.669L277.867 59.4171H275.912ZM279.267 56.1342H282.636L281.63 53.7491C281.591 53.6636 281.542 53.5567 281.484 53.4285C281.435 53.2917 281.382 53.1464 281.323 52.9925C281.265 52.83 281.207 52.6676 281.148 52.5052C281.09 52.3427 281.037 52.1974 280.988 52.0692H280.915C280.857 52.2402 280.784 52.4368 280.696 52.6591C280.618 52.8813 280.541 53.0908 280.463 53.2874C280.385 53.484 280.322 53.6379 280.273 53.7491L279.267 56.1342Z" fill="#8EBEEB"/>
<path d="M270.359 59.4171L266.713 50.6201H268.77L271.147 56.6728C271.186 56.7583 271.225 56.8566 271.264 56.9678C271.303 57.0789 271.341 57.1858 271.38 57.2884C271.419 57.3824 271.453 57.4679 271.482 57.5448H271.555C271.585 57.4764 271.614 57.3952 271.643 57.3012C271.682 57.2072 271.721 57.1088 271.76 57.0063C271.799 56.8951 271.837 56.7883 271.876 56.6857L274.239 50.6201H276.208L272.562 59.4171H270.359Z" fill="#8EBEEB"/>
<path d="M349.867 41.6578V18.1396H364.777C366.553 18.1396 368.029 18.4929 369.206 19.1993C370.405 19.9058 371.304 20.8287 371.904 21.9682C372.504 23.1076 372.803 24.3382 372.803 25.66C372.803 27.164 372.446 28.5086 371.731 29.6936C371.016 30.8558 370.047 31.7902 368.825 32.4966L373.495 41.6578H364.916L361.283 33.7614H357.513V41.6578H349.867ZM357.513 28.5314H362.875C363.474 28.5314 363.982 28.3035 364.397 27.8477C364.812 27.3691 365.02 26.7425 365.02 25.9676C365.02 25.4891 364.927 25.0675 364.743 24.7028C364.558 24.3382 364.305 24.0534 363.982 23.8483C363.659 23.6204 363.29 23.5064 362.875 23.5064H357.513V28.5314Z" fill="white"/>
<path d="M333.919 42.0681C331.22 42.0681 328.914 41.6123 327 40.7008C325.085 39.7892 323.621 38.4333 322.606 36.633C321.591 34.8099 321.084 32.5651 321.084 29.8988C321.084 27.2098 321.591 24.9651 322.606 23.1647C323.621 21.3644 325.085 20.0085 327 19.0969C328.914 18.1854 331.22 17.7296 333.919 17.7296C336.64 17.7296 338.958 18.1854 340.872 19.0969C342.786 20.0085 344.251 21.3644 345.266 23.1647C346.28 24.9651 346.788 27.2098 346.788 29.8988C346.788 32.5651 346.28 34.8099 345.266 36.633C344.251 38.4333 342.786 39.7892 340.872 40.7008C338.958 41.6123 336.64 42.0681 333.919 42.0681ZM333.919 36.4279C334.749 36.4279 335.475 36.3025 336.098 36.0518C336.744 35.7784 337.274 35.4024 337.689 34.9238C338.128 34.4452 338.451 33.8755 338.658 33.2146C338.866 32.531 338.969 31.7903 338.969 30.9927V28.805C338.969 28.0074 338.866 27.2781 338.658 26.6172C338.451 25.9336 338.128 25.3525 337.689 24.8739C337.274 24.3953 336.744 24.0307 336.098 23.78C335.475 23.5066 334.749 23.3698 333.919 23.3698C333.088 23.3698 332.35 23.5066 331.705 23.78C331.082 24.0307 330.563 24.3953 330.148 24.8739C329.733 25.3525 329.421 25.9336 329.214 26.6172C329.006 27.2781 328.902 28.0074 328.902 28.805V30.9927C328.902 31.7903 329.006 32.531 329.214 33.2146C329.421 33.8755 329.733 34.4452 330.148 34.9238C330.563 35.4024 331.082 35.7784 331.705 36.0518C332.35 36.3025 333.088 36.4279 333.919 36.4279ZM321.361 42.9227L342.706 16.9092H346.442L325.097 42.9227H321.361Z" fill="white"/>
<path d="M296.199 41.6578V18.1396H311.11C312.885 18.1396 314.361 18.4929 315.538 19.1993C316.737 19.9058 317.636 20.8287 318.236 21.9682C318.836 23.1076 319.135 24.3382 319.135 25.66C319.135 27.164 318.778 28.5086 318.063 29.6936C317.348 30.8558 316.379 31.7902 315.157 32.4966L319.827 41.6578H311.248L307.615 33.7614H303.845V41.6578H296.199ZM303.845 28.5314H309.207C309.806 28.5314 310.314 28.3035 310.729 27.8477C311.144 27.3691 311.352 26.7425 311.352 25.9676C311.352 25.4891 311.259 25.0675 311.075 24.7028C310.89 24.3382 310.637 24.0534 310.314 23.8483C309.991 23.6204 309.622 23.5064 309.207 23.5064H303.845V28.5314Z" fill="white"/>
<path d="M265.523 41.6578V18.1396H273.169V35.6415H285.381V41.6578H265.523Z" fill="white"/>
<path d="M243.488 41.6578V18.1396H251.134V35.6415H263.346V41.6578H243.488Z" fill="white"/>
<path d="M227.54 42.068C224.841 42.068 222.535 41.6122 220.621 40.7007C218.707 39.7891 217.242 38.4332 216.227 36.6329C215.212 34.8098 214.705 32.5651 214.705 29.8988C214.705 27.2097 215.212 24.965 216.227 23.1646C217.242 21.3643 218.707 20.0084 220.621 19.0968C222.535 18.1853 224.841 17.7295 227.54 17.7295C230.261 17.7295 232.579 18.1853 234.493 19.0968C236.407 20.0084 237.872 21.3643 238.887 23.1646C239.902 24.965 240.409 27.2097 240.409 29.8988C240.409 32.5651 239.902 34.8098 238.887 36.6329C237.872 38.4332 236.407 39.7891 234.493 40.7007C232.579 41.6122 230.261 42.068 227.54 42.068ZM227.54 36.4278C228.37 36.4278 229.096 36.3024 229.719 36.0518C230.365 35.7783 230.895 35.4023 231.311 34.9237C231.749 34.4451 232.072 33.8754 232.279 33.2145C232.487 32.5309 232.591 31.7902 232.591 30.9926V28.8049C232.591 28.0073 232.487 27.278 232.279 26.6172C232.072 25.9335 231.749 25.3524 231.311 24.8738C230.895 24.3952 230.365 24.0306 229.719 23.7799C229.096 23.5065 228.37 23.3697 227.54 23.3697C226.709 23.3697 225.971 23.5065 225.326 23.7799C224.703 24.0306 224.184 24.3952 223.769 24.8738C223.354 25.3524 223.042 25.9335 222.835 26.6172C222.627 27.278 222.523 28.0073 222.523 28.8049V30.9926C222.523 31.7902 222.627 32.5309 222.835 33.2145C223.042 33.8754 223.354 34.4451 223.769 34.9237C224.184 35.4023 224.703 35.7783 225.326 36.0518C225.971 36.3024 226.709 36.4278 227.54 36.4278Z" fill="white"/>
<path d="M196.965 41.6578L188.523 18.1396H196.688L199.974 29.0099C200.067 29.3062 200.193 29.7392 200.355 30.3089C200.516 30.8786 200.689 31.4825 200.874 32.1206C201.081 32.7587 201.254 33.3398 201.393 33.864H201.669C201.808 33.3854 201.969 32.8385 202.154 32.2232C202.338 31.6079 202.511 31.0154 202.673 30.4456C202.857 29.8531 202.996 29.3746 203.088 29.0099L206.409 18.1396H214.227L205.821 41.6578H196.965Z" fill="white"/>
<path d="M165.283 41.6578V18.1396H175.592C178.314 18.1396 180.597 18.5612 182.442 19.4044C184.287 20.2476 185.683 21.5352 186.628 23.2671C187.597 24.9991 188.081 27.2096 188.081 29.8987C188.081 32.565 187.597 34.7755 186.628 36.5303C185.683 38.2622 184.287 39.5498 182.442 40.393C180.597 41.2362 178.314 41.6578 175.592 41.6578H165.283ZM172.929 36.0175H175.454C176.284 36.0175 176.999 35.9036 177.599 35.6757C178.222 35.4478 178.729 35.1174 179.121 34.6844C179.513 34.2514 179.801 33.7159 179.986 33.0778C180.17 32.4397 180.263 31.7218 180.263 30.9242V28.8732C180.263 28.0756 180.17 27.3578 179.986 26.7197C179.801 26.0816 179.513 25.546 179.121 25.113C178.729 24.6801 178.222 24.3496 177.599 24.1217C176.999 23.8938 176.284 23.7799 175.454 23.7799H172.929V36.0175Z" fill="white"/>
<path d="M137.504 41.6578V18.1396H144.008L151.411 26.5829C151.619 26.8108 151.895 27.1413 152.241 27.5742C152.587 28.0072 152.933 28.4516 153.279 28.9074C153.648 29.3404 153.925 29.6936 154.109 29.9671L154.282 29.8987C154.259 29.2606 154.248 28.6339 154.248 28.0186C154.248 27.3805 154.248 26.902 154.248 26.5829V18.1396H161.201V41.6578H154.732L146.395 32.2574C146.003 31.8016 145.668 31.3914 145.391 31.0268C145.115 30.6394 144.85 30.2747 144.596 29.9329L144.423 30.0013C144.446 30.4343 144.457 30.8672 144.457 31.3002C144.457 31.7332 144.457 32.0523 144.457 32.2574V41.6578H137.504Z" fill="white"/>
<path d="M109.402 41.6578L118.086 18.1396H126.976L135.66 41.6578H127.565L126.561 38.342H118.224L117.221 41.6578H109.402ZM119.815 33.0778H125.005L123.863 29.3176C123.771 29.0441 123.667 28.7137 123.552 28.3263C123.436 27.9389 123.321 27.5287 123.206 27.0957C123.09 26.6627 122.975 26.2411 122.86 25.8309C122.744 25.3979 122.641 25.0219 122.548 24.7028H122.272C122.179 25.113 122.052 25.5802 121.891 26.1044C121.753 26.6285 121.603 27.1754 121.441 27.7452C121.28 28.2921 121.118 28.8162 120.957 29.3176L119.815 33.0778Z" fill="white"/>
<path d="M98.3774 42.068C96.7399 42.068 95.2062 41.9427 93.7763 41.692C92.3695 41.4641 91.1241 41.0653 90.0401 40.4956C88.9792 39.9031 88.1374 39.0941 87.5147 38.0686C86.9151 37.0203 86.6152 35.7099 86.6152 34.1375C86.6152 34.0919 86.6152 34.0349 86.6152 33.9666C86.6152 33.8754 86.6268 33.7843 86.6498 33.6931H93.8801C93.857 33.7843 93.8455 33.8754 93.8455 33.9666C93.8455 34.0349 93.8455 34.1033 93.8455 34.1717C93.8455 34.8553 94.007 35.3795 94.3298 35.7441C94.6527 36.1087 95.1025 36.3594 95.679 36.4961C96.2787 36.6101 96.9475 36.6671 97.6855 36.6671C97.9623 36.6671 98.2506 36.6671 98.5504 36.6671C98.8733 36.6443 99.1731 36.6101 99.4499 36.5645C99.7497 36.4961 100.015 36.405 100.246 36.291C100.499 36.1771 100.695 36.029 100.834 35.8467C100.972 35.6416 101.041 35.3909 101.041 35.0946C101.041 34.6616 100.845 34.3198 100.453 34.0691C100.061 33.8184 99.5306 33.602 98.8617 33.4196C98.1929 33.2373 97.4434 33.0664 96.6131 32.9069C95.7828 32.7474 94.918 32.5651 94.0185 32.36C93.119 32.1321 92.2542 31.8472 91.4239 31.5054C90.5936 31.1635 89.8441 30.7306 89.1752 30.2064C88.5064 29.6595 87.976 28.9872 87.5839 28.1896C87.1918 27.3692 86.9958 26.3893 86.9958 25.2498C86.9958 23.8825 87.2841 22.7203 87.8606 21.7631C88.4372 20.806 89.2214 20.0312 90.2131 19.4387C91.2279 18.8461 92.3695 18.4132 93.6379 18.1397C94.9295 17.8662 96.2787 17.7295 97.6855 17.7295C99.1154 17.7295 100.453 17.8776 101.699 18.1739C102.967 18.4473 104.086 18.8803 105.054 19.4728C106.023 20.0654 106.784 20.8174 107.337 21.7289C107.891 22.6405 108.179 23.723 108.202 24.9764V25.3866H101.041V25.2498C101.041 24.8396 100.937 24.4522 100.73 24.0876C100.522 23.723 100.188 23.4267 99.7266 23.1988C99.2884 22.9709 98.7003 22.857 97.9623 22.857C97.2704 22.857 96.6823 22.9254 96.198 23.0621C95.7367 23.1988 95.3907 23.3925 95.1601 23.6432C94.9295 23.8711 94.8142 24.1218 94.8142 24.3952C94.8142 24.8282 95.0102 25.1815 95.4023 25.4549C95.7943 25.7284 96.3248 25.9563 96.9936 26.1386C97.6625 26.3209 98.412 26.4918 99.2423 26.6513C100.073 26.8109 100.937 26.9932 101.837 27.1983C102.736 27.3806 103.601 27.6313 104.431 27.9503C105.262 28.2694 106.011 28.6909 106.68 29.2151C107.349 29.7164 107.879 30.3431 108.271 31.0952C108.664 31.8472 108.86 32.7702 108.86 33.864C108.86 35.8011 108.398 37.3735 107.476 38.5813C106.576 39.7891 105.331 40.6779 103.74 41.2476C102.171 41.7946 100.384 42.068 98.3774 42.068Z" fill="white"/>
<path fill-rule="evenodd" clip-rule="evenodd" d="M13.4258 38.5001C13.4258 22.1219 26.8048 8.84473 43.3064 8.84473C59.809 8.84473 73.187 22.1229 73.187 38.5001C73.187 54.8784 59.808 68.1555 43.3064 68.1555C26.8038 68.1555 13.4258 54.8773 13.4258 38.5001ZM16.7458 38.5001C16.7458 23.9417 28.6342 12.1398 43.3064 12.1398C57.9754 12.1398 69.8669 23.9385 69.8669 38.5001C69.8669 53.0586 57.9786 64.8605 43.3064 64.8605C28.6374 64.8605 16.7458 53.0618 16.7458 38.5001Z" fill="white"/>
<path fill-rule="evenodd" clip-rule="evenodd" d="M23.7168 49.1871C28.037 47.2644 35.1152 45.6829 46.7402 48.6881C53.854 50.5271 59.1675 50.2884 63.0762 49.1871C63.0762 49.392 57.4884 60.9883 43.4991 60.9883C29.5097 60.9883 23.7168 49.1438 23.7168 49.1871Z" fill="#8EBEEB"/>
<path d="M40.8495 45.4791C33.9985 44.5 28.5657 45.1711 24.8407 46.2818C24.5526 45.9833 24.2978 45.6519 24.0763 45.2876C23.5775 44.4167 23.3281 43.3281 23.3281 42.0218V41.8798C23.3281 41.8041 23.3377 41.7284 23.3569 41.6526H29.3714C29.3522 41.7284 29.3426 41.8041 29.3426 41.8798V42.0502C29.3426 42.6182 29.4769 43.0536 29.7455 43.3565C30.0141 43.6594 30.3882 43.8677 30.8678 43.9813C31.3666 44.076 31.923 44.1233 32.5369 44.1233H33.2564C33.5249 44.1044 33.7743 44.076 34.0046 44.0381C34.254 43.9813 34.4746 43.9056 34.6664 43.8109C34.8775 43.7162 35.0406 43.5932 35.1557 43.4417C35.2708 43.2713 35.3283 43.0631 35.3283 42.817C35.3283 42.4573 35.1653 42.1733 34.8391 41.965C34.513 41.7568 34.0717 41.5769 33.5154 41.4254C32.959 41.274 32.3355 41.132 31.6448 40.9995C30.9542 40.8669 30.2347 40.7155 29.4865 40.5451C28.7383 40.3558 28.0189 40.1191 27.3282 39.8351C26.6375 39.5512 26.014 39.1914 25.4577 38.756C24.9013 38.3016 24.46 37.7431 24.1339 37.0805C23.8077 36.3989 23.6447 35.5849 23.6447 34.6383C23.6447 33.5023 23.8845 32.5368 24.3641 31.7416C24.8437 30.9465 25.496 30.3028 26.321 29.8105C27.1651 29.3183 28.1148 28.9586 29.17 28.7314C30.2443 28.5042 31.3666 28.3906 32.5369 28.3906C33.7264 28.3906 34.8391 28.5137 35.8751 28.7598C36.9303 28.987 37.8607 29.3467 38.6665 29.8389C39.4723 30.3312 40.1054 30.9559 40.5658 31.7132C41.0263 32.4705 41.2661 33.3698 41.2853 34.4111V34.7518H35.3283V34.6383C35.3283 34.2975 35.242 33.9756 35.0693 33.6727C34.8967 33.3698 34.6185 33.1237 34.2348 32.9344C33.8703 32.745 33.3811 32.6504 32.7671 32.6504C32.1916 32.6504 31.7024 32.7072 31.2995 32.8208C30.9158 32.9344 30.628 33.0953 30.4362 33.3035C30.2443 33.4929 30.1484 33.7011 30.1484 33.9283C30.1484 34.288 30.3115 34.5815 30.6376 34.8086C30.9637 35.0358 31.405 35.2252 31.9614 35.3766C32.5177 35.5281 33.1412 35.6701 33.8319 35.8026C34.5226 35.9351 35.242 36.0866 35.9902 36.257C36.7384 36.4084 37.4579 36.6167 38.1485 36.8817C38.8392 37.1468 39.4627 37.497 40.0191 37.9325C40.5754 38.349 41.0167 38.8696 41.3428 39.4944C41.669 40.1191 41.832 40.8859 41.832 41.7946C41.832 43.2813 41.5045 44.5095 40.8495 45.4791Z" fill="white"/>
<path fill-rule="evenodd" clip-rule="evenodd" d="M50.1975 47.4101C49.0741 47.2171 47.9192 46.9712 46.7394 46.6662C45.7492 46.4103 44.7818 46.1879 43.8377 45.9964V28.7317H56.2408C57.718 28.7317 58.9459 29.0252 59.9243 29.6121C60.9219 30.199 61.6701 30.9657 62.1689 31.9123C62.6678 32.859 62.9172 33.8813 62.9172 34.9794C62.9172 36.2289 62.6198 37.3459 62.0251 38.3304C61.4303 39.2959 60.6246 40.0721 59.6077 40.659L63.0156 47.335C61.1374 47.7633 58.8332 48.0169 56.2221 47.9794L53.3343 41.7098H50.1975V47.4101ZM54.658 37.3648H50.1975V33.1903H54.658C55.0034 33.1903 55.3103 33.2849 55.5789 33.4743C55.8475 33.6446 56.0585 33.8813 56.212 34.1842C56.3655 34.4871 56.4422 34.8374 56.4422 35.2349C56.4422 35.8786 56.2696 36.3993 55.9242 36.7969C55.5789 37.1755 55.1568 37.3648 54.658 37.3648Z" fill="white"/>
</svg>
