<svg width="1001" height="202" viewBox="0 0 1001 202" fill="none" xmlns="http://www.w3.org/2000/svg">
<path d="M336.296 154.815V131.834H356.46V135.552H341.196V141.214H354.802V144.932H341.196V151.096H356.686V154.815H336.296Z" fill="#5A96CE"/>
<path d="M304.495 154.815V131.834H312.222L316.292 144.631C316.443 145.077 316.594 145.58 316.744 146.138C316.895 146.697 317.033 147.233 317.159 147.746C317.31 148.26 317.423 148.707 317.498 149.086H317.8C317.85 148.751 317.925 148.338 318.026 147.847C318.126 147.355 318.239 146.831 318.365 146.272C318.516 145.692 318.679 145.133 318.855 144.597L322.925 131.834H330.576V154.815H325.677V143.19C325.677 142.163 325.689 141.136 325.714 140.108C325.74 139.081 325.765 138.199 325.79 137.462C325.84 136.725 325.865 136.289 325.865 136.155H325.564C325.513 136.356 325.388 136.792 325.187 137.462C324.986 138.132 324.772 138.858 324.546 139.639C324.32 140.421 324.119 141.091 323.943 141.649L319.684 154.815H315.161L310.902 141.683C310.752 141.214 310.576 140.655 310.375 140.008C310.199 139.338 310.01 138.657 309.809 137.964C309.633 137.272 309.47 136.669 309.319 136.155H309.018C309.043 136.758 309.068 137.484 309.093 138.333C309.118 139.159 309.144 140.008 309.169 140.879C309.194 141.727 309.206 142.498 309.206 143.19V154.815H304.495Z" fill="#5A96CE"/>
<path d="M277.479 154.815V131.834H291.085C292.995 131.834 294.578 132.124 295.834 132.705C297.091 133.286 298.033 134.112 298.661 135.184C299.289 136.256 299.603 137.518 299.603 138.969C299.603 140.466 299.226 141.794 298.473 142.956C297.719 144.095 296.613 144.955 295.156 145.535L300.508 154.815H295.156L290.407 146.272H282.379V154.815H277.479ZM282.379 142.621H290.709C291.965 142.621 292.932 142.297 293.611 141.649C294.289 141.002 294.628 140.108 294.628 138.969C294.628 138.232 294.478 137.618 294.176 137.127C293.875 136.613 293.435 136.222 292.857 135.954C292.279 135.686 291.563 135.552 290.709 135.552H282.379V142.621Z" fill="#5A96CE"/>
<path d="M248.082 154.815L258.145 131.834H264.326L274.427 154.815H269.113L267.04 149.924H255.205L253.132 154.815H248.082ZM256.751 146.239H265.457L262.856 140.008C262.756 139.785 262.63 139.505 262.48 139.17C262.354 138.813 262.216 138.433 262.065 138.031C261.914 137.607 261.763 137.183 261.613 136.758C261.462 136.334 261.324 135.954 261.198 135.619H261.01C260.859 136.066 260.67 136.58 260.444 137.16C260.243 137.741 260.042 138.288 259.841 138.802C259.64 139.316 259.477 139.718 259.351 140.008L256.751 146.239Z" fill="#5A96CE"/>
<path d="M233.732 154.815L224.31 131.834H229.624L235.767 147.646C235.868 147.869 235.968 148.126 236.069 148.416C236.169 148.707 236.27 148.986 236.37 149.254C236.471 149.499 236.559 149.723 236.634 149.924H236.823C236.898 149.745 236.973 149.533 237.049 149.287C237.149 149.042 237.25 148.785 237.35 148.517C237.451 148.226 237.551 147.947 237.652 147.679L243.757 131.834H248.846L239.423 154.815H233.732Z" fill="#5A96CE"/>
<path d="M396.913 148.823C400.207 148.823 402.877 146.351 402.877 143.302C402.877 140.252 400.207 137.78 396.913 137.78C393.619 137.78 390.949 140.252 390.949 143.302C390.949 146.351 393.619 148.823 396.913 148.823Z" fill="#DFD9D2"/>
<path d="M586.197 155.217V132.236H599.803C601.713 132.236 603.296 132.527 604.552 133.107C605.808 133.688 606.751 134.514 607.379 135.586C608.007 136.658 608.321 137.92 608.321 139.372C608.321 140.868 607.944 142.197 607.19 143.358C606.437 144.497 605.331 145.357 603.874 145.938L609.226 155.217H603.874L599.125 146.675H591.097V155.217H586.197ZM591.097 143.023H599.426C600.683 143.023 601.65 142.699 602.328 142.052C603.007 141.404 603.346 140.511 603.346 139.372C603.346 138.635 603.195 138.021 602.894 137.529C602.592 137.016 602.153 136.625 601.575 136.357C600.997 136.089 600.281 135.955 599.426 135.955H591.097V143.023Z" fill="#5A96CE"/>
<path d="M545.491 155.217L558.155 132.236H581.033V135.955H565.806L567.54 141.616H579.374V145.335H568.67L570.555 151.498H581.259V155.217H566.673L565.203 150.292H553.142L550.542 155.217H545.491ZM555.064 146.641H564.148L561.434 137.596C561.409 137.462 561.371 137.328 561.321 137.194C561.271 137.06 561.22 136.926 561.17 136.792C561.145 136.636 561.107 136.491 561.057 136.357C561.032 136.223 560.994 136.089 560.944 135.955H560.756C560.68 136.089 560.605 136.223 560.529 136.357C560.454 136.491 560.379 136.636 560.303 136.792C560.253 136.926 560.19 137.06 560.115 137.194C560.039 137.328 559.964 137.462 559.889 137.596L555.064 146.641Z" fill="#5A96CE"/>
<path d="M534.743 155.217V135.988H526.489V132.236H547.935V135.988H539.643V155.217H534.743Z" fill="#5A96CE"/>
<path d="M517.774 155.217V132.236H522.674V155.217H517.774Z" fill="#5A96CE"/>
<path d="M490.169 155.217V132.236H494.842L505.886 145.804C506.011 145.938 506.162 146.127 506.338 146.373C506.514 146.596 506.677 146.82 506.828 147.043C506.979 147.266 507.079 147.445 507.129 147.579H507.318C507.318 147.266 507.318 146.965 507.318 146.675C507.318 146.384 507.318 146.094 507.318 145.804V132.236H512.029V155.217H507.393L496.312 141.549C496.111 141.281 495.873 140.957 495.596 140.578C495.345 140.176 495.169 139.897 495.069 139.74H494.88C494.88 140.031 494.88 140.332 494.88 140.645C494.88 140.935 494.88 141.236 494.88 141.549V155.217H490.169Z" fill="#5A96CE"/>
<path d="M460.772 155.217L470.836 132.236H477.017L487.118 155.217H481.803L479.73 150.326H467.896L465.823 155.217H460.772ZM469.441 146.641H478.147L475.547 140.41C475.446 140.187 475.321 139.908 475.17 139.573C475.044 139.215 474.906 138.836 474.755 138.434C474.605 138.009 474.454 137.585 474.303 137.161C474.152 136.736 474.014 136.357 473.888 136.022H473.7C473.549 136.468 473.361 136.982 473.135 137.563C472.934 138.143 472.733 138.691 472.532 139.204C472.331 139.718 472.167 140.12 472.042 140.41L469.441 146.641Z" fill="#5A96CE"/>
<path d="M447.958 155.619C446.525 155.619 445.156 155.485 443.849 155.217C442.543 154.926 441.387 154.491 440.382 153.91C439.377 153.307 438.585 152.57 438.007 151.699C437.43 150.806 437.141 149.756 437.141 148.55C437.141 148.416 437.141 148.282 437.141 148.148C437.166 148.014 437.178 147.914 437.178 147.847H442.116C442.116 147.891 442.103 147.981 442.078 148.115C442.078 148.226 442.078 148.327 442.078 148.416C442.078 149.153 442.317 149.79 442.794 150.326C443.271 150.839 443.962 151.241 444.867 151.532C445.772 151.8 446.839 151.934 448.071 151.934C448.9 151.934 449.628 151.889 450.257 151.8C450.91 151.71 451.463 151.587 451.915 151.431C452.392 151.252 452.782 151.051 453.083 150.828C453.385 150.582 453.598 150.314 453.724 150.024C453.875 149.734 453.95 149.421 453.95 149.086C453.95 148.439 453.724 147.903 453.272 147.478C452.82 147.054 452.204 146.697 451.425 146.406C450.671 146.116 449.804 145.859 448.824 145.636C447.87 145.39 446.877 145.144 445.847 144.899C444.842 144.653 443.849 144.363 442.869 144.028C441.915 143.67 441.048 143.246 440.269 142.755C439.515 142.263 438.912 141.649 438.46 140.912C438.007 140.153 437.781 139.249 437.781 138.199C437.781 137.127 438.033 136.189 438.535 135.385C439.063 134.581 439.791 133.922 440.721 133.408C441.676 132.872 442.782 132.482 444.038 132.236C445.294 131.968 446.664 131.834 448.146 131.834C449.528 131.834 450.822 131.968 452.028 132.236C453.259 132.482 454.34 132.884 455.269 133.442C456.199 133.978 456.928 134.67 457.455 135.519C457.983 136.345 458.247 137.339 458.247 138.5V138.902H453.385V138.567C453.385 137.92 453.159 137.373 452.706 136.926C452.279 136.479 451.664 136.133 450.86 135.887C450.081 135.642 449.164 135.519 448.108 135.519C446.978 135.519 446.01 135.619 445.206 135.82C444.402 135.999 443.787 136.278 443.359 136.658C442.932 137.015 442.719 137.462 442.719 137.998C442.719 138.556 442.945 139.025 443.397 139.405C443.849 139.785 444.452 140.108 445.206 140.376C445.985 140.644 446.852 140.89 447.807 141.113C448.787 141.337 449.779 141.582 450.784 141.85C451.814 142.096 452.807 142.386 453.762 142.721C454.742 143.056 455.609 143.481 456.362 143.994C457.141 144.486 457.757 145.1 458.209 145.837C458.661 146.574 458.888 147.456 458.888 148.483C458.888 150.203 458.41 151.587 457.455 152.637C456.526 153.687 455.232 154.446 453.573 154.915C451.94 155.384 450.068 155.619 447.958 155.619Z" fill="#5A96CE"/>
<path d="M649.453 148.823C652.747 148.823 655.417 146.351 655.417 143.302C655.417 140.252 652.747 137.78 649.453 137.78C646.159 137.78 643.489 140.252 643.489 143.302C643.489 146.351 646.159 148.823 649.453 148.823Z" fill="#DFD9D2"/>
<path d="M953.142 155.619C949.147 155.619 946.043 154.669 943.832 152.771C941.621 150.85 940.516 147.836 940.516 143.726C940.516 141.024 941.031 138.802 942.061 137.06C943.116 135.296 944.624 133.989 946.584 133.14C948.569 132.269 950.943 131.834 953.707 131.834C955.365 131.834 956.923 132.001 958.381 132.336C959.838 132.671 961.119 133.185 962.225 133.877C963.356 134.547 964.235 135.396 964.863 136.423C965.491 137.451 965.805 138.668 965.805 140.075H960.755C960.755 139.338 960.567 138.69 960.19 138.132C959.838 137.551 959.335 137.071 958.682 136.691C958.054 136.289 957.325 135.999 956.496 135.82C955.667 135.619 954.787 135.519 953.858 135.519C952.476 135.519 951.257 135.686 950.202 136.021C949.172 136.334 948.305 136.825 947.601 137.495C946.923 138.143 946.408 138.958 946.056 139.941C945.729 140.923 945.566 142.074 945.566 143.391V144.095C945.566 145.904 945.855 147.389 946.433 148.55C947.011 149.711 947.878 150.571 949.034 151.13C950.214 151.666 951.672 151.934 953.406 151.934C954.888 151.934 956.182 151.733 957.288 151.331C958.418 150.929 959.298 150.348 959.926 149.589C960.579 148.807 960.906 147.858 960.906 146.741V146.507H952.652V142.889H965.805V155.217H962.3L961.886 152.671C961.132 153.341 960.328 153.899 959.474 154.346C958.619 154.77 957.677 155.083 956.647 155.284C955.617 155.507 954.448 155.619 953.142 155.619Z" fill="#5A96CE"/>
<path d="M913.778 155.217V132.236H918.452L929.495 145.804C929.621 145.938 929.771 146.127 929.947 146.373C930.123 146.596 930.286 146.82 930.437 147.043C930.588 147.266 930.688 147.445 930.739 147.579H930.927C930.927 147.266 930.927 146.965 930.927 146.675C930.927 146.384 930.927 146.094 930.927 145.804V132.236H935.638V155.217H931.003L919.922 141.549C919.721 141.281 919.482 140.957 919.206 140.578C918.954 140.176 918.778 139.897 918.678 139.74H918.49C918.49 140.031 918.49 140.332 918.49 140.645C918.49 140.935 918.49 141.236 918.49 141.549V155.217H913.778Z" fill="#5A96CE"/>
<path d="M903.142 155.217V132.236H908.041V155.217H903.142Z" fill="#5A96CE"/>
<path d="M887.651 155.619C886.219 155.619 884.849 155.485 883.543 155.217C882.236 154.926 881.08 154.491 880.075 153.91C879.07 153.307 878.279 152.57 877.701 151.699C877.123 150.806 876.834 149.756 876.834 148.55C876.834 148.416 876.834 148.282 876.834 148.148C876.859 148.014 876.872 147.914 876.872 147.847H881.809C881.809 147.891 881.796 147.981 881.771 148.115C881.771 148.226 881.771 148.327 881.771 148.416C881.771 149.153 882.01 149.79 882.487 150.326C882.965 150.839 883.656 151.241 884.56 151.532C885.465 151.8 886.533 151.934 887.764 151.934C888.593 151.934 889.322 151.889 889.95 151.8C890.603 151.71 891.156 151.587 891.608 151.431C892.086 151.252 892.475 151.051 892.777 150.828C893.078 150.582 893.292 150.314 893.417 150.024C893.568 149.734 893.644 149.421 893.644 149.086C893.644 148.439 893.417 147.903 892.965 147.478C892.513 147.054 891.897 146.697 891.118 146.406C890.365 146.116 889.498 145.859 888.518 145.636C887.563 145.39 886.571 145.144 885.54 144.899C884.535 144.653 883.543 144.363 882.563 144.028C881.608 143.67 880.741 143.246 879.962 142.755C879.208 142.263 878.605 141.649 878.153 140.912C877.701 140.153 877.475 139.249 877.475 138.199C877.475 137.127 877.726 136.189 878.229 135.385C878.756 134.581 879.485 133.922 880.415 133.408C881.369 132.872 882.475 132.482 883.731 132.236C884.988 131.968 886.357 131.834 887.839 131.834C889.221 131.834 890.515 131.968 891.721 132.236C892.953 132.482 894.033 132.884 894.963 133.442C895.892 133.978 896.621 134.67 897.149 135.519C897.676 136.345 897.94 137.339 897.94 138.5V138.902H893.078V138.567C893.078 137.92 892.852 137.373 892.4 136.926C891.973 136.479 891.357 136.133 890.553 135.887C889.774 135.642 888.857 135.519 887.802 135.519C886.671 135.519 885.704 135.619 884.9 135.82C884.096 135.999 883.48 136.278 883.053 136.658C882.626 137.015 882.412 137.462 882.412 137.998C882.412 138.556 882.638 139.025 883.09 139.405C883.543 139.785 884.146 140.108 884.9 140.376C885.679 140.644 886.545 140.89 887.5 141.113C888.48 141.337 889.473 141.582 890.478 141.85C891.508 142.096 892.5 142.386 893.455 142.721C894.435 143.056 895.302 143.481 896.056 143.994C896.835 144.486 897.45 145.1 897.903 145.837C898.355 146.574 898.581 147.456 898.581 148.483C898.581 150.203 898.104 151.587 897.149 152.637C896.219 153.687 894.925 154.446 893.267 154.915C891.634 155.384 889.762 155.619 887.651 155.619Z" fill="#5A96CE"/>
<path d="M850.398 155.217V132.236H855.072L866.115 145.804C866.241 145.938 866.391 146.127 866.567 146.373C866.743 146.596 866.907 146.82 867.057 147.043C867.208 147.266 867.309 147.445 867.359 147.579H867.547C867.547 147.266 867.547 146.965 867.547 146.675C867.547 146.384 867.547 146.094 867.547 145.804V132.236H872.258V155.217H867.623L856.542 141.549C856.341 141.281 856.102 140.957 855.826 140.578C855.575 140.176 855.399 139.897 855.298 139.74H855.11C855.11 140.031 855.11 140.332 855.11 140.645C855.11 140.935 855.11 141.236 855.11 141.549V155.217H850.398Z" fill="#5A96CE"/>
<path d="M825.075 155.217V132.236H845.239V135.955H829.975V141.616H843.581V145.335H829.975V151.498H845.465V155.217H825.075Z" fill="#5A96CE"/>
<path d="M798.06 155.217V132.236H811.666C813.575 132.236 815.158 132.527 816.414 133.107C817.671 133.688 818.613 134.514 819.241 135.586C819.869 136.658 820.183 137.92 820.183 139.372C820.183 140.868 819.807 142.197 819.053 143.358C818.299 144.497 817.193 145.357 815.736 145.938L821.088 155.217H815.736L810.987 146.675H802.959V155.217H798.06ZM802.959 143.023H811.289C812.545 143.023 813.512 142.699 814.191 142.052C814.869 141.404 815.208 140.511 815.208 139.372C815.208 138.635 815.058 138.021 814.756 137.529C814.455 137.016 814.015 136.625 813.437 136.357C812.859 136.089 812.143 135.955 811.289 135.955H802.959V143.023Z" fill="#5A96CE"/>
<path d="M770.455 155.217V132.236H775.129L786.172 145.804C786.297 145.938 786.448 146.127 786.624 146.373C786.8 146.596 786.963 146.82 787.114 147.043C787.265 147.266 787.365 147.445 787.415 147.579H787.604C787.604 147.266 787.604 146.965 787.604 146.675C787.604 146.384 787.604 146.094 787.604 145.804V132.236H792.315V155.217H787.679L776.599 141.549C776.397 141.281 776.159 140.957 775.882 140.578C775.631 140.176 775.455 139.897 775.355 139.74H775.166C775.166 140.031 775.166 140.332 775.166 140.645C775.166 140.935 775.166 141.236 775.166 141.549V155.217H770.455Z" fill="#5A96CE"/>
<path d="M742.85 155.217V132.236H747.523L758.566 145.804C758.692 145.938 758.843 146.127 759.019 146.373C759.194 146.596 759.358 146.82 759.508 147.043C759.659 147.266 759.76 147.445 759.81 147.579H759.998C759.998 147.266 759.998 146.965 759.998 146.675C759.998 146.384 759.998 146.094 759.998 145.804V132.236H764.71V155.217H760.074L748.993 141.549C748.792 141.281 748.553 140.957 748.277 140.578C748.026 140.176 747.85 139.897 747.749 139.74H747.561C747.561 140.031 747.561 140.332 747.561 140.645C747.561 140.935 747.561 141.236 747.561 141.549V155.217H742.85Z" fill="#5A96CE"/>
<path d="M713.452 155.217L723.515 132.236H729.696L739.797 155.217H734.483L732.41 150.326H720.575L718.503 155.217H713.452ZM722.121 146.641H730.827L728.227 140.41C728.126 140.187 728 139.908 727.85 139.573C727.724 139.215 727.586 138.836 727.435 138.434C727.284 138.009 727.134 137.585 726.983 137.161C726.832 136.736 726.694 136.357 726.568 136.022H726.38C726.229 136.468 726.041 136.982 725.814 137.563C725.613 138.143 725.412 138.691 725.211 139.204C725.01 139.718 724.847 140.12 724.721 140.41L722.121 146.641Z" fill="#5A96CE"/>
<path d="M699.102 155.217L689.68 132.236H694.994L701.137 148.048C701.238 148.271 701.338 148.528 701.439 148.819C701.539 149.109 701.64 149.388 701.74 149.656C701.841 149.902 701.929 150.125 702.004 150.326H702.193C702.268 150.147 702.343 149.935 702.419 149.69C702.519 149.444 702.62 149.187 702.72 148.919C702.821 148.629 702.921 148.35 703.022 148.082L709.128 132.236H714.216L704.793 155.217H699.102Z" fill="#5A96CE"/>
<path d="M904.545 108.823V47.3857H943.073C947.662 47.3857 951.476 48.3085 954.515 50.154C957.614 51.9995 959.938 54.4105 961.487 57.3871C963.037 60.3637 963.812 63.5785 963.812 67.0313C963.812 70.9605 962.888 74.4728 961.041 77.5685C959.193 80.6047 956.69 83.0455 953.532 84.891L965.6 108.823H943.43L934.044 88.195H924.301V108.823H904.545ZM924.301 74.5324H938.156C939.706 74.5324 941.017 73.9371 942.09 72.7464C943.162 71.4962 943.699 69.8591 943.699 67.835C943.699 66.5848 943.46 65.4835 942.983 64.531C942.507 63.5785 941.851 62.8343 941.017 62.2985C940.182 61.7032 939.229 61.4056 938.156 61.4056H924.301V74.5324Z" fill="#1D3D6E"/>
<path d="M863.335 109.894C856.363 109.894 850.403 108.704 845.457 106.322C840.511 103.941 836.726 100.399 834.104 95.6959C831.482 90.9334 830.171 85.0695 830.171 78.1042C830.171 71.0794 831.482 65.2155 834.104 60.5125C836.726 55.8094 840.511 52.2673 845.457 49.886C850.403 47.5047 856.363 46.3141 863.335 46.3141C870.367 46.3141 876.357 47.5047 881.303 49.886C886.249 52.2673 890.034 55.8094 892.656 60.5125C895.278 65.2155 896.589 71.0794 896.589 78.1042C896.589 85.0695 895.278 90.9334 892.656 95.6959C890.034 100.399 886.249 103.941 881.303 106.322C876.357 108.704 870.367 109.894 863.335 109.894ZM863.335 95.1601C865.481 95.1601 867.358 94.8327 868.967 94.1779C870.636 93.4635 872.006 92.4812 873.079 91.231C874.211 89.9808 875.046 88.4925 875.582 86.7661C876.118 84.9802 876.387 83.0454 876.387 80.9617V75.2467C876.387 73.163 876.118 71.258 875.582 69.5316C875.046 67.7456 874.211 66.2275 873.079 64.9774C872.006 63.7272 870.636 62.7747 868.967 62.1198C867.358 61.4054 865.481 61.0482 863.335 61.0482C861.19 61.0482 859.283 61.4054 857.614 62.1198C856.005 62.7747 854.664 63.7272 853.592 64.9774C852.519 66.2275 851.714 67.7456 851.178 69.5316C850.642 71.258 850.373 73.163 850.373 75.2467V80.9617C850.373 83.0454 850.642 84.9802 851.178 86.7661C851.714 88.4925 852.519 89.9808 853.592 91.231C854.664 92.4812 856.005 93.4635 857.614 94.1779C859.283 94.8327 861.19 95.1601 863.335 95.1601ZM830.886 112.127L886.041 44.1709H895.695L840.54 112.127H830.886Z" fill="#1D3D6E"/>
<path d="M765.869 108.823V47.3857H804.397C808.986 47.3857 812.8 48.3085 815.839 50.154C818.938 51.9995 821.262 54.4105 822.812 57.3871C824.361 60.3637 825.136 63.5785 825.136 67.0313C825.136 70.9605 824.212 74.4728 822.365 77.5685C820.517 80.6047 818.014 83.0455 814.856 84.891L826.924 108.823H804.755L795.368 88.195H785.625V108.823H765.869ZM785.625 74.5324H799.48C801.03 74.5324 802.341 73.9371 803.414 72.7464C804.486 71.4962 805.023 69.8591 805.023 67.835C805.023 66.5848 804.784 65.4835 804.308 64.531C803.831 63.5785 803.175 62.8343 802.341 62.2985C801.507 61.7032 800.553 61.4056 799.48 61.4056H785.625V74.5324Z" fill="#1D3D6E"/>
<path d="M686.607 108.823V47.3857H706.363V93.1064H737.918V108.823H686.607Z" fill="#1D3D6E"/>
<path d="M629.665 108.823V47.3857H649.421V93.1064H680.976V108.823H629.665Z" fill="#1D3D6E"/>
<path d="M588.455 109.895C581.483 109.895 575.523 108.704 570.577 106.323C565.631 103.942 561.846 100.399 559.224 95.6963C556.602 90.9338 555.291 85.0699 555.291 78.1046C555.291 71.0798 556.602 65.2159 559.224 60.5129C561.846 55.8098 565.631 52.2677 570.577 49.8864C575.523 47.5051 581.483 46.3145 588.455 46.3145C595.488 46.3145 601.477 47.5051 606.423 49.8864C611.37 52.2677 615.154 55.8098 617.776 60.5129C620.398 65.2159 621.709 71.0798 621.709 78.1046C621.709 85.0699 620.398 90.9338 617.776 95.6963C615.154 100.399 611.37 103.942 606.423 106.323C601.477 108.704 595.488 109.895 588.455 109.895ZM588.455 95.1605C590.601 95.1605 592.478 94.8331 594.087 94.1783C595.756 93.4639 597.126 92.4816 598.199 91.2314C599.331 89.9812 600.166 88.4929 600.702 86.7665C601.238 84.9806 601.507 83.0458 601.507 80.9621V75.2471C601.507 73.1634 601.238 71.2584 600.702 69.532C600.166 67.746 599.331 66.2279 598.199 64.9778C597.126 63.7276 595.756 62.7751 594.087 62.1202C592.478 61.4058 590.601 61.0486 588.455 61.0486C586.31 61.0486 584.403 61.4058 582.734 62.1202C581.125 62.7751 579.784 63.7276 578.712 64.9778C577.639 66.2279 576.834 67.746 576.298 69.532C575.762 71.2584 575.494 73.1634 575.494 75.2471V80.9621C575.494 83.0458 575.762 84.9806 576.298 86.7665C576.834 88.4929 577.639 89.9812 578.712 91.2314C579.784 92.4816 581.125 93.4639 582.734 94.1783C584.403 94.8331 586.31 95.1605 588.455 95.1605Z" fill="#1D3D6E"/>
<path d="M509.452 108.823L487.641 47.3857H508.737L517.229 75.7826C517.468 76.5565 517.795 77.6876 518.213 79.1759C518.63 80.6642 519.077 82.2418 519.553 83.9087C520.09 85.5756 520.537 87.0937 520.894 88.4629H521.61C521.967 87.2127 522.384 85.7839 522.861 84.1766C523.338 82.5692 523.785 81.0214 524.202 79.5331C524.679 77.9852 525.036 76.7351 525.275 75.7826L533.856 47.3857H554.059L532.337 108.823H509.452Z" fill="#1D3D6E"/>
<path d="M427.587 108.823V47.3857H454.226C461.258 47.3857 467.158 48.4871 471.925 50.6898C476.693 52.8925 480.298 56.256 482.742 60.7805C485.245 65.3049 486.496 71.0795 486.496 78.1043C486.496 85.0696 485.245 90.8442 482.742 95.4281C480.298 99.9526 476.693 103.316 471.925 105.519C467.158 107.722 461.258 108.823 454.226 108.823H427.587ZM447.343 94.0887H453.868C456.014 94.0887 457.861 93.791 459.41 93.1957C461.019 92.6004 462.331 91.7372 463.344 90.606C464.357 89.4749 465.102 88.0759 465.578 86.409C466.055 84.7421 466.294 82.8669 466.294 80.7832V75.4254C466.294 73.3417 466.055 71.4665 465.578 69.7996C465.102 68.1327 464.357 66.7337 463.344 65.6026C462.331 64.4715 461.019 63.6082 459.41 63.0129C457.861 62.4176 456.014 62.1199 453.868 62.1199H447.343V94.0887Z" fill="#1D3D6E"/>
<path d="M355.805 108.823V47.3857H372.61L391.74 69.4424C392.277 70.0377 392.992 70.9009 393.886 72.032C394.78 73.1631 395.673 74.324 396.567 75.5147C397.521 76.6458 398.236 77.5685 398.713 78.2829L399.16 78.1043C399.1 76.4374 399.07 74.8003 399.07 73.1929C399.07 71.526 399.07 70.2758 399.07 69.4424V47.3857H417.038V108.823H400.322L378.778 84.2659C377.765 83.0752 376.901 82.0037 376.186 81.0511C375.471 80.0391 374.786 79.0866 374.13 78.1936L373.683 78.3722C373.743 79.5033 373.772 80.6344 373.772 81.7655C373.772 82.8966 373.772 83.7301 373.772 84.2659V108.823H355.805Z" fill="#1D3D6E"/>
<path d="M283.19 108.823L305.628 47.3857H328.601L351.039 108.823H330.121L327.529 100.161H305.985L303.393 108.823H283.19ZM310.097 86.409H323.506L320.556 76.5862C320.318 75.8719 320.05 75.0086 319.752 73.9966C319.454 72.9845 319.156 71.913 318.858 70.7819C318.56 69.6507 318.262 68.5494 317.964 67.4778C317.666 66.3467 317.398 65.3644 317.159 64.531H316.444C316.206 65.6026 315.878 66.823 315.461 68.1922C315.103 69.5615 314.716 70.9902 314.299 72.4785C313.882 73.9073 313.464 75.2765 313.047 76.5862L310.097 86.409Z" fill="#1D3D6E"/>
<path d="M254.703 109.895C250.472 109.895 246.509 109.567 242.814 108.912C239.178 108.317 235.96 107.275 233.159 105.787C230.418 104.239 228.243 102.126 226.634 99.4469C225.084 96.7084 224.31 93.2853 224.31 89.1776C224.31 89.0585 224.31 88.9097 224.31 88.7311C224.31 88.4929 224.339 88.2548 224.399 88.0167H243.082C243.022 88.2548 242.992 88.4929 242.992 88.7311C242.992 88.9097 242.992 89.0883 242.992 89.2669C242.992 91.0528 243.41 92.4221 244.244 93.3746C245.078 94.3271 246.24 94.9819 247.73 95.3391C249.28 95.6368 251.008 95.7856 252.915 95.7856C253.63 95.7856 254.375 95.7856 255.15 95.7856C255.984 95.7261 256.759 95.6368 257.474 95.5177C258.249 95.3391 258.934 95.101 259.53 94.8034C260.186 94.5057 260.692 94.1187 261.05 93.6425C261.407 93.1067 261.586 92.4518 261.586 91.6779C261.586 90.5468 261.079 89.6538 260.066 88.999C259.053 88.3441 257.683 87.7786 255.954 87.3023C254.226 86.826 252.289 86.3796 250.144 85.9628C247.998 85.5461 245.764 85.0699 243.439 84.5341C241.115 83.9387 238.88 83.1946 236.735 82.3016C234.59 81.4086 232.653 80.2775 230.925 78.9083C229.196 77.4795 227.826 75.7233 226.813 73.6397C225.799 71.4965 225.293 68.9367 225.293 65.96C225.293 62.3881 226.038 59.352 227.528 56.8516C229.018 54.3513 231.044 52.3272 233.606 50.7794C236.228 49.2315 239.178 48.1004 242.456 47.386C245.793 46.6716 249.28 46.3145 252.915 46.3145C256.61 46.3145 260.066 46.7014 263.284 47.4753C266.562 48.1897 269.452 49.3208 271.955 50.8687C274.458 52.4165 276.425 54.3811 277.855 56.7623C279.286 59.1436 280.031 61.9714 280.09 65.2457V66.3172H261.586V65.96C261.586 64.8885 261.318 63.8764 260.781 62.9239C260.245 61.9714 259.381 61.1975 258.189 60.6022C257.057 60.0068 255.537 59.7092 253.63 59.7092C251.842 59.7092 250.323 59.8878 249.071 60.245C247.879 60.6022 246.985 61.1082 246.389 61.763C245.793 62.3584 245.495 63.0132 245.495 63.7276C245.495 64.8587 246.002 65.7814 247.015 66.4958C248.028 67.2102 249.399 67.8055 251.127 68.2818C252.855 68.7581 254.792 69.2045 256.938 69.6213C259.083 70.038 261.318 70.5143 263.642 71.05C265.966 71.5263 268.201 72.1812 270.346 73.0146C272.492 73.848 274.429 74.9494 276.157 76.3186C277.885 77.6283 279.256 79.2655 280.269 81.23C281.282 83.1946 281.789 85.6056 281.789 88.4632C281.789 93.5234 280.597 97.6311 278.213 100.786C275.889 103.942 272.671 106.263 268.559 107.752C264.506 109.18 259.888 109.895 254.703 109.895Z" fill="#1D3D6E"/>
<path fill-rule="evenodd" clip-rule="evenodd" d="M35.1943 100.575C35.1943 57.7898 69.7655 23.1055 112.405 23.1055C155.048 23.1055 189.616 57.7925 189.616 100.575C189.616 143.361 155.045 178.045 112.405 178.045C69.7628 178.045 35.1943 143.358 35.1943 100.575ZM43.7733 100.575C43.7733 62.5438 74.4925 31.7132 112.405 31.7132C150.31 31.7132 181.037 62.5354 181.037 100.575C181.037 138.607 150.318 169.437 112.405 169.437C74.5009 169.437 43.7733 138.615 43.7733 100.575Z" fill="#1D3D6E"/>
<path fill-rule="evenodd" clip-rule="evenodd" d="M61.7861 128.492C72.9496 123.47 91.2393 119.338 121.278 127.189C139.66 131.993 153.39 131.369 163.49 128.492C163.49 129.028 149.051 159.321 112.903 159.321C76.7549 159.321 61.7861 128.379 61.7861 128.492Z" fill="#5A96CE"/>
<path d="M106.059 118.806C88.3561 116.248 74.318 118.001 64.6928 120.903C63.9483 120.123 63.2899 119.257 62.7176 118.306C61.4286 116.031 60.7842 113.187 60.7842 109.774V109.403C60.7842 109.205 60.809 109.008 60.8585 108.81H76.3999C76.3503 109.008 76.3255 109.205 76.3255 109.403V109.848C76.3255 111.332 76.6725 112.47 77.3665 113.261C78.0606 114.052 79.0273 114.596 80.2666 114.893C81.5555 115.14 82.9932 115.264 84.5795 115.264H86.4385C87.1325 115.214 87.777 115.14 88.3719 115.041C89.0163 114.893 89.5864 114.695 90.0822 114.448C90.6275 114.201 91.0489 113.879 91.3463 113.483C91.6437 113.038 91.7925 112.494 91.7925 111.851C91.7925 110.912 91.3711 110.17 90.5283 109.626C89.6856 109.082 88.5454 108.612 87.1078 108.216C85.6701 107.821 84.059 107.45 82.2743 107.104C80.4897 106.757 78.6307 106.362 76.6973 105.917C74.7639 105.422 72.9049 104.804 71.1203 104.062C69.3356 103.32 67.7245 102.38 66.2868 101.243C64.8492 100.056 63.709 98.5969 62.8663 96.8659C62.0235 95.0854 61.6021 92.9588 61.6021 90.4859C61.6021 87.5185 62.2218 84.9962 63.4612 82.919C64.7005 80.8418 66.386 79.1602 68.5177 77.8743C70.6989 76.5884 73.1528 75.6488 75.8793 75.0553C78.6555 74.4618 81.5555 74.165 84.5795 74.165C87.6531 74.165 90.5283 74.4865 93.2053 75.1295C95.9319 75.7229 98.3362 76.6626 100.418 77.9485C102.5 79.2344 104.136 80.8665 105.326 82.8448C106.516 84.8231 107.135 87.1723 107.185 89.8924V90.7826H91.7925V90.4859C91.7925 89.5957 91.5694 88.7549 91.1232 87.9636C90.6771 87.1723 89.9582 86.5293 88.9668 86.0348C88.0249 85.5402 86.7607 85.2929 85.1744 85.2929C83.6872 85.2929 82.4231 85.4413 81.382 85.738C80.3905 86.0348 79.6469 86.4551 79.1512 86.9992C78.6555 87.4937 78.4076 88.0378 78.4076 88.6313C78.4076 89.5709 78.829 90.3375 79.6717 90.931C80.5145 91.5245 81.6547 92.0191 83.0923 92.4147C84.5299 92.8104 86.1411 93.1813 87.9257 93.5275C89.7104 93.8737 91.5694 94.2694 93.5028 94.7145C95.4361 95.1102 97.2951 95.6542 99.0798 96.3466C100.864 97.039 102.476 97.9539 103.913 99.0915C105.351 100.18 106.491 101.54 107.334 103.172C108.177 104.804 108.598 106.807 108.598 109.181C108.598 113.065 107.752 116.273 106.059 118.806Z" fill="#1D3D6E"/>
<path fill-rule="evenodd" clip-rule="evenodd" d="M130.214 123.85C127.311 123.346 124.327 122.704 121.278 121.907C118.72 121.238 116.22 120.657 113.78 120.157V75.0561H145.83C149.647 75.0561 152.82 75.8227 155.348 77.3559C157.926 78.8891 159.859 80.8921 161.148 83.3649C162.437 85.8378 163.081 88.5085 163.081 91.377C163.081 94.6412 162.313 97.5592 160.776 100.131C159.239 102.653 157.157 104.681 154.53 106.214L163.336 123.654C158.483 124.773 152.529 125.435 145.782 125.337L138.319 108.959H130.214V123.85ZM141.74 97.6086H130.214V86.7033H141.74C142.632 86.7033 143.426 86.9506 144.12 87.4452C144.814 87.8903 145.359 88.5085 145.755 89.2998C146.152 90.0911 146.35 91.0061 146.35 92.0447C146.35 93.7262 145.904 95.0863 145.012 96.1249C144.12 97.114 143.029 97.6086 141.74 97.6086Z" fill="#1D3D6E"/>
</svg>
