<svg width="952" height="169" viewBox="0 0 952 169" fill="none" xmlns="http://www.w3.org/2000/svg">
<path d="M367 84.5522V1H382.755V33.8852H413.626V1H429.375V84.5522H413.626V48.0195H382.755V84.5522H367Z" fill="black"/>
<path d="M496.088 84.5522L468.2 1H485.28L505.028 62.8375L524.13 1H540.846L512.906 84.5522H496.088V84.5522Z" fill="black"/>
<path d="M612.66 51.4957L601.909 20.4918L591.375 51.4957H612.66ZM641.668 84.5522H624.53L617.715 65.5732H586.531L580.093 84.5522H563.378L593.769 1H610.426L641.668 84.5522Z" fill="black"/>
<path d="M680.967 84.5521V1.68433H696.722V70.4751H735.892V84.5521H680.967Z" fill="black"/>
<path d="M777.636 84.5522V1H835.486V15.1346H793.391V33.6568H832.562V47.7349H793.391V70.4752H836.977V84.5522H777.636V84.5522Z" fill="black"/>
<path d="M896.665 36.3357H908.318C915.876 36.3357 920.592 35.9938 922.473 35.3099C924.355 34.6264 925.827 33.4487 926.889 31.7768C927.957 30.1053 928.489 28.0146 928.489 25.5073C928.489 22.6961 927.785 20.4262 926.383 18.6964C924.982 16.9678 923.004 15.8755 920.451 15.4192C919.178 15.2298 915.344 15.1346 908.958 15.1346H896.665V36.3357V36.3357ZM880.909 84.5522V1H914.064C922.403 1 928.463 1.75088 932.239 3.25141C936.021 4.7527 939.041 7.42124 941.313 11.259C943.585 15.0974 944.718 19.4854 944.718 24.4244C944.718 30.6934 942.996 35.8711 939.56 39.9544C936.117 44.0399 930.972 46.6143 924.124 47.6773C927.529 49.8055 930.345 52.1419 932.559 54.6877C934.779 57.2334 937.768 61.7545 941.524 68.2519L951.053 84.5522H932.213L920.822 66.3712C916.778 59.8737 914.013 55.78 912.522 54.0896C911.031 52.3988 909.451 51.2393 907.787 50.6128C906.117 49.9855 903.474 49.6719 899.858 49.6719H896.665V84.5522H880.909V84.5522Z" fill="black"/>
<path d="M384.132 151.604V117.674H390.525V131.028H403.062V117.674H409.461V151.604H403.062V136.768H390.525V151.604H384.132V151.604Z" fill="black"/>
<path d="M461.123 128.552L447.831 144.545C449.31 145.933 451.101 146.627 453.188 146.627C455.754 146.627 457.859 145.632 459.51 143.642C461.161 141.652 461.987 138.681 461.987 134.731C461.987 132.232 461.699 130.172 461.123 128.552ZM458.761 124.918C457.309 123.591 455.466 122.928 453.233 122.928C450.609 122.928 448.491 123.896 446.878 125.832C445.265 127.769 444.459 130.689 444.459 134.593C444.459 137.046 444.785 139.145 445.451 140.888L458.761 124.918ZM462.742 120.15L466.153 116.054L469.161 118.877L465.551 123.229C466.518 124.617 467.266 126.327 467.798 128.355C468.329 130.384 468.597 132.54 468.597 134.824C468.597 140.209 467.209 144.448 464.425 147.542C461.648 150.636 457.974 152.183 453.405 152.183C449.444 152.183 446.27 151.218 443.896 149.289L440.395 153.502L437.324 150.632L441.022 146.189C438.917 143.179 437.868 139.26 437.868 134.431C437.868 129.076 439.256 124.848 442.034 121.747C444.817 118.646 448.529 117.095 453.169 117.095C457.014 117.095 460.201 118.114 462.742 120.15V120.15Z" fill="black"/>
<path d="M506.482 151.604V137.324L494.873 117.674H502.373L509.828 131.098L517.136 117.674H524.502L512.855 137.37V151.604H506.482Z" fill="black"/>
<path d="M562.95 151.604V123.414H553.549V117.674H578.725V123.414H569.343V151.604H562.95V151.604Z" fill="black"/>
<path d="M614.741 132.023H619.47C622.541 132.023 624.455 131.885 625.223 131.607C625.984 131.329 626.579 130.851 627.015 130.172C627.443 129.493 627.661 128.645 627.661 127.626C627.661 126.485 627.379 125.562 626.81 124.86C626.24 124.158 625.434 123.714 624.397 123.529C623.879 123.453 622.324 123.414 619.732 123.414H614.741V132.023V132.023ZM608.341 151.604V117.674H621.806C625.191 117.674 627.655 117.979 629.184 118.588C630.72 119.198 631.948 120.281 632.87 121.84C633.791 123.398 634.252 125.181 634.252 127.186C634.252 129.732 633.555 131.835 632.16 133.493C630.758 135.152 628.672 136.198 625.888 136.629C627.271 137.493 628.416 138.443 629.318 139.476C630.214 140.51 631.43 142.346 632.96 144.985L636.825 151.604H629.178L624.551 144.221C622.906 141.582 621.786 139.92 621.178 139.233C620.577 138.547 619.931 138.076 619.252 137.821C618.58 137.566 617.505 137.44 616.033 137.44H614.741V151.604H608.341V151.604Z" fill="black"/>
<path d="M675.821 151.604V137.324L664.213 117.674H671.713L679.168 131.098L686.476 117.674H693.842L682.195 137.37V151.604H675.821Z" fill="black"/>
<path d="M721.194 151.604V117.674H727.587V132.741L740.513 117.674H749.114L737.186 130.889L749.76 151.604H741.486L732.777 135.68L727.587 141.351V151.604H721.194V151.604Z" fill="black"/>
<path d="M777.636 151.604V117.674H784.035V132.741L796.962 117.674H805.563L793.634 130.889L806.209 151.604H797.935L789.225 135.68L784.035 141.351V151.604H777.636V151.604Z" fill="black"/>
<path d="M877.933 138.18L873.569 125.589L869.294 138.18H877.933ZM889.715 151.604H882.759L879.988 143.897H867.323L864.712 151.604H857.923L870.267 117.674H877.031L889.715 151.604V151.604Z" fill="black"/>
<path d="M908.165 140.564L914.392 139.916C914.763 142.153 915.524 143.796 916.67 144.846C917.815 145.895 919.364 146.419 921.303 146.419C923.364 146.419 924.919 145.953 925.962 145.019C927.011 144.086 927.53 142.994 927.53 141.744C927.53 140.942 927.312 140.259 926.87 139.696C926.429 139.133 925.667 138.643 924.567 138.226C923.818 137.949 922.109 137.454 919.447 136.745C916.017 135.835 913.611 134.716 912.229 133.389C910.283 131.522 909.311 129.246 909.311 126.561C909.311 124.833 909.771 123.217 910.686 121.713C911.595 120.208 912.913 119.063 914.641 118.276C916.363 117.488 918.436 117.095 920.874 117.095C924.848 117.095 927.843 118.029 929.853 119.896C931.862 121.762 932.918 124.255 933.02 127.372L926.621 127.673C926.346 125.929 925.763 124.675 924.861 123.912C923.959 123.147 922.609 122.766 920.81 122.766C918.948 122.766 917.495 123.175 916.446 123.993C915.768 124.517 915.429 125.219 915.429 126.098C915.429 126.901 915.742 127.587 916.376 128.158C917.182 128.884 919.147 129.64 922.257 130.427C925.367 131.213 927.67 132.027 929.161 132.868C930.653 133.71 931.817 134.858 932.662 136.317C933.507 137.775 933.929 139.577 933.929 141.721C933.929 143.665 933.423 145.486 932.412 147.183C931.408 148.881 929.981 150.142 928.138 150.967C926.288 151.793 923.991 152.206 921.239 152.206C917.233 152.206 914.161 151.215 912.011 149.231C909.868 147.249 908.581 144.359 908.165 140.564V140.564Z" fill="black"/>
<path d="M951.054 102.511H367.002V167.044H951.054V102.511ZM944.962 108.605V160.951H373.099V108.605H944.962Z" fill="#F2652A"/>
<path d="M0.000659852 2.44173C-0.0152462 1.92662 0.257388 1.43648 0.713195 1.19545C0.964813 1.06237 1.22658 0.959158 1.5175 0.960597C21.2052 0.960597 40.8959 0.957646 60.5836 0.960597C60.8708 0.957358 61.129 1.05841 61.3774 1.18947C61.823 1.42418 62.0917 1.8969 62.0914 2.40071C62.0863 11.4541 62.0887 20.51 62.089 29.5661C62.089 30.3302 62.7083 30.9495 63.4721 30.9495C71.7472 30.9492 80.0202 30.9468 88.2953 30.9489C89.0591 30.9492 89.6784 30.3299 89.6784 29.5661C89.6766 20.5095 89.6839 11.4552 89.6763 2.39855C89.676 1.89567 89.9438 1.42303 90.3885 1.18803C90.6366 1.05697 90.8954 0.955775 91.1841 0.960597C100.778 0.957646 110.374 0.963692 119.967 0.957646C120.384 0.940804 120.78 1.04639 121.167 1.18976C121.71 1.39157 122.072 1.9092 122.072 2.48917C122.064 22.0443 122.064 41.5994 122.072 61.1546C122.073 61.5228 122.22 61.8757 122.481 62.1349C130.947 70.5253 139.341 78.9859 147.782 87.4035C153.516 93.1623 159.3 98.8757 165.009 104.658C165.548 105.204 166.427 105.207 166.969 104.664C181.146 90.4804 195.307 76.2783 209.521 62.1319C209.782 61.8726 209.928 61.5204 209.928 61.1528C209.937 41.5997 209.937 22.0437 209.931 2.48744C209.931 1.90769 210.293 1.39006 210.836 1.18861C211.221 1.04581 211.616 0.940804 212.033 0.957646C221.627 0.963692 231.223 0.957646 240.817 0.960597C241.103 0.955775 241.362 1.05755 241.611 1.18918C242.056 1.42418 242.325 1.8969 242.324 2.40042C242.317 11.4564 242.324 20.51 242.322 29.5661C242.322 30.3299 242.941 30.9495 243.705 30.9495H268.528C269.293 30.9495 269.911 30.3302 269.911 29.5664C269.911 20.5103 269.913 11.4564 269.911 2.40042C269.908 1.89747 270.177 1.42526 270.621 1.19005C270.87 1.05898 271.128 0.957358 271.413 0.960597C291.104 0.960597 310.791 0.957646 330.482 0.960597C330.773 0.959158 331.034 1.06266 331.286 1.19581C331.742 1.43677 332.014 1.92605 331.999 2.44087C331.99 2.77195 331.924 3.08179 331.622 3.28785C321.971 12.8929 312.381 22.5649 302.712 32.1547C302.448 32.4142 302.301 32.7668 302.301 33.1351C302.293 51.899 302.301 70.6635 302.298 89.4277C302.265 90.3955 302.433 91.4336 302.169 92.3588C302.005 92.9408 301.453 93.329 300.847 93.329C291.017 93.326 281.186 93.3237 271.353 93.3314C270.849 93.332 270.375 93.0621 270.141 92.6152C270.009 92.3657 269.908 92.1072 269.911 91.8209V64.7203C269.911 63.9564 269.293 63.3374 268.528 63.3374H243.705C242.941 63.3374 242.322 63.9567 242.322 64.7206C242.32 73.8294 242.327 82.9358 242.32 92.042C242.319 92.4092 242.173 92.761 241.913 93.0204C217.299 117.555 192.759 142.16 168.175 166.724C167.685 167.173 167.233 167.818 166.666 168.149C166.137 168.458 165.462 168.344 165.028 167.912C140.03 142.968 115.104 117.949 90.0885 93.0199C89.8282 92.7606 89.6818 92.4087 89.6815 92.0415C89.6738 82.9353 89.6813 73.8265 89.6795 64.7202C89.6795 63.956 89.0599 63.337 88.2961 63.3373C80.0207 63.3395 71.7452 63.3373 63.4698 63.337C62.706 63.337 62.0867 63.9563 62.0873 64.7205C62.0921 73.7537 62.0894 82.7868 62.0894 91.8204C62.0909 92.1074 61.9893 92.366 61.8588 92.6145C61.6243 93.0617 61.1508 93.3316 60.646 93.3313C50.8109 93.3258 40.9785 93.3232 31.1436 93.331C30.6398 93.3316 30.1672 93.0625 29.9317 92.6169C29.8004 92.3681 29.6985 92.1096 29.7014 91.8234C29.6985 72.2584 29.7072 52.6963 29.6957 33.1344C29.6955 32.7664 29.5485 32.4138 29.287 32.1543C19.6192 22.5675 10.0309 12.8925 0.378375 3.28742C0.0772394 3.08165 0.0113119 2.7718 0.00109169 2.4413L0.000659852 2.44173Z" fill="black"/>
<path d="M18.712 8.47447C18.7075 8.47872 18.7027 8.48282 18.6981 8.48707C18.1092 9.01665 18.0822 9.93272 18.6406 10.4945C24.5574 16.4476 30.5519 22.3297 36.4201 28.3252C36.6459 28.5559 36.7901 28.8578 36.8117 29.18C36.9125 30.6637 36.7968 32.1596 36.8265 33.6486C36.8444 49.7406 36.8355 65.8356 36.8325 81.9276C36.8718 82.7698 36.729 83.6487 36.8918 84.4776C36.9338 84.6899 37.0256 84.8893 37.1578 85.0606C37.6113 85.6474 38.1939 86.2248 38.9856 86.18C43.5889 86.2371 48.1982 86.1831 52.8045 86.192C53.5974 86.2367 54.1786 85.6457 54.6377 85.0573C54.7718 84.8854 54.8677 84.6856 54.9076 84.4716C55.0081 83.9342 54.9535 83.3711 54.9757 82.8302C54.9586 74.4211 54.9874 66.0119 54.9598 57.6027C54.9571 56.8383 55.5749 56.2171 56.3393 56.2155C69.3664 56.1914 82.396 56.1837 95.4231 56.2145C96.1849 56.2163 96.8029 56.8341 96.805 57.5961C96.8291 67.006 96.8071 76.4164 96.8101 85.8292C96.8359 86.6613 96.7343 87.5137 96.8707 88.3395C96.9127 88.5936 97.0248 88.8295 97.1892 89.0274C97.7437 89.6948 98.4247 90.2513 99.0263 90.8763C111.514 103.379 124.019 115.863 136.506 128.368C143.853 135.647 151.091 143.039 158.474 150.282C159.337 151.128 160.798 150.534 160.826 149.327C160.895 146.357 160.774 143.38 160.827 140.409C160.824 131.106 160.83 121.804 160.824 112.504C160.965 111.245 159.793 110.531 159.055 109.718C144.492 95.1947 129.969 80.6291 115.412 66.0995C115.022 65.7876 114.896 65.3257 114.932 64.846C114.935 47.4494 114.92 30.053 114.938 12.6563C114.912 11.7169 115.022 10.7539 114.857 9.82397C114.818 9.60388 114.728 9.39566 114.593 9.21788C114.143 8.62763 113.565 8.03695 112.779 8.09215C108.275 8.07408 103.768 8.08013 99.2602 8.09503C97.9317 7.9482 96.6932 9.22566 96.8161 10.5422C96.799 19.2593 96.8305 27.9764 96.8057 36.6909C96.8032 37.4526 96.1849 38.0702 95.4231 38.0716C82.3957 38.0977 69.3682 38.0979 56.3435 38.0744C55.5797 38.073 54.9616 37.4526 54.9628 36.6889C54.976 27.9732 54.9778 19.2579 54.9607 10.5422C55.0867 9.21961 53.8241 7.98405 52.5076 8.10107C42.2094 8.05904 31.9052 8.09503 21.6041 8.08905C20.8757 8.11425 20.1236 8.01946 19.4026 8.14059C19.1456 8.18348 18.9063 8.30109 18.712 8.47447V8.47447Z" fill="#F2652A"/>
<path d="M217.053 10.2483C216.997 28.5175 217.12 46.7957 216.991 65.0595C216.989 65.4061 216.858 65.7408 216.622 65.9952C214.248 68.552 211.68 70.9368 209.241 73.4407C196.748 85.9341 184.26 98.4335 171.755 110.918C171.386 111.248 171.164 111.704 171.194 112.207C171.155 120.508 171.179 128.809 171.173 137.11C171.216 141.183 171.132 145.26 171.197 149.332C171.217 150.559 172.698 151.161 173.562 150.291C174.321 149.527 175.068 148.751 175.843 148.002C195.041 128.815 214.228 109.616 233.424 90.4264C233.924 89.8911 234.549 89.4326 234.957 88.819C235.083 88.6289 235.155 88.4061 235.171 88.1781C235.277 86.7001 235.168 85.2122 235.194 83.7299C235.179 75.019 235.192 66.3054 235.204 57.5943C235.205 56.832 235.822 56.2139 236.585 56.2125C249.607 56.1887 262.629 56.1887 275.65 56.2125C276.415 56.2139 277.033 56.832 277.033 57.5947C277.042 66.3115 277.063 75.028 277.024 83.745C276.904 85.0464 278.178 86.3419 279.489 86.201C283.9 86.168 288.309 86.2251 292.72 86.198C294.042 86.357 295.278 85.0464 295.176 83.745C295.158 68.8465 295.173 53.9479 295.17 39.0465C295.233 35.7439 295.05 32.4277 295.233 29.1295C295.248 28.8279 295.365 28.539 295.56 28.3091C296.094 27.6814 296.729 27.1439 297.299 26.5502C302.649 21.1942 308.008 15.846 313.352 10.4858C313.943 9.89432 313.88 8.91369 313.214 8.41002C312.932 8.19576 312.609 8.06145 312.207 8.10104C301.303 8.05901 290.396 8.09211 279.489 8.08607C278.178 7.96019 276.895 9.23469 277.021 10.5422C277.048 19.256 277.048 27.9729 277.033 36.6874C277.033 37.4494 276.415 38.0675 275.653 38.0695C262.629 38.1027 249.607 38.0929 236.584 38.0738C235.822 38.0727 235.204 37.4554 235.202 36.6933C235.181 28.6809 235.177 20.6685 235.202 12.6563C235.172 11.6847 235.309 10.6827 235.097 9.72699C235.058 9.54921 234.973 9.38547 234.864 9.23937C234.417 8.64048 233.839 8.03749 233.037 8.10406C228.53 8.08607 224.02 8.07103 219.512 8.09211C218.298 7.94212 217.092 9.05764 217.053 10.2483V10.2483Z" fill="#F2652A"/>
</svg>
