<svg width="952" height="168" viewBox="0 0 952 168" fill="none" xmlns="http://www.w3.org/2000/svg">
<path d="M367 83.5963V0.0441284H382.755V32.9293H413.626V0.0441284H429.375V83.5963H413.626V47.0636H382.755V83.5963H367Z" fill="white"/>
<path d="M496.088 83.5963L468.2 0.0441284H485.28L505.028 61.8817L524.13 0.0441284H540.845L512.906 83.5963H496.088V83.5963Z" fill="white"/>
<path d="M612.66 50.5399L601.909 19.5359L591.375 50.5399H612.66ZM641.668 83.5963H624.53L617.715 64.6173H586.531L580.093 83.5963H563.378L593.769 0.0441284H610.426L641.668 83.5963Z" fill="white"/>
<path d="M680.967 83.5963V0.728455H696.722V69.5192H735.892V83.5963H680.967Z" fill="white"/>
<path d="M777.636 83.5963V0.0441284H835.486V14.1787H793.391V32.7009H832.562V46.779H793.391V69.5193H836.977V83.5963H777.636V83.5963Z" fill="white"/>
<path d="M896.664 35.3798H908.318C915.875 35.3798 920.592 35.0379 922.473 34.354C924.355 33.6705 925.826 32.4928 926.889 30.8209C927.957 29.1494 928.489 27.0587 928.489 24.5514C928.489 21.7402 927.785 19.4704 926.383 17.7405C924.982 16.0119 923.004 14.9196 920.451 14.4633C919.177 14.274 915.344 14.1787 908.958 14.1787H896.664V35.3798V35.3798ZM880.909 83.5963V0.0441284H914.064C922.403 0.0441284 928.463 0.795006 932.239 2.29553C936.021 3.79683 939.041 6.46537 941.313 10.3032C943.585 14.1416 944.717 18.5295 944.717 23.4685C944.717 29.7375 942.996 34.9152 939.56 38.9986C936.117 43.0841 930.972 45.6585 924.124 46.7214C927.529 48.8497 930.344 51.186 932.559 53.7318C934.779 56.2775 937.768 60.7986 941.524 67.296L951.053 83.5963H932.213L920.822 65.4154C916.778 58.9178 914.013 54.8241 912.522 53.1338C911.031 51.443 909.45 50.2834 907.787 49.6569C906.116 49.0297 903.473 48.716 899.858 48.716H896.664V83.5963H880.909V83.5963Z" fill="white"/>
<path d="M384.132 150.648V116.718H390.525V130.072H403.062V116.718H409.461V150.648H403.062V135.813H390.525V150.648H384.132V150.648Z" fill="white"/>
<path d="M461.123 127.596L447.831 143.589C449.31 144.977 451.101 145.671 453.188 145.671C455.754 145.671 457.859 144.676 459.51 142.686C461.161 140.696 461.987 137.725 461.987 133.776C461.987 131.276 461.699 129.216 461.123 127.596ZM458.761 123.962C457.309 122.635 455.466 121.972 453.232 121.972C450.609 121.972 448.491 122.94 446.878 124.876C445.265 126.813 444.459 129.733 444.459 133.637C444.459 136.09 444.785 138.189 445.451 139.932L458.761 123.962ZM462.742 119.194L466.153 115.098L469.16 117.921L465.551 122.273C466.517 123.662 467.266 125.371 467.797 127.399C468.328 129.428 468.597 131.585 468.597 133.868C468.597 139.254 467.209 143.492 464.425 146.586C461.648 149.68 457.974 151.227 453.405 151.227C449.444 151.227 446.27 150.262 443.896 148.334L440.395 152.546L437.323 149.676L441.022 145.233C438.917 142.224 437.867 138.305 437.867 133.475C437.867 128.121 439.256 123.893 442.033 120.791C444.817 117.69 448.529 116.139 453.168 116.139C457.014 116.139 460.201 117.158 462.742 119.194V119.194Z" fill="white"/>
<path d="M506.481 150.648V136.368L494.873 116.718H502.373L509.828 130.142L517.136 116.718H524.502L512.855 136.414V150.648H506.481Z" fill="white"/>
<path d="M562.95 150.648V122.458H553.549V116.718H578.724V122.458H569.343V150.648H562.95V150.648Z" fill="white"/>
<path d="M614.74 131.067H619.47C622.541 131.067 624.455 130.929 625.223 130.651C625.984 130.373 626.579 129.895 627.014 129.216C627.443 128.537 627.661 127.689 627.661 126.67C627.661 125.529 627.379 124.607 626.81 123.904C626.24 123.203 625.434 122.759 624.397 122.574C623.879 122.497 622.324 122.458 619.732 122.458H614.74V131.067V131.067ZM608.341 150.648V116.718H621.805C625.191 116.718 627.654 117.023 629.184 117.632C630.72 118.242 631.948 119.325 632.87 120.884C633.791 122.442 634.252 124.225 634.252 126.23C634.252 128.776 633.555 130.879 632.16 132.537C630.758 134.196 628.672 135.242 625.888 135.673C627.27 136.538 628.416 137.487 629.318 138.52C630.214 139.554 631.43 141.39 632.96 144.029L636.825 150.648H629.178L624.551 143.265C622.906 140.626 621.786 138.964 621.178 138.277C620.577 137.591 619.93 137.12 619.252 136.865C618.58 136.611 617.505 136.484 616.033 136.484H614.74V150.648H608.341V150.648Z" fill="white"/>
<path d="M675.821 150.648V136.368L664.213 116.718H671.713L679.168 130.142L686.476 116.718H693.842L682.195 136.414V150.648H675.821Z" fill="white"/>
<path d="M721.193 150.648V116.718H727.586V131.786L740.513 116.718H749.114L737.185 129.933L749.76 150.648H741.486L732.776 134.725L727.586 140.395V150.648H721.193V150.648Z" fill="white"/>
<path d="M777.636 150.648V116.718H784.035V131.786L796.962 116.718H805.563L793.634 129.933L806.209 150.648H797.935L789.225 134.725L784.035 140.395V150.648H777.636V150.648Z" fill="white"/>
<path d="M877.933 137.224L873.569 124.633L869.294 137.224H877.933ZM889.714 150.648H882.758L879.987 142.941H867.323L864.712 150.648H857.922L870.267 116.718H877.031L889.714 150.648V150.648Z" fill="white"/>
<path d="M908.165 139.608L914.392 138.96C914.763 141.197 915.524 142.84 916.67 143.89C917.815 144.94 919.364 145.464 921.303 145.464C923.364 145.464 924.919 144.997 925.962 144.063C927.011 143.13 927.53 142.038 927.53 140.788C927.53 139.986 927.312 139.304 926.87 138.741C926.429 138.177 925.667 137.687 924.567 137.27C923.818 136.993 922.109 136.499 919.447 135.79C916.017 134.879 913.611 133.76 912.229 132.433C910.283 130.566 909.31 128.29 909.31 125.606C909.31 123.877 909.771 122.261 910.686 120.757C911.595 119.252 912.913 118.107 914.641 117.32C916.363 116.533 918.436 116.139 920.874 116.139C924.848 116.139 927.843 117.073 929.853 118.94C931.862 120.807 932.918 123.299 933.02 126.416L926.621 126.717C926.346 124.973 925.763 123.719 924.861 122.956C923.959 122.191 922.608 121.81 920.81 121.81C918.948 121.81 917.495 122.219 916.446 123.037C915.768 123.561 915.428 124.263 915.428 125.142C915.428 125.946 915.742 126.631 916.375 127.202C917.182 127.928 919.146 128.684 922.256 129.471C925.367 130.257 927.67 131.071 929.161 131.912C930.653 132.754 931.817 133.902 932.662 135.361C933.507 136.819 933.929 138.621 933.929 140.765C933.929 142.709 933.423 144.53 932.412 146.228C931.408 147.925 929.981 149.186 928.137 150.012C926.288 150.837 923.991 151.25 921.239 151.25C917.233 151.25 914.161 150.259 912.011 148.276C909.867 146.294 908.581 143.404 908.165 139.608V139.608Z" fill="white"/>
<path d="M951.054 101.555H367.001V166.088H951.054V101.555ZM944.961 107.649V159.995H373.099V107.649H944.961Z" fill="#F2652A"/>
<path d="M0.000659852 1.48586C-0.0152462 0.970751 0.257388 0.480613 0.713195 0.239574C0.964813 0.106496 1.22658 0.00328608 1.5175 0.00472554C21.2052 0.00472554 40.8959 0.00177464 60.5836 0.00472554C60.8708 0.00148675 61.129 0.102537 61.3774 0.2336C61.823 0.468305 62.0917 0.941026 62.0914 1.44484C62.0863 10.4982 62.0887 19.5542 62.089 28.6103C62.089 29.3743 62.7083 29.9936 63.4721 29.9936C71.7472 29.9933 80.0202 29.9909 88.2953 29.993C89.0591 29.9933 89.6784 29.3741 89.6784 28.6103C89.6766 19.5536 89.6839 10.4994 89.6763 1.44268C89.676 0.939802 89.9438 0.467154 90.3885 0.232161C90.6366 0.101098 90.8954 -9.66652e-05 91.1841 0.00472554C100.778 0.00177464 110.374 0.00782039 119.967 0.00177464C120.384 -0.0150671 120.78 0.0905177 121.167 0.233888C121.71 0.435701 122.072 0.953333 122.072 1.53329C122.064 21.0884 122.064 40.6436 122.072 60.1987C122.073 60.567 122.22 60.9199 122.481 61.179C130.947 69.5694 139.341 78.0301 147.782 86.4476C153.516 92.2064 159.3 97.9198 165.009 103.702C165.548 104.248 166.427 104.251 166.969 103.709C181.146 89.5245 195.307 75.3224 209.521 61.176C209.782 60.9167 209.928 60.5645 209.928 60.197C209.937 40.6438 209.937 21.0878 209.931 1.53157C209.931 0.951822 210.293 0.43419 210.836 0.232737C211.221 0.0899419 211.616 -0.0150671 212.033 0.00177464C221.627 0.00782039 231.223 0.00177464 240.817 0.00472554C241.103 -9.66652e-05 241.362 0.101674 241.611 0.233313C242.056 0.468305 242.325 0.941026 242.324 1.44455C242.317 10.5005 242.324 19.5542 242.322 28.6103C242.322 29.3741 242.941 29.9936 243.705 29.9936H268.528C269.293 29.9936 269.911 29.3743 269.911 28.6106C269.911 19.5545 269.913 10.5005 269.911 1.44455C269.908 0.941601 270.177 0.469385 270.621 0.234176C270.87 0.103113 271.128 0.00148675 271.413 0.00472554C291.104 0.00472554 310.791 0.00177464 330.482 0.00472554C330.773 0.00328608 331.034 0.106784 331.286 0.239934C331.742 0.480901 332.014 0.970175 331.999 1.485C331.99 1.81608 331.924 2.12592 331.622 2.33198C321.971 11.937 312.381 21.609 302.712 31.1989C302.448 31.4583 302.301 31.8109 302.301 32.1792C302.293 50.9431 302.301 69.7076 302.298 88.4719C302.265 89.4396 302.433 90.4778 302.169 91.4029C302.005 91.9849 301.453 92.3732 300.847 92.3732C291.017 92.3701 281.186 92.3678 271.353 92.3756C270.849 92.3761 270.375 92.1062 270.141 91.6593C270.009 91.4098 269.908 91.1514 269.911 90.865V63.7645C269.911 63.0005 269.293 62.3816 268.528 62.3816H243.705C242.941 62.3816 242.322 63.0008 242.322 63.7647C242.32 72.8735 242.327 81.9799 242.32 91.0861C242.319 91.4533 242.173 91.8052 241.913 92.0645C217.299 116.599 192.759 141.204 168.175 165.768C167.685 166.218 167.233 166.863 166.666 167.194C166.137 167.502 165.462 167.388 165.028 166.956C140.03 142.012 115.104 116.993 90.0885 92.0641C89.8282 91.8047 89.6818 91.4529 89.6815 91.0857C89.6738 81.9795 89.6813 72.8707 89.6795 63.7643C89.6795 63.0001 89.0599 62.3811 88.2961 62.3814C80.0207 62.3836 71.7452 62.3814 63.4698 62.3811C62.706 62.3811 62.0867 63.0004 62.0873 63.7646C62.0921 72.7978 62.0894 81.831 62.0894 90.8645C62.0909 91.1515 61.9893 91.4101 61.8588 91.6586C61.6243 92.1058 61.1508 92.3757 60.646 92.3754C50.8109 92.3699 40.9785 92.3673 31.1436 92.3751C30.6398 92.3757 30.1672 92.1067 29.9317 91.6611C29.8004 91.4122 29.6985 91.1537 29.7014 90.8676C29.6985 71.3025 29.7072 51.7405 29.6957 32.1785C29.6955 31.8105 29.5485 31.4579 29.287 31.1984C19.6192 21.6117 10.0309 11.9366 0.378375 2.33155C0.0772394 2.12578 0.0113119 1.81593 0.00109169 1.48543L0.000659852 1.48586Z" fill="black"/>
<path d="M18.712 7.5186C18.7075 7.52285 18.7027 7.52695 18.6981 7.5312C18.1092 8.06077 18.0822 8.97685 18.6406 9.5386C24.5574 15.4917 30.5519 21.3738 36.4201 27.3693C36.6459 27.6 36.7901 27.9019 36.8117 28.2241C36.9125 29.7078 36.7968 31.2038 36.8265 32.6927C36.8444 48.7848 36.8355 64.8797 36.8325 80.9718C36.8718 81.8139 36.729 82.6928 36.8918 83.5217C36.9338 83.734 37.0256 83.9335 37.1578 84.1047C37.6113 84.6916 38.1939 85.2689 38.9856 85.2241C43.5889 85.2812 48.1982 85.2272 52.8045 85.2361C53.5974 85.2808 54.1786 84.6898 54.6377 84.1014C54.7718 83.9295 54.8677 83.7298 54.9076 83.5157C55.0081 82.9783 54.9535 82.4152 54.9757 81.8744C54.9586 73.4652 54.9874 65.056 54.9598 56.6468C54.9571 55.8825 55.5749 55.2612 56.3393 55.2596C69.3664 55.2356 82.396 55.2278 95.4231 55.2587C96.1849 55.2605 96.8029 55.8782 96.805 56.6403C96.8291 66.0501 96.8071 75.4605 96.8101 84.8733C96.8359 85.7054 96.7343 86.5578 96.8707 87.3836C96.9127 87.6377 97.0248 87.8736 97.1892 88.0716C97.7437 88.7389 98.4247 89.2955 99.0263 89.9204C111.514 102.423 124.019 114.907 136.506 127.412C143.853 134.691 151.091 142.084 158.474 149.326C159.337 150.172 160.798 149.578 160.826 148.371C160.895 145.401 160.774 142.425 160.827 139.453C160.824 130.15 160.83 120.848 160.824 111.548C160.965 110.289 159.793 109.575 159.055 108.762C144.492 94.2388 129.969 79.6732 115.412 65.1436C115.022 64.8317 114.896 64.3698 114.932 63.8901C114.935 46.4936 114.92 29.0971 114.938 11.7005C114.912 10.761 115.022 9.79806 114.857 8.8681C114.818 8.648 114.728 8.43979 114.593 8.26201C114.143 7.67176 113.565 7.08107 112.779 7.13628C108.275 7.11821 103.768 7.12426 99.2602 7.13916C97.9317 6.99233 96.6932 8.26978 96.8161 9.58632C96.799 18.3034 96.8305 27.0205 96.8057 35.7351C96.8032 36.4968 96.1849 37.1143 95.4231 37.1157C82.3957 37.1418 69.3682 37.1421 56.3435 37.1185C55.5797 37.1172 54.9616 36.4968 54.9628 35.733C54.976 27.0173 54.9778 18.302 54.9607 9.58632C55.0867 8.26374 53.8241 7.02817 52.5076 7.1452C42.2094 7.10317 31.9052 7.13916 21.6041 7.13318C20.8757 7.15837 20.1236 7.06358 19.4026 7.18472C19.1456 7.22761 18.9063 7.34522 18.712 7.5186V7.5186Z" fill="#F2652A"/>
<path d="M217.053 9.29242C216.997 27.5616 217.12 45.8399 216.991 64.1036C216.989 64.4502 216.858 64.7849 216.622 65.0393C214.248 67.5961 211.68 69.9809 209.241 72.4849C196.748 84.9783 184.261 97.4776 171.755 109.962C171.386 110.292 171.164 110.748 171.194 111.251C171.155 119.552 171.179 127.853 171.173 136.154C171.216 140.228 171.132 144.305 171.197 148.377C171.217 149.603 172.698 150.205 173.562 149.335C174.321 148.571 175.068 147.795 175.843 147.046C195.042 127.859 214.228 108.66 233.424 89.4706C233.924 88.9352 234.549 88.4767 234.957 87.8632C235.084 87.673 235.155 87.4503 235.171 87.2222C235.277 85.7442 235.169 84.2563 235.194 82.774C235.179 74.0632 235.192 65.3496 235.204 56.6384C235.205 55.8762 235.823 55.2581 236.585 55.2566C249.607 55.2329 262.629 55.2329 275.65 55.2566C276.415 55.2581 277.033 55.8762 277.033 56.6388C277.042 65.3556 277.063 74.0722 277.024 82.7891C276.904 84.0905 278.178 85.3861 279.489 85.2451C283.9 85.2121 288.309 85.2692 292.72 85.2421C294.043 85.4011 295.278 84.0905 295.176 82.7891C295.158 67.8906 295.173 52.9921 295.17 38.0906C295.233 34.7881 295.05 31.4718 295.233 28.1737C295.248 27.872 295.365 27.5831 295.56 27.3532C296.094 26.7255 296.73 26.1881 297.299 25.5943C302.649 20.2383 308.008 14.8901 313.352 9.52993C313.943 8.93845 313.88 7.95782 313.214 7.45415C312.933 7.23988 312.609 7.10558 312.207 7.14517C301.303 7.10314 290.396 7.13624 279.489 7.1302C278.178 7.00432 276.895 8.27882 277.021 9.58628C277.048 18.3002 277.048 27.017 277.033 35.7315C277.033 36.4935 276.415 37.1116 275.653 37.1137C262.629 37.1469 249.607 37.1371 236.584 37.1179C235.822 37.1168 235.204 36.4995 235.202 35.7375C235.181 27.725 235.177 19.7126 235.203 11.7004C235.172 10.7289 235.309 9.72685 235.097 8.77111C235.058 8.59334 234.973 8.4296 234.864 8.2835C234.417 7.68461 233.839 7.08162 233.037 7.14819C228.53 7.1302 224.02 7.11515 219.512 7.13624C218.298 6.98625 217.092 8.10176 217.053 9.29242V9.29242Z" fill="#F2652A"/>
</svg>
