<?xml version="1.0" encoding="UTF-8" standalone="no"?><!DOCTYPE svg PUBLIC "-//W3C//DTD SVG 1.1//EN" "http://www.w3.org/Graphics/SVG/1.1/DTD/svg11.dtd"><svg width="100%" height="100%" viewBox="0 0 2484 2521" version="1.1" xmlns="http://www.w3.org/2000/svg" xmlns:xlink="http://www.w3.org/1999/xlink" xml:space="preserve" xmlns:serif="http://www.serif.com/" style="fill-rule:evenodd;clip-rule:evenodd;stroke-linejoin:round;stroke-miterlimit:2;"><g><path d="M1270,3.75c19.167,1.667 37.5,12.083 48.333,29.167c4.167,9.166 8.75,18.75 8.334,30c4.583,6.25 -2.084,12.916 0.416,20c-2.083,24.583 -17.5,49.583 -41.25,60c-13.75,6.25 -28.75,9.583 -45,9.166c-8.75,2.084 -18.333,0.417 -27.5,1.667l-1.25,2.083c0.834,22.5 0.417,43.334 2.5,64.167c-0.416,17.083 1.667,30.833 2.5,47.083c-3.75,2.917 -10.833,2.5 -15.416,0.834c-13.75,-1.25 -27.084,0.833 -40.834,1.25c-1.666,0.833 -3.75,0.416 -5.416,-0c-4.584,-10.417 1.666,-20.834 -0.417,-32.5c0.833,-9.584 0,-23.75 1.667,-34.584c-0.834,-21.666 -0.834,-44.166 -1.25,-66.666l0.833,-3.334c-0,-25.416 -0,-51.666 -2.083,-77.5l-0,-27.916c-2.917,-6.667 -1.25,-15.417 -1.667,-22.917c17.083,-2.5 33.333,2.5 50.417,-0.417c18.333,-2.083 37.5,-0.833 57.083,-1.25c2.917,2.084 6.667,0 10,1.667Z" style="fill:#231f20;fill-rule:nonzero;"/><path d="M1258.33,40c5.417,7.917 7.917,16.667 8.334,26.667c2.5,7.5 -0.417,16.25 -0.417,23.75c-1.25,13.333 -8.333,28.333 -22.083,34.583c-8.75,5.417 -20,6.667 -30,6.25l-0.834,-2.083c-0.416,-24.167 -2.083,-47.5 0,-72.084c1.25,-10 -1.666,-20.416 0,-30.833c5.834,-2.5 12.917,-0 18.75,-0.833c10.417,1.25 20.417,5.416 26.25,14.583Z" style="fill:#fff;fill-rule:nonzero;"/><path d="M1572.5,50.833c18.75,4.584 36.25,9.167 55.417,12.5l1.666,2.084c-3.333,10.416 -7.083,21.25 -8.75,31.666l-1.25,0.834c-23.75,-7.084 -47.916,-16.667 -71.666,-23.75c-2.917,-0.834 -7.5,-4.167 -9.167,-0c-8.333,22.083 -12.917,44.166 -20,66.666c0.833,3.334 -5,9.167 1.25,10.417c26.25,6.25 53.333,12.5 78.75,18.333c2.083,1.25 1.25,3.75 0.833,5.417c-5.416,9.583 -5,16.667 -6.666,27.083c-2.5,2.084 -5,0 -7.084,-0.416c-25,-8.75 -49.583,-16.667 -75,-23.75c-2.916,0.416 -2.916,4.166 -3.75,6.25c-6.25,27.916 -14.166,56.25 -20.416,85c5,4.583 13.333,5 20,6.25c20,5.416 41.666,10 62.083,12.916c0.833,0.834 2.5,1.25 2.083,2.5c-4.166,10 -6.25,19.167 -7.916,30c-1.667,2.917 -4.584,1.25 -6.667,0.834c-44.583,-14.167 -88.75,-27.084 -135.417,-37.5l-0.416,-1.25c22.916,-72.084 39.583,-143.334 57.916,-217.084c2.917,-13.333 5,-25 7.5,-38.75c2.917,-2.916 6.25,0 9.167,0.417c18.333,6.667 37.083,11.25 55.417,17.5c7.5,0.833 14.583,4.167 22.083,5.833Z" style="fill:#231f20;fill-rule:nonzero;"/><path d="M966.667,43.75c1.666,3.333 -0.417,7.917 -0,12.083c-0,9.584 -1.25,18.334 -1.25,27.917c-8.75,7.5 -12.5,-7.917 -20,-10.833c-12.5,-9.167 -30.417,-10 -43.75,-3.75c-12.917,5 -24.584,18.75 -24.584,32.083c-0.416,14.167 7.917,27.083 20.834,32.917c42.5,16.666 104.166,7.5 124.166,60.416c3.75,14.167 9.167,27.917 5.834,42.5l0.416,0.834c-2.5,32.083 -28.75,60.416 -57.5,72.916c-13.333,5 -27.5,9.584 -42.083,10.834c-7.917,1.666 -17.083,0.833 -25,0.416c-5.417,-0.416 -11.25,-1.25 -15.833,-3.75c-1.667,-0.833 -1.25,-2.916 -1.25,-4.583c-0.417,-15.417 -0.417,-31.667 -2.084,-46.667c2.084,-1.666 4.584,-2.5 7.917,-2.083c7.917,13.75 21.667,25.417 36.667,27.083l16.25,0c16.25,-3.333 35.416,-11.666 40.416,-30c3.75,-16.25 -1.666,-32.916 -15.416,-42.5c-31.667,-18.333 -72.084,-10.416 -102.5,-31.666c-23.75,-17.5 -32.5,-44.584 -31.667,-73.334c1.667,-2.5 -0,-5.416 1.25,-7.916c5,-28.75 31.25,-54.167 58.333,-62.5c9.167,-4.167 20.834,-4.167 31.25,-7.084c14.167,0.834 27.917,0 39.584,6.667Z" style="fill:#231f20;fill-rule:nonzero;"/><path d="M1817.08,148.333c11.667,9.167 23.75,14.167 36.25,20c1.25,0.834 1.25,2.917 0.834,3.75c-22.084,29.584 -40,61.25 -59.584,92.084c0.834,2.5 -5,5 -0.416,6.666c15,-2.916 28.333,-9.583 42.916,-14.583c14.167,-5.417 28.334,-11.25 42.917,-15.833c17.5,-7.084 35.417,-13.75 53.333,-21.25c7.084,2.5 12.5,9.583 19.584,12.916c5.833,4.167 12.916,5.834 18.333,10l-0.417,2.084l-72.916,21.666c-22.084,5.834 -42.5,14.167 -63.75,20.834c-3.75,7.916 -1.25,15.833 -1.25,24.583c1.666,12.917 0.416,25 1.666,38.333l1.25,2.084c-1.25,16.671 0.834,32.916 1.25,48.333c0.417,4.167 -0.416,9.167 1.25,13.333c-2.083,13.75 3.334,25.834 2.084,38.75c1.666,5.834 -0,13.75 2.5,19.584c-0.417,1.25 -0.417,3.75 -2.5,3.333c-18.334,-13.75 -37.917,-25.833 -57.5,-35.417l-2.5,-2.5c-1.25,-10 -0,-20.416 -1.667,-30l-0.833,-96.666c-1.667,-3.75 -0,-8.75 -2.5,-12.084l-2.5,1.667c-18.75,32.917 -38.75,64.583 -55,98.333c-2.917,0.834 -4.584,-1.666 -6.667,-2.5c-15,-10.829 -30,-21.666 -46.667,-28.333c-1.666,-0.833 -2.5,-3.333 -0.833,-5.417c20.833,-28.75 39.583,-59.583 57.917,-90.416c25.833,-45 53.333,-88.334 77.916,-134.167c1.667,-0.417 2.917,0.833 4.584,1.25l12.916,9.583Z" style="fill:#231f20;fill-rule:nonzero;"/><path d="M645.833,148.333c44.167,74.584 91.667,149.584 139.584,221.25c0.416,1.667 1.666,2.921 0.833,4.584c-8.75,4.587 -17.5,8.754 -24.583,16.25c-8.334,-0.834 -17.084,-3.75 -25,-6.25c-69.584,-18.75 -140,-38.334 -210.834,-53.75c-1.666,-0 -1.25,2.083 -0.833,2.916c33.333,50.417 65.417,101.667 100.417,150.417l-0,0.833c-10.834,4.584 -19.167,12.084 -28.334,19.584l-1.25,-0l-10.416,-17.5l-36.25,-62.5c-29.584,-48.75 -62.084,-96.667 -95.417,-144.167l0.417,-2.083c9.583,-4.584 18.75,-10 26.666,-18.75c6.25,-0 12.084,2.5 17.917,3.75c14.167,3.333 28.75,6.666 42.5,10.833c17.917,3.75 35.417,8.75 53.333,12.917c39.584,10.833 79.584,20 119.584,30c0.833,-0 1.666,0.416 2.5,-0.834c-1.667,-7.083 -8.75,-12.916 -12.084,-19.583c-30,-42.917 -57.5,-85.833 -88.333,-128.333c-0,-2.917 3.333,-1.667 4.583,-3.334c8.75,-2.916 15.834,-10.416 23.334,-16.666l1.666,0.416Z" style="fill:#231f20;fill-rule:nonzero;"/><path d="M2175,439.167c3.75,8.75 7.083,17.5 9.167,27.083c1.25,5.833 -4.584,6.667 -7.917,8.333c-10,3.75 -18.75,9.584 -28.333,13.334c-2.084,-0.834 -3.755,-2.084 -4.584,-4.167c-1.666,-4.167 2.084,-6.25 2.5,-9.583c5.417,-13.75 2.917,-32.5 -7.083,-44.167c-9.583,-12.083 -22.5,-19.583 -37.917,-17.912c-12.083,2.495 -23.75,13.329 -26.25,24.995c-3.333,15.834 2.084,32.917 5.834,47.084c10.416,31.666 21.666,74.583 -3.334,102.916c-19.166,24.584 -47.5,35.834 -77.916,30.417c-26.25,-5 -51.25,-22.083 -68.75,-44.167c-10.834,-15 -20,-30 -23.334,-47.916l0.417,-4.584c14.167,-7.083 27.917,-15.833 41.667,-24.166c2.916,-0.417 5.416,1.666 6.25,4.166l-0,3.334c-10.417,14.166 -12.5,36.25 -3.334,51.666c5.834,10 13.334,19.584 23.75,25.417c8.75,5 21.25,7.5 30.834,2.917c12.083,-5.417 22.083,-16.667 23.75,-30c2.916,-20.834 -6.667,-38.334 -10.834,-57.917c-7.083,-22.917 -11.25,-55 2.5,-77.083c16.667,-27.084 46.25,-42.496 77.5,-39.584c32.5,2.917 60.834,31.667 75.417,59.584Z" style="fill:#231f20;fill-rule:nonzero;"/><path d="M310.833,430.417c31.25,31.25 64.584,58.75 97.084,86.666c32.5,29.167 65,56.25 99.166,81.667c1.25,1.25 2.5,2.5 1.667,4.167c-15,14.583 -27.917,30.416 -38.333,47.083l-2.917,-0.417c-61.667,-60.416 -125,-111.25 -190.833,-163.75c-3.334,-1.666 -7.5,-4.583 -8.334,-7.916c3.75,-7.5 12.5,-12.5 17.5,-19.584c7.084,-8.333 13.334,-17.083 19.167,-25.833c0.833,-2.083 3.75,-4.167 5.833,-2.083Z" style="fill:#231f20;fill-rule:nonzero;"/><path d="M1262.5,564.583c11.667,-2.083 20.833,2.5 32.917,0.417c6.666,2.5 15.416,0 22.5,1.25c4.166,0.833 10,0.417 15.416,0.417c25.417,2.5 52.917,4.166 78.75,6.666c35.417,4.167 69.167,8.75 103.334,13.334c35,7.083 70,10.833 104.166,19.583c54.167,11.25 108.75,26.667 162.084,42.917c5,2.083 8.75,2.5 13.75,4.166c42.916,14.167 84.166,30 125.416,47.084c9.167,10.833 19.584,19.583 27.084,31.25l24.166,69.583c26.25,82.083 45.417,168.75 57.084,257.083c-1.25,5.417 2.083,10 1.666,15.417c0,5.833 2.5,10.417 1.667,15.833c2.083,7.5 1.667,16.25 2.5,24.167c-0,16.667 4.583,33.75 3.75,51.25c1.667,13.333 0.833,30 1.667,44.167c2.083,8.333 -0,18.333 1.666,26.25c-0.833,7.083 0.417,15 -1.25,21.666c0,14.584 1.667,30 -0.416,43.75c1.25,9.167 -0.834,18.75 -0.834,27.917c0,8.333 -2.916,17.083 -1.25,25.417c-2.916,5.833 0.834,14.166 -2.083,20c0,11.666 -2.083,23.333 -2.917,34.583c-2.916,38.75 -10,74.167 -15.416,111.25c-7.084,32.083 -11.667,65.833 -21.25,97.917c-5.417,27.5 -15.417,55.416 -22.917,83.75c-10.833,36.666 -23.333,68.75 -35.833,104.166c-7.917,20 -15.834,40.834 -25,60.417l-2.5,1.667c-35,10.833 -69.167,25.416 -105,34.583c-47.917,15.417 -96.667,26.25 -146.25,37.083c-42.084,8.75 -84.584,17.084 -128.334,22.084c-22.916,4.166 -45.833,5.833 -69.583,7.916c-25.417,2.084 -48.333,5.834 -74.167,6.25c-7.916,1.25 -15.833,0.417 -23.75,1.25c-45.833,3.334 -90.833,3.75 -136.25,2.917c-14.583,0.833 -26.666,-2.083 -41.25,-0.833c-7.916,-2.5 -16.25,0.416 -24.166,-1.25c-5.834,-0.834 -11.667,-0 -17.084,-0.834c-12.083,-1.666 -24.583,-1.25 -36.666,-2.916c-24.167,-2.084 -47.084,-3.334 -70.834,-6.25c-16.25,-2.084 -32.083,-4.584 -48.75,-6.667c-8.333,-0.417 -17.083,-2.083 -25.416,-3.333c-32.5,-5.417 -66.25,-9.584 -97.5,-17.5c-35.417,-7.084 -69.584,-14.584 -103.334,-24.584c-49.166,-12.916 -98.333,-28.75 -145.416,-47.5c-15,-5.416 -30,-11.666 -44.584,-17.083c-7.916,-8.333 -15.416,-16.667 -21.25,-26.667c-15.416,-27.916 -22.916,-58.333 -32.916,-87.5c-8.334,-26.25 -16.667,-52.916 -22.5,-80.416c-7.917,-28.334 -12.917,-53.75 -18.334,-82.5c-2.916,-15.834 -5.416,-31.667 -7.916,-47.5c-3.334,-24.167 -7.084,-46.25 -8.334,-70.834c-1.666,-20.416 -5.416,-39.583 -4.583,-61.25c-2.917,-10.833 0.833,-23.333 -2.083,-34.583c-1.25,-31.25 -0.417,-65 -0,-97.917c-0,-11.25 2.083,-21.25 1.25,-32.916c1.666,-8.334 -0,-17.084 1.666,-25.834c0.417,-9.583 2.084,-18.333 2.5,-28.333c1.25,-32.917 7.917,-66.667 11.667,-100c6.667,-39.167 12.917,-80 23.333,-119.167c8.334,-40.416 20.834,-79.166 32.5,-117.916c10,-35.834 25.834,-69.584 37.917,-104.584c7.917,-19.166 15.833,-37.916 25,-57.083l2.917,-2.083c38.75,-12.917 77.083,-28.334 117.916,-38.75c42.917,-14.584 87.917,-22.084 131.667,-33.334c38.75,-6.666 78.333,-15 117.5,-20c19.167,-2.083 37.083,-5 56.667,-6.666c12.083,-2.5 24.583,-2.5 37.083,-3.75c16.667,-1.25 32.083,-2.917 49.167,-4.167c6.666,-0.417 14.583,1.25 20.416,-1.25c14.167,0.833 27.917,-2.083 42.5,-1.667c28.75,0 62.917,-1.25 91.25,-0.833l5.417,0.833Z" style="fill:#231f20;fill-rule:nonzero;"/><path d="M1242.92,612.917c8.75,0.833 17.083,-1.25 25.833,0.833c9.583,-1.667 18.333,2.083 27.917,0.833c4.166,4.167 10.416,-1.25 15,1.667l25,-0l-0,0.417c2.5,0.833 6.25,1.25 8.75,-0c3.333,2.083 7.5,-0 11.25,1.666c5,-0.833 10.416,2.5 15.416,1.25c3.75,0.417 7.917,2.917 11.25,0.834c3.334,2.083 10,0.416 13.75,2.5c1.25,-1.667 3.75,-0.417 5.417,-0c6.667,0.833 12.917,-0.834 19.167,2.083c2.916,-2.083 5.416,0.417 8.333,0.417c7.917,-0.417 14.583,2.5 22.083,2.5c3.334,0.416 7.5,1.666 10.834,1.666c0.416,0.834 0.833,2.084 1.666,1.25c1.25,-1.666 3.75,-0.416 5,0c8.334,0.417 16.25,3.334 24.584,3.334c1.666,-0 5,-0 6.666,1.666c7.917,-0.416 14.167,2.5 21.25,3.334l0,-0.417c7.5,3.333 16.25,0.833 23.75,4.583c8.75,-1.25 14.584,6.25 24.584,3.75c8.333,3.334 17.916,2.917 26.666,6.25c3.75,-0.833 7.917,2.917 12.5,2.5c0.417,1.25 2.5,1.25 4.167,1.25c5.417,-1.666 10,5 15.833,3.334c4.167,0.833 7.917,1.666 12.5,2.916c1.25,1.25 3.334,1.667 4.584,0.834c3.333,2.083 7.5,2.5 11.25,2.916l1.25,0c0.833,2.5 3.75,0 5.416,1.25c2.917,0.417 4.167,2.084 6.25,2.5c5.417,0.834 10,1.667 15,3.334c8.334,2.916 17.5,4.166 25.834,7.916c7.083,-1.25 10.833,5 17.5,4.584c2.5,0.416 5.833,0.833 7.5,2.916c6.666,0.417 13.75,1.667 19.166,5.834c2.5,2.083 5.417,-0 8.334,1.666c10,2.917 22.5,6.25 32.5,12.084c8.333,0.416 16.666,4.166 24.583,7.5c5.833,-1.25 7.5,5.416 12.917,5c5,3.75 11.666,2.5 16.666,6.25c3.334,1.666 6.667,4.583 10.834,3.75c2.916,0.833 7.083,1.666 9.166,4.583c7.5,2.917 15.417,2.083 20.834,9.167l3.75,0.416c-0.417,2.084 2.083,3.75 3.333,5.834l1.25,-0l4.167,11.25c2.083,3.333 2.083,7.5 3.75,10.833c1.666,2.5 3.75,5.833 2.5,8.333c5,9.584 7.083,19.167 10,28.75c3.75,5.417 1.666,12.084 6.666,16.667c1.25,6.25 0.417,13.75 4.584,18.333c1.25,6.667 2.083,12.917 5,18.334c0.833,5.416 3.333,9.583 3.75,15c2.083,7.5 4.583,15.833 6.666,23.75l0,7.083c7.917,5.833 2.084,15.417 7.084,22.083c-0.417,4.167 0.833,8.334 2.916,11.25c0.834,3.334 -0.833,6.25 -0.416,9.584l1.666,0.416c-1.666,2.917 1.25,5.417 2.084,8.334c0.833,4.583 0.416,9.583 2.916,13.333c-1.666,4.583 3.75,7.5 3.334,12.083c-0.417,5.417 0.416,10 0.833,15c3.333,5 -0.417,10.417 2.917,15c1.25,5 2.083,9.167 1.25,14.167c4.583,4.583 1.666,11.25 4.166,16.25c1.667,3.333 -1.666,4.583 0,7.917c1.667,3.333 0.834,7.916 3.75,11.25c-1.666,5 1.25,9.166 0.834,13.75c4.583,12.083 1.25,25 5.416,36.666c-2.083,4.167 1.667,12.917 -5,12.084c-2.916,-0.417 -7.083,-0.417 -10,1.25c-7.5,-1.667 -15.416,0.833 -22.916,-0.834c-6.25,0.834 -12.5,2.084 -18.75,2.5l-5.834,0c-13.75,-1.25 -27.083,1.25 -40.833,-0.416c-13.333,3.75 -27.917,0.416 -41.667,2.916c-2.083,-1.666 -4.166,0.834 -6.666,0c-11.667,-1.666 -22.084,4.167 -33.75,0.834c-7.917,0.833 -15,0.416 -22.5,1.666c-7.917,-1.25 -16.25,0.417 -23.334,0l-0.416,-0.416c-19.167,0.833 -36.25,3.75 -55,2.5c-4.167,0.416 -7.917,-0 -11.667,-0.834c-0.417,1.667 -2.5,1.25 -3.75,0.834c-1.667,-0.834 -2.917,-2.5 -2.083,-4.584c-0.834,-3.333 -2.917,-8.75 -4.584,-12.916c-1.666,-11.25 -6.25,-21.667 -10.416,-32.084c-0.417,-4.583 -2.917,-8.75 -3.334,-13.75c-5.416,-3.75 -5.416,-9.583 -7.916,-14.583c-3.334,-5.833 -7.5,-11.667 -8.75,-18.75c-2.084,-2.917 -4.584,-6.25 -6.25,-10c-0.834,-5 -6.25,-8.333 -6.25,-13.75c-6.667,-6.667 -11.25,-15.833 -16.667,-24.167c-8.75,-3.333 -7.083,-12.916 -12.917,-18.75c-2.083,-0.416 -3.333,-2.5 -4.166,-4.583c-8.75,-7.083 -13.75,-16.667 -20.834,-24.167c0.417,0 0,-0.833 0,-1.25c-5.833,-3.333 -9.166,-9.166 -15,-13.333c-2.083,-6.25 -8.333,-8.75 -12.5,-13.333c-3.75,-5 -10.416,-5.417 -12.916,-11.25c-4.584,-2.5 -4.167,-7.084 -10,-7.917c-7.084,-5 -12.5,-12.917 -20.834,-15.833c-2.083,-1.25 -1.25,-4.584 -3.75,-3.75l0,-1.667c-7.916,-1.667 -13.333,-8.333 -19.166,-13.333c-0.417,-0 -0.417,0.416 -0,0.416c-10.417,-5.416 -21.25,-10.833 -30,-17.916c-5,-1.25 -9.167,-2.917 -12.917,-5.834c-13.75,-5.833 -26.25,-12.916 -39.583,-18.75c-5,-1.25 -9.584,-3.333 -13.75,-6.25c-5.417,0.417 -10,-4.583 -15.834,-4.583c-5.416,-2.083 -11.666,-1.667 -16.666,-5c-6.667,-0.833 -13.334,-1.667 -19.167,-4.167l-13.75,-4.166c-4.167,0.416 -7.5,-1.25 -12.083,-0.834c-10,-0.416 -19.584,-3.333 -28.75,-4.166c-5.417,1.666 -10.417,-2.917 -15,-0.417c-7.084,-2.083 -15,0 -21.667,-2.083c-3.75,1.666 -8.75,-0.417 -12.917,1.25c-3.333,-0.417 -6.666,1.666 -10,-0c-4.583,1.666 -9.583,1.666 -15,2.5c-4.166,-0.834 -8.333,2.5 -12.916,0.833c-12.5,2.5 -24.584,2.083 -37.084,5.417c-13.75,2.5 -27.916,3.75 -42.083,5.416c-3.333,2.5 -7.083,2.5 -10.833,2.917c-17.917,4.167 -34.167,10.833 -52.5,13.333c-5,1.667 -10.417,2.5 -15,3.334c-10.834,2.916 -22.084,4.583 -32.5,7.916c-12.084,-0.416 -21.667,6.667 -33.75,7.084c-7.917,-0 -15.834,2.5 -23.334,2.916c-0.833,1.667 -2.916,1.25 -4.166,0.834c-2.5,-1.25 -5,2.083 -7.917,1.666c-6.25,2.917 -14.583,2.084 -21.667,4.584c-5.416,2.083 -8.75,0.833 -14.166,2.5c-5.417,2.5 -11.667,1.25 -17.084,4.166c-8.333,2.084 -17.5,2.5 -25,6.25c-16.666,2.917 -32.083,4.167 -47.5,9.584c-5.833,-0.417 -11.666,1.666 -16.666,4.166c-8.334,1.25 -16.25,4.167 -24.584,3.75c-6.666,1.667 -12.5,4.584 -19.166,5.417c-7.917,3.333 -16.667,2.917 -25,5.833c-4.167,0.417 -7.917,2.917 -12.084,2.084c-8.333,2.083 -16.25,5.416 -25,6.666c-7.083,3.334 -15,2.084 -22.5,5c-5.833,0.834 -11.25,1.667 -17.5,2.5c-2.916,3.334 -6.666,0 -9.166,3.334c-5,-0 -8.75,1.25 -12.917,1.25c-2.083,1.25 -4.583,1.666 -7.083,1.25c-6.25,2.916 -12.917,0.833 -18.334,4.583c-7.5,4.583 -17.083,0.417 -25,4.583c-7.916,1.25 -16.666,2.084 -24.166,3.75c-2.917,-2.916 0.416,-7.083 1.25,-9.583c0.833,-1.25 0.416,-2.917 2.5,-3.75c1.25,-5 2.5,-7.5 3.75,-12.917c0.833,-4.583 2.5,-9.166 3.75,-13.75c2.083,-0.416 -0,-3.333 1.666,-4.166c0.834,-5.417 3.75,-10.834 5,-16.25c0.417,-4.584 2.5,-7.5 3.334,-12.5c0.833,-2.5 3.75,-2.917 2.916,-5.834c0.834,0.417 1.25,-0.416 0.834,-0.833l-0,-0.833c2.083,-0.417 -0.417,-0.834 -0,-2.084c2.5,-5.833 3.75,-12.083 6.666,-17.5c-0.833,-0.833 -0.416,-2.916 0,-4.166c5,-3.75 2.5,-10 6.667,-14.584c-1.667,-0.833 0,-2.916 0.417,-4.166c3.75,-3.334 1.666,-9.167 5.416,-12.917c3.334,-6.25 3.334,-12.917 8.334,-18.75c-1.25,-1.25 0.416,-2.083 0.833,-2.917c1.667,-3.333 -0.833,-7.916 2.917,-10c1.25,-1.25 2.5,-1.25 1.666,-3.75l0.834,0c-1.667,-2.083 2.083,-2.083 0.833,-5c0.417,-0.833 2.083,-1.25 1.667,-2.916c1.25,-0.834 -0,-2.917 1.25,-4.584c2.5,-2.083 1.25,-6.25 3.75,-7.916l-0,-1.25c0.416,0.416 1.25,-0 0.833,-0.834l-0,-0.416c0.417,-0 0.833,-0.417 0.833,-0.834l0,-0.833c0.834,-0 2.084,-0 1.25,-1.25c-1.666,-2.917 2.5,-3.333 1.667,-6.25l0.417,0c-0.834,-2.083 0.833,-4.167 1.25,-5.833c8.75,-7.917 21.25,-7.917 31.25,-13.334c6.666,0 11.25,-5.416 18.333,-5.416c8.333,-4.584 18.333,-5.417 26.667,-10.417c3.333,0 5.416,-3.333 8.75,-4.167c5.833,-2.083 12.916,-0.416 18.333,-4.166c13.333,-2.917 25.833,-7.917 39.167,-10.417c1.666,-1.25 3.75,-0.417 5.416,-1.25c12.917,-1.25 23.75,-8.75 36.667,-9.583c8.75,-2.917 18.75,-2.917 26.667,-8.334c7.916,-2.083 16.666,-0.416 23.75,-4.583c12.083,-1.667 25,-5.417 37.916,-6.667c8.334,-4.583 18.334,-2.083 27.084,-5c8.333,-1.25 16.666,-2.916 25,-3.75c17.083,-1.666 33.333,-7.5 51.25,-5.416c2.083,-1.667 4.583,-1.667 7.083,-0.834c6.25,-2.916 12.917,-0.416 19.167,-2.916c4.166,-0.417 9.583,0.416 13.333,-1.667c2.5,1.25 6.25,1.25 8.333,-0.417l0,-0.416c4.996,0.416 10.417,-0.417 14.167,-0.417c3.333,0.417 7.083,-0.417 10.417,-1.25c10,-0.417 19.583,-2.083 30,-2.083c1.666,-1.667 3.333,-0 5.416,-0.834c3.334,-0.833 7.5,-2.916 10.834,-0.416c8.333,-2.084 16.25,0.416 24.583,-1.25c20,-2.917 41.25,-0.417 61.667,-2.084c12.5,0.417 25,-0.416 37.5,0.834Z" style="fill:#008457;fill-rule:nonzero;"/><path d="M2306.25,624.167c6.667,18.333 17.5,34.583 28.333,51.25l-0.416,1.25c-72.084,34.583 -140,76.25 -209.584,116.25c-18.75,9.166 -40.416,13.75 -61.666,9.166c-21.25,-4.583 -39.584,-22.916 -53.75,-40.416c-0.417,-1.25 -0.417,-2.5 -0,-3.334c5,-3.75 7.5,-10.416 13.75,-12.083c9.166,5 17.083,13.333 29.166,11.667c16.667,-3.334 30.834,-12.917 46.246,-20c69.171,-37.084 136.671,-76.25 203.754,-117.5c2.084,-0.417 3.334,2.083 4.167,3.75Z" style="fill:#231f20;fill-rule:nonzero;"/><path d="M1581.67,650.417l0.416,-0l-0.416,-0Z" style="fill:#231f20;fill-rule:nonzero;"/><path d="M244.167,684.583c10,12.084 11.25,27.917 13.75,42.917c-2.5,5 -0,11.667 -2.084,17.083c-0.416,1.667 1.25,4.584 3.75,4.584c7.5,-1.667 16.25,-0.834 23.75,-2.5c6.667,-0.417 12.917,-1.667 19.584,-2.084c32.5,-3.75 64.583,-8.333 96.666,-12.916l5.834,0.416c-0.417,6.667 -6.25,12.084 -7.917,18.334c-7.917,13.75 -14.167,28.333 -19.167,42.916c-6.25,6.25 -16.666,1.667 -23.75,5c-11.25,-0.833 -20.833,1.667 -31.666,1.25c-7.084,1.667 -15.417,0.417 -22.084,2.084c-10.833,-1.667 -20.416,2.5 -30.833,0.833c-3.333,0.833 -6.667,2.083 -10,0.833c-7.083,0 -12.917,1.667 -19.583,2.084c-1.667,0.833 -1.667,2.5 -0.417,2.916c18.333,10 37.083,19.167 55.833,27.084c16.667,7.083 32.917,15 50,21.25c4.584,2.916 -0.833,6.666 -1.25,9.583c-9.583,15.833 -16.666,31.25 -21.666,48.75c-1.25,1.667 -2.917,1.667 -4.167,1.25c-60.833,-35.833 -125.833,-64.583 -189.167,-94.583c-15.416,-7.084 -31.254,-13.334 -46.25,-20.834c0.834,-5.833 5,-10 7.5,-15.416c9.167,-15.417 14.584,-32.5 21.667,-48.75c13.75,-30.834 29.167,-76.25 70.833,-79.167c20,-2.083 36.667,6.25 51.25,17.5l9.584,9.583Z" style="fill:#231f20;fill-rule:nonzero;"/><path d="M208.333,727.917c12.084,9.166 24.167,21.25 23.334,37.5c1.25,11.666 -3.75,22.916 -8.75,32.916l-2.5,0.417l-73.75,-36.667l-14.584,-7.5c-0.833,-5.833 3.334,-10.833 5.834,-16.25c6.666,-10 14.166,-22.5 27.5,-23.75c16.666,-0.833 29.583,5.834 42.916,13.334Z" style="fill:#fff;fill-rule:nonzero;"/><rect x="616.25" y="743.333" width="0.417" height="0.417" style="fill:#231f20;fill-rule:nonzero;"/><path d="M1264.58,828.333c12.917,-0.833 25.834,1.667 38.75,2.5c26.667,5 52.084,10.834 77.084,19.584c63.75,22.083 120.833,59.166 171.25,112.083c34.583,35.833 61.25,77.083 80.416,120.833c7.5,20.417 14.584,37.917 19.167,58.75c-7.5,3.75 -15,7.084 -21.667,12.5c-10,7.5 -17.083,17.084 -24.166,27.084c-3.334,4.166 -6.667,8.75 -10.834,11.25c-2.083,-2.917 -2.083,-7.084 -2.083,-11.25l0.833,-0.834c-2.083,-1.25 -0.833,-3.75 -1.666,-5.833l-5,-24.583c-6.667,-24.167 -16.25,-45.834 -27.917,-67.917c-34.167,-60.833 -92.5,-119.583 -154.583,-151.667c-21.25,-12.083 -44.167,-19.583 -67.084,-27.5c-22.5,-6.25 -45.416,-10 -70,-11.25c-7.5,-1.25 -15.833,0 -22.916,-1.666c-10.417,2.083 -23.334,0.416 -34.167,2.5c-18.333,0.833 -36.667,6.25 -54.167,9.166c-32.083,7.5 -62.083,21.667 -91.25,36.667c-26.666,15 -50.416,34.167 -73.75,55.833l-2.5,1.25c-49.583,50 -85.416,108.334 -103.75,172.084c-7.916,27.916 -12.083,58.333 -15,87.916c1.25,10.834 -1.666,22.5 -0.416,33.75c1.25,11.667 1.666,25.417 2.916,36.25c3.334,25.417 7.917,52.084 16.25,75c3.75,11.667 8.334,23.75 13.334,35c33.75,73.334 98.75,141.25 172.5,178.334l27.916,13.75c29.167,11.666 61.667,20.416 94.167,25c7.917,0.416 16.25,1.666 24.583,2.5c15,-0.834 30.417,-0.417 45.834,-0.834c46.25,-6.25 90,-18.75 131.25,-38.333c15,-7.917 29.166,-15.833 43.75,-25c1.25,-0.417 1.666,1.25 1.666,2.5c-5.416,26.25 -8.75,49.583 -13.333,75.833c-8.333,5.834 -17.917,9.167 -26.667,13.75c-42.083,17.5 -86.666,28.334 -134.166,30.834l-49.167,0.833c-3.75,-1.25 -8.75,-0.833 -12.5,-1.25c-26.667,-1.667 -52.917,-6.667 -78.333,-12.917c-33.334,-7.5 -64.584,-20.416 -94.588,-36.25c-68.746,-36.25 -131.662,-98.333 -169.996,-166.25c-8.333,-16.246 -17.5,-32.083 -23.75,-48.75c-19.166,-42.083 -26.666,-88.333 -33.333,-135c1.25,-16.25 -2.917,-32.5 -0.417,-48.75c0.417,-7.083 -0.833,-14.166 1.25,-20.833c0,-7.5 0.417,-15 1.667,-22.5c4.583,-44.167 16.667,-85.833 32.083,-125.833c7.917,-18.75 18.334,-36.667 27.917,-54.167c19.167,-31.667 43.75,-61.667 70,-89.583c69.167,-66.25 151.25,-110.834 245,-121.667c18.75,-2.917 38.333,-4.583 57.917,-4.167c7.5,0.834 14.583,-0.833 21.666,1.25Z" style="fill:#fff;fill-rule:nonzero;"/><path d="M2371.67,885.833c55.416,22.917 84.583,80.834 87.5,137.5c3.75,40.417 -5.834,78.75 -34.584,108.334c-22.083,21.666 -50.416,33.333 -79.583,37.916c-19.167,2.917 -39.167,2.5 -57.083,-2.5c-53.334,-12.083 -94.167,-64.166 -102.917,-115.833c-4.167,-12.5 -2.917,-25.417 -5,-38.333c0,-7.917 1.667,-15 1.667,-22.5c2.5,-39.167 25.833,-78.75 62.5,-96.25c21.666,-11.25 44.583,-17.917 69.583,-18.75c5,-2.084 9.583,1.25 15.417,-0c14.583,0.833 29.583,4.583 42.5,10.416Z" style="fill:#231f20;fill-rule:nonzero;"/><path d="M967.917,882.917c-6.667,8.333 -17.5,13.333 -25.834,20.833c-14.166,13.333 -29.166,25 -42.5,40c-40.416,44.583 -72.916,95 -95,148.75c-9.583,26.667 -19.166,52.083 -24.166,80c-5,17.917 -7.5,37.083 -9.584,55.833c-2.5,27.5 -2.916,55 -2.5,83.75c1.667,9.584 2.084,20.417 3.75,29.167c4.167,30.833 11.667,60.833 20.417,89.167c7.083,18.75 13.75,37.916 23.333,56.25c15.834,32.5 34.584,62.916 57.917,92.083c16.667,21.25 36.25,40.833 55.833,60.833l0.417,1.25c-12.5,-0.833 -23.333,-5 -35.417,-7.916c-53.75,-14.584 -112.083,-27.084 -167.083,-42.084c-42.917,-12.083 -85.417,-21.666 -128.333,-35.416c-7.084,-1.25 -13.75,-3.75 -20.834,-5.834c-16.666,-5 -35.416,-8.75 -52.083,-14.166c-3.75,-2.084 -1.25,-6.667 -3.333,-9.584c-2.5,-20 -6.667,-40.416 -9.584,-61.25c-2.916,-22.5 -4.166,-46.25 -7.504,-69.166c0,-7.917 0,-14.584 -1.246,-21.667c0.834,-11.25 -0.416,-22.5 -1.25,-33.333l-0.416,-42.5c1.25,-10 0.416,-21.667 0.416,-32.5c-0.833,-7.917 1.667,-16.667 0.834,-24.584c0.833,-14.583 1.662,-27.916 2.916,-42.5c1.25,-25.833 5,-50.833 7.084,-76.25c7.5,-49.583 15.416,-96.666 25.416,-145.416c3.334,-2.5 8.334,-2.917 12.5,-3.75c111.25,-24.584 220,-50.417 331.25,-73.334c26.667,-5.833 54.167,-11.666 80.834,-17.083l3.75,0.417Z" style="fill:#fff;fill-rule:nonzero;"/><path d="M2427.08,983.333c8.75,19.584 10,45.834 -0.416,65.417c-7.5,20.417 -28.75,33.75 -46.25,43.333c-17.5,7.917 -37.084,12.084 -56.667,14.584c-12.917,2.5 -29.167,2.083 -40.833,0.416c-27.917,-3.333 -55.834,-19.166 -67.917,-45.833c-3.75,-11.25 -8.333,-22.083 -7.917,-35.417c2.084,-2.916 0,-6.666 0.834,-10.416c3.333,-17.917 12.083,-35 27.916,-45.834c25,-18.333 55,-25.833 85.417,-30.416c26.25,-4.167 52.083,1.25 75.417,12.083c12.083,7.5 25,18.333 30.416,32.083Z" style="fill:#fff;fill-rule:nonzero;"/><path d="M32.5,1006.67c6.667,6.666 10.833,14.166 17.083,20c5.834,0.416 8.75,-6.25 13.75,-8.334c17.917,-11.25 37.084,-16.666 59.584,-17.916c5.833,-1.25 14.166,-1.667 20.416,-0c51.25,-0 102.5,35.833 120,84.166c12.084,26.667 13.334,60.417 9.167,90.834c-3.333,24.166 -11.25,47.5 -25,68.75c-1.667,3.75 -7.5,7.083 -4.583,11.666c10.833,11.667 21.666,24.167 31.25,37.084c-3.75,5.833 -10.417,8.75 -14.584,14.166l-1.666,-0.416c-10.417,-11.25 -20,-23.334 -30,-35c-1.25,-1.25 -3.334,-2.5 -5,-0.834c-19.584,16.25 -42.084,23.75 -67.5,25.834c-2.5,1.666 -5.834,-0.417 -8.334,0.416c-8.75,2.084 -15.833,-2.5 -24.166,-0.416c-30,-3.75 -57.917,-15.834 -80.834,-37.917c-2.5,-4.167 -7.5,-8.333 -10.416,-12.083c-17.5,-25 -30,-49.167 -28.334,-82.084c0,-14.166 -0.416,-27.083 -0.416,-41.25c4.583,-28.333 12.916,-54.583 31.25,-77.916l-0,-2.084c-10.417,-12.916 -22.5,-25.416 -32.5,-38.75c1.666,-4.583 6.666,-5.833 10,-10c2.083,-1.25 4.166,-5.833 7.083,-3.75c6.25,4.167 8.75,10.834 13.75,15.834Z" style="fill:#231f20;fill-rule:nonzero;"/><path d="M1048.75,1015.42c6.25,2.916 14.167,4.583 20.417,8.75c8.333,1.25 15.833,5.833 24.166,7.5c10,4.166 20.417,8.333 30.834,11.666c7.916,0 13.333,6.667 20.833,7.5c2.917,2.917 6.25,2.5 9.583,3.75c5,2.917 11.25,2.5 15.834,5.834c12.083,6.666 26.25,8.75 38.75,14.583c4.583,2.083 10,3.333 13.75,5.833c8.75,1.25 16.666,6.25 25.416,8.334c3.75,1.666 7.917,2.083 11.25,5.416c5,-1.25 7.917,4.167 12.5,3.334c4.167,2.5 9.167,3.333 13.334,5.416c7.916,1.667 14.583,5.834 22.083,7.5c6.667,1.667 11.667,7.084 19.167,7.5c8.333,6.25 19.583,5.417 27.916,12.084c4.584,-1.25 6.667,4.583 11.25,2.916c15,6.667 30.834,12.5 46.667,17.5c17.083,7.5 35,12.5 52.083,20.834c5.417,1.25 9.584,6.25 15.834,6.25c5.416,1.666 10,5.833 16.25,6.666c7.916,3.334 14.583,5 21.666,10c4.167,0.834 8.75,2.917 13.334,3.75c5.833,2.917 12.083,5.417 18.75,7.5c2.5,2.917 6.666,2.084 9.166,5c5.834,2.084 14.167,2.5 17.5,9.167c0.834,2.083 2.5,-0 3.334,2.083c-2.5,6.667 -8.75,12.5 -8.75,19.584c-2.917,7.083 -3.334,16.25 -5,23.75c-0,2.916 -0,3.333 0.833,6.25c-0.417,4.166 0,6.666 -0.417,10.416c2.5,12.084 1.25,27.5 5.834,38.75c0.833,4.584 2.916,8.75 2.916,12.917c-0.833,0.833 -2.083,0.833 -2.5,0c-5.833,6.667 -16.25,5.417 -22.916,9.583c-4.167,1.667 -8.75,2.917 -12.5,2.5c-2.5,0.834 -4.584,3.334 -7.084,3.75c-13.333,5.417 -27.083,7.917 -40,14.167c-4.166,1.667 -9.583,1.25 -13.333,4.167c-10.833,2.916 -21.25,7.5 -32.083,10c-3.334,2.5 -7.917,2.5 -12.084,4.583c-5.416,0.417 -9.166,4.167 -14.166,4.583c-10.417,4.167 -21.667,6.667 -31.667,11.667c-7.083,2.917 -14.167,4.583 -20.833,7.5c-6.667,0.417 -12.917,3.75 -18.75,6.667c-6.667,0.833 -12.917,4.583 -20,4.166c-7.917,5.417 -17.084,5 -25,9.584c-8.75,3.333 -17.917,5.416 -25.834,10c-3.75,-1.25 -6.666,2.083 -10,2.5c-16.25,5 -31.25,11.666 -47.916,15.833c-19.584,6.254 -38.75,16.25 -58.75,19.167c-11.25,5.837 -24.167,8.333 -35.834,12.916l0,-0.416c-12.5,5.416 -25.833,9.583 -39.166,13.75c-2.5,1.666 -6.25,1.666 -8.75,2.5c-8.75,4.166 -19.167,6.25 -27.504,9.166l-2.084,1.667l-15.412,4.167c-2.917,3.333 -8.75,2.083 -12.084,5c-3.75,-0.834 -8.333,1.25 -10,-3.334c-3.75,-4.166 -9.166,-6.666 -11.666,-11.666c-1.25,-2.5 -5.834,-2.917 -5.834,-6.25c-2.5,-1.667 -4.583,-3.334 -5.833,-5.834c-1.25,-2.916 -5,-2.916 -5.833,-6.25c-4.167,-2.916 -4.584,-9.166 -10,-11.662c-11.25,-12.5 -17.084,-27.921 -27.084,-40.838c-2.916,-7.5 -7.5,-14.583 -10.416,-21.666c-6.25,-13.334 -10,-27.5 -15,-41.25c-2.084,-14.167 -6.667,-26.25 -8.334,-40c-2.083,-11.667 -2.916,-25.834 -4.166,-38.334c0.416,-2.5 -0.417,-4.166 -0.834,-6.666c1.667,-16.25 -0.416,-32.084 2.084,-48.334l0.833,-0.833c-0.417,-6.25 0.417,-13.333 2.083,-19.583c0.834,-6.25 0.417,-15.417 3.334,-22.5c2.083,-4.167 0.416,-9.167 2.5,-13.334c1.666,-7.083 2.916,-13.333 6.25,-20c1.25,-7.5 3.75,-15 6.666,-22.083c2.5,-6.25 5.417,-12.083 8.334,-18.333c2.916,-2.084 2.5,-7.084 6.25,-9.584c2.5,-7.5 7.083,-14.166 11.25,-21.25c4.166,-1.666 3.75,-6.666 6.25,-10c2.083,-3.75 7.5,-5 7.5,-10c11.666,-13.333 20.833,-27.916 35,-40.416c2.083,-3.334 5,-6.667 8.75,-8.75c7.5,-4.584 10.833,-20 21.666,-14.584c4.584,2.917 10.417,3.75 15.417,5.834Z" style="fill:#ffdf1b;fill-rule:nonzero;"/><path d="M1961.67,1039.17l-0,-0.834l-0,0.834Z" style="fill:#231f20;fill-rule:nonzero;"/><path d="M213.75,1090.42c14.167,10.833 26.667,24.583 31.667,40.833c8.75,28.333 1.25,56.25 -17.084,77.917c-4.583,3.75 -9.166,7.5 -14.583,10.416l-2.5,-1.25c-40.833,-50 -84.167,-99.166 -124.583,-147.916c-0.834,-0.417 -0.417,-1.25 -0.417,-2.084c8.75,-3.333 19.167,-3.75 27.917,-5c36.25,0.417 70.833,7.5 99.583,27.084Z" style="fill:#fff;fill-rule:nonzero;"/><path d="M67.083,1082.08c40,48.75 81.667,97.5 122.5,145c0,2.917 -3.333,2.917 -5.416,3.334c-12.5,2.5 -25,2.916 -37.917,1.666l-0.417,0.834c-45.416,-2.917 -90,-15.834 -114.166,-58.334c-8.75,-17.5 -8.334,-40.833 -1.255,-58.333c4.588,-10.833 10.421,-21.25 20.421,-30c5,-2.083 10.834,-12.5 16.25,-4.167Z" style="fill:#fff;fill-rule:nonzero;"/><path d="M1990,1174.17c0,10 -0.417,16.666 1.25,26.25c-0,8.333 -0.417,17.916 1.25,26.25c0,10 0.833,21.666 -0.833,31.666c-0,16.667 1.666,33.75 -0.417,50c0.417,10 -0.833,19.584 -0.833,28.334c-1.25,5.416 0.833,11.25 -1.667,16.25c1.25,5.833 -1.25,11.25 -0.833,16.666c-1.667,10.834 -1.25,24.167 -3.75,35c-6.25,2.084 -12.917,-0.833 -19.584,-1.25c-35.416,-1.25 -70.833,-7.083 -106.666,-9.166c-5.417,-0.417 -10.834,-2.084 -15.834,-1.25c-5,-2.084 -11.25,-0 -16.25,-2.084c-24.166,-1.666 -48.333,-3.75 -72.5,-6.25c-10.833,-0.416 -21.666,-1.666 -32.083,-1.666c-6.25,-1.667 -12.917,-0.417 -19.167,-2.084c-7.5,0.417 -14.583,-0.833 -22.083,-1.25c-8.75,-0.416 -16.25,-1.666 -25.417,-1.666c-5.416,-1.25 -12.083,0.833 -17.083,-1.667c-14.167,-20 -23.333,-43.333 -26.667,-67.917c-1.666,-11.666 -1.666,-23.333 -0.833,-35.416c2.917,-24.584 10,-47.917 27.917,-67.084c7.5,-7.083 14.166,-15.833 22.5,-21.666c14.166,-0.417 29.583,-1.667 43.333,-3.334c7.917,-1.25 16.667,0.417 24.583,-2.083c7.917,1.25 14.167,-1.667 21.667,-1.667c6.25,0 14.167,1.25 20,-1.25c10.833,0.417 18.75,0.834 29.167,-1.25c12.083,0.417 24.583,0.834 35.833,-0.833c51.667,-0.833 100.417,-0.833 150.833,-2.5c1.667,0 4.167,0.417 4.167,2.917Z" style="fill:#fff;fill-rule:nonzero;"/><path d="M2414.58,1336.25c20.834,3.333 42.084,5.833 64.167,7.917c2.917,-0 2.917,3.333 2.5,5c-3.333,9.583 -4.167,20 -4.583,30.416c-4.167,4.584 -10,6.667 -14.584,10.417c-61.25,41.25 -123.333,82.5 -185,123.333c-0.833,1.25 -2.5,2.084 -1.25,3.334c26.25,7.083 55.417,6.666 82.084,12.916c2.916,0.834 6.666,1.667 10,1.25c27.083,4.167 54.166,8.75 82.5,10.834c2.916,1.666 0.833,5.416 0.416,7.916c-2.916,8.334 -3.333,17.5 -3.75,25.834c-2.5,2.916 -6.25,-0.417 -9.166,0.416c-46.25,-9.583 -94.167,-20 -141.25,-27.5c-12.084,-1.25 -24.167,-4.166 -36.667,-5.833c-25.417,-4.167 -49.167,-7.5 -74.167,-11.667c0,-5.416 2.917,-10.416 3.75,-15.416c1.667,-6.25 -3.333,-15.417 3.75,-18.75c66.25,-41.667 132.5,-85 197.5,-129.167c1.667,-1.667 4.167,-2.5 5,-4.583l-1.666,-2.084c-54.584,-9.583 -110.417,-17.916 -165,-24.166c-4.584,-2.084 -10.834,1.25 -14.167,-3.334c2.917,-10.833 5,-22.5 5.417,-34.583l2.916,-0.417c62.084,15.834 127.5,26.667 191.25,37.917Z" style="fill:#231f20;fill-rule:nonzero;"/><path d="M265.417,1389.58c2.5,21.667 7.5,41.667 14.166,60.834c2.084,7.916 -6.666,12.083 -11.25,17.5c-27.916,27.5 -58.333,53.333 -85.833,80.833c-0.833,1.25 -2.083,3.333 -0.417,4.167c10.834,-0.834 20.834,-4.167 30.834,-7.084c28.333,-7.083 56.25,-15.833 83.75,-23.75c3.75,7.917 2.5,18.334 5,27.084c3.333,10.416 5.416,22.5 10,32.916c-0,1.667 -1.667,2.917 -2.917,3.75c-51.667,7.917 -100.833,22.5 -150.833,33.75c-2.917,-0.833 -4.584,1.667 -7.5,2.084c-31.25,7.5 -62.5,16.25 -92.917,25.416c-5.417,-0.833 -1.667,-6.25 -3.333,-9.583c-6.25,-38.333 -22.084,-74.583 -26.25,-113.333c-0.417,-6.25 -0.417,-13.75 1.25,-18.75c1.666,-20.417 18.333,-39.996 37.5,-47.084c8.75,-2.916 18.333,-4.583 28.333,-5c2.917,1.667 6.25,0 9.583,0.834c22.5,2.916 41.667,21.25 52.084,40.833c0.416,1.25 1.666,0.833 2.5,0.417c33.333,-32.08 63.75,-66.667 95,-98.75c2.5,-2.917 7.5,-12.917 11.25,-7.084Z" style="fill:#231f20;fill-rule:nonzero;"/><path d="M1328.33,1405.42l1.25,-0l-1.25,-0Z" style="fill:#231f20;fill-rule:nonzero;"/><path d="M1722.08,1428.33c22.917,6.667 47.917,21.667 58.75,45c26.667,49.584 39.584,104.167 45.417,162.084c2.917,18.333 2.5,37.083 2.917,56.666c1.666,5.834 1.666,13.75 -0,19.584l0.416,29.166c-1.666,6.25 0.417,14.584 -1.666,20.834c-0.417,12.083 -0.834,24.166 -2.5,36.25c0.416,7.916 -0.417,13.75 -0.834,21.25c-1.666,9.583 1.667,18.75 -5.833,25.416c-7.083,7.084 -17.083,7.5 -25.833,10.834c-16.667,2.083 -32.084,8.333 -47.5,14.166l-0.834,-0.833c2.084,-17.5 5.834,-33.75 8.75,-51.667c1.667,-14.583 4.167,-29.583 5.417,-44.583c-0.417,-11.667 3.75,-23.333 2.083,-35.833c2.917,-10.834 0,-20.834 1.667,-31.667c1.667,-7.5 -2.083,-14.167 -1.667,-21.25c-0.833,-6.667 -0.833,-14.167 -2.5,-20.417c-3.333,-50.416 -14.583,-98.333 -28.75,-144.583c-10.833,-30.417 -24.583,-60.833 -42.083,-89.167c-2.917,-2.5 -4.167,-6.666 -6.25,-10l0.833,-1.25c13.75,2.084 27.084,5 40,10Z" style="fill:#fff;fill-rule:nonzero;"/><path d="M1629.17,1437.92c35,32.5 54.166,75.833 65.416,120c5,25.833 11.25,52.916 15,79.166c0.417,5 -0.833,9.584 1.25,14.584c-0.416,9.583 -3.75,18.75 0,27.5c0.834,5 -0.833,11.25 1.667,15c0.417,5.833 -0.833,12.5 0.833,17.5c1.667,20 0.417,41.25 -0.416,61.666c-1.25,4.167 -0.417,9.584 -0.834,13.334c-3.333,24.583 -5.833,49.166 -13.75,72.916c-1.25,7.084 -3.75,15 -5.833,22.5c-3.333,2.5 -7.917,2.917 -12.5,3.334c-40,7.916 -81.667,16.666 -122.5,22.5c-22.083,3.333 -44.167,5.833 -65.833,9.166c-4.167,-1.25 -2.917,-7.5 -4.167,-11.25c-2.917,-20 -6.667,-39.166 -9.167,-58.75c-3.333,-29.166 -8.333,-57.916 -7.5,-87.5c-1.25,-24.583 -2.083,-52.916 -0.416,-77.5c2.5,-31.666 6.666,-62.5 12.916,-92.083c10.417,-39.583 24.167,-77.5 46.25,-112.5c7.084,-7.5 12.5,-16.667 19.167,-24.583l23.333,-22.917c15.417,-6.25 35,-6.25 50,1.667l7.084,6.25Z" style="fill:#fff;fill-rule:nonzero;"/><path d="M1882.92,1441.25c18.333,2.5 36.25,4.167 54.166,6.667c13.75,1.666 26.25,2.5 40,4.583c7.917,5.417 0.417,14.583 0.834,21.667c-13.334,73.75 -31.25,147.916 -52.5,217.916c-15,44.584 -29.584,88.75 -49.584,130.834c-0.416,0.416 -0.833,1.25 -1.25,1.666c-2.916,-4.166 0.417,-10.833 -0.833,-16.25c2.083,-6.666 0,-14.583 2.5,-21.25c-0.417,-7.5 0.417,-15.833 0.417,-23.75c-0,-6.25 -1.25,-15.416 0.833,-22.5c0,-25.416 -2.083,-50.833 -3.333,-76.25c-1.25,-4.583 -0.417,-10 -2.084,-15c-1.25,-28.333 -8.333,-51.25 -12.5,-78.75c-4.583,-16.666 -8.75,-31.666 -13.333,-48.75c-10.833,-28.75 -22.083,-60 -38.333,-88.333c-0.417,-0.833 -0.417,-2.5 1.25,-2.917c24.583,2.917 48.75,7.917 73.75,10.417Z" style="fill:#fff;fill-rule:nonzero;"/><path d="M156.25,1535.42c3.75,6.25 6.25,13.75 6.667,21.25l-2.084,2.083c-32.5,6.667 -62.504,15 -95,21.667c-2.083,0.416 -2.5,-2.084 -2.916,-3.334c-3.334,-16.25 -8.75,-38.75 5.416,-51.25c18.334,-11.25 41.25,-19.166 63.334,-12.916c10,3.333 20.416,12.083 24.583,22.5Z" style="fill:#fff;fill-rule:nonzero;"/><path d="M540.833,1580c11.25,3.333 23.334,3.75 34.167,8.333c9.167,1.667 18.75,2.084 26.667,6.25c6.666,0.834 12.083,5 18.75,5c14.166,4.584 30.833,5.834 45,10.834c15.416,4.166 30,10 46.25,12.083l17.5,6.25c0.416,1.667 1.25,0.417 2.5,0.417c5.416,2.916 11.666,2.083 16.666,5.833c2.917,0.417 6.667,0.417 9.584,1.667c2.083,2.916 5,-0.834 6.666,2.083c32.084,5.417 61.25,18.75 93.334,24.167c18.75,5.833 37.083,11.666 56.666,15.416c8.75,3.75 18.75,3.75 27.084,8.334c5.833,0.833 10.833,4.166 17.083,5c4.583,-0.834 10,3.333 14.583,2.916c4.584,-0.833 7.084,4.584 11.667,2.917c4.167,3.75 9.583,-0.417 13.333,4.583c4.584,-0.833 8.334,2.917 13.334,1.667c8.75,2.917 18.746,4.167 27.5,8.333c4.166,-1.666 7.912,2.5 12.916,1.25c4.167,1.667 9.167,2.084 13.334,4.584c6.25,1.666 12.5,1.666 18.75,3.75c5.416,0.416 9.166,2.916 14.583,3.75c3.75,1.666 9.583,0.416 12.917,2.916c19.583,2.917 37.916,8.334 56.666,11.25c7.917,3.75 16.667,3.334 25.417,5.417c10,2.917 21.667,1.667 32.083,3.333c18.334,-0.833 38.75,1.25 57.5,-1.666c6.25,1.666 11.667,-0.417 18.334,-0c2.5,-2.5 6.25,-0.834 9.583,-1.667c5.833,-2.5 12.917,-0.417 18.333,-3.333c5.417,0.833 10.834,-2.084 16.25,-2.5c4.584,-3.334 11.667,-0.834 16.25,-4.584c7.5,-2.916 15.417,-3.75 22.917,-6.666c5,1.666 6.25,-5 10.833,-2.917c4.167,-1.25 7.084,-5.417 12.084,-6.25c3.75,-2.5 8.333,-4.583 12.5,-8.333c2.083,0.416 4.583,-2.917 6.666,-0c0.417,11.666 0,23.75 -0.416,35c2.083,8.333 -0.834,19.166 2.5,27.5c0.833,4.583 -0.417,9.583 1.666,13.75c-1.666,9.583 1.25,19.166 0.834,29.166c1.666,7.5 0.833,16.25 3.333,23.334c1.25,8.75 1.25,17.5 3.75,25.416c-0,2.917 1.667,5.834 0.417,8.334c2.916,4.166 1.666,10.416 5,15c-1.25,2.5 0.416,5 1.25,7.083c1.25,6.667 1.666,13.75 4.166,19.583c-0.416,2.5 0.417,6.25 -1.25,7.917c-4.166,0.833 -7.916,0.417 -11.666,1.667c-6.25,0.833 -12.084,1.666 -18.334,2.916c-8.333,0.417 -16.25,1.667 -25,3.334l-82.5,-0c-1.25,1.25 -3.333,-0.417 -5.416,-0c-2.084,0.416 -5.417,-0.834 -7.084,0.416c-2.916,-1.25 -7.5,0.417 -11.25,-0.416c-1.666,1.666 -5.416,-0.834 -7.916,0.833c-0.417,-1.667 -2.917,-0.417 -4.167,-0.833l-0.417,0.833c-2.5,0.833 -5,-1.667 -7.5,0.417l-0.416,-1.25c-10.834,-0.417 -22.5,-0.417 -33.75,0.416c-6.667,-2.083 -9.584,1.667 -16.25,0.417c-6.25,0 -12.5,-1.667 -18.334,-0.417c-10.833,-1.25 -21.25,-1.25 -32.083,-1.666c-13.75,0.416 -27.917,-3.334 -42.917,-2.084l0,-0.416c-19.166,-1.25 -38.333,-2.084 -57.083,-6.25c-6.667,0.833 -12.5,-0.834 -18.75,-2.5c-4.587,0.833 -9.583,-2.084 -14.583,-0.834c-2.917,-0.416 -5.417,-1.25 -8.334,-1.25c-2.916,-2.5 -7.916,0.417 -11.666,-1.25c-2.084,-1.666 -4.167,0 -6.25,-0.833c-12.917,-1.25 -22.084,-4.583 -35,-5c-5.417,0.417 -10.834,-1.25 -16.25,-2.5l-0,-0.417c-4.584,0.834 -8.334,-3.75 -12.084,-1.666c-4.166,-1.25 -6.666,-1.25 -11.25,-2.084c-4.166,0 -8.75,-0.416 -12.083,-2.5c-12.5,0 -23.75,-5.416 -36.25,-5.833c-7.5,-2.917 -16.25,-3.333 -24.167,-5.417c-5,-1.666 -11.25,-1.25 -15.416,-4.166c-6.25,-1.25 -12.5,-2.084 -17.917,-4.167c-9.167,-0 -17.5,-3.75 -26.25,-5.417c-12.5,-4.166 -25.833,-7.083 -37.917,-12.083c-2.5,-0.417 -5,-2.5 -7.5,-1.667c-10.416,-4.583 -22.083,-5.833 -33.333,-9.166c-7.083,-2.917 -14.583,-5 -22.083,-6.667c-3.334,-3.75 -8.75,-2.917 -12.084,-5.833c-11.666,-2.084 -20.833,-8.75 -31.666,-11.25c-3.334,-2.917 -9.167,-1.25 -12.084,-5c-12.5,-2.084 -24.583,-10.834 -37.5,-13.75c-2.916,-2.084 -7.916,-2.5 -8.75,-7.084c0,-3.75 -2.916,-7.5 -4.166,-11.25c1.25,-2.916 -2.084,-3.75 -2.5,-6.25c-2.5,-7.916 -5.417,-16.666 -8.75,-23.75c-1.667,-9.583 -7.5,-15.416 -8.334,-25.416c-3.333,-4.584 -2.5,-11.667 -5.833,-16.25c0.833,-3.334 -1.25,-5 -2.5,-7.084c-2.083,-5.833 -2.083,-12.5 -5.833,-17.916c-1.667,-6.667 -3.334,-14.584 -4.584,-21.25l0.417,-0.417c-0.417,-0.417 -0.833,-0 -1.667,-0.417c1.25,-5.416 -4.166,-8.333 -2.916,-13.75c-1.667,-2.083 -1.25,-5.416 -2.917,-7.083c1.25,-2.917 -2.083,-4.167 -2.083,-6.667c-0,-8.333 -4.167,-15.416 -3.75,-23.333c-0.417,-3.333 -3.75,-5.417 -3.334,-9.167l0.417,0c-2.917,-5.833 -5,-12.5 -5,-19.166c-1.25,-4.167 -2.5,-8.334 -2.917,-12.917c2.084,-2.083 5.417,-0.417 7.5,-0.833l2.5,0.833Z" style="fill:#008457;fill-rule:nonzero;"/><path d="M1591.67,1657.92c6.666,14.583 6.666,32.916 9.583,48.333c0.417,12.5 -0.833,25.833 0.833,37.917c0,11.666 -1.666,21.666 -2.5,32.916c0,15.834 -3.333,32.084 -5.416,47.917c-1.25,2.5 -3.75,4.167 -6.25,5c-5,1.25 -8.334,-2.083 -12.084,-4.167c-7.5,-17.083 -10,-37.5 -11.25,-57.5c-1.666,-10 -1.25,-22.5 0,-31.666c1.667,-26.25 5.417,-51.667 12.084,-76.25c1.25,-2.084 3.333,-4.584 6.25,-5c2.916,0.416 6.666,-0 8.75,2.5Z" style="fill:#231f20;fill-rule:nonzero;"/><path d="M355,1827.08c6.667,20.834 5.417,47.5 -8.333,64.584c-17.5,22.5 -45.834,30.416 -72.917,22.5c-20.833,-5.834 -40.833,-27.917 -44.167,-49.584c-5.416,-24.166 3.75,-46.25 20.417,-62.5c19.583,-17.5 50.417,-22.5 73.333,-9.583c14.167,7.083 26.667,20.417 31.667,34.583Z" style="fill:#231f20;fill-rule:nonzero;"/><path d="M2237.5,1817.92c12.083,18.333 14.167,48.333 2.083,67.5c-10.416,18.333 -29.166,31.25 -48.75,33.333c-19.583,2.5 -37.5,-3.333 -50.837,-15.417c-18.75,-14.166 -23.329,-36.666 -22.079,-59.166c2.5,-22.5 19.583,-45 41.666,-52.5c5.834,-2.084 12.5,-2.917 18.75,-4.167c23.334,-0.833 46.667,10 59.167,30.417Z" style="fill:#231f20;fill-rule:nonzero;"/><path d="M1925.42,1978.33c4.583,9.584 13.333,16.25 19.166,24.584c-5,6.666 -12.916,10.004 -18.75,15.416c-16.25,10.834 -32.083,23.75 -47.5,35.834c0,4.166 3.75,7.5 6.25,11.25c13.75,17.083 27.5,35.416 42.084,52.5l2.083,-0c20.833,-17.917 40,-37.084 60.833,-55c1.25,-0.834 2.917,-0 3.75,1.25c5.417,6.666 8.334,15 16.25,19.166c2.084,1.667 4.167,3.75 2.5,6.25c-22.916,15 -44.166,31.667 -65.416,50c-1.667,2.5 1.666,5.417 2.916,7.5c18.334,20.834 34.167,42.5 53.75,62.917c2.917,5.417 6.25,-1.25 9.584,-2.083c13.333,-11.25 26.25,-23.75 39.166,-36.25c5.417,-5.834 10.834,-12.084 17.084,-17.084l2.083,0.417c5.417,9.167 12.5,17.083 20,24.583c-0.417,4.167 -4.583,5.834 -7.5,7.917c-35.833,27.5 -71.667,56.25 -105,87.5l-1.667,-0.417c-45.416,-61.25 -97.083,-122.5 -147.916,-181.25c-7.5,-6.666 -12.917,-13.75 -19.584,-20.833l0.834,-2.917c36.25,-25.833 70.833,-54.579 104.166,-86.25c3.75,-0.833 6.667,-7.916 10.834,-5Z" style="fill:#231f20;fill-rule:nonzero;"/><path d="M571.25,1995.42c4.167,3.333 8.333,5.416 12.917,7.916c3.333,10.834 1.666,25.834 4.583,36.667c-2.083,8.75 3.333,14.167 0.833,22.917c2.084,7.916 0.417,15 2.5,22.5c2.084,26.25 4.584,54.166 6.667,81.25c-0.417,7.5 1.25,13.75 1.667,21.25c-0.417,9.583 2.5,16.666 2.083,26.666c1.667,10 1.667,20.417 4.167,30c1.666,0 4.583,-2.083 5.416,-4.166c33.334,-45.834 67.5,-90 100,-136.25c1.667,-1.25 3.334,0.416 4.584,1.25c6.25,7.916 13.75,13.333 22.083,17.5c1.667,0.833 1.25,2.916 1.25,3.75c-56.667,65.416 -110.833,133.75 -161.667,202.916c-5,2.5 -7.083,-5.416 -11.25,-7.5c-4.583,-4.583 -10.833,-6.25 -15.833,-10.416c0,-13.334 -2.083,-24.584 -1.667,-38.334c-2.083,-7.916 0,-17.916 -2.083,-25.833c-1.25,-15.833 -2.917,-31.25 -2.917,-47.083c-1.666,-25 -4.583,-50.417 -6.666,-76.25c-0.417,-12.5 -2.5,-23.75 -2.917,-37.084c-2.083,-6.25 0.417,-14.583 -4.167,-19.166c-9.166,6.666 -13.333,17.083 -21.25,25.416c-29.583,38.75 -58.333,77.084 -85.833,117.084c-0.833,1.25 -2.917,0.833 -3.75,-0c-7.083,-8.75 -16.25,-14.167 -25.417,-19.584c-0.833,-0.833 -0.833,-2.5 0,-3.333c49.584,-55.417 95.834,-112.917 138.334,-171.25c7.5,-10.417 14.583,-21.667 22.916,-32.083c0.834,-0 2.084,-0.834 3.334,-0l12.083,11.25Z" style="fill:#231f20;fill-rule:nonzero;"/><path d="M1714.58,2154.58c8.334,1.667 5.417,12.917 6.25,19.584c0,7.5 3.334,13.75 2.5,21.25c-0.416,1.666 -2.5,2.5 -3.75,3.333c-4.583,-0.417 -8.333,-3.75 -12.5,-5.833c-11.666,-5.417 -24.583,-8.75 -37.916,-9.167c-32.084,2.083 -64.167,18.75 -79.167,49.583c-8.75,17.5 -11.25,35 -10.417,55.834c0.834,2.916 0,7.5 0.834,10.833c6.666,43.75 34.166,97.083 83.75,106.667c28.75,6.25 55.833,-6.667 79.583,-20.417c1.667,-2.917 5.417,-3.333 6.667,-6.667l-0.834,-5.833c-9.583,-26.667 -22.5,-52.083 -34.166,-77.917c-0,-2.916 2.916,-2.083 4.583,-3.333c17.917,-3.75 33.75,-13.333 50.833,-20.417c2.917,7.084 4.584,15.834 7.917,22.084c8.75,25.833 19.167,50.416 30.417,75.416c0.416,4.584 -5,6.25 -7.917,8.75c-46.667,35 -96.25,64.167 -157.5,62.084c-45.833,-0 -87.917,-27.5 -107.917,-68.334c-12.5,-29.166 -20,-66.25 -11.666,-100.416c4.583,-17.5 10.416,-35 24.166,-48.75c5,-7.084 13.334,-14.167 19.584,-20.834c32.916,-27.5 70.833,-42.916 112.5,-47.5c10.416,-1.666 22.916,-0.416 34.166,0Z" style="fill:#231f20;fill-rule:nonzero;"/><path d="M1000.42,2222.08c37.916,17.084 70.416,54.167 75.833,95.417c1.667,2.917 0.417,7.083 1.25,10.417c2.5,13.333 -1.25,25.833 -2.5,39.166c-5.417,21.25 -12.083,42.084 -25.417,59.584c-24.166,32.083 -58.75,49.583 -96.666,53.75c-4.167,-0 -8.334,-0.417 -12.084,0.416l-0.416,-0.416c-35.834,1.671 -68.334,-10.417 -97.084,-27.084c-32.916,-20 -56.666,-52.916 -59.583,-90.833c-1.667,-6.667 -0.833,-15.417 -0.833,-23.333c2.916,-40.834 19.166,-80 52.916,-106.25c22.917,-18.75 51.667,-27.084 80.834,-28.75c29.583,-0.417 57.916,5.833 83.75,17.916Z" style="fill:#231f20;fill-rule:nonzero;"/><path d="M1007.92,2269.17c14.583,26.666 11.666,65.416 2.083,91.666c-6.667,22.917 -16.667,45.417 -33.75,63.75c-17.083,18.75 -39.583,28.75 -65.833,27.5c-27.917,-3.333 -56.25,-21.666 -63.334,-50.416c-6.666,-21.667 -4.583,-47.917 0.834,-67.917c8.75,-41.25 35.416,-90.417 81.25,-101.667c19.583,-4.583 38.75,1.667 55,11.667c10,5.833 18.333,16.25 23.75,25.417Z" style="fill:#fff;fill-rule:nonzero;"/><path d="M1348.33,2257.08c19.167,8.334 34.167,27.084 35.834,47.5c3.75,25.417 -3.334,51.25 -25,67.084c-7.917,5.416 -16.25,9.583 -25,12.916c-2.5,2.084 -0,4.584 0.833,6.667c25,39.583 53.333,78.333 80.833,116.667c0.417,1.25 -0.833,2.5 -2.083,2.5c-14.583,0.833 -28.75,-0.417 -43.333,1.666l-0.834,-0.416c-6.666,1.666 -13.333,2.083 -20,2.5l-2.083,-0.834c-14.583,-23.75 -30,-47.083 -43.75,-71.666c-10,-13.75 -16.667,-29.584 -27.917,-43.334c-0.416,-0.416 -1.25,0 -1.666,0c-0.834,3.334 -1.25,7.5 -0.834,11.25l0.834,0.834c-0.417,5.837 -0.834,11.666 1.25,17.5c-1.25,8.333 0.416,17.083 0.416,26.25c1.667,18.75 4.167,37.083 5.834,55.416c0.416,2.917 1.666,7.084 -1.667,8.334c-3.75,1.25 -7.917,0.416 -11.667,-0.417c-15.833,-2.5 -32.083,3.333 -48.333,2.5c-2.5,-12.917 0.417,-25.833 -0.833,-39.583c-1.25,-16.667 -0.417,-35 -2.084,-50.834c0.417,-16.25 -1.666,-31.25 -1.666,-47.083c-2.5,-8.333 0.833,-18.75 -2.5,-26.667c-0,-8.333 1.25,-17.916 -1.25,-25.416c-0.417,-12.917 -1.25,-23.75 -2.084,-37.084c-1.666,-9.583 -2.083,-20.416 -3.75,-30.416c-0.416,-1.25 0,-2.917 0.834,-3.75c7.5,-2.084 16.666,-0.417 24.583,-1.25c12.917,0.833 24.167,-2.084 36.667,-2.917c13.333,-0.833 27.916,-2.5 42.083,-2.5c12.917,-0.417 26.667,-0 38.333,4.583Z" style="fill:#231f20;fill-rule:nonzero;"/><path d="M1321.67,2296.25c4.166,11.667 5.833,24.583 5,38.333c0.416,14.584 -7.5,30 -20.417,38.334c-9.583,5 -20.417,8.333 -32.083,6.666c-2.917,-2.916 -2.917,-7.5 -2.5,-11.666c1.25,-17.084 -2.917,-33.334 -1.667,-51.25c-2.083,-11.25 -0.417,-24.584 -1.25,-36.246c2.083,-3.754 7.5,-1.671 11.25,-3.754c16.25,1.25 35,2.5 41.667,19.583Z" style="fill:#fff;fill-rule:nonzero;"/><path d="M2266.3,2172.21c44.637,0.216 80.821,36.4 80.821,81.037c-0,44.633 -36.184,80.817 -80.821,80.817c-44.633,-0 -80.817,-36.184 -80.817,-80.817c0,-44.637 36.184,-81.037 80.817,-81.037Zm-46.367,128.487c25.567,26 67.388,26 92.738,-0c26,-26.433 26,-68.683 -0,-95.121c-25.35,-25.783 -67.171,-25.783 -92.738,0c-12.35,12.783 -19.5,29.904 -19.5,47.671c0,17.767 7.15,34.667 19.5,47.45Zm17.117,-94.687l29.033,-0c11.7,0.216 16.688,1.516 22.104,5.633c4.767,3.466 8.017,8.667 9.317,14.954c3.467,16.25 -3.683,27.733 -17.766,31.85c-0.65,-0 -1.305,0.217 -1.738,0.433l26.004,39.65l-22.1,0l-26.004,-41.816l0,41.816l-18.85,0l0,-92.52Zm26,43.12c8.883,0 14.083,-4.116 15.6,-10.833c2.171,-10.183 -3.683,-16.904 -14.95,-16.904l-7.8,-0l0,27.737l7.15,0Z" style="fill:#231f20;fill-rule:nonzero;"/></g></svg>